G75*
%MOIN*%
%OFA0B0*%
%FSLAX25Y25*%
%IPPOS*%
%LPD*%
%AMOC8*
5,1,8,0,0,1.08239X$1,22.5*
%
%ADD10OC8,0.07000*%
%ADD11OC8,0.07600*%
%ADD12C,0.00300*%
%ADD13C,0.03543*%
%ADD14C,0.01200*%
D10*
X0008650Y0050339D03*
X0008650Y0060339D03*
X0008650Y0070339D03*
X0008650Y0080339D03*
X0008650Y0090339D03*
X0008650Y0100339D03*
X0008650Y0110339D03*
X0008650Y0120339D03*
X0008650Y0130339D03*
X0008650Y0140339D03*
X0098650Y0140339D03*
X0098650Y0130339D03*
X0098650Y0120339D03*
X0098650Y0110339D03*
X0098650Y0100339D03*
X0098650Y0090339D03*
X0098650Y0080339D03*
X0098650Y0070339D03*
X0098650Y0060339D03*
X0098650Y0050339D03*
D11*
X0098650Y0040339D03*
X0098650Y0030339D03*
X0098650Y0020339D03*
X0008650Y0020339D03*
X0008650Y0030339D03*
X0008650Y0040339D03*
D12*
X0002800Y0014489D02*
X0002800Y0106439D01*
X0006540Y0106439D01*
X0006890Y0106089D01*
X0010410Y0106089D01*
X0010760Y0106439D01*
X0096540Y0106439D01*
X0096890Y0106089D01*
X0100410Y0106089D01*
X0100760Y0106439D01*
X0104421Y0106439D01*
X0104421Y0014489D01*
X0002800Y0014489D01*
X0002800Y0014630D02*
X0104421Y0014630D01*
X0104421Y0014928D02*
X0002800Y0014928D01*
X0002800Y0015227D02*
X0104421Y0015227D01*
X0104421Y0015525D02*
X0002800Y0015525D01*
X0002800Y0015824D02*
X0104421Y0015824D01*
X0104421Y0016122D02*
X0002800Y0016122D01*
X0002800Y0016421D02*
X0104421Y0016421D01*
X0104421Y0016719D02*
X0002800Y0016719D01*
X0002800Y0017018D02*
X0104421Y0017018D01*
X0104421Y0017316D02*
X0002800Y0017316D01*
X0002800Y0017615D02*
X0104421Y0017615D01*
X0104421Y0017914D02*
X0002800Y0017914D01*
X0002800Y0018212D02*
X0104421Y0018212D01*
X0104421Y0018511D02*
X0002800Y0018511D01*
X0002800Y0018809D02*
X0104421Y0018809D01*
X0104421Y0019108D02*
X0002800Y0019108D01*
X0002800Y0019406D02*
X0104421Y0019406D01*
X0104421Y0019705D02*
X0002800Y0019705D01*
X0002800Y0020003D02*
X0104421Y0020003D01*
X0104421Y0020302D02*
X0002800Y0020302D01*
X0002800Y0020600D02*
X0104421Y0020600D01*
X0104421Y0020899D02*
X0002800Y0020899D01*
X0002800Y0021197D02*
X0104421Y0021197D01*
X0104421Y0021496D02*
X0002800Y0021496D01*
X0002800Y0021794D02*
X0104421Y0021794D01*
X0104421Y0022093D02*
X0002800Y0022093D01*
X0002800Y0022391D02*
X0104421Y0022391D01*
X0104421Y0022690D02*
X0002800Y0022690D01*
X0002800Y0022988D02*
X0104421Y0022988D01*
X0104421Y0023287D02*
X0002800Y0023287D01*
X0002800Y0023585D02*
X0104421Y0023585D01*
X0104421Y0023884D02*
X0002800Y0023884D01*
X0002800Y0024182D02*
X0104421Y0024182D01*
X0104421Y0024481D02*
X0002800Y0024481D01*
X0002800Y0024779D02*
X0104421Y0024779D01*
X0104421Y0025078D02*
X0002800Y0025078D01*
X0002800Y0025376D02*
X0104421Y0025376D01*
X0104421Y0025675D02*
X0002800Y0025675D01*
X0002800Y0025973D02*
X0006581Y0025973D01*
X0006765Y0025789D02*
X0010535Y0025789D01*
X0013200Y0028454D01*
X0013200Y0032223D01*
X0010535Y0034889D01*
X0006765Y0034889D01*
X0004100Y0032223D01*
X0004100Y0028454D01*
X0006765Y0025789D01*
X0006282Y0026272D02*
X0002800Y0026272D01*
X0002800Y0026570D02*
X0005984Y0026570D01*
X0005685Y0026869D02*
X0002800Y0026869D01*
X0002800Y0027167D02*
X0005387Y0027167D01*
X0005088Y0027466D02*
X0002800Y0027466D01*
X0002800Y0027764D02*
X0004790Y0027764D01*
X0004491Y0028063D02*
X0002800Y0028063D01*
X0002800Y0028361D02*
X0004193Y0028361D01*
X0004100Y0028660D02*
X0002800Y0028660D01*
X0002800Y0028958D02*
X0004100Y0028958D01*
X0004100Y0029257D02*
X0002800Y0029257D01*
X0002800Y0029555D02*
X0004100Y0029555D01*
X0004100Y0029854D02*
X0002800Y0029854D01*
X0002800Y0030152D02*
X0004100Y0030152D01*
X0004100Y0030451D02*
X0002800Y0030451D01*
X0002800Y0030750D02*
X0004100Y0030750D01*
X0004100Y0031048D02*
X0002800Y0031048D01*
X0002800Y0031347D02*
X0004100Y0031347D01*
X0004100Y0031645D02*
X0002800Y0031645D01*
X0002800Y0031944D02*
X0004100Y0031944D01*
X0004119Y0032242D02*
X0002800Y0032242D01*
X0002800Y0032541D02*
X0004417Y0032541D01*
X0004716Y0032839D02*
X0002800Y0032839D01*
X0002800Y0033138D02*
X0005014Y0033138D01*
X0005313Y0033436D02*
X0002800Y0033436D01*
X0002800Y0033735D02*
X0005611Y0033735D01*
X0005910Y0034033D02*
X0002800Y0034033D01*
X0002800Y0034332D02*
X0006208Y0034332D01*
X0006507Y0034630D02*
X0002800Y0034630D01*
X0002800Y0034929D02*
X0104421Y0034929D01*
X0104421Y0035227D02*
X0002800Y0035227D01*
X0002800Y0035526D02*
X0104421Y0035526D01*
X0104421Y0035824D02*
X0100570Y0035824D01*
X0100535Y0035789D02*
X0103200Y0038454D01*
X0103200Y0042223D01*
X0100535Y0044889D01*
X0096765Y0044889D01*
X0094100Y0042223D01*
X0094100Y0038454D01*
X0096765Y0035789D01*
X0100535Y0035789D01*
X0100869Y0036123D02*
X0104421Y0036123D01*
X0104421Y0036421D02*
X0101167Y0036421D01*
X0101466Y0036720D02*
X0104421Y0036720D01*
X0104421Y0037018D02*
X0101764Y0037018D01*
X0102063Y0037317D02*
X0104421Y0037317D01*
X0104421Y0037615D02*
X0102361Y0037615D01*
X0102660Y0037914D02*
X0104421Y0037914D01*
X0104421Y0038212D02*
X0102958Y0038212D01*
X0103200Y0038511D02*
X0104421Y0038511D01*
X0104421Y0038809D02*
X0103200Y0038809D01*
X0103200Y0039108D02*
X0104421Y0039108D01*
X0104421Y0039406D02*
X0103200Y0039406D01*
X0103200Y0039705D02*
X0104421Y0039705D01*
X0104421Y0040003D02*
X0103200Y0040003D01*
X0103200Y0040302D02*
X0104421Y0040302D01*
X0104421Y0040600D02*
X0103200Y0040600D01*
X0103200Y0040899D02*
X0104421Y0040899D01*
X0104421Y0041197D02*
X0103200Y0041197D01*
X0103200Y0041496D02*
X0104421Y0041496D01*
X0104421Y0041794D02*
X0103200Y0041794D01*
X0103200Y0042093D02*
X0104421Y0042093D01*
X0104421Y0042391D02*
X0103032Y0042391D01*
X0102734Y0042690D02*
X0104421Y0042690D01*
X0104421Y0042988D02*
X0102435Y0042988D01*
X0102136Y0043287D02*
X0104421Y0043287D01*
X0104421Y0043585D02*
X0101838Y0043585D01*
X0101539Y0043884D02*
X0104421Y0043884D01*
X0104421Y0044183D02*
X0101241Y0044183D01*
X0100942Y0044481D02*
X0104421Y0044481D01*
X0104421Y0044780D02*
X0100644Y0044780D01*
X0100410Y0046089D02*
X0102900Y0048578D01*
X0102900Y0052099D01*
X0100410Y0054589D01*
X0096890Y0054589D01*
X0094400Y0052099D01*
X0094400Y0048578D01*
X0096890Y0046089D01*
X0100410Y0046089D01*
X0100594Y0046272D02*
X0104421Y0046272D01*
X0104421Y0045974D02*
X0048694Y0045974D01*
X0048992Y0046272D02*
X0096706Y0046272D01*
X0096408Y0046571D02*
X0050410Y0046571D01*
X0050402Y0046567D02*
X0051328Y0046951D01*
X0052038Y0047660D01*
X0052422Y0048587D01*
X0052422Y0049590D01*
X0052038Y0050517D01*
X0051328Y0051227D01*
X0050402Y0051610D01*
X0049398Y0051610D01*
X0048472Y0051227D01*
X0047762Y0050517D01*
X0047378Y0049590D01*
X0047378Y0048587D01*
X0047411Y0048509D01*
X0044569Y0045667D01*
X0036340Y0045667D01*
X0038412Y0047739D01*
X0040230Y0047739D01*
X0040262Y0047660D01*
X0040972Y0046951D01*
X0041898Y0046567D01*
X0042902Y0046567D01*
X0043828Y0046951D01*
X0044538Y0047660D01*
X0044922Y0048587D01*
X0044922Y0049590D01*
X0044538Y0050517D01*
X0043828Y0051227D01*
X0042902Y0051610D01*
X0041898Y0051610D01*
X0040972Y0051227D01*
X0040262Y0050517D01*
X0040230Y0050439D01*
X0037293Y0050439D01*
X0036172Y0049317D01*
X0036172Y0049590D01*
X0035788Y0050517D01*
X0035078Y0051227D01*
X0035000Y0051259D01*
X0035000Y0057148D01*
X0034209Y0057939D01*
X0022959Y0057939D01*
X0012610Y0068288D01*
X0012900Y0068578D01*
X0012900Y0072099D01*
X0010410Y0074589D01*
X0006890Y0074589D01*
X0004400Y0072099D01*
X0004400Y0068578D01*
X0006890Y0066089D01*
X0010410Y0066089D01*
X0010701Y0066379D01*
X0015391Y0061689D01*
X0012900Y0061689D01*
X0012900Y0062099D01*
X0010410Y0064589D01*
X0006890Y0064589D01*
X0004400Y0062099D01*
X0004400Y0058578D01*
X0006890Y0056089D01*
X0010410Y0056089D01*
X0012900Y0058578D01*
X0012900Y0058989D01*
X0015545Y0058989D01*
X0021095Y0053439D01*
X0027391Y0053439D01*
X0028550Y0052280D01*
X0028550Y0049350D01*
X0026211Y0051689D01*
X0012900Y0051689D01*
X0012900Y0052099D01*
X0010410Y0054589D01*
X0006890Y0054589D01*
X0004400Y0052099D01*
X0004400Y0048578D01*
X0006890Y0046089D01*
X0010410Y0046089D01*
X0012900Y0048578D01*
X0012900Y0048989D01*
X0025093Y0048989D01*
X0030323Y0043758D01*
X0031114Y0042967D01*
X0044112Y0042967D01*
X0044341Y0042739D01*
X0045459Y0042739D01*
X0046250Y0043530D01*
X0049320Y0046600D01*
X0049398Y0046567D01*
X0050402Y0046567D01*
X0051131Y0046869D02*
X0096109Y0046869D01*
X0095811Y0047168D02*
X0051545Y0047168D01*
X0051843Y0047466D02*
X0095512Y0047466D01*
X0095214Y0047765D02*
X0052081Y0047765D01*
X0052205Y0048063D02*
X0094915Y0048063D01*
X0094617Y0048362D02*
X0052328Y0048362D01*
X0052422Y0048660D02*
X0094400Y0048660D01*
X0094400Y0048959D02*
X0052422Y0048959D01*
X0052422Y0049257D02*
X0094400Y0049257D01*
X0094400Y0049556D02*
X0052422Y0049556D01*
X0052312Y0049854D02*
X0094400Y0049854D01*
X0094400Y0050153D02*
X0052189Y0050153D01*
X0052065Y0050451D02*
X0094400Y0050451D01*
X0094400Y0050750D02*
X0051805Y0050750D01*
X0051507Y0051048D02*
X0094400Y0051048D01*
X0094400Y0051347D02*
X0051038Y0051347D01*
X0048762Y0051347D02*
X0043538Y0051347D01*
X0044007Y0051048D02*
X0048293Y0051048D01*
X0047995Y0050750D02*
X0044305Y0050750D01*
X0044565Y0050451D02*
X0047735Y0050451D01*
X0047611Y0050153D02*
X0044689Y0050153D01*
X0044812Y0049854D02*
X0047488Y0049854D01*
X0047378Y0049556D02*
X0044922Y0049556D01*
X0044922Y0049257D02*
X0047378Y0049257D01*
X0047378Y0048959D02*
X0044922Y0048959D01*
X0044922Y0048660D02*
X0047378Y0048660D01*
X0047264Y0048362D02*
X0044828Y0048362D01*
X0044705Y0048063D02*
X0046965Y0048063D01*
X0046667Y0047765D02*
X0044581Y0047765D01*
X0044343Y0047466D02*
X0046368Y0047466D01*
X0046070Y0047168D02*
X0044045Y0047168D01*
X0043631Y0046869D02*
X0045771Y0046869D01*
X0045473Y0046571D02*
X0042910Y0046571D01*
X0041890Y0046571D02*
X0037244Y0046571D01*
X0037542Y0046869D02*
X0041169Y0046869D01*
X0040755Y0047168D02*
X0037841Y0047168D01*
X0038139Y0047466D02*
X0040457Y0047466D01*
X0040235Y0050451D02*
X0035815Y0050451D01*
X0035939Y0050153D02*
X0037007Y0050153D01*
X0036709Y0049854D02*
X0036062Y0049854D01*
X0036172Y0049556D02*
X0036410Y0049556D01*
X0035555Y0050750D02*
X0040495Y0050750D01*
X0040793Y0051048D02*
X0035257Y0051048D01*
X0035000Y0051347D02*
X0041262Y0051347D01*
X0045174Y0046272D02*
X0036945Y0046272D01*
X0036646Y0045974D02*
X0044876Y0045974D01*
X0044577Y0045675D02*
X0036348Y0045675D01*
X0031093Y0042988D02*
X0012435Y0042988D01*
X0012734Y0042690D02*
X0094566Y0042690D01*
X0094268Y0042391D02*
X0013032Y0042391D01*
X0013200Y0042223D02*
X0010535Y0044889D01*
X0006765Y0044889D01*
X0004100Y0042223D01*
X0004100Y0038454D01*
X0006765Y0035789D01*
X0010535Y0035789D01*
X0013200Y0038454D01*
X0013200Y0042223D01*
X0013200Y0042093D02*
X0094100Y0042093D01*
X0094100Y0041794D02*
X0013200Y0041794D01*
X0013200Y0041496D02*
X0094100Y0041496D01*
X0094100Y0041197D02*
X0013200Y0041197D01*
X0013200Y0040899D02*
X0094100Y0040899D01*
X0094100Y0040600D02*
X0013200Y0040600D01*
X0013200Y0040302D02*
X0094100Y0040302D01*
X0094100Y0040003D02*
X0013200Y0040003D01*
X0013200Y0039705D02*
X0094100Y0039705D01*
X0094100Y0039406D02*
X0013200Y0039406D01*
X0013200Y0039108D02*
X0094100Y0039108D01*
X0094100Y0038809D02*
X0013200Y0038809D01*
X0013200Y0038511D02*
X0094100Y0038511D01*
X0094342Y0038212D02*
X0012958Y0038212D01*
X0012660Y0037914D02*
X0094640Y0037914D01*
X0094939Y0037615D02*
X0012361Y0037615D01*
X0012063Y0037317D02*
X0095237Y0037317D01*
X0095536Y0037018D02*
X0011764Y0037018D01*
X0011466Y0036720D02*
X0095834Y0036720D01*
X0096133Y0036421D02*
X0011167Y0036421D01*
X0010869Y0036123D02*
X0096431Y0036123D01*
X0096730Y0035824D02*
X0010570Y0035824D01*
X0010793Y0034630D02*
X0096507Y0034630D01*
X0096765Y0034889D02*
X0094100Y0032223D01*
X0094100Y0028454D01*
X0096765Y0025789D01*
X0100535Y0025789D01*
X0103200Y0028454D01*
X0103200Y0032223D01*
X0100535Y0034889D01*
X0096765Y0034889D01*
X0096208Y0034332D02*
X0011092Y0034332D01*
X0011390Y0034033D02*
X0095910Y0034033D01*
X0095611Y0033735D02*
X0011689Y0033735D01*
X0011987Y0033436D02*
X0095313Y0033436D01*
X0095014Y0033138D02*
X0012286Y0033138D01*
X0012584Y0032839D02*
X0094716Y0032839D01*
X0094417Y0032541D02*
X0012883Y0032541D01*
X0013181Y0032242D02*
X0094119Y0032242D01*
X0094100Y0031944D02*
X0013200Y0031944D01*
X0013200Y0031645D02*
X0094100Y0031645D01*
X0094100Y0031347D02*
X0013200Y0031347D01*
X0013200Y0031048D02*
X0094100Y0031048D01*
X0094100Y0030750D02*
X0013200Y0030750D01*
X0013200Y0030451D02*
X0094100Y0030451D01*
X0094100Y0030152D02*
X0013200Y0030152D01*
X0013200Y0029854D02*
X0094100Y0029854D01*
X0094100Y0029555D02*
X0013200Y0029555D01*
X0013200Y0029257D02*
X0094100Y0029257D01*
X0094100Y0028958D02*
X0013200Y0028958D01*
X0013200Y0028660D02*
X0094100Y0028660D01*
X0094193Y0028361D02*
X0013107Y0028361D01*
X0012809Y0028063D02*
X0094491Y0028063D01*
X0094790Y0027764D02*
X0012510Y0027764D01*
X0012212Y0027466D02*
X0095088Y0027466D01*
X0095387Y0027167D02*
X0011913Y0027167D01*
X0011615Y0026869D02*
X0095685Y0026869D01*
X0095984Y0026570D02*
X0011316Y0026570D01*
X0011018Y0026272D02*
X0096282Y0026272D01*
X0096581Y0025973D02*
X0010719Y0025973D01*
X0006730Y0035824D02*
X0002800Y0035824D01*
X0002800Y0036123D02*
X0006431Y0036123D01*
X0006133Y0036421D02*
X0002800Y0036421D01*
X0002800Y0036720D02*
X0005834Y0036720D01*
X0005536Y0037018D02*
X0002800Y0037018D01*
X0002800Y0037317D02*
X0005237Y0037317D01*
X0004939Y0037615D02*
X0002800Y0037615D01*
X0002800Y0037914D02*
X0004640Y0037914D01*
X0004342Y0038212D02*
X0002800Y0038212D01*
X0002800Y0038511D02*
X0004100Y0038511D01*
X0004100Y0038809D02*
X0002800Y0038809D01*
X0002800Y0039108D02*
X0004100Y0039108D01*
X0004100Y0039406D02*
X0002800Y0039406D01*
X0002800Y0039705D02*
X0004100Y0039705D01*
X0004100Y0040003D02*
X0002800Y0040003D01*
X0002800Y0040302D02*
X0004100Y0040302D01*
X0004100Y0040600D02*
X0002800Y0040600D01*
X0002800Y0040899D02*
X0004100Y0040899D01*
X0004100Y0041197D02*
X0002800Y0041197D01*
X0002800Y0041496D02*
X0004100Y0041496D01*
X0004100Y0041794D02*
X0002800Y0041794D01*
X0002800Y0042093D02*
X0004100Y0042093D01*
X0004268Y0042391D02*
X0002800Y0042391D01*
X0002800Y0042690D02*
X0004566Y0042690D01*
X0004865Y0042988D02*
X0002800Y0042988D01*
X0002800Y0043287D02*
X0005163Y0043287D01*
X0005462Y0043585D02*
X0002800Y0043585D01*
X0002800Y0043884D02*
X0005761Y0043884D01*
X0006059Y0044183D02*
X0002800Y0044183D01*
X0002800Y0044481D02*
X0006358Y0044481D01*
X0006656Y0044780D02*
X0002800Y0044780D01*
X0002800Y0045078D02*
X0029003Y0045078D01*
X0028705Y0045377D02*
X0002800Y0045377D01*
X0002800Y0045675D02*
X0028406Y0045675D01*
X0028108Y0045974D02*
X0002800Y0045974D01*
X0002800Y0046272D02*
X0006706Y0046272D01*
X0006408Y0046571D02*
X0002800Y0046571D01*
X0002800Y0046869D02*
X0006109Y0046869D01*
X0005811Y0047168D02*
X0002800Y0047168D01*
X0002800Y0047466D02*
X0005512Y0047466D01*
X0005214Y0047765D02*
X0002800Y0047765D01*
X0002800Y0048063D02*
X0004915Y0048063D01*
X0004617Y0048362D02*
X0002800Y0048362D01*
X0002800Y0048660D02*
X0004400Y0048660D01*
X0004400Y0048959D02*
X0002800Y0048959D01*
X0002800Y0049257D02*
X0004400Y0049257D01*
X0004400Y0049556D02*
X0002800Y0049556D01*
X0002800Y0049854D02*
X0004400Y0049854D01*
X0004400Y0050153D02*
X0002800Y0050153D01*
X0002800Y0050451D02*
X0004400Y0050451D01*
X0004400Y0050750D02*
X0002800Y0050750D01*
X0002800Y0051048D02*
X0004400Y0051048D01*
X0004400Y0051347D02*
X0002800Y0051347D01*
X0002800Y0051645D02*
X0004400Y0051645D01*
X0004400Y0051944D02*
X0002800Y0051944D01*
X0002800Y0052242D02*
X0004543Y0052242D01*
X0004842Y0052541D02*
X0002800Y0052541D01*
X0002800Y0052839D02*
X0005140Y0052839D01*
X0005439Y0053138D02*
X0002800Y0053138D01*
X0002800Y0053436D02*
X0005737Y0053436D01*
X0006036Y0053735D02*
X0002800Y0053735D01*
X0002800Y0054033D02*
X0006334Y0054033D01*
X0006633Y0054332D02*
X0002800Y0054332D01*
X0002800Y0054630D02*
X0019904Y0054630D01*
X0020202Y0054332D02*
X0010667Y0054332D01*
X0010966Y0054033D02*
X0020501Y0054033D01*
X0020799Y0053735D02*
X0011264Y0053735D01*
X0011563Y0053436D02*
X0027393Y0053436D01*
X0027692Y0053138D02*
X0011861Y0053138D01*
X0012160Y0052839D02*
X0027990Y0052839D01*
X0028289Y0052541D02*
X0012458Y0052541D01*
X0012757Y0052242D02*
X0028550Y0052242D01*
X0028550Y0051944D02*
X0012900Y0051944D01*
X0012900Y0048959D02*
X0025123Y0048959D01*
X0025421Y0048660D02*
X0012900Y0048660D01*
X0012683Y0048362D02*
X0025720Y0048362D01*
X0026018Y0048063D02*
X0012385Y0048063D01*
X0012086Y0047765D02*
X0026317Y0047765D01*
X0026615Y0047466D02*
X0011788Y0047466D01*
X0011489Y0047168D02*
X0026914Y0047168D01*
X0027212Y0046869D02*
X0011191Y0046869D01*
X0010892Y0046571D02*
X0027511Y0046571D01*
X0027809Y0046272D02*
X0010594Y0046272D01*
X0010644Y0044780D02*
X0029302Y0044780D01*
X0029600Y0044481D02*
X0010942Y0044481D01*
X0011241Y0044183D02*
X0029899Y0044183D01*
X0030197Y0043884D02*
X0011539Y0043884D01*
X0011838Y0043585D02*
X0030496Y0043585D01*
X0030795Y0043287D02*
X0012136Y0043287D01*
X0019605Y0054929D02*
X0002800Y0054929D01*
X0002800Y0055227D02*
X0019307Y0055227D01*
X0019008Y0055526D02*
X0002800Y0055526D01*
X0002800Y0055824D02*
X0018710Y0055824D01*
X0018411Y0056123D02*
X0010445Y0056123D01*
X0010743Y0056421D02*
X0018113Y0056421D01*
X0017814Y0056720D02*
X0011042Y0056720D01*
X0011340Y0057019D02*
X0017516Y0057019D01*
X0017217Y0057317D02*
X0011639Y0057317D01*
X0011937Y0057616D02*
X0016919Y0057616D01*
X0016620Y0057914D02*
X0012236Y0057914D01*
X0012534Y0058213D02*
X0016321Y0058213D01*
X0016023Y0058511D02*
X0012833Y0058511D01*
X0012900Y0058810D02*
X0015724Y0058810D01*
X0015285Y0061795D02*
X0012900Y0061795D01*
X0012900Y0062093D02*
X0014986Y0062093D01*
X0014688Y0062392D02*
X0012608Y0062392D01*
X0012309Y0062690D02*
X0014389Y0062690D01*
X0014091Y0062989D02*
X0012010Y0062989D01*
X0011712Y0063287D02*
X0013792Y0063287D01*
X0013494Y0063586D02*
X0011413Y0063586D01*
X0011115Y0063884D02*
X0013195Y0063884D01*
X0012897Y0064183D02*
X0010816Y0064183D01*
X0010518Y0064481D02*
X0012598Y0064481D01*
X0012300Y0064780D02*
X0002800Y0064780D01*
X0002800Y0065078D02*
X0012001Y0065078D01*
X0011703Y0065377D02*
X0002800Y0065377D01*
X0002800Y0065675D02*
X0011404Y0065675D01*
X0011106Y0065974D02*
X0002800Y0065974D01*
X0002800Y0066272D02*
X0006706Y0066272D01*
X0006408Y0066571D02*
X0002800Y0066571D01*
X0002800Y0066869D02*
X0006109Y0066869D01*
X0005811Y0067168D02*
X0002800Y0067168D01*
X0002800Y0067466D02*
X0005512Y0067466D01*
X0005214Y0067765D02*
X0002800Y0067765D01*
X0002800Y0068063D02*
X0004915Y0068063D01*
X0004616Y0068362D02*
X0002800Y0068362D01*
X0002800Y0068660D02*
X0004400Y0068660D01*
X0004400Y0068959D02*
X0002800Y0068959D01*
X0002800Y0069257D02*
X0004400Y0069257D01*
X0004400Y0069556D02*
X0002800Y0069556D01*
X0002800Y0069854D02*
X0004400Y0069854D01*
X0004400Y0070153D02*
X0002800Y0070153D01*
X0002800Y0070452D02*
X0004400Y0070452D01*
X0004400Y0070750D02*
X0002800Y0070750D01*
X0002800Y0071049D02*
X0004400Y0071049D01*
X0004400Y0071347D02*
X0002800Y0071347D01*
X0002800Y0071646D02*
X0004400Y0071646D01*
X0004400Y0071944D02*
X0002800Y0071944D01*
X0002800Y0072243D02*
X0004543Y0072243D01*
X0004842Y0072541D02*
X0002800Y0072541D01*
X0002800Y0072840D02*
X0005140Y0072840D01*
X0005439Y0073138D02*
X0002800Y0073138D01*
X0002800Y0073437D02*
X0005737Y0073437D01*
X0006036Y0073735D02*
X0002800Y0073735D01*
X0002800Y0074034D02*
X0006334Y0074034D01*
X0006633Y0074332D02*
X0002800Y0074332D01*
X0002800Y0074631D02*
X0104421Y0074631D01*
X0104421Y0074929D02*
X0002800Y0074929D01*
X0002800Y0075228D02*
X0104421Y0075228D01*
X0104421Y0075526D02*
X0002800Y0075526D01*
X0002800Y0075825D02*
X0104421Y0075825D01*
X0104421Y0076123D02*
X0100445Y0076123D01*
X0100410Y0076089D02*
X0102900Y0078578D01*
X0102900Y0082099D01*
X0100410Y0084589D01*
X0096890Y0084589D01*
X0094400Y0082099D01*
X0094400Y0078578D01*
X0096890Y0076089D01*
X0100410Y0076089D01*
X0100743Y0076422D02*
X0104421Y0076422D01*
X0104421Y0076720D02*
X0101042Y0076720D01*
X0101340Y0077019D02*
X0104421Y0077019D01*
X0104421Y0077317D02*
X0101639Y0077317D01*
X0101937Y0077616D02*
X0104421Y0077616D01*
X0104421Y0077914D02*
X0102236Y0077914D01*
X0102534Y0078213D02*
X0104421Y0078213D01*
X0104421Y0078511D02*
X0102833Y0078511D01*
X0102900Y0078810D02*
X0104421Y0078810D01*
X0104421Y0079108D02*
X0102900Y0079108D01*
X0102900Y0079407D02*
X0104421Y0079407D01*
X0104421Y0079705D02*
X0102900Y0079705D01*
X0102900Y0080004D02*
X0104421Y0080004D01*
X0104421Y0080302D02*
X0102900Y0080302D01*
X0102900Y0080601D02*
X0104421Y0080601D01*
X0104421Y0080899D02*
X0102900Y0080899D01*
X0102900Y0081198D02*
X0104421Y0081198D01*
X0104421Y0081496D02*
X0102900Y0081496D01*
X0102900Y0081795D02*
X0104421Y0081795D01*
X0104421Y0082093D02*
X0102900Y0082093D01*
X0102607Y0082392D02*
X0104421Y0082392D01*
X0104421Y0082690D02*
X0102309Y0082690D01*
X0102010Y0082989D02*
X0104421Y0082989D01*
X0104421Y0083288D02*
X0101712Y0083288D01*
X0101413Y0083586D02*
X0104421Y0083586D01*
X0104421Y0083885D02*
X0101115Y0083885D01*
X0100816Y0084183D02*
X0104421Y0084183D01*
X0104421Y0084482D02*
X0100518Y0084482D01*
X0100410Y0086089D02*
X0102900Y0088578D01*
X0102900Y0092099D01*
X0100410Y0094589D01*
X0096890Y0094589D01*
X0094400Y0092099D01*
X0094400Y0088578D01*
X0096890Y0086089D01*
X0100410Y0086089D01*
X0100594Y0086273D02*
X0104421Y0086273D01*
X0104421Y0086571D02*
X0100893Y0086571D01*
X0101191Y0086870D02*
X0104421Y0086870D01*
X0104421Y0087168D02*
X0101490Y0087168D01*
X0101788Y0087467D02*
X0104421Y0087467D01*
X0104421Y0087765D02*
X0102087Y0087765D01*
X0102385Y0088064D02*
X0104421Y0088064D01*
X0104421Y0088362D02*
X0102684Y0088362D01*
X0102900Y0088661D02*
X0104421Y0088661D01*
X0104421Y0088959D02*
X0102900Y0088959D01*
X0102900Y0089258D02*
X0104421Y0089258D01*
X0104421Y0089556D02*
X0102900Y0089556D01*
X0102900Y0089855D02*
X0104421Y0089855D01*
X0104421Y0090153D02*
X0102900Y0090153D01*
X0102900Y0090452D02*
X0104421Y0090452D01*
X0104421Y0090750D02*
X0102900Y0090750D01*
X0102900Y0091049D02*
X0104421Y0091049D01*
X0104421Y0091347D02*
X0102900Y0091347D01*
X0102900Y0091646D02*
X0104421Y0091646D01*
X0104421Y0091944D02*
X0102900Y0091944D01*
X0102756Y0092243D02*
X0104421Y0092243D01*
X0104421Y0092541D02*
X0102458Y0092541D01*
X0102159Y0092840D02*
X0104421Y0092840D01*
X0104421Y0093138D02*
X0101861Y0093138D01*
X0101562Y0093437D02*
X0104421Y0093437D01*
X0104421Y0093735D02*
X0101264Y0093735D01*
X0100965Y0094034D02*
X0104421Y0094034D01*
X0104421Y0094332D02*
X0100667Y0094332D01*
X0100410Y0096089D02*
X0102900Y0098578D01*
X0102900Y0102099D01*
X0100410Y0104589D01*
X0096890Y0104589D01*
X0094400Y0102099D01*
X0094400Y0098578D01*
X0096890Y0096089D01*
X0100410Y0096089D01*
X0100445Y0096123D02*
X0104421Y0096123D01*
X0104421Y0095825D02*
X0002800Y0095825D01*
X0002800Y0096123D02*
X0006855Y0096123D01*
X0006890Y0096089D02*
X0010410Y0096089D01*
X0012900Y0098578D01*
X0012900Y0102099D01*
X0010410Y0104589D01*
X0006890Y0104589D01*
X0004400Y0102099D01*
X0004400Y0098578D01*
X0006890Y0096089D01*
X0006556Y0096422D02*
X0002800Y0096422D01*
X0002800Y0096721D02*
X0006258Y0096721D01*
X0005959Y0097019D02*
X0002800Y0097019D01*
X0002800Y0097318D02*
X0005661Y0097318D01*
X0005362Y0097616D02*
X0002800Y0097616D01*
X0002800Y0097915D02*
X0005064Y0097915D01*
X0004765Y0098213D02*
X0002800Y0098213D01*
X0002800Y0098512D02*
X0004467Y0098512D01*
X0004400Y0098810D02*
X0002800Y0098810D01*
X0002800Y0099109D02*
X0004400Y0099109D01*
X0004400Y0099407D02*
X0002800Y0099407D01*
X0002800Y0099706D02*
X0004400Y0099706D01*
X0004400Y0100004D02*
X0002800Y0100004D01*
X0002800Y0100303D02*
X0004400Y0100303D01*
X0004400Y0100601D02*
X0002800Y0100601D01*
X0002800Y0100900D02*
X0004400Y0100900D01*
X0004400Y0101198D02*
X0002800Y0101198D01*
X0002800Y0101497D02*
X0004400Y0101497D01*
X0004400Y0101795D02*
X0002800Y0101795D01*
X0002800Y0102094D02*
X0004400Y0102094D01*
X0004693Y0102392D02*
X0002800Y0102392D01*
X0002800Y0102691D02*
X0004992Y0102691D01*
X0005290Y0102989D02*
X0002800Y0102989D01*
X0002800Y0103288D02*
X0005589Y0103288D01*
X0005887Y0103586D02*
X0002800Y0103586D01*
X0002800Y0103885D02*
X0006186Y0103885D01*
X0006484Y0104183D02*
X0002800Y0104183D01*
X0002800Y0104482D02*
X0006783Y0104482D01*
X0006706Y0106273D02*
X0002800Y0106273D01*
X0002800Y0105974D02*
X0104421Y0105974D01*
X0104421Y0105676D02*
X0002800Y0105676D01*
X0002800Y0105377D02*
X0104421Y0105377D01*
X0104421Y0105079D02*
X0002800Y0105079D01*
X0002800Y0104780D02*
X0104421Y0104780D01*
X0104421Y0104482D02*
X0100517Y0104482D01*
X0100816Y0104183D02*
X0104421Y0104183D01*
X0104421Y0103885D02*
X0101114Y0103885D01*
X0101413Y0103586D02*
X0104421Y0103586D01*
X0104421Y0103288D02*
X0101711Y0103288D01*
X0102010Y0102989D02*
X0104421Y0102989D01*
X0104421Y0102691D02*
X0102308Y0102691D01*
X0102607Y0102392D02*
X0104421Y0102392D01*
X0104421Y0102094D02*
X0102900Y0102094D01*
X0102900Y0101795D02*
X0104421Y0101795D01*
X0104421Y0101497D02*
X0102900Y0101497D01*
X0102900Y0101198D02*
X0104421Y0101198D01*
X0104421Y0100900D02*
X0102900Y0100900D01*
X0102900Y0100601D02*
X0104421Y0100601D01*
X0104421Y0100303D02*
X0102900Y0100303D01*
X0102900Y0100004D02*
X0104421Y0100004D01*
X0104421Y0099706D02*
X0102900Y0099706D01*
X0102900Y0099407D02*
X0104421Y0099407D01*
X0104421Y0099109D02*
X0102900Y0099109D01*
X0102900Y0098810D02*
X0104421Y0098810D01*
X0104421Y0098512D02*
X0102833Y0098512D01*
X0102535Y0098213D02*
X0104421Y0098213D01*
X0104421Y0097915D02*
X0102236Y0097915D01*
X0101938Y0097616D02*
X0104421Y0097616D01*
X0104421Y0097318D02*
X0101639Y0097318D01*
X0101341Y0097019D02*
X0104421Y0097019D01*
X0104421Y0096721D02*
X0101042Y0096721D01*
X0100744Y0096422D02*
X0104421Y0096422D01*
X0104421Y0095526D02*
X0002800Y0095526D01*
X0002800Y0095228D02*
X0104421Y0095228D01*
X0104421Y0094929D02*
X0002800Y0094929D01*
X0002800Y0094631D02*
X0104421Y0094631D01*
X0096855Y0096123D02*
X0010445Y0096123D01*
X0010744Y0096422D02*
X0096556Y0096422D01*
X0096258Y0096721D02*
X0011042Y0096721D01*
X0011341Y0097019D02*
X0095959Y0097019D01*
X0095661Y0097318D02*
X0011639Y0097318D01*
X0011938Y0097616D02*
X0095362Y0097616D01*
X0095064Y0097915D02*
X0012236Y0097915D01*
X0012535Y0098213D02*
X0094765Y0098213D01*
X0094467Y0098512D02*
X0012833Y0098512D01*
X0012900Y0098810D02*
X0094400Y0098810D01*
X0094400Y0099109D02*
X0012900Y0099109D01*
X0012900Y0099407D02*
X0094400Y0099407D01*
X0094400Y0099706D02*
X0012900Y0099706D01*
X0012900Y0100004D02*
X0094400Y0100004D01*
X0094400Y0100303D02*
X0012900Y0100303D01*
X0012900Y0100601D02*
X0094400Y0100601D01*
X0094400Y0100900D02*
X0012900Y0100900D01*
X0012900Y0101198D02*
X0094400Y0101198D01*
X0094400Y0101497D02*
X0012900Y0101497D01*
X0012900Y0101795D02*
X0094400Y0101795D01*
X0094400Y0102094D02*
X0012900Y0102094D01*
X0012607Y0102392D02*
X0094693Y0102392D01*
X0094992Y0102691D02*
X0012308Y0102691D01*
X0012010Y0102989D02*
X0095290Y0102989D01*
X0095589Y0103288D02*
X0011711Y0103288D01*
X0011413Y0103586D02*
X0095887Y0103586D01*
X0096186Y0103885D02*
X0011114Y0103885D01*
X0010816Y0104183D02*
X0096484Y0104183D01*
X0096783Y0104482D02*
X0010517Y0104482D01*
X0010594Y0106273D02*
X0096706Y0106273D01*
X0100594Y0106273D02*
X0104421Y0106273D01*
X0096633Y0094332D02*
X0010667Y0094332D01*
X0010410Y0094589D02*
X0006890Y0094589D01*
X0004400Y0092099D01*
X0004400Y0088578D01*
X0006890Y0086089D01*
X0010410Y0086089D01*
X0012900Y0088578D01*
X0012900Y0092099D01*
X0010410Y0094589D01*
X0010965Y0094034D02*
X0096335Y0094034D01*
X0096036Y0093735D02*
X0011264Y0093735D01*
X0011562Y0093437D02*
X0095738Y0093437D01*
X0095439Y0093138D02*
X0011861Y0093138D01*
X0012159Y0092840D02*
X0095141Y0092840D01*
X0094842Y0092541D02*
X0012458Y0092541D01*
X0012756Y0092243D02*
X0094544Y0092243D01*
X0094400Y0091944D02*
X0012900Y0091944D01*
X0012900Y0091646D02*
X0094400Y0091646D01*
X0094400Y0091347D02*
X0012900Y0091347D01*
X0012900Y0091049D02*
X0094400Y0091049D01*
X0094400Y0090750D02*
X0012900Y0090750D01*
X0012900Y0090452D02*
X0094400Y0090452D01*
X0094400Y0090153D02*
X0012900Y0090153D01*
X0012900Y0089855D02*
X0094400Y0089855D01*
X0094400Y0089556D02*
X0012900Y0089556D01*
X0012900Y0089258D02*
X0094400Y0089258D01*
X0094400Y0088959D02*
X0012900Y0088959D01*
X0012900Y0088661D02*
X0094400Y0088661D01*
X0094616Y0088362D02*
X0012684Y0088362D01*
X0012385Y0088064D02*
X0094915Y0088064D01*
X0095213Y0087765D02*
X0012087Y0087765D01*
X0011788Y0087467D02*
X0095512Y0087467D01*
X0095810Y0087168D02*
X0011490Y0087168D01*
X0011191Y0086870D02*
X0096109Y0086870D01*
X0096407Y0086571D02*
X0010893Y0086571D01*
X0010594Y0086273D02*
X0096706Y0086273D01*
X0096782Y0084482D02*
X0010518Y0084482D01*
X0010410Y0084589D02*
X0006890Y0084589D01*
X0004400Y0082099D01*
X0004400Y0078578D01*
X0006890Y0076089D01*
X0010410Y0076089D01*
X0012900Y0078578D01*
X0012900Y0082099D01*
X0010410Y0084589D01*
X0010816Y0084183D02*
X0096484Y0084183D01*
X0096185Y0083885D02*
X0011115Y0083885D01*
X0011413Y0083586D02*
X0095887Y0083586D01*
X0095588Y0083288D02*
X0011712Y0083288D01*
X0012010Y0082989D02*
X0095290Y0082989D01*
X0094991Y0082690D02*
X0012309Y0082690D01*
X0012607Y0082392D02*
X0094693Y0082392D01*
X0094400Y0082093D02*
X0012900Y0082093D01*
X0012900Y0081795D02*
X0094400Y0081795D01*
X0094400Y0081496D02*
X0012900Y0081496D01*
X0012900Y0081198D02*
X0094400Y0081198D01*
X0094400Y0080899D02*
X0012900Y0080899D01*
X0012900Y0080601D02*
X0094400Y0080601D01*
X0094400Y0080302D02*
X0012900Y0080302D01*
X0012900Y0080004D02*
X0094400Y0080004D01*
X0094400Y0079705D02*
X0012900Y0079705D01*
X0012900Y0079407D02*
X0094400Y0079407D01*
X0094400Y0079108D02*
X0012900Y0079108D01*
X0012900Y0078810D02*
X0094400Y0078810D01*
X0094467Y0078511D02*
X0012833Y0078511D01*
X0012534Y0078213D02*
X0094766Y0078213D01*
X0095064Y0077914D02*
X0012236Y0077914D01*
X0011937Y0077616D02*
X0095363Y0077616D01*
X0095661Y0077317D02*
X0011639Y0077317D01*
X0011340Y0077019D02*
X0095960Y0077019D01*
X0096258Y0076720D02*
X0011042Y0076720D01*
X0010743Y0076422D02*
X0096557Y0076422D01*
X0096855Y0076123D02*
X0010445Y0076123D01*
X0010667Y0074332D02*
X0096633Y0074332D01*
X0096890Y0074589D02*
X0094400Y0072099D01*
X0094400Y0068578D01*
X0096890Y0066089D01*
X0100410Y0066089D01*
X0102900Y0068578D01*
X0102900Y0072099D01*
X0100410Y0074589D01*
X0096890Y0074589D01*
X0096334Y0074034D02*
X0010966Y0074034D01*
X0011264Y0073735D02*
X0096036Y0073735D01*
X0095737Y0073437D02*
X0011563Y0073437D01*
X0011861Y0073138D02*
X0095439Y0073138D01*
X0095140Y0072840D02*
X0012160Y0072840D01*
X0012458Y0072541D02*
X0094842Y0072541D01*
X0094543Y0072243D02*
X0012757Y0072243D01*
X0012900Y0071944D02*
X0094400Y0071944D01*
X0094400Y0071646D02*
X0012900Y0071646D01*
X0012900Y0071347D02*
X0094400Y0071347D01*
X0094400Y0071049D02*
X0012900Y0071049D01*
X0012900Y0070750D02*
X0094400Y0070750D01*
X0094400Y0070452D02*
X0012900Y0070452D01*
X0012900Y0070153D02*
X0094400Y0070153D01*
X0094400Y0069854D02*
X0012900Y0069854D01*
X0012900Y0069556D02*
X0094400Y0069556D01*
X0094400Y0069257D02*
X0012900Y0069257D01*
X0012900Y0068959D02*
X0094400Y0068959D01*
X0094400Y0068660D02*
X0012900Y0068660D01*
X0012683Y0068362D02*
X0094616Y0068362D01*
X0094915Y0068063D02*
X0012835Y0068063D01*
X0013133Y0067765D02*
X0095214Y0067765D01*
X0095512Y0067466D02*
X0013432Y0067466D01*
X0013730Y0067168D02*
X0095811Y0067168D01*
X0096109Y0066869D02*
X0014029Y0066869D01*
X0014327Y0066571D02*
X0096408Y0066571D01*
X0096706Y0066272D02*
X0014626Y0066272D01*
X0014924Y0065974D02*
X0104421Y0065974D01*
X0104421Y0066272D02*
X0100594Y0066272D01*
X0100892Y0066571D02*
X0104421Y0066571D01*
X0104421Y0066869D02*
X0101191Y0066869D01*
X0101489Y0067168D02*
X0104421Y0067168D01*
X0104421Y0067466D02*
X0101788Y0067466D01*
X0102086Y0067765D02*
X0104421Y0067765D01*
X0104421Y0068063D02*
X0102385Y0068063D01*
X0102684Y0068362D02*
X0104421Y0068362D01*
X0104421Y0068660D02*
X0102900Y0068660D01*
X0102900Y0068959D02*
X0104421Y0068959D01*
X0104421Y0069257D02*
X0102900Y0069257D01*
X0102900Y0069556D02*
X0104421Y0069556D01*
X0104421Y0069854D02*
X0102900Y0069854D01*
X0102900Y0070153D02*
X0104421Y0070153D01*
X0104421Y0070452D02*
X0102900Y0070452D01*
X0102900Y0070750D02*
X0104421Y0070750D01*
X0104421Y0071049D02*
X0102900Y0071049D01*
X0102900Y0071347D02*
X0104421Y0071347D01*
X0104421Y0071646D02*
X0102900Y0071646D01*
X0102900Y0071944D02*
X0104421Y0071944D01*
X0104421Y0072243D02*
X0102757Y0072243D01*
X0102458Y0072541D02*
X0104421Y0072541D01*
X0104421Y0072840D02*
X0102160Y0072840D01*
X0101861Y0073138D02*
X0104421Y0073138D01*
X0104421Y0073437D02*
X0101563Y0073437D01*
X0101264Y0073735D02*
X0104421Y0073735D01*
X0104421Y0074034D02*
X0100966Y0074034D01*
X0100667Y0074332D02*
X0104421Y0074332D01*
X0104421Y0065675D02*
X0015223Y0065675D01*
X0015521Y0065377D02*
X0104421Y0065377D01*
X0104421Y0065078D02*
X0015820Y0065078D01*
X0016118Y0064780D02*
X0104421Y0064780D01*
X0104421Y0064481D02*
X0100518Y0064481D01*
X0100410Y0064589D02*
X0096890Y0064589D01*
X0094400Y0062099D01*
X0094400Y0058578D01*
X0096890Y0056089D01*
X0100410Y0056089D01*
X0102900Y0058578D01*
X0102900Y0062099D01*
X0100410Y0064589D01*
X0100816Y0064183D02*
X0104421Y0064183D01*
X0104421Y0063884D02*
X0101115Y0063884D01*
X0101413Y0063586D02*
X0104421Y0063586D01*
X0104421Y0063287D02*
X0101712Y0063287D01*
X0102010Y0062989D02*
X0104421Y0062989D01*
X0104421Y0062690D02*
X0102309Y0062690D01*
X0102608Y0062392D02*
X0104421Y0062392D01*
X0104421Y0062093D02*
X0102900Y0062093D01*
X0102900Y0061795D02*
X0104421Y0061795D01*
X0104421Y0061496D02*
X0102900Y0061496D01*
X0102900Y0061198D02*
X0104421Y0061198D01*
X0104421Y0060899D02*
X0102900Y0060899D01*
X0102900Y0060601D02*
X0104421Y0060601D01*
X0104421Y0060302D02*
X0102900Y0060302D01*
X0102900Y0060004D02*
X0104421Y0060004D01*
X0104421Y0059705D02*
X0102900Y0059705D01*
X0102900Y0059407D02*
X0104421Y0059407D01*
X0104421Y0059108D02*
X0102900Y0059108D01*
X0102900Y0058810D02*
X0104421Y0058810D01*
X0104421Y0058511D02*
X0102833Y0058511D01*
X0102534Y0058213D02*
X0104421Y0058213D01*
X0104421Y0057914D02*
X0102236Y0057914D01*
X0101937Y0057616D02*
X0104421Y0057616D01*
X0104421Y0057317D02*
X0101639Y0057317D01*
X0101340Y0057019D02*
X0104421Y0057019D01*
X0104421Y0056720D02*
X0101042Y0056720D01*
X0100743Y0056421D02*
X0104421Y0056421D01*
X0104421Y0056123D02*
X0100445Y0056123D01*
X0100667Y0054332D02*
X0104421Y0054332D01*
X0104421Y0054630D02*
X0035000Y0054630D01*
X0035000Y0054332D02*
X0096633Y0054332D01*
X0096334Y0054033D02*
X0035000Y0054033D01*
X0035000Y0053735D02*
X0096036Y0053735D01*
X0095737Y0053436D02*
X0035000Y0053436D01*
X0035000Y0053138D02*
X0095439Y0053138D01*
X0095140Y0052839D02*
X0035000Y0052839D01*
X0035000Y0052541D02*
X0094842Y0052541D01*
X0094543Y0052242D02*
X0035000Y0052242D01*
X0035000Y0051944D02*
X0094400Y0051944D01*
X0094400Y0051645D02*
X0035000Y0051645D01*
X0035000Y0054929D02*
X0104421Y0054929D01*
X0104421Y0055227D02*
X0035000Y0055227D01*
X0035000Y0055526D02*
X0104421Y0055526D01*
X0104421Y0055824D02*
X0035000Y0055824D01*
X0035000Y0056123D02*
X0096855Y0056123D01*
X0096557Y0056421D02*
X0035000Y0056421D01*
X0035000Y0056720D02*
X0096258Y0056720D01*
X0095960Y0057019D02*
X0035000Y0057019D01*
X0034831Y0057317D02*
X0095661Y0057317D01*
X0095363Y0057616D02*
X0034532Y0057616D01*
X0034234Y0057914D02*
X0095064Y0057914D01*
X0094766Y0058213D02*
X0022685Y0058213D01*
X0022387Y0058511D02*
X0094467Y0058511D01*
X0094400Y0058810D02*
X0022088Y0058810D01*
X0021790Y0059108D02*
X0094400Y0059108D01*
X0094400Y0059407D02*
X0021491Y0059407D01*
X0021193Y0059705D02*
X0094400Y0059705D01*
X0094400Y0060004D02*
X0020894Y0060004D01*
X0020596Y0060302D02*
X0094400Y0060302D01*
X0094400Y0060601D02*
X0020297Y0060601D01*
X0019999Y0060899D02*
X0094400Y0060899D01*
X0094400Y0061198D02*
X0019700Y0061198D01*
X0019402Y0061496D02*
X0094400Y0061496D01*
X0094400Y0061795D02*
X0019103Y0061795D01*
X0018805Y0062093D02*
X0094400Y0062093D01*
X0094692Y0062392D02*
X0018506Y0062392D01*
X0018208Y0062690D02*
X0094991Y0062690D01*
X0095290Y0062989D02*
X0017909Y0062989D01*
X0017611Y0063287D02*
X0095588Y0063287D01*
X0095887Y0063586D02*
X0017312Y0063586D01*
X0017014Y0063884D02*
X0096185Y0063884D01*
X0096484Y0064183D02*
X0016715Y0064183D01*
X0016417Y0064481D02*
X0096782Y0064481D01*
X0100966Y0054033D02*
X0104421Y0054033D01*
X0104421Y0053735D02*
X0101264Y0053735D01*
X0101563Y0053436D02*
X0104421Y0053436D01*
X0104421Y0053138D02*
X0101861Y0053138D01*
X0102160Y0052839D02*
X0104421Y0052839D01*
X0104421Y0052541D02*
X0102458Y0052541D01*
X0102757Y0052242D02*
X0104421Y0052242D01*
X0104421Y0051944D02*
X0102900Y0051944D01*
X0102900Y0051645D02*
X0104421Y0051645D01*
X0104421Y0051347D02*
X0102900Y0051347D01*
X0102900Y0051048D02*
X0104421Y0051048D01*
X0104421Y0050750D02*
X0102900Y0050750D01*
X0102900Y0050451D02*
X0104421Y0050451D01*
X0104421Y0050153D02*
X0102900Y0050153D01*
X0102900Y0049854D02*
X0104421Y0049854D01*
X0104421Y0049556D02*
X0102900Y0049556D01*
X0102900Y0049257D02*
X0104421Y0049257D01*
X0104421Y0048959D02*
X0102900Y0048959D01*
X0102900Y0048660D02*
X0104421Y0048660D01*
X0104421Y0048362D02*
X0102683Y0048362D01*
X0102385Y0048063D02*
X0104421Y0048063D01*
X0104421Y0047765D02*
X0102086Y0047765D01*
X0101788Y0047466D02*
X0104421Y0047466D01*
X0104421Y0047168D02*
X0101489Y0047168D01*
X0101191Y0046869D02*
X0104421Y0046869D01*
X0104421Y0046571D02*
X0100892Y0046571D01*
X0104421Y0045675D02*
X0048395Y0045675D01*
X0048097Y0045377D02*
X0104421Y0045377D01*
X0104421Y0045078D02*
X0047798Y0045078D01*
X0047500Y0044780D02*
X0096656Y0044780D01*
X0096358Y0044481D02*
X0047201Y0044481D01*
X0046903Y0044183D02*
X0096059Y0044183D01*
X0095761Y0043884D02*
X0046604Y0043884D01*
X0046306Y0043585D02*
X0095462Y0043585D01*
X0095163Y0043287D02*
X0046007Y0043287D01*
X0046250Y0043530D02*
X0046250Y0043530D01*
X0045709Y0042988D02*
X0094865Y0042988D01*
X0100793Y0034630D02*
X0104421Y0034630D01*
X0104421Y0034332D02*
X0101092Y0034332D01*
X0101390Y0034033D02*
X0104421Y0034033D01*
X0104421Y0033735D02*
X0101689Y0033735D01*
X0101987Y0033436D02*
X0104421Y0033436D01*
X0104421Y0033138D02*
X0102286Y0033138D01*
X0102584Y0032839D02*
X0104421Y0032839D01*
X0104421Y0032541D02*
X0102883Y0032541D01*
X0103181Y0032242D02*
X0104421Y0032242D01*
X0104421Y0031944D02*
X0103200Y0031944D01*
X0103200Y0031645D02*
X0104421Y0031645D01*
X0104421Y0031347D02*
X0103200Y0031347D01*
X0103200Y0031048D02*
X0104421Y0031048D01*
X0104421Y0030750D02*
X0103200Y0030750D01*
X0103200Y0030451D02*
X0104421Y0030451D01*
X0104421Y0030152D02*
X0103200Y0030152D01*
X0103200Y0029854D02*
X0104421Y0029854D01*
X0104421Y0029555D02*
X0103200Y0029555D01*
X0103200Y0029257D02*
X0104421Y0029257D01*
X0104421Y0028958D02*
X0103200Y0028958D01*
X0103200Y0028660D02*
X0104421Y0028660D01*
X0104421Y0028361D02*
X0103107Y0028361D01*
X0102809Y0028063D02*
X0104421Y0028063D01*
X0104421Y0027764D02*
X0102510Y0027764D01*
X0102212Y0027466D02*
X0104421Y0027466D01*
X0104421Y0027167D02*
X0101913Y0027167D01*
X0101615Y0026869D02*
X0104421Y0026869D01*
X0104421Y0026570D02*
X0101316Y0026570D01*
X0101018Y0026272D02*
X0104421Y0026272D01*
X0104421Y0025973D02*
X0100719Y0025973D01*
X0104421Y0084780D02*
X0002800Y0084780D01*
X0002800Y0084482D02*
X0006782Y0084482D01*
X0006484Y0084183D02*
X0002800Y0084183D01*
X0002800Y0083885D02*
X0006185Y0083885D01*
X0005887Y0083586D02*
X0002800Y0083586D01*
X0002800Y0083288D02*
X0005588Y0083288D01*
X0005290Y0082989D02*
X0002800Y0082989D01*
X0002800Y0082690D02*
X0004991Y0082690D01*
X0004693Y0082392D02*
X0002800Y0082392D01*
X0002800Y0082093D02*
X0004400Y0082093D01*
X0004400Y0081795D02*
X0002800Y0081795D01*
X0002800Y0081496D02*
X0004400Y0081496D01*
X0004400Y0081198D02*
X0002800Y0081198D01*
X0002800Y0080899D02*
X0004400Y0080899D01*
X0004400Y0080601D02*
X0002800Y0080601D01*
X0002800Y0080302D02*
X0004400Y0080302D01*
X0004400Y0080004D02*
X0002800Y0080004D01*
X0002800Y0079705D02*
X0004400Y0079705D01*
X0004400Y0079407D02*
X0002800Y0079407D01*
X0002800Y0079108D02*
X0004400Y0079108D01*
X0004400Y0078810D02*
X0002800Y0078810D01*
X0002800Y0078511D02*
X0004467Y0078511D01*
X0004766Y0078213D02*
X0002800Y0078213D01*
X0002800Y0077914D02*
X0005064Y0077914D01*
X0005363Y0077616D02*
X0002800Y0077616D01*
X0002800Y0077317D02*
X0005661Y0077317D01*
X0005960Y0077019D02*
X0002800Y0077019D01*
X0002800Y0076720D02*
X0006258Y0076720D01*
X0006557Y0076422D02*
X0002800Y0076422D01*
X0002800Y0076123D02*
X0006855Y0076123D01*
X0002800Y0085079D02*
X0104421Y0085079D01*
X0104421Y0085377D02*
X0002800Y0085377D01*
X0002800Y0085676D02*
X0104421Y0085676D01*
X0104421Y0085974D02*
X0002800Y0085974D01*
X0002800Y0086273D02*
X0006706Y0086273D01*
X0006407Y0086571D02*
X0002800Y0086571D01*
X0002800Y0086870D02*
X0006109Y0086870D01*
X0005810Y0087168D02*
X0002800Y0087168D01*
X0002800Y0087467D02*
X0005512Y0087467D01*
X0005213Y0087765D02*
X0002800Y0087765D01*
X0002800Y0088064D02*
X0004915Y0088064D01*
X0004616Y0088362D02*
X0002800Y0088362D01*
X0002800Y0088661D02*
X0004400Y0088661D01*
X0004400Y0088959D02*
X0002800Y0088959D01*
X0002800Y0089258D02*
X0004400Y0089258D01*
X0004400Y0089556D02*
X0002800Y0089556D01*
X0002800Y0089855D02*
X0004400Y0089855D01*
X0004400Y0090153D02*
X0002800Y0090153D01*
X0002800Y0090452D02*
X0004400Y0090452D01*
X0004400Y0090750D02*
X0002800Y0090750D01*
X0002800Y0091049D02*
X0004400Y0091049D01*
X0004400Y0091347D02*
X0002800Y0091347D01*
X0002800Y0091646D02*
X0004400Y0091646D01*
X0004400Y0091944D02*
X0002800Y0091944D01*
X0002800Y0092243D02*
X0004544Y0092243D01*
X0004842Y0092541D02*
X0002800Y0092541D01*
X0002800Y0092840D02*
X0005141Y0092840D01*
X0005439Y0093138D02*
X0002800Y0093138D01*
X0002800Y0093437D02*
X0005738Y0093437D01*
X0006036Y0093735D02*
X0002800Y0093735D01*
X0002800Y0094034D02*
X0006335Y0094034D01*
X0006633Y0094332D02*
X0002800Y0094332D01*
X0010594Y0066272D02*
X0010807Y0066272D01*
X0006782Y0064481D02*
X0002800Y0064481D01*
X0002800Y0064183D02*
X0006484Y0064183D01*
X0006185Y0063884D02*
X0002800Y0063884D01*
X0002800Y0063586D02*
X0005887Y0063586D01*
X0005588Y0063287D02*
X0002800Y0063287D01*
X0002800Y0062989D02*
X0005290Y0062989D01*
X0004991Y0062690D02*
X0002800Y0062690D01*
X0002800Y0062392D02*
X0004692Y0062392D01*
X0004400Y0062093D02*
X0002800Y0062093D01*
X0002800Y0061795D02*
X0004400Y0061795D01*
X0004400Y0061496D02*
X0002800Y0061496D01*
X0002800Y0061198D02*
X0004400Y0061198D01*
X0004400Y0060899D02*
X0002800Y0060899D01*
X0002800Y0060601D02*
X0004400Y0060601D01*
X0004400Y0060302D02*
X0002800Y0060302D01*
X0002800Y0060004D02*
X0004400Y0060004D01*
X0004400Y0059705D02*
X0002800Y0059705D01*
X0002800Y0059407D02*
X0004400Y0059407D01*
X0004400Y0059108D02*
X0002800Y0059108D01*
X0002800Y0058810D02*
X0004400Y0058810D01*
X0004467Y0058511D02*
X0002800Y0058511D01*
X0002800Y0058213D02*
X0004766Y0058213D01*
X0005064Y0057914D02*
X0002800Y0057914D01*
X0002800Y0057616D02*
X0005363Y0057616D01*
X0005661Y0057317D02*
X0002800Y0057317D01*
X0002800Y0057019D02*
X0005960Y0057019D01*
X0006258Y0056720D02*
X0002800Y0056720D01*
X0002800Y0056421D02*
X0006557Y0056421D01*
X0006855Y0056123D02*
X0002800Y0056123D01*
X0026255Y0051645D02*
X0028550Y0051645D01*
X0028550Y0051347D02*
X0026553Y0051347D01*
X0026852Y0051048D02*
X0028550Y0051048D01*
X0028550Y0050750D02*
X0027150Y0050750D01*
X0027449Y0050451D02*
X0028550Y0050451D01*
X0028550Y0050153D02*
X0027747Y0050153D01*
X0028046Y0049854D02*
X0028550Y0049854D01*
X0028550Y0049556D02*
X0028344Y0049556D01*
X0049291Y0046571D02*
X0049390Y0046571D01*
D13*
X0049900Y0049089D03*
X0042400Y0049089D03*
X0033650Y0049089D03*
X0028650Y0041589D03*
X0024900Y0041589D03*
X0021150Y0041589D03*
X0017400Y0041589D03*
X0042400Y0031589D03*
X0042400Y0026589D03*
X0042400Y0021589D03*
X0051150Y0035339D03*
X0051150Y0039089D03*
X0054900Y0039089D03*
X0054900Y0035339D03*
X0058650Y0035339D03*
X0083650Y0055339D03*
X0087400Y0055339D03*
X0087400Y0059089D03*
D14*
X0049900Y0049089D02*
X0044900Y0044089D01*
X0044672Y0044317D01*
X0031673Y0044317D01*
X0025652Y0050339D01*
X0008650Y0050339D01*
X0008650Y0060339D02*
X0016104Y0060339D01*
X0021654Y0054789D01*
X0027950Y0054789D01*
X0029900Y0052839D01*
X0029900Y0048636D01*
X0032419Y0046117D01*
X0034881Y0046117D01*
X0037853Y0049089D01*
X0042400Y0049089D01*
X0033650Y0049089D02*
X0033650Y0056589D01*
X0022400Y0056589D01*
X0008650Y0070339D01*
M02*
