%
M48
M72
T01C0.0236
T02C0.0394
%
T01
X1740Y4159
X2115Y4159
X2490Y4159
X2865Y4159
X3365Y4909
X4240Y4909
X4990Y4909
X5115Y3909
X5490Y3909
X5490Y3534
X5115Y3534
X5865Y3534
X4240Y3159
X4240Y2659
X4240Y2159
X8365Y5534
X8740Y5534
X8740Y5909
T02
X865Y2034
X865Y3034
X865Y4034
X865Y5034
X865Y6034
X865Y7034
X865Y8034
X865Y9034
X865Y10034
X865Y11034
X865Y12034
X865Y13034
X865Y14034
X9865Y14034
X9865Y13034
X9865Y12034
X9865Y11034
X9865Y10034
X9865Y9034
X9865Y8034
X9865Y7034
X9865Y6034
X9865Y5034
X9865Y4034
X9865Y3034
X9865Y2034
M30
