G75*
%MOIN*%
%OFA0B0*%
%FSLAX25Y25*%
%IPPOS*%
%LPD*%
%AMOC8*
5,1,8,0,0,1.08239X$1,22.5*
%
%ADD10C,0.00500*%
%ADD11C,0.00600*%
D10*
X0022213Y0049089D02*
X0022991Y0049089D01*
X0022602Y0049089D02*
X0022602Y0052589D01*
X0022991Y0052589D02*
X0022213Y0052589D01*
X0020694Y0051617D02*
X0020694Y0050061D01*
X0020692Y0050000D01*
X0020686Y0049939D01*
X0020677Y0049879D01*
X0020663Y0049819D01*
X0020646Y0049761D01*
X0020626Y0049703D01*
X0020601Y0049647D01*
X0020574Y0049593D01*
X0020543Y0049540D01*
X0020508Y0049490D01*
X0020471Y0049441D01*
X0020431Y0049396D01*
X0020387Y0049352D01*
X0020342Y0049312D01*
X0020293Y0049275D01*
X0020243Y0049240D01*
X0020190Y0049209D01*
X0020136Y0049182D01*
X0020080Y0049157D01*
X0020022Y0049137D01*
X0019964Y0049120D01*
X0019904Y0049106D01*
X0019844Y0049097D01*
X0019783Y0049091D01*
X0019722Y0049089D01*
X0019661Y0049091D01*
X0019600Y0049097D01*
X0019540Y0049106D01*
X0019480Y0049120D01*
X0019422Y0049137D01*
X0019364Y0049157D01*
X0019308Y0049182D01*
X0019254Y0049209D01*
X0019201Y0049240D01*
X0019151Y0049275D01*
X0019102Y0049312D01*
X0019057Y0049352D01*
X0019013Y0049396D01*
X0018973Y0049441D01*
X0018936Y0049490D01*
X0018901Y0049540D01*
X0018870Y0049593D01*
X0018843Y0049647D01*
X0018818Y0049703D01*
X0018798Y0049761D01*
X0018781Y0049819D01*
X0018767Y0049879D01*
X0018758Y0049939D01*
X0018752Y0050000D01*
X0018750Y0050061D01*
X0018750Y0051617D01*
X0018752Y0051678D01*
X0018758Y0051739D01*
X0018767Y0051799D01*
X0018781Y0051859D01*
X0018798Y0051917D01*
X0018818Y0051975D01*
X0018843Y0052031D01*
X0018870Y0052085D01*
X0018901Y0052138D01*
X0018936Y0052188D01*
X0018973Y0052237D01*
X0019013Y0052282D01*
X0019057Y0052326D01*
X0019102Y0052366D01*
X0019151Y0052403D01*
X0019201Y0052438D01*
X0019254Y0052469D01*
X0019308Y0052496D01*
X0019364Y0052521D01*
X0019422Y0052541D01*
X0019480Y0052558D01*
X0019540Y0052572D01*
X0019600Y0052581D01*
X0019661Y0052587D01*
X0019722Y0052589D01*
X0019783Y0052587D01*
X0019844Y0052581D01*
X0019904Y0052572D01*
X0019964Y0052558D01*
X0020022Y0052541D01*
X0020080Y0052521D01*
X0020136Y0052496D01*
X0020190Y0052469D01*
X0020243Y0052438D01*
X0020293Y0052403D01*
X0020342Y0052366D01*
X0020387Y0052326D01*
X0020431Y0052282D01*
X0020471Y0052237D01*
X0020508Y0052188D01*
X0020543Y0052138D01*
X0020574Y0052085D01*
X0020601Y0052031D01*
X0020626Y0051975D01*
X0020646Y0051917D01*
X0020663Y0051859D01*
X0020677Y0051799D01*
X0020686Y0051739D01*
X0020692Y0051678D01*
X0020694Y0051617D01*
X0017094Y0051617D02*
X0017094Y0051422D01*
X0017095Y0051422D02*
X0017093Y0051369D01*
X0017088Y0051316D01*
X0017079Y0051264D01*
X0017066Y0051212D01*
X0017050Y0051161D01*
X0017031Y0051112D01*
X0017008Y0051064D01*
X0016982Y0051018D01*
X0016953Y0050973D01*
X0016921Y0050931D01*
X0016886Y0050891D01*
X0016848Y0050853D01*
X0016808Y0050818D01*
X0016766Y0050786D01*
X0016721Y0050757D01*
X0016675Y0050731D01*
X0016627Y0050708D01*
X0016578Y0050689D01*
X0016527Y0050673D01*
X0016475Y0050660D01*
X0016423Y0050651D01*
X0016370Y0050646D01*
X0016317Y0050644D01*
X0015150Y0050644D01*
X0015150Y0051617D01*
X0015152Y0051678D01*
X0015158Y0051739D01*
X0015167Y0051799D01*
X0015181Y0051859D01*
X0015198Y0051917D01*
X0015218Y0051975D01*
X0015243Y0052031D01*
X0015270Y0052085D01*
X0015301Y0052138D01*
X0015336Y0052188D01*
X0015373Y0052237D01*
X0015413Y0052282D01*
X0015457Y0052326D01*
X0015502Y0052366D01*
X0015551Y0052403D01*
X0015601Y0052438D01*
X0015654Y0052469D01*
X0015708Y0052496D01*
X0015764Y0052521D01*
X0015822Y0052541D01*
X0015880Y0052558D01*
X0015940Y0052572D01*
X0016000Y0052581D01*
X0016061Y0052587D01*
X0016122Y0052589D01*
X0016183Y0052587D01*
X0016244Y0052581D01*
X0016304Y0052572D01*
X0016364Y0052558D01*
X0016422Y0052541D01*
X0016480Y0052521D01*
X0016536Y0052496D01*
X0016590Y0052469D01*
X0016643Y0052438D01*
X0016693Y0052403D01*
X0016742Y0052366D01*
X0016787Y0052326D01*
X0016831Y0052282D01*
X0016871Y0052237D01*
X0016908Y0052188D01*
X0016943Y0052138D01*
X0016974Y0052085D01*
X0017001Y0052031D01*
X0017026Y0051975D01*
X0017046Y0051917D01*
X0017063Y0051859D01*
X0017077Y0051799D01*
X0017086Y0051739D01*
X0017092Y0051678D01*
X0017094Y0051617D01*
X0015150Y0050644D02*
X0015152Y0050568D01*
X0015157Y0050491D01*
X0015167Y0050416D01*
X0015180Y0050340D01*
X0015197Y0050266D01*
X0015217Y0050192D01*
X0015241Y0050120D01*
X0015268Y0050049D01*
X0015299Y0049979D01*
X0015334Y0049911D01*
X0015371Y0049844D01*
X0015412Y0049780D01*
X0015456Y0049717D01*
X0015503Y0049657D01*
X0015553Y0049599D01*
X0015606Y0049544D01*
X0015661Y0049491D01*
X0015719Y0049441D01*
X0015779Y0049394D01*
X0015842Y0049350D01*
X0015906Y0049309D01*
X0015973Y0049272D01*
X0016041Y0049237D01*
X0016111Y0049206D01*
X0016182Y0049179D01*
X0016254Y0049155D01*
X0016328Y0049135D01*
X0016402Y0049118D01*
X0016478Y0049105D01*
X0016553Y0049095D01*
X0016630Y0049090D01*
X0016706Y0049088D01*
X0025294Y0050644D02*
X0026266Y0050644D01*
X0025294Y0050645D02*
X0025233Y0050647D01*
X0025172Y0050653D01*
X0025112Y0050662D01*
X0025052Y0050676D01*
X0024994Y0050693D01*
X0024936Y0050713D01*
X0024880Y0050738D01*
X0024826Y0050765D01*
X0024773Y0050796D01*
X0024723Y0050831D01*
X0024674Y0050868D01*
X0024629Y0050908D01*
X0024585Y0050952D01*
X0024545Y0050997D01*
X0024508Y0051046D01*
X0024473Y0051096D01*
X0024442Y0051149D01*
X0024415Y0051203D01*
X0024390Y0051259D01*
X0024370Y0051317D01*
X0024353Y0051375D01*
X0024339Y0051435D01*
X0024330Y0051495D01*
X0024324Y0051556D01*
X0024322Y0051617D01*
X0024324Y0051678D01*
X0024330Y0051739D01*
X0024339Y0051799D01*
X0024353Y0051859D01*
X0024370Y0051917D01*
X0024390Y0051975D01*
X0024415Y0052031D01*
X0024442Y0052085D01*
X0024473Y0052138D01*
X0024508Y0052188D01*
X0024545Y0052237D01*
X0024585Y0052282D01*
X0024629Y0052326D01*
X0024674Y0052366D01*
X0024723Y0052403D01*
X0024773Y0052438D01*
X0024826Y0052469D01*
X0024880Y0052496D01*
X0024936Y0052521D01*
X0024994Y0052541D01*
X0025052Y0052558D01*
X0025112Y0052572D01*
X0025172Y0052581D01*
X0025233Y0052587D01*
X0025294Y0052589D01*
X0026266Y0052589D01*
X0026266Y0049089D01*
X0028230Y0049089D02*
X0028230Y0051033D01*
X0028813Y0051033D01*
X0030175Y0051811D02*
X0030173Y0051867D01*
X0030167Y0051922D01*
X0030157Y0051976D01*
X0030143Y0052030D01*
X0030126Y0052083D01*
X0030105Y0052134D01*
X0030080Y0052184D01*
X0030052Y0052232D01*
X0030020Y0052277D01*
X0029985Y0052320D01*
X0029947Y0052361D01*
X0029906Y0052399D01*
X0029863Y0052434D01*
X0029818Y0052465D01*
X0029770Y0052494D01*
X0029720Y0052519D01*
X0029669Y0052540D01*
X0029616Y0052557D01*
X0029562Y0052571D01*
X0029508Y0052581D01*
X0029453Y0052587D01*
X0029397Y0052589D01*
X0028230Y0052589D01*
X0030174Y0051811D02*
X0030174Y0049867D01*
X0030175Y0049867D02*
X0030173Y0049814D01*
X0030168Y0049761D01*
X0030159Y0049709D01*
X0030146Y0049657D01*
X0030130Y0049606D01*
X0030111Y0049557D01*
X0030088Y0049509D01*
X0030062Y0049463D01*
X0030033Y0049418D01*
X0030001Y0049376D01*
X0029966Y0049336D01*
X0029928Y0049298D01*
X0029888Y0049263D01*
X0029846Y0049231D01*
X0029801Y0049202D01*
X0029755Y0049176D01*
X0029707Y0049153D01*
X0029658Y0049134D01*
X0029607Y0049118D01*
X0029555Y0049105D01*
X0029503Y0049096D01*
X0029450Y0049091D01*
X0029397Y0049089D01*
X0028230Y0049089D01*
X0026769Y0059089D02*
X0026769Y0062589D01*
X0025602Y0060644D01*
X0024436Y0062589D01*
X0024436Y0059089D01*
X0022751Y0059089D02*
X0021973Y0059089D01*
X0022362Y0059089D02*
X0022362Y0062589D01*
X0022751Y0062589D02*
X0021973Y0062589D01*
X0020088Y0061130D02*
X0019019Y0060547D01*
X0019408Y0059089D02*
X0019484Y0059091D01*
X0019560Y0059096D01*
X0019636Y0059105D01*
X0019711Y0059117D01*
X0019786Y0059133D01*
X0019860Y0059152D01*
X0019933Y0059175D01*
X0020005Y0059201D01*
X0020075Y0059230D01*
X0020144Y0059263D01*
X0020211Y0059299D01*
X0020277Y0059338D01*
X0020341Y0059380D01*
X0020403Y0059424D01*
X0020462Y0059472D01*
X0020520Y0059522D01*
X0020575Y0059575D01*
X0019019Y0060548D02*
X0018973Y0060518D01*
X0018929Y0060486D01*
X0018887Y0060450D01*
X0018848Y0060412D01*
X0018812Y0060371D01*
X0018778Y0060328D01*
X0018748Y0060282D01*
X0018721Y0060235D01*
X0018697Y0060186D01*
X0018677Y0060135D01*
X0018660Y0060083D01*
X0018647Y0060030D01*
X0018638Y0059976D01*
X0018632Y0059922D01*
X0018630Y0059867D01*
X0018632Y0059811D01*
X0018638Y0059756D01*
X0018648Y0059702D01*
X0018662Y0059648D01*
X0018679Y0059595D01*
X0018700Y0059544D01*
X0018725Y0059494D01*
X0018754Y0059446D01*
X0018785Y0059401D01*
X0018820Y0059358D01*
X0018858Y0059317D01*
X0018899Y0059279D01*
X0018942Y0059244D01*
X0018987Y0059213D01*
X0019035Y0059184D01*
X0019085Y0059159D01*
X0019136Y0059138D01*
X0019189Y0059121D01*
X0019243Y0059107D01*
X0019297Y0059097D01*
X0019352Y0059091D01*
X0019408Y0059089D01*
X0018824Y0062296D02*
X0018883Y0062338D01*
X0018944Y0062377D01*
X0019006Y0062413D01*
X0019071Y0062446D01*
X0019137Y0062475D01*
X0019204Y0062501D01*
X0019272Y0062524D01*
X0019342Y0062544D01*
X0019412Y0062560D01*
X0019483Y0062572D01*
X0019555Y0062581D01*
X0019627Y0062586D01*
X0019699Y0062588D01*
X0019699Y0062589D02*
X0019755Y0062587D01*
X0019810Y0062581D01*
X0019864Y0062571D01*
X0019918Y0062557D01*
X0019971Y0062540D01*
X0020022Y0062519D01*
X0020072Y0062494D01*
X0020120Y0062465D01*
X0020165Y0062434D01*
X0020208Y0062399D01*
X0020249Y0062361D01*
X0020287Y0062320D01*
X0020322Y0062277D01*
X0020353Y0062232D01*
X0020382Y0062184D01*
X0020407Y0062134D01*
X0020428Y0062083D01*
X0020445Y0062030D01*
X0020459Y0061976D01*
X0020469Y0061922D01*
X0020475Y0061867D01*
X0020477Y0061811D01*
X0020475Y0061756D01*
X0020469Y0061702D01*
X0020460Y0061648D01*
X0020447Y0061595D01*
X0020430Y0061543D01*
X0020410Y0061492D01*
X0020386Y0061443D01*
X0020359Y0061396D01*
X0020329Y0061350D01*
X0020295Y0061307D01*
X0020259Y0061266D01*
X0020220Y0061228D01*
X0020178Y0061192D01*
X0020134Y0061160D01*
X0020088Y0061130D01*
X0017094Y0061617D02*
X0017094Y0060061D01*
X0017092Y0060000D01*
X0017086Y0059939D01*
X0017077Y0059879D01*
X0017063Y0059819D01*
X0017046Y0059761D01*
X0017026Y0059703D01*
X0017001Y0059647D01*
X0016974Y0059593D01*
X0016943Y0059540D01*
X0016908Y0059490D01*
X0016871Y0059441D01*
X0016831Y0059396D01*
X0016787Y0059352D01*
X0016742Y0059312D01*
X0016693Y0059275D01*
X0016643Y0059240D01*
X0016590Y0059209D01*
X0016536Y0059182D01*
X0016480Y0059157D01*
X0016422Y0059137D01*
X0016364Y0059120D01*
X0016304Y0059106D01*
X0016244Y0059097D01*
X0016183Y0059091D01*
X0016122Y0059089D01*
X0016061Y0059091D01*
X0016000Y0059097D01*
X0015940Y0059106D01*
X0015880Y0059120D01*
X0015822Y0059137D01*
X0015764Y0059157D01*
X0015708Y0059182D01*
X0015654Y0059209D01*
X0015601Y0059240D01*
X0015551Y0059275D01*
X0015502Y0059312D01*
X0015457Y0059352D01*
X0015413Y0059396D01*
X0015373Y0059441D01*
X0015336Y0059490D01*
X0015301Y0059540D01*
X0015270Y0059593D01*
X0015243Y0059647D01*
X0015218Y0059703D01*
X0015198Y0059761D01*
X0015181Y0059819D01*
X0015167Y0059879D01*
X0015158Y0059939D01*
X0015152Y0060000D01*
X0015150Y0060061D01*
X0015150Y0061617D01*
X0015152Y0061678D01*
X0015158Y0061739D01*
X0015167Y0061799D01*
X0015181Y0061859D01*
X0015198Y0061917D01*
X0015218Y0061975D01*
X0015243Y0062031D01*
X0015270Y0062085D01*
X0015301Y0062138D01*
X0015336Y0062188D01*
X0015373Y0062237D01*
X0015413Y0062282D01*
X0015457Y0062326D01*
X0015502Y0062366D01*
X0015551Y0062403D01*
X0015601Y0062438D01*
X0015654Y0062469D01*
X0015708Y0062496D01*
X0015764Y0062521D01*
X0015822Y0062541D01*
X0015880Y0062558D01*
X0015940Y0062572D01*
X0016000Y0062581D01*
X0016061Y0062587D01*
X0016122Y0062589D01*
X0016183Y0062587D01*
X0016244Y0062581D01*
X0016304Y0062572D01*
X0016364Y0062558D01*
X0016422Y0062541D01*
X0016480Y0062521D01*
X0016536Y0062496D01*
X0016590Y0062469D01*
X0016643Y0062438D01*
X0016693Y0062403D01*
X0016742Y0062366D01*
X0016787Y0062326D01*
X0016831Y0062282D01*
X0016871Y0062237D01*
X0016908Y0062188D01*
X0016943Y0062138D01*
X0016974Y0062085D01*
X0017001Y0062031D01*
X0017026Y0061975D01*
X0017046Y0061917D01*
X0017063Y0061859D01*
X0017077Y0061799D01*
X0017086Y0061739D01*
X0017092Y0061678D01*
X0017094Y0061617D01*
X0021912Y0069089D02*
X0022690Y0069089D01*
X0022743Y0069091D01*
X0022796Y0069096D01*
X0022848Y0069105D01*
X0022900Y0069118D01*
X0022951Y0069134D01*
X0023000Y0069153D01*
X0023048Y0069176D01*
X0023094Y0069202D01*
X0023139Y0069231D01*
X0023181Y0069263D01*
X0023221Y0069298D01*
X0023259Y0069336D01*
X0023294Y0069376D01*
X0023326Y0069418D01*
X0023355Y0069463D01*
X0023381Y0069509D01*
X0023404Y0069557D01*
X0023423Y0069606D01*
X0023439Y0069657D01*
X0023452Y0069709D01*
X0023461Y0069761D01*
X0023466Y0069814D01*
X0023468Y0069867D01*
X0023468Y0071811D01*
X0023466Y0071867D01*
X0023460Y0071922D01*
X0023450Y0071976D01*
X0023436Y0072030D01*
X0023419Y0072083D01*
X0023398Y0072134D01*
X0023373Y0072184D01*
X0023345Y0072232D01*
X0023313Y0072277D01*
X0023278Y0072320D01*
X0023240Y0072361D01*
X0023199Y0072399D01*
X0023156Y0072434D01*
X0023111Y0072465D01*
X0023063Y0072494D01*
X0023013Y0072519D01*
X0022962Y0072540D01*
X0022909Y0072557D01*
X0022855Y0072571D01*
X0022801Y0072581D01*
X0022746Y0072587D01*
X0022690Y0072589D01*
X0021912Y0072589D01*
X0020088Y0071130D02*
X0019019Y0070547D01*
X0019408Y0069089D02*
X0019484Y0069091D01*
X0019560Y0069096D01*
X0019636Y0069105D01*
X0019711Y0069117D01*
X0019786Y0069133D01*
X0019860Y0069152D01*
X0019933Y0069175D01*
X0020005Y0069201D01*
X0020075Y0069230D01*
X0020144Y0069263D01*
X0020211Y0069299D01*
X0020277Y0069338D01*
X0020341Y0069380D01*
X0020403Y0069424D01*
X0020462Y0069472D01*
X0020520Y0069522D01*
X0020575Y0069575D01*
X0019019Y0070548D02*
X0018973Y0070518D01*
X0018929Y0070486D01*
X0018887Y0070450D01*
X0018848Y0070412D01*
X0018812Y0070371D01*
X0018778Y0070328D01*
X0018748Y0070282D01*
X0018721Y0070235D01*
X0018697Y0070186D01*
X0018677Y0070135D01*
X0018660Y0070083D01*
X0018647Y0070030D01*
X0018638Y0069976D01*
X0018632Y0069922D01*
X0018630Y0069867D01*
X0018632Y0069811D01*
X0018638Y0069756D01*
X0018648Y0069702D01*
X0018662Y0069648D01*
X0018679Y0069595D01*
X0018700Y0069544D01*
X0018725Y0069494D01*
X0018754Y0069446D01*
X0018785Y0069401D01*
X0018820Y0069358D01*
X0018858Y0069317D01*
X0018899Y0069279D01*
X0018942Y0069244D01*
X0018987Y0069213D01*
X0019035Y0069184D01*
X0019085Y0069159D01*
X0019136Y0069138D01*
X0019189Y0069121D01*
X0019243Y0069107D01*
X0019297Y0069097D01*
X0019352Y0069091D01*
X0019408Y0069089D01*
X0018824Y0072296D02*
X0018883Y0072338D01*
X0018944Y0072377D01*
X0019006Y0072413D01*
X0019071Y0072446D01*
X0019137Y0072475D01*
X0019204Y0072501D01*
X0019272Y0072524D01*
X0019342Y0072544D01*
X0019412Y0072560D01*
X0019483Y0072572D01*
X0019555Y0072581D01*
X0019627Y0072586D01*
X0019699Y0072588D01*
X0019699Y0072589D02*
X0019755Y0072587D01*
X0019810Y0072581D01*
X0019864Y0072571D01*
X0019918Y0072557D01*
X0019971Y0072540D01*
X0020022Y0072519D01*
X0020072Y0072494D01*
X0020120Y0072465D01*
X0020165Y0072434D01*
X0020208Y0072399D01*
X0020249Y0072361D01*
X0020287Y0072320D01*
X0020322Y0072277D01*
X0020353Y0072232D01*
X0020382Y0072184D01*
X0020407Y0072134D01*
X0020428Y0072083D01*
X0020445Y0072030D01*
X0020459Y0071976D01*
X0020469Y0071922D01*
X0020475Y0071867D01*
X0020477Y0071811D01*
X0020475Y0071756D01*
X0020469Y0071702D01*
X0020460Y0071648D01*
X0020447Y0071595D01*
X0020430Y0071543D01*
X0020410Y0071492D01*
X0020386Y0071443D01*
X0020359Y0071396D01*
X0020329Y0071350D01*
X0020295Y0071307D01*
X0020259Y0071266D01*
X0020220Y0071228D01*
X0020178Y0071192D01*
X0020134Y0071160D01*
X0020088Y0071130D01*
X0015442Y0069575D02*
X0015399Y0069666D01*
X0015360Y0069759D01*
X0015324Y0069853D01*
X0015291Y0069948D01*
X0015262Y0070044D01*
X0015236Y0070142D01*
X0015213Y0070240D01*
X0015194Y0070338D01*
X0015178Y0070438D01*
X0015166Y0070538D01*
X0015157Y0070638D01*
X0015152Y0070738D01*
X0015150Y0070839D01*
X0017094Y0070839D02*
X0017092Y0070940D01*
X0017087Y0071040D01*
X0017078Y0071140D01*
X0017066Y0071240D01*
X0017050Y0071340D01*
X0017031Y0071438D01*
X0017008Y0071536D01*
X0016982Y0071634D01*
X0016953Y0071730D01*
X0016920Y0071825D01*
X0016884Y0071919D01*
X0016845Y0072012D01*
X0016802Y0072103D01*
X0016122Y0072588D02*
X0016070Y0072586D01*
X0016017Y0072580D01*
X0015966Y0072571D01*
X0015915Y0072558D01*
X0015865Y0072541D01*
X0015817Y0072520D01*
X0015770Y0072496D01*
X0015726Y0072469D01*
X0015683Y0072438D01*
X0015643Y0072405D01*
X0015605Y0072369D01*
X0015570Y0072330D01*
X0015538Y0072288D01*
X0015509Y0072244D01*
X0015483Y0072199D01*
X0015461Y0072151D01*
X0015442Y0072102D01*
X0015344Y0071811D02*
X0016900Y0069867D01*
X0016802Y0069575D02*
X0016783Y0069526D01*
X0016761Y0069478D01*
X0016735Y0069433D01*
X0016706Y0069389D01*
X0016674Y0069347D01*
X0016639Y0069308D01*
X0016601Y0069272D01*
X0016561Y0069239D01*
X0016518Y0069208D01*
X0016473Y0069181D01*
X0016427Y0069157D01*
X0016379Y0069136D01*
X0016329Y0069119D01*
X0016278Y0069106D01*
X0016227Y0069097D01*
X0016174Y0069091D01*
X0016122Y0069089D01*
X0016070Y0069091D01*
X0016017Y0069097D01*
X0015966Y0069106D01*
X0015915Y0069119D01*
X0015865Y0069136D01*
X0015817Y0069157D01*
X0015771Y0069181D01*
X0015726Y0069208D01*
X0015683Y0069239D01*
X0015643Y0069272D01*
X0015605Y0069308D01*
X0015570Y0069347D01*
X0015538Y0069389D01*
X0015509Y0069433D01*
X0015483Y0069478D01*
X0015461Y0069526D01*
X0015442Y0069575D01*
X0016802Y0069575D02*
X0016845Y0069666D01*
X0016884Y0069759D01*
X0016920Y0069853D01*
X0016953Y0069948D01*
X0016982Y0070044D01*
X0017008Y0070142D01*
X0017031Y0070240D01*
X0017050Y0070338D01*
X0017066Y0070438D01*
X0017078Y0070538D01*
X0017087Y0070638D01*
X0017092Y0070738D01*
X0017094Y0070839D01*
X0015150Y0070839D02*
X0015152Y0070940D01*
X0015157Y0071040D01*
X0015166Y0071140D01*
X0015178Y0071240D01*
X0015194Y0071340D01*
X0015213Y0071438D01*
X0015236Y0071536D01*
X0015262Y0071634D01*
X0015291Y0071730D01*
X0015324Y0071825D01*
X0015360Y0071919D01*
X0015399Y0072012D01*
X0015442Y0072103D01*
X0016122Y0072588D02*
X0016174Y0072586D01*
X0016227Y0072580D01*
X0016278Y0072571D01*
X0016329Y0072558D01*
X0016379Y0072541D01*
X0016427Y0072520D01*
X0016473Y0072496D01*
X0016518Y0072469D01*
X0016561Y0072438D01*
X0016601Y0072405D01*
X0016639Y0072369D01*
X0016674Y0072330D01*
X0016706Y0072288D01*
X0016735Y0072244D01*
X0016761Y0072199D01*
X0016783Y0072151D01*
X0016802Y0072102D01*
X0017094Y0077839D02*
X0016122Y0077839D01*
X0016061Y0077841D01*
X0016000Y0077847D01*
X0015940Y0077856D01*
X0015880Y0077870D01*
X0015822Y0077887D01*
X0015764Y0077907D01*
X0015708Y0077932D01*
X0015654Y0077959D01*
X0015601Y0077990D01*
X0015551Y0078025D01*
X0015502Y0078062D01*
X0015457Y0078102D01*
X0015413Y0078146D01*
X0015373Y0078191D01*
X0015336Y0078240D01*
X0015301Y0078290D01*
X0015270Y0078343D01*
X0015243Y0078397D01*
X0015218Y0078453D01*
X0015198Y0078511D01*
X0015181Y0078569D01*
X0015167Y0078629D01*
X0015158Y0078689D01*
X0015152Y0078750D01*
X0015150Y0078811D01*
X0015152Y0078872D01*
X0015158Y0078933D01*
X0015167Y0078993D01*
X0015181Y0079053D01*
X0015198Y0079111D01*
X0015218Y0079169D01*
X0015243Y0079225D01*
X0015270Y0079279D01*
X0015301Y0079332D01*
X0015336Y0079382D01*
X0015373Y0079431D01*
X0015413Y0079476D01*
X0015457Y0079520D01*
X0015502Y0079560D01*
X0015551Y0079597D01*
X0015601Y0079632D01*
X0015654Y0079663D01*
X0015708Y0079690D01*
X0015764Y0079715D01*
X0015822Y0079735D01*
X0015880Y0079752D01*
X0015940Y0079766D01*
X0016000Y0079775D01*
X0016061Y0079781D01*
X0016122Y0079783D01*
X0015928Y0079783D02*
X0016706Y0079783D01*
X0015928Y0079783D02*
X0015872Y0079785D01*
X0015817Y0079791D01*
X0015763Y0079801D01*
X0015709Y0079815D01*
X0015656Y0079832D01*
X0015605Y0079853D01*
X0015555Y0079878D01*
X0015507Y0079907D01*
X0015462Y0079938D01*
X0015419Y0079973D01*
X0015378Y0080011D01*
X0015340Y0080052D01*
X0015305Y0080095D01*
X0015274Y0080140D01*
X0015245Y0080188D01*
X0015220Y0080238D01*
X0015199Y0080289D01*
X0015182Y0080342D01*
X0015168Y0080396D01*
X0015158Y0080450D01*
X0015152Y0080505D01*
X0015150Y0080561D01*
X0015152Y0080617D01*
X0015158Y0080672D01*
X0015168Y0080726D01*
X0015182Y0080780D01*
X0015199Y0080833D01*
X0015220Y0080884D01*
X0015245Y0080934D01*
X0015274Y0080982D01*
X0015305Y0081027D01*
X0015340Y0081070D01*
X0015378Y0081111D01*
X0015419Y0081149D01*
X0015462Y0081184D01*
X0015507Y0081215D01*
X0015555Y0081244D01*
X0015605Y0081269D01*
X0015656Y0081290D01*
X0015709Y0081307D01*
X0015763Y0081321D01*
X0015817Y0081331D01*
X0015872Y0081337D01*
X0015928Y0081339D01*
X0017094Y0081339D01*
X0019722Y0081339D02*
X0019722Y0077839D01*
X0020694Y0077839D02*
X0018750Y0077839D01*
X0020694Y0080561D02*
X0019722Y0081339D01*
X0022350Y0080367D02*
X0022350Y0078811D01*
X0022352Y0078750D01*
X0022358Y0078689D01*
X0022367Y0078629D01*
X0022381Y0078569D01*
X0022398Y0078511D01*
X0022418Y0078453D01*
X0022443Y0078397D01*
X0022470Y0078343D01*
X0022501Y0078290D01*
X0022536Y0078240D01*
X0022573Y0078191D01*
X0022613Y0078146D01*
X0022657Y0078102D01*
X0022702Y0078062D01*
X0022751Y0078025D01*
X0022801Y0077990D01*
X0022854Y0077959D01*
X0022908Y0077932D01*
X0022964Y0077907D01*
X0023022Y0077887D01*
X0023080Y0077870D01*
X0023140Y0077856D01*
X0023200Y0077847D01*
X0023261Y0077841D01*
X0023322Y0077839D01*
X0023383Y0077841D01*
X0023444Y0077847D01*
X0023504Y0077856D01*
X0023564Y0077870D01*
X0023622Y0077887D01*
X0023680Y0077907D01*
X0023736Y0077932D01*
X0023790Y0077959D01*
X0023843Y0077990D01*
X0023893Y0078025D01*
X0023942Y0078062D01*
X0023987Y0078102D01*
X0024031Y0078146D01*
X0024071Y0078191D01*
X0024108Y0078240D01*
X0024143Y0078290D01*
X0024174Y0078343D01*
X0024201Y0078397D01*
X0024226Y0078453D01*
X0024246Y0078511D01*
X0024263Y0078569D01*
X0024277Y0078629D01*
X0024286Y0078689D01*
X0024292Y0078750D01*
X0024294Y0078811D01*
X0024294Y0080367D01*
X0024292Y0080428D01*
X0024286Y0080489D01*
X0024277Y0080549D01*
X0024263Y0080609D01*
X0024246Y0080667D01*
X0024226Y0080725D01*
X0024201Y0080781D01*
X0024174Y0080835D01*
X0024143Y0080888D01*
X0024108Y0080938D01*
X0024071Y0080987D01*
X0024031Y0081032D01*
X0023987Y0081076D01*
X0023942Y0081116D01*
X0023893Y0081153D01*
X0023843Y0081188D01*
X0023790Y0081219D01*
X0023736Y0081246D01*
X0023680Y0081271D01*
X0023622Y0081291D01*
X0023564Y0081308D01*
X0023504Y0081322D01*
X0023444Y0081331D01*
X0023383Y0081337D01*
X0023322Y0081339D01*
X0023261Y0081337D01*
X0023200Y0081331D01*
X0023140Y0081322D01*
X0023080Y0081308D01*
X0023022Y0081291D01*
X0022964Y0081271D01*
X0022908Y0081246D01*
X0022854Y0081219D01*
X0022801Y0081188D01*
X0022751Y0081153D01*
X0022702Y0081116D01*
X0022657Y0081076D01*
X0022613Y0081032D01*
X0022573Y0080987D01*
X0022536Y0080938D01*
X0022501Y0080888D01*
X0022470Y0080835D01*
X0022443Y0080781D01*
X0022418Y0080725D01*
X0022398Y0080667D01*
X0022381Y0080609D01*
X0022367Y0080549D01*
X0022358Y0080489D01*
X0022352Y0080428D01*
X0022350Y0080367D01*
X0025813Y0081339D02*
X0026591Y0081339D01*
X0026202Y0081339D02*
X0026202Y0077839D01*
X0026591Y0077839D02*
X0025813Y0077839D01*
X0028894Y0079394D02*
X0029866Y0079394D01*
X0028894Y0079395D02*
X0028833Y0079397D01*
X0028772Y0079403D01*
X0028712Y0079412D01*
X0028652Y0079426D01*
X0028594Y0079443D01*
X0028536Y0079463D01*
X0028480Y0079488D01*
X0028426Y0079515D01*
X0028373Y0079546D01*
X0028323Y0079581D01*
X0028274Y0079618D01*
X0028229Y0079658D01*
X0028185Y0079702D01*
X0028145Y0079747D01*
X0028108Y0079796D01*
X0028073Y0079846D01*
X0028042Y0079899D01*
X0028015Y0079953D01*
X0027990Y0080009D01*
X0027970Y0080067D01*
X0027953Y0080125D01*
X0027939Y0080185D01*
X0027930Y0080245D01*
X0027924Y0080306D01*
X0027922Y0080367D01*
X0027924Y0080428D01*
X0027930Y0080489D01*
X0027939Y0080549D01*
X0027953Y0080609D01*
X0027970Y0080667D01*
X0027990Y0080725D01*
X0028015Y0080781D01*
X0028042Y0080835D01*
X0028073Y0080888D01*
X0028108Y0080938D01*
X0028145Y0080987D01*
X0028185Y0081032D01*
X0028229Y0081076D01*
X0028274Y0081116D01*
X0028323Y0081153D01*
X0028373Y0081188D01*
X0028426Y0081219D01*
X0028480Y0081246D01*
X0028536Y0081271D01*
X0028594Y0081291D01*
X0028652Y0081308D01*
X0028712Y0081322D01*
X0028772Y0081331D01*
X0028833Y0081337D01*
X0028894Y0081339D01*
X0029866Y0081339D01*
X0029866Y0077839D01*
X0031830Y0077839D02*
X0032997Y0077839D01*
X0033050Y0077841D01*
X0033103Y0077846D01*
X0033155Y0077855D01*
X0033207Y0077868D01*
X0033258Y0077884D01*
X0033307Y0077903D01*
X0033355Y0077926D01*
X0033401Y0077952D01*
X0033446Y0077981D01*
X0033488Y0078013D01*
X0033528Y0078048D01*
X0033566Y0078086D01*
X0033601Y0078126D01*
X0033633Y0078168D01*
X0033662Y0078213D01*
X0033688Y0078259D01*
X0033711Y0078307D01*
X0033730Y0078356D01*
X0033746Y0078407D01*
X0033759Y0078459D01*
X0033768Y0078511D01*
X0033773Y0078564D01*
X0033775Y0078617D01*
X0033774Y0078617D02*
X0033774Y0080561D01*
X0033775Y0080561D02*
X0033773Y0080617D01*
X0033767Y0080672D01*
X0033757Y0080726D01*
X0033743Y0080780D01*
X0033726Y0080833D01*
X0033705Y0080884D01*
X0033680Y0080934D01*
X0033652Y0080982D01*
X0033620Y0081027D01*
X0033585Y0081070D01*
X0033547Y0081111D01*
X0033506Y0081149D01*
X0033463Y0081184D01*
X0033418Y0081215D01*
X0033370Y0081244D01*
X0033320Y0081269D01*
X0033269Y0081290D01*
X0033216Y0081307D01*
X0033162Y0081321D01*
X0033108Y0081331D01*
X0033053Y0081337D01*
X0032997Y0081339D01*
X0031830Y0081339D01*
X0031830Y0079783D02*
X0031830Y0077839D01*
X0031830Y0079783D02*
X0032413Y0079783D01*
X0031830Y0089089D02*
X0032997Y0089089D01*
X0033050Y0089091D01*
X0033103Y0089096D01*
X0033155Y0089105D01*
X0033207Y0089118D01*
X0033258Y0089134D01*
X0033307Y0089153D01*
X0033355Y0089176D01*
X0033401Y0089202D01*
X0033446Y0089231D01*
X0033488Y0089263D01*
X0033528Y0089298D01*
X0033566Y0089336D01*
X0033601Y0089376D01*
X0033633Y0089418D01*
X0033662Y0089463D01*
X0033688Y0089509D01*
X0033711Y0089557D01*
X0033730Y0089606D01*
X0033746Y0089657D01*
X0033759Y0089709D01*
X0033768Y0089761D01*
X0033773Y0089814D01*
X0033775Y0089867D01*
X0033774Y0089867D02*
X0033774Y0091811D01*
X0033775Y0091811D02*
X0033773Y0091867D01*
X0033767Y0091922D01*
X0033757Y0091976D01*
X0033743Y0092030D01*
X0033726Y0092083D01*
X0033705Y0092134D01*
X0033680Y0092184D01*
X0033652Y0092232D01*
X0033620Y0092277D01*
X0033585Y0092320D01*
X0033547Y0092361D01*
X0033506Y0092399D01*
X0033463Y0092434D01*
X0033418Y0092465D01*
X0033370Y0092494D01*
X0033320Y0092519D01*
X0033269Y0092540D01*
X0033216Y0092557D01*
X0033162Y0092571D01*
X0033108Y0092581D01*
X0033053Y0092587D01*
X0032997Y0092589D01*
X0031830Y0092589D01*
X0031830Y0091033D02*
X0031830Y0089089D01*
X0031830Y0091033D02*
X0032413Y0091033D01*
X0029866Y0090644D02*
X0028894Y0090644D01*
X0028894Y0090645D02*
X0028833Y0090647D01*
X0028772Y0090653D01*
X0028712Y0090662D01*
X0028652Y0090676D01*
X0028594Y0090693D01*
X0028536Y0090713D01*
X0028480Y0090738D01*
X0028426Y0090765D01*
X0028373Y0090796D01*
X0028323Y0090831D01*
X0028274Y0090868D01*
X0028229Y0090908D01*
X0028185Y0090952D01*
X0028145Y0090997D01*
X0028108Y0091046D01*
X0028073Y0091096D01*
X0028042Y0091149D01*
X0028015Y0091203D01*
X0027990Y0091259D01*
X0027970Y0091317D01*
X0027953Y0091375D01*
X0027939Y0091435D01*
X0027930Y0091495D01*
X0027924Y0091556D01*
X0027922Y0091617D01*
X0027924Y0091678D01*
X0027930Y0091739D01*
X0027939Y0091799D01*
X0027953Y0091859D01*
X0027970Y0091917D01*
X0027990Y0091975D01*
X0028015Y0092031D01*
X0028042Y0092085D01*
X0028073Y0092138D01*
X0028108Y0092188D01*
X0028145Y0092237D01*
X0028185Y0092282D01*
X0028229Y0092326D01*
X0028274Y0092366D01*
X0028323Y0092403D01*
X0028373Y0092438D01*
X0028426Y0092469D01*
X0028480Y0092496D01*
X0028536Y0092521D01*
X0028594Y0092541D01*
X0028652Y0092558D01*
X0028712Y0092572D01*
X0028772Y0092581D01*
X0028833Y0092587D01*
X0028894Y0092589D01*
X0029866Y0092589D01*
X0029866Y0089089D01*
X0026591Y0089089D02*
X0025813Y0089089D01*
X0026202Y0089089D02*
X0026202Y0092589D01*
X0026591Y0092589D02*
X0025813Y0092589D01*
X0024294Y0091617D02*
X0024294Y0090061D01*
X0024292Y0090000D01*
X0024286Y0089939D01*
X0024277Y0089879D01*
X0024263Y0089819D01*
X0024246Y0089761D01*
X0024226Y0089703D01*
X0024201Y0089647D01*
X0024174Y0089593D01*
X0024143Y0089540D01*
X0024108Y0089490D01*
X0024071Y0089441D01*
X0024031Y0089396D01*
X0023987Y0089352D01*
X0023942Y0089312D01*
X0023893Y0089275D01*
X0023843Y0089240D01*
X0023790Y0089209D01*
X0023736Y0089182D01*
X0023680Y0089157D01*
X0023622Y0089137D01*
X0023564Y0089120D01*
X0023504Y0089106D01*
X0023444Y0089097D01*
X0023383Y0089091D01*
X0023322Y0089089D01*
X0023261Y0089091D01*
X0023200Y0089097D01*
X0023140Y0089106D01*
X0023080Y0089120D01*
X0023022Y0089137D01*
X0022964Y0089157D01*
X0022908Y0089182D01*
X0022854Y0089209D01*
X0022801Y0089240D01*
X0022751Y0089275D01*
X0022702Y0089312D01*
X0022657Y0089352D01*
X0022613Y0089396D01*
X0022573Y0089441D01*
X0022536Y0089490D01*
X0022501Y0089540D01*
X0022470Y0089593D01*
X0022443Y0089647D01*
X0022418Y0089703D01*
X0022398Y0089761D01*
X0022381Y0089819D01*
X0022367Y0089879D01*
X0022358Y0089939D01*
X0022352Y0090000D01*
X0022350Y0090061D01*
X0022350Y0091617D01*
X0022352Y0091678D01*
X0022358Y0091739D01*
X0022367Y0091799D01*
X0022381Y0091859D01*
X0022398Y0091917D01*
X0022418Y0091975D01*
X0022443Y0092031D01*
X0022470Y0092085D01*
X0022501Y0092138D01*
X0022536Y0092188D01*
X0022573Y0092237D01*
X0022613Y0092282D01*
X0022657Y0092326D01*
X0022702Y0092366D01*
X0022751Y0092403D01*
X0022801Y0092438D01*
X0022854Y0092469D01*
X0022908Y0092496D01*
X0022964Y0092521D01*
X0023022Y0092541D01*
X0023080Y0092558D01*
X0023140Y0092572D01*
X0023200Y0092581D01*
X0023261Y0092587D01*
X0023322Y0092589D01*
X0023383Y0092587D01*
X0023444Y0092581D01*
X0023504Y0092572D01*
X0023564Y0092558D01*
X0023622Y0092541D01*
X0023680Y0092521D01*
X0023736Y0092496D01*
X0023790Y0092469D01*
X0023843Y0092438D01*
X0023893Y0092403D01*
X0023942Y0092366D01*
X0023987Y0092326D01*
X0024031Y0092282D01*
X0024071Y0092237D01*
X0024108Y0092188D01*
X0024143Y0092138D01*
X0024174Y0092085D01*
X0024201Y0092031D01*
X0024226Y0091975D01*
X0024246Y0091917D01*
X0024263Y0091859D01*
X0024277Y0091799D01*
X0024286Y0091739D01*
X0024292Y0091678D01*
X0024294Y0091617D01*
X0020694Y0091811D02*
X0019722Y0092589D01*
X0019722Y0089089D01*
X0020694Y0089089D02*
X0018750Y0089089D01*
X0017094Y0089089D02*
X0015150Y0089089D01*
X0017094Y0089089D02*
X0015442Y0091033D01*
X0016025Y0092589D02*
X0016089Y0092587D01*
X0016153Y0092582D01*
X0016217Y0092573D01*
X0016280Y0092560D01*
X0016342Y0092543D01*
X0016403Y0092524D01*
X0016463Y0092500D01*
X0016521Y0092474D01*
X0016578Y0092444D01*
X0016633Y0092410D01*
X0016686Y0092374D01*
X0016737Y0092335D01*
X0016785Y0092293D01*
X0016832Y0092248D01*
X0016875Y0092201D01*
X0016916Y0092151D01*
X0016953Y0092099D01*
X0016988Y0092045D01*
X0017020Y0091989D01*
X0017048Y0091931D01*
X0017073Y0091872D01*
X0017094Y0091811D01*
X0015442Y0091033D02*
X0015401Y0091075D01*
X0015362Y0091119D01*
X0015327Y0091166D01*
X0015294Y0091214D01*
X0015264Y0091265D01*
X0015238Y0091317D01*
X0015215Y0091371D01*
X0015195Y0091426D01*
X0015179Y0091482D01*
X0015166Y0091539D01*
X0015157Y0091597D01*
X0015152Y0091655D01*
X0015150Y0091714D01*
X0015152Y0091771D01*
X0015157Y0091828D01*
X0015167Y0091885D01*
X0015180Y0091940D01*
X0015196Y0091995D01*
X0015217Y0092049D01*
X0015240Y0092101D01*
X0015267Y0092152D01*
X0015297Y0092200D01*
X0015331Y0092247D01*
X0015367Y0092291D01*
X0015406Y0092333D01*
X0015448Y0092372D01*
X0015492Y0092408D01*
X0015539Y0092442D01*
X0015588Y0092472D01*
X0015638Y0092499D01*
X0015690Y0092522D01*
X0015744Y0092543D01*
X0015799Y0092559D01*
X0015854Y0092572D01*
X0015911Y0092582D01*
X0015968Y0092587D01*
X0016025Y0092589D01*
X0015733Y0097839D02*
X0015733Y0099394D01*
X0015150Y0098617D02*
X0017094Y0098617D01*
X0016317Y0101339D01*
X0018750Y0097839D02*
X0020694Y0097839D01*
X0019722Y0097839D02*
X0019722Y0101339D01*
X0020694Y0100561D01*
X0022350Y0100367D02*
X0022350Y0098811D01*
X0022352Y0098750D01*
X0022358Y0098689D01*
X0022367Y0098629D01*
X0022381Y0098569D01*
X0022398Y0098511D01*
X0022418Y0098453D01*
X0022443Y0098397D01*
X0022470Y0098343D01*
X0022501Y0098290D01*
X0022536Y0098240D01*
X0022573Y0098191D01*
X0022613Y0098146D01*
X0022657Y0098102D01*
X0022702Y0098062D01*
X0022751Y0098025D01*
X0022801Y0097990D01*
X0022854Y0097959D01*
X0022908Y0097932D01*
X0022964Y0097907D01*
X0023022Y0097887D01*
X0023080Y0097870D01*
X0023140Y0097856D01*
X0023200Y0097847D01*
X0023261Y0097841D01*
X0023322Y0097839D01*
X0023383Y0097841D01*
X0023444Y0097847D01*
X0023504Y0097856D01*
X0023564Y0097870D01*
X0023622Y0097887D01*
X0023680Y0097907D01*
X0023736Y0097932D01*
X0023790Y0097959D01*
X0023843Y0097990D01*
X0023893Y0098025D01*
X0023942Y0098062D01*
X0023987Y0098102D01*
X0024031Y0098146D01*
X0024071Y0098191D01*
X0024108Y0098240D01*
X0024143Y0098290D01*
X0024174Y0098343D01*
X0024201Y0098397D01*
X0024226Y0098453D01*
X0024246Y0098511D01*
X0024263Y0098569D01*
X0024277Y0098629D01*
X0024286Y0098689D01*
X0024292Y0098750D01*
X0024294Y0098811D01*
X0024294Y0100367D01*
X0024292Y0100428D01*
X0024286Y0100489D01*
X0024277Y0100549D01*
X0024263Y0100609D01*
X0024246Y0100667D01*
X0024226Y0100725D01*
X0024201Y0100781D01*
X0024174Y0100835D01*
X0024143Y0100888D01*
X0024108Y0100938D01*
X0024071Y0100987D01*
X0024031Y0101032D01*
X0023987Y0101076D01*
X0023942Y0101116D01*
X0023893Y0101153D01*
X0023843Y0101188D01*
X0023790Y0101219D01*
X0023736Y0101246D01*
X0023680Y0101271D01*
X0023622Y0101291D01*
X0023564Y0101308D01*
X0023504Y0101322D01*
X0023444Y0101331D01*
X0023383Y0101337D01*
X0023322Y0101339D01*
X0023261Y0101337D01*
X0023200Y0101331D01*
X0023140Y0101322D01*
X0023080Y0101308D01*
X0023022Y0101291D01*
X0022964Y0101271D01*
X0022908Y0101246D01*
X0022854Y0101219D01*
X0022801Y0101188D01*
X0022751Y0101153D01*
X0022702Y0101116D01*
X0022657Y0101076D01*
X0022613Y0101032D01*
X0022573Y0100987D01*
X0022536Y0100938D01*
X0022501Y0100888D01*
X0022470Y0100835D01*
X0022443Y0100781D01*
X0022418Y0100725D01*
X0022398Y0100667D01*
X0022381Y0100609D01*
X0022367Y0100549D01*
X0022358Y0100489D01*
X0022352Y0100428D01*
X0022350Y0100367D01*
X0025813Y0101339D02*
X0026591Y0101339D01*
X0026202Y0101339D02*
X0026202Y0097839D01*
X0026591Y0097839D02*
X0025813Y0097839D01*
X0028894Y0099394D02*
X0029866Y0099394D01*
X0028894Y0099395D02*
X0028833Y0099397D01*
X0028772Y0099403D01*
X0028712Y0099412D01*
X0028652Y0099426D01*
X0028594Y0099443D01*
X0028536Y0099463D01*
X0028480Y0099488D01*
X0028426Y0099515D01*
X0028373Y0099546D01*
X0028323Y0099581D01*
X0028274Y0099618D01*
X0028229Y0099658D01*
X0028185Y0099702D01*
X0028145Y0099747D01*
X0028108Y0099796D01*
X0028073Y0099846D01*
X0028042Y0099899D01*
X0028015Y0099953D01*
X0027990Y0100009D01*
X0027970Y0100067D01*
X0027953Y0100125D01*
X0027939Y0100185D01*
X0027930Y0100245D01*
X0027924Y0100306D01*
X0027922Y0100367D01*
X0027924Y0100428D01*
X0027930Y0100489D01*
X0027939Y0100549D01*
X0027953Y0100609D01*
X0027970Y0100667D01*
X0027990Y0100725D01*
X0028015Y0100781D01*
X0028042Y0100835D01*
X0028073Y0100888D01*
X0028108Y0100938D01*
X0028145Y0100987D01*
X0028185Y0101032D01*
X0028229Y0101076D01*
X0028274Y0101116D01*
X0028323Y0101153D01*
X0028373Y0101188D01*
X0028426Y0101219D01*
X0028480Y0101246D01*
X0028536Y0101271D01*
X0028594Y0101291D01*
X0028652Y0101308D01*
X0028712Y0101322D01*
X0028772Y0101331D01*
X0028833Y0101337D01*
X0028894Y0101339D01*
X0029866Y0101339D01*
X0029866Y0097839D01*
X0031830Y0097839D02*
X0032997Y0097839D01*
X0033050Y0097841D01*
X0033103Y0097846D01*
X0033155Y0097855D01*
X0033207Y0097868D01*
X0033258Y0097884D01*
X0033307Y0097903D01*
X0033355Y0097926D01*
X0033401Y0097952D01*
X0033446Y0097981D01*
X0033488Y0098013D01*
X0033528Y0098048D01*
X0033566Y0098086D01*
X0033601Y0098126D01*
X0033633Y0098168D01*
X0033662Y0098213D01*
X0033688Y0098259D01*
X0033711Y0098307D01*
X0033730Y0098356D01*
X0033746Y0098407D01*
X0033759Y0098459D01*
X0033768Y0098511D01*
X0033773Y0098564D01*
X0033775Y0098617D01*
X0033774Y0098617D02*
X0033774Y0100561D01*
X0033775Y0100561D02*
X0033773Y0100617D01*
X0033767Y0100672D01*
X0033757Y0100726D01*
X0033743Y0100780D01*
X0033726Y0100833D01*
X0033705Y0100884D01*
X0033680Y0100934D01*
X0033652Y0100982D01*
X0033620Y0101027D01*
X0033585Y0101070D01*
X0033547Y0101111D01*
X0033506Y0101149D01*
X0033463Y0101184D01*
X0033418Y0101215D01*
X0033370Y0101244D01*
X0033320Y0101269D01*
X0033269Y0101290D01*
X0033216Y0101307D01*
X0033162Y0101321D01*
X0033108Y0101331D01*
X0033053Y0101337D01*
X0032997Y0101339D01*
X0031830Y0101339D01*
X0031830Y0099783D02*
X0031830Y0097839D01*
X0031830Y0099783D02*
X0032413Y0099783D01*
X0031830Y0109089D02*
X0032997Y0109089D01*
X0033050Y0109091D01*
X0033103Y0109096D01*
X0033155Y0109105D01*
X0033207Y0109118D01*
X0033258Y0109134D01*
X0033307Y0109153D01*
X0033355Y0109176D01*
X0033401Y0109202D01*
X0033446Y0109231D01*
X0033488Y0109263D01*
X0033528Y0109298D01*
X0033566Y0109336D01*
X0033601Y0109376D01*
X0033633Y0109418D01*
X0033662Y0109463D01*
X0033688Y0109509D01*
X0033711Y0109557D01*
X0033730Y0109606D01*
X0033746Y0109657D01*
X0033759Y0109709D01*
X0033768Y0109761D01*
X0033773Y0109814D01*
X0033775Y0109867D01*
X0033774Y0109867D02*
X0033774Y0111811D01*
X0033775Y0111811D02*
X0033773Y0111867D01*
X0033767Y0111922D01*
X0033757Y0111976D01*
X0033743Y0112030D01*
X0033726Y0112083D01*
X0033705Y0112134D01*
X0033680Y0112184D01*
X0033652Y0112232D01*
X0033620Y0112277D01*
X0033585Y0112320D01*
X0033547Y0112361D01*
X0033506Y0112399D01*
X0033463Y0112434D01*
X0033418Y0112465D01*
X0033370Y0112494D01*
X0033320Y0112519D01*
X0033269Y0112540D01*
X0033216Y0112557D01*
X0033162Y0112571D01*
X0033108Y0112581D01*
X0033053Y0112587D01*
X0032997Y0112589D01*
X0031830Y0112589D01*
X0031830Y0111033D02*
X0031830Y0109089D01*
X0031830Y0111033D02*
X0032413Y0111033D01*
X0029866Y0110644D02*
X0028894Y0110644D01*
X0028894Y0110645D02*
X0028833Y0110647D01*
X0028772Y0110653D01*
X0028712Y0110662D01*
X0028652Y0110676D01*
X0028594Y0110693D01*
X0028536Y0110713D01*
X0028480Y0110738D01*
X0028426Y0110765D01*
X0028373Y0110796D01*
X0028323Y0110831D01*
X0028274Y0110868D01*
X0028229Y0110908D01*
X0028185Y0110952D01*
X0028145Y0110997D01*
X0028108Y0111046D01*
X0028073Y0111096D01*
X0028042Y0111149D01*
X0028015Y0111203D01*
X0027990Y0111259D01*
X0027970Y0111317D01*
X0027953Y0111375D01*
X0027939Y0111435D01*
X0027930Y0111495D01*
X0027924Y0111556D01*
X0027922Y0111617D01*
X0027924Y0111678D01*
X0027930Y0111739D01*
X0027939Y0111799D01*
X0027953Y0111859D01*
X0027970Y0111917D01*
X0027990Y0111975D01*
X0028015Y0112031D01*
X0028042Y0112085D01*
X0028073Y0112138D01*
X0028108Y0112188D01*
X0028145Y0112237D01*
X0028185Y0112282D01*
X0028229Y0112326D01*
X0028274Y0112366D01*
X0028323Y0112403D01*
X0028373Y0112438D01*
X0028426Y0112469D01*
X0028480Y0112496D01*
X0028536Y0112521D01*
X0028594Y0112541D01*
X0028652Y0112558D01*
X0028712Y0112572D01*
X0028772Y0112581D01*
X0028833Y0112587D01*
X0028894Y0112589D01*
X0029866Y0112589D01*
X0029866Y0109089D01*
X0026591Y0109089D02*
X0025813Y0109089D01*
X0026202Y0109089D02*
X0026202Y0112589D01*
X0026591Y0112589D02*
X0025813Y0112589D01*
X0024294Y0111617D02*
X0024294Y0110061D01*
X0024292Y0110000D01*
X0024286Y0109939D01*
X0024277Y0109879D01*
X0024263Y0109819D01*
X0024246Y0109761D01*
X0024226Y0109703D01*
X0024201Y0109647D01*
X0024174Y0109593D01*
X0024143Y0109540D01*
X0024108Y0109490D01*
X0024071Y0109441D01*
X0024031Y0109396D01*
X0023987Y0109352D01*
X0023942Y0109312D01*
X0023893Y0109275D01*
X0023843Y0109240D01*
X0023790Y0109209D01*
X0023736Y0109182D01*
X0023680Y0109157D01*
X0023622Y0109137D01*
X0023564Y0109120D01*
X0023504Y0109106D01*
X0023444Y0109097D01*
X0023383Y0109091D01*
X0023322Y0109089D01*
X0023261Y0109091D01*
X0023200Y0109097D01*
X0023140Y0109106D01*
X0023080Y0109120D01*
X0023022Y0109137D01*
X0022964Y0109157D01*
X0022908Y0109182D01*
X0022854Y0109209D01*
X0022801Y0109240D01*
X0022751Y0109275D01*
X0022702Y0109312D01*
X0022657Y0109352D01*
X0022613Y0109396D01*
X0022573Y0109441D01*
X0022536Y0109490D01*
X0022501Y0109540D01*
X0022470Y0109593D01*
X0022443Y0109647D01*
X0022418Y0109703D01*
X0022398Y0109761D01*
X0022381Y0109819D01*
X0022367Y0109879D01*
X0022358Y0109939D01*
X0022352Y0110000D01*
X0022350Y0110061D01*
X0022350Y0111617D01*
X0022352Y0111678D01*
X0022358Y0111739D01*
X0022367Y0111799D01*
X0022381Y0111859D01*
X0022398Y0111917D01*
X0022418Y0111975D01*
X0022443Y0112031D01*
X0022470Y0112085D01*
X0022501Y0112138D01*
X0022536Y0112188D01*
X0022573Y0112237D01*
X0022613Y0112282D01*
X0022657Y0112326D01*
X0022702Y0112366D01*
X0022751Y0112403D01*
X0022801Y0112438D01*
X0022854Y0112469D01*
X0022908Y0112496D01*
X0022964Y0112521D01*
X0023022Y0112541D01*
X0023080Y0112558D01*
X0023140Y0112572D01*
X0023200Y0112581D01*
X0023261Y0112587D01*
X0023322Y0112589D01*
X0023383Y0112587D01*
X0023444Y0112581D01*
X0023504Y0112572D01*
X0023564Y0112558D01*
X0023622Y0112541D01*
X0023680Y0112521D01*
X0023736Y0112496D01*
X0023790Y0112469D01*
X0023843Y0112438D01*
X0023893Y0112403D01*
X0023942Y0112366D01*
X0023987Y0112326D01*
X0024031Y0112282D01*
X0024071Y0112237D01*
X0024108Y0112188D01*
X0024143Y0112138D01*
X0024174Y0112085D01*
X0024201Y0112031D01*
X0024226Y0111975D01*
X0024246Y0111917D01*
X0024263Y0111859D01*
X0024277Y0111799D01*
X0024286Y0111739D01*
X0024292Y0111678D01*
X0024294Y0111617D01*
X0020694Y0111811D02*
X0019722Y0112589D01*
X0019722Y0109089D01*
X0020694Y0109089D02*
X0018750Y0109089D01*
X0017094Y0110061D02*
X0017094Y0111033D01*
X0015928Y0111033D01*
X0017095Y0111033D02*
X0017093Y0111112D01*
X0017087Y0111190D01*
X0017077Y0111269D01*
X0017063Y0111346D01*
X0017045Y0111423D01*
X0017024Y0111499D01*
X0016998Y0111573D01*
X0016969Y0111647D01*
X0016936Y0111718D01*
X0016899Y0111788D01*
X0016859Y0111856D01*
X0016816Y0111922D01*
X0016769Y0111985D01*
X0016720Y0112047D01*
X0016667Y0112105D01*
X0016611Y0112161D01*
X0016553Y0112214D01*
X0016491Y0112263D01*
X0016428Y0112310D01*
X0016362Y0112353D01*
X0016294Y0112393D01*
X0016224Y0112430D01*
X0016153Y0112463D01*
X0016079Y0112492D01*
X0016005Y0112518D01*
X0015929Y0112539D01*
X0015852Y0112557D01*
X0015775Y0112571D01*
X0015696Y0112581D01*
X0015618Y0112587D01*
X0015539Y0112589D01*
X0015928Y0111033D02*
X0015872Y0111031D01*
X0015817Y0111025D01*
X0015763Y0111015D01*
X0015709Y0111001D01*
X0015656Y0110984D01*
X0015605Y0110963D01*
X0015555Y0110938D01*
X0015507Y0110909D01*
X0015462Y0110878D01*
X0015419Y0110843D01*
X0015378Y0110805D01*
X0015340Y0110764D01*
X0015305Y0110721D01*
X0015274Y0110676D01*
X0015245Y0110628D01*
X0015220Y0110578D01*
X0015199Y0110527D01*
X0015182Y0110474D01*
X0015168Y0110420D01*
X0015158Y0110366D01*
X0015152Y0110311D01*
X0015150Y0110255D01*
X0015150Y0110061D01*
X0015152Y0110000D01*
X0015158Y0109939D01*
X0015167Y0109879D01*
X0015181Y0109819D01*
X0015198Y0109761D01*
X0015218Y0109703D01*
X0015243Y0109647D01*
X0015270Y0109593D01*
X0015301Y0109540D01*
X0015336Y0109490D01*
X0015373Y0109441D01*
X0015413Y0109396D01*
X0015457Y0109352D01*
X0015502Y0109312D01*
X0015551Y0109275D01*
X0015601Y0109240D01*
X0015654Y0109209D01*
X0015708Y0109182D01*
X0015764Y0109157D01*
X0015822Y0109137D01*
X0015880Y0109120D01*
X0015940Y0109106D01*
X0016000Y0109097D01*
X0016061Y0109091D01*
X0016122Y0109089D01*
X0016183Y0109091D01*
X0016244Y0109097D01*
X0016304Y0109106D01*
X0016364Y0109120D01*
X0016422Y0109137D01*
X0016480Y0109157D01*
X0016536Y0109182D01*
X0016590Y0109209D01*
X0016643Y0109240D01*
X0016693Y0109275D01*
X0016742Y0109312D01*
X0016787Y0109352D01*
X0016831Y0109396D01*
X0016871Y0109441D01*
X0016908Y0109490D01*
X0016943Y0109540D01*
X0016974Y0109593D01*
X0017001Y0109647D01*
X0017026Y0109703D01*
X0017046Y0109761D01*
X0017063Y0109819D01*
X0017077Y0109879D01*
X0017086Y0109939D01*
X0017092Y0110000D01*
X0017094Y0110061D01*
X0017094Y0119089D02*
X0017094Y0122589D01*
X0015150Y0119089D01*
X0015150Y0122589D01*
X0018650Y0122589D02*
X0020205Y0122589D01*
X0020205Y0119089D01*
X0018650Y0119089D01*
X0019039Y0121033D02*
X0020205Y0121033D01*
X0020412Y0129089D02*
X0019440Y0129089D01*
X0019379Y0129091D01*
X0019318Y0129097D01*
X0019258Y0129106D01*
X0019198Y0129120D01*
X0019140Y0129137D01*
X0019082Y0129157D01*
X0019026Y0129182D01*
X0018972Y0129209D01*
X0018919Y0129240D01*
X0018869Y0129275D01*
X0018820Y0129312D01*
X0018775Y0129352D01*
X0018731Y0129396D01*
X0018691Y0129441D01*
X0018654Y0129490D01*
X0018619Y0129540D01*
X0018588Y0129593D01*
X0018561Y0129647D01*
X0018536Y0129703D01*
X0018516Y0129761D01*
X0018499Y0129819D01*
X0018485Y0129879D01*
X0018476Y0129939D01*
X0018470Y0130000D01*
X0018468Y0130061D01*
X0018468Y0131617D01*
X0018470Y0131678D01*
X0018476Y0131739D01*
X0018485Y0131799D01*
X0018499Y0131859D01*
X0018516Y0131917D01*
X0018536Y0131975D01*
X0018561Y0132031D01*
X0018588Y0132085D01*
X0018619Y0132138D01*
X0018654Y0132188D01*
X0018691Y0132237D01*
X0018731Y0132282D01*
X0018775Y0132326D01*
X0018820Y0132366D01*
X0018869Y0132403D01*
X0018919Y0132438D01*
X0018972Y0132469D01*
X0019026Y0132496D01*
X0019082Y0132521D01*
X0019140Y0132541D01*
X0019198Y0132558D01*
X0019258Y0132572D01*
X0019318Y0132581D01*
X0019379Y0132587D01*
X0019440Y0132589D01*
X0020412Y0132589D01*
X0020412Y0129089D01*
X0021993Y0129089D02*
X0023160Y0132589D01*
X0024327Y0129089D01*
X0024035Y0129964D02*
X0022285Y0129964D01*
X0016706Y0129867D02*
X0016706Y0131811D01*
X0016704Y0131867D01*
X0016698Y0131922D01*
X0016688Y0131976D01*
X0016674Y0132030D01*
X0016657Y0132083D01*
X0016636Y0132134D01*
X0016611Y0132184D01*
X0016583Y0132232D01*
X0016551Y0132277D01*
X0016516Y0132320D01*
X0016478Y0132361D01*
X0016437Y0132399D01*
X0016394Y0132434D01*
X0016349Y0132465D01*
X0016301Y0132494D01*
X0016251Y0132519D01*
X0016200Y0132540D01*
X0016147Y0132557D01*
X0016093Y0132571D01*
X0016039Y0132581D01*
X0015984Y0132587D01*
X0015928Y0132589D01*
X0015150Y0132589D01*
X0016706Y0129867D02*
X0016704Y0129814D01*
X0016699Y0129761D01*
X0016690Y0129709D01*
X0016677Y0129657D01*
X0016661Y0129606D01*
X0016642Y0129557D01*
X0016619Y0129509D01*
X0016593Y0129463D01*
X0016564Y0129418D01*
X0016532Y0129376D01*
X0016497Y0129336D01*
X0016459Y0129298D01*
X0016419Y0129263D01*
X0016377Y0129231D01*
X0016332Y0129202D01*
X0016286Y0129176D01*
X0016238Y0129153D01*
X0016189Y0129134D01*
X0016138Y0129118D01*
X0016086Y0129105D01*
X0016034Y0129096D01*
X0015981Y0129091D01*
X0015928Y0129089D01*
X0015150Y0129089D01*
X0016122Y0139089D02*
X0016122Y0142589D01*
X0017094Y0142589D02*
X0015150Y0142589D01*
X0018779Y0140547D02*
X0019848Y0141130D01*
X0019459Y0142588D02*
X0019387Y0142586D01*
X0019315Y0142581D01*
X0019243Y0142572D01*
X0019172Y0142560D01*
X0019102Y0142544D01*
X0019032Y0142524D01*
X0018964Y0142501D01*
X0018897Y0142475D01*
X0018831Y0142446D01*
X0018766Y0142413D01*
X0018704Y0142377D01*
X0018643Y0142338D01*
X0018584Y0142296D01*
X0019848Y0141130D02*
X0019894Y0141160D01*
X0019938Y0141192D01*
X0019980Y0141228D01*
X0020019Y0141266D01*
X0020055Y0141307D01*
X0020089Y0141350D01*
X0020119Y0141396D01*
X0020146Y0141443D01*
X0020170Y0141492D01*
X0020190Y0141543D01*
X0020207Y0141595D01*
X0020220Y0141648D01*
X0020229Y0141702D01*
X0020235Y0141756D01*
X0020237Y0141811D01*
X0020235Y0141867D01*
X0020229Y0141922D01*
X0020219Y0141976D01*
X0020205Y0142030D01*
X0020188Y0142083D01*
X0020167Y0142134D01*
X0020142Y0142184D01*
X0020113Y0142232D01*
X0020082Y0142277D01*
X0020047Y0142320D01*
X0020009Y0142361D01*
X0019968Y0142399D01*
X0019925Y0142434D01*
X0019880Y0142465D01*
X0019832Y0142494D01*
X0019782Y0142519D01*
X0019731Y0142540D01*
X0019678Y0142557D01*
X0019624Y0142571D01*
X0019570Y0142581D01*
X0019515Y0142587D01*
X0019459Y0142589D01*
X0020335Y0139575D02*
X0020280Y0139522D01*
X0020222Y0139472D01*
X0020163Y0139424D01*
X0020101Y0139380D01*
X0020037Y0139338D01*
X0019971Y0139299D01*
X0019904Y0139263D01*
X0019835Y0139230D01*
X0019765Y0139201D01*
X0019693Y0139175D01*
X0019620Y0139152D01*
X0019546Y0139133D01*
X0019471Y0139117D01*
X0019396Y0139105D01*
X0019320Y0139096D01*
X0019244Y0139091D01*
X0019168Y0139089D01*
X0019112Y0139091D01*
X0019057Y0139097D01*
X0019003Y0139107D01*
X0018949Y0139121D01*
X0018896Y0139138D01*
X0018845Y0139159D01*
X0018795Y0139184D01*
X0018747Y0139213D01*
X0018702Y0139244D01*
X0018659Y0139279D01*
X0018618Y0139317D01*
X0018580Y0139358D01*
X0018545Y0139401D01*
X0018514Y0139446D01*
X0018485Y0139494D01*
X0018460Y0139544D01*
X0018439Y0139595D01*
X0018422Y0139648D01*
X0018408Y0139702D01*
X0018398Y0139756D01*
X0018392Y0139811D01*
X0018390Y0139867D01*
X0018392Y0139922D01*
X0018398Y0139976D01*
X0018407Y0140030D01*
X0018420Y0140083D01*
X0018437Y0140135D01*
X0018457Y0140186D01*
X0018481Y0140235D01*
X0018508Y0140282D01*
X0018538Y0140328D01*
X0018572Y0140371D01*
X0018608Y0140412D01*
X0018647Y0140450D01*
X0018689Y0140486D01*
X0018733Y0140518D01*
X0018779Y0140548D01*
X0021840Y0139089D02*
X0022618Y0140644D01*
X0022812Y0140644D02*
X0023785Y0140644D01*
X0022812Y0140645D02*
X0022751Y0140647D01*
X0022690Y0140653D01*
X0022630Y0140662D01*
X0022570Y0140676D01*
X0022512Y0140693D01*
X0022454Y0140713D01*
X0022398Y0140738D01*
X0022344Y0140765D01*
X0022291Y0140796D01*
X0022241Y0140831D01*
X0022192Y0140868D01*
X0022147Y0140908D01*
X0022103Y0140952D01*
X0022063Y0140997D01*
X0022026Y0141046D01*
X0021991Y0141096D01*
X0021960Y0141149D01*
X0021933Y0141203D01*
X0021908Y0141259D01*
X0021888Y0141317D01*
X0021871Y0141375D01*
X0021857Y0141435D01*
X0021848Y0141495D01*
X0021842Y0141556D01*
X0021840Y0141617D01*
X0021842Y0141678D01*
X0021848Y0141739D01*
X0021857Y0141799D01*
X0021871Y0141859D01*
X0021888Y0141917D01*
X0021908Y0141975D01*
X0021933Y0142031D01*
X0021960Y0142085D01*
X0021991Y0142138D01*
X0022026Y0142188D01*
X0022063Y0142237D01*
X0022103Y0142282D01*
X0022147Y0142326D01*
X0022192Y0142366D01*
X0022241Y0142403D01*
X0022291Y0142438D01*
X0022344Y0142469D01*
X0022398Y0142496D01*
X0022454Y0142521D01*
X0022512Y0142541D01*
X0022570Y0142558D01*
X0022630Y0142572D01*
X0022690Y0142581D01*
X0022751Y0142587D01*
X0022812Y0142589D01*
X0023785Y0142589D01*
X0023785Y0139089D01*
X0073526Y0082839D02*
X0075470Y0082839D01*
X0075470Y0081283D01*
X0074303Y0081283D01*
X0074247Y0081281D01*
X0074192Y0081275D01*
X0074138Y0081265D01*
X0074084Y0081251D01*
X0074031Y0081234D01*
X0073980Y0081213D01*
X0073930Y0081188D01*
X0073882Y0081159D01*
X0073837Y0081128D01*
X0073794Y0081093D01*
X0073753Y0081055D01*
X0073715Y0081014D01*
X0073680Y0080971D01*
X0073649Y0080926D01*
X0073620Y0080878D01*
X0073595Y0080828D01*
X0073574Y0080777D01*
X0073557Y0080724D01*
X0073543Y0080670D01*
X0073533Y0080616D01*
X0073527Y0080561D01*
X0073525Y0080505D01*
X0073526Y0080505D02*
X0073526Y0080117D01*
X0073525Y0080117D02*
X0073527Y0080061D01*
X0073533Y0080006D01*
X0073543Y0079952D01*
X0073557Y0079898D01*
X0073574Y0079845D01*
X0073595Y0079794D01*
X0073620Y0079744D01*
X0073649Y0079696D01*
X0073680Y0079651D01*
X0073715Y0079608D01*
X0073753Y0079567D01*
X0073794Y0079529D01*
X0073837Y0079494D01*
X0073882Y0079463D01*
X0073930Y0079434D01*
X0073980Y0079409D01*
X0074031Y0079388D01*
X0074084Y0079371D01*
X0074138Y0079357D01*
X0074192Y0079347D01*
X0074247Y0079341D01*
X0074303Y0079339D01*
X0075470Y0079339D01*
X0077126Y0079339D02*
X0079070Y0079339D01*
X0078098Y0079339D02*
X0078098Y0082839D01*
X0079070Y0082061D01*
X0080726Y0081867D02*
X0080726Y0080311D01*
X0080728Y0080250D01*
X0080734Y0080189D01*
X0080743Y0080129D01*
X0080757Y0080069D01*
X0080774Y0080011D01*
X0080794Y0079953D01*
X0080819Y0079897D01*
X0080846Y0079843D01*
X0080877Y0079790D01*
X0080912Y0079740D01*
X0080949Y0079691D01*
X0080989Y0079646D01*
X0081033Y0079602D01*
X0081078Y0079562D01*
X0081127Y0079525D01*
X0081177Y0079490D01*
X0081230Y0079459D01*
X0081284Y0079432D01*
X0081340Y0079407D01*
X0081398Y0079387D01*
X0081456Y0079370D01*
X0081516Y0079356D01*
X0081576Y0079347D01*
X0081637Y0079341D01*
X0081698Y0079339D01*
X0081759Y0079341D01*
X0081820Y0079347D01*
X0081880Y0079356D01*
X0081940Y0079370D01*
X0081998Y0079387D01*
X0082056Y0079407D01*
X0082112Y0079432D01*
X0082166Y0079459D01*
X0082219Y0079490D01*
X0082269Y0079525D01*
X0082318Y0079562D01*
X0082363Y0079602D01*
X0082407Y0079646D01*
X0082447Y0079691D01*
X0082484Y0079740D01*
X0082519Y0079790D01*
X0082550Y0079843D01*
X0082577Y0079897D01*
X0082602Y0079953D01*
X0082622Y0080011D01*
X0082639Y0080069D01*
X0082653Y0080129D01*
X0082662Y0080189D01*
X0082668Y0080250D01*
X0082670Y0080311D01*
X0082670Y0081867D01*
X0082668Y0081928D01*
X0082662Y0081989D01*
X0082653Y0082049D01*
X0082639Y0082109D01*
X0082622Y0082167D01*
X0082602Y0082225D01*
X0082577Y0082281D01*
X0082550Y0082335D01*
X0082519Y0082388D01*
X0082484Y0082438D01*
X0082447Y0082487D01*
X0082407Y0082532D01*
X0082363Y0082576D01*
X0082318Y0082616D01*
X0082269Y0082653D01*
X0082219Y0082688D01*
X0082166Y0082719D01*
X0082112Y0082746D01*
X0082056Y0082771D01*
X0081998Y0082791D01*
X0081940Y0082808D01*
X0081880Y0082822D01*
X0081820Y0082831D01*
X0081759Y0082837D01*
X0081698Y0082839D01*
X0081637Y0082837D01*
X0081576Y0082831D01*
X0081516Y0082822D01*
X0081456Y0082808D01*
X0081398Y0082791D01*
X0081340Y0082771D01*
X0081284Y0082746D01*
X0081230Y0082719D01*
X0081177Y0082688D01*
X0081127Y0082653D01*
X0081078Y0082616D01*
X0081033Y0082576D01*
X0080989Y0082532D01*
X0080949Y0082487D01*
X0080912Y0082438D01*
X0080877Y0082388D01*
X0080846Y0082335D01*
X0080819Y0082281D01*
X0080794Y0082225D01*
X0080774Y0082167D01*
X0080757Y0082109D01*
X0080743Y0082049D01*
X0080734Y0081989D01*
X0080728Y0081928D01*
X0080726Y0081867D01*
X0084189Y0082839D02*
X0084967Y0082839D01*
X0084578Y0082839D02*
X0084578Y0079339D01*
X0084967Y0079339D02*
X0084189Y0079339D01*
X0087269Y0080894D02*
X0088242Y0080894D01*
X0087269Y0080895D02*
X0087208Y0080897D01*
X0087147Y0080903D01*
X0087087Y0080912D01*
X0087027Y0080926D01*
X0086969Y0080943D01*
X0086911Y0080963D01*
X0086855Y0080988D01*
X0086801Y0081015D01*
X0086748Y0081046D01*
X0086698Y0081081D01*
X0086649Y0081118D01*
X0086604Y0081158D01*
X0086560Y0081202D01*
X0086520Y0081247D01*
X0086483Y0081296D01*
X0086448Y0081346D01*
X0086417Y0081399D01*
X0086390Y0081453D01*
X0086365Y0081509D01*
X0086345Y0081567D01*
X0086328Y0081625D01*
X0086314Y0081685D01*
X0086305Y0081745D01*
X0086299Y0081806D01*
X0086297Y0081867D01*
X0086299Y0081928D01*
X0086305Y0081989D01*
X0086314Y0082049D01*
X0086328Y0082109D01*
X0086345Y0082167D01*
X0086365Y0082225D01*
X0086390Y0082281D01*
X0086417Y0082335D01*
X0086448Y0082388D01*
X0086483Y0082438D01*
X0086520Y0082487D01*
X0086560Y0082532D01*
X0086604Y0082576D01*
X0086649Y0082616D01*
X0086698Y0082653D01*
X0086748Y0082688D01*
X0086801Y0082719D01*
X0086855Y0082746D01*
X0086911Y0082771D01*
X0086969Y0082791D01*
X0087027Y0082808D01*
X0087087Y0082822D01*
X0087147Y0082831D01*
X0087208Y0082837D01*
X0087269Y0082839D01*
X0088242Y0082839D01*
X0088242Y0079339D01*
X0090206Y0079339D02*
X0091372Y0079339D01*
X0091425Y0079341D01*
X0091478Y0079346D01*
X0091530Y0079355D01*
X0091582Y0079368D01*
X0091633Y0079384D01*
X0091682Y0079403D01*
X0091730Y0079426D01*
X0091776Y0079452D01*
X0091821Y0079481D01*
X0091863Y0079513D01*
X0091903Y0079548D01*
X0091941Y0079586D01*
X0091976Y0079626D01*
X0092008Y0079668D01*
X0092037Y0079713D01*
X0092063Y0079759D01*
X0092086Y0079807D01*
X0092105Y0079856D01*
X0092121Y0079907D01*
X0092134Y0079959D01*
X0092143Y0080011D01*
X0092148Y0080064D01*
X0092150Y0080117D01*
X0092150Y0082061D01*
X0092148Y0082117D01*
X0092142Y0082172D01*
X0092132Y0082226D01*
X0092118Y0082280D01*
X0092101Y0082333D01*
X0092080Y0082384D01*
X0092055Y0082434D01*
X0092027Y0082482D01*
X0091995Y0082527D01*
X0091960Y0082570D01*
X0091922Y0082611D01*
X0091881Y0082649D01*
X0091838Y0082684D01*
X0091793Y0082715D01*
X0091745Y0082744D01*
X0091695Y0082769D01*
X0091644Y0082790D01*
X0091591Y0082807D01*
X0091537Y0082821D01*
X0091483Y0082831D01*
X0091428Y0082837D01*
X0091372Y0082839D01*
X0090206Y0082839D01*
X0090206Y0081283D02*
X0090206Y0079339D01*
X0090206Y0081283D02*
X0090789Y0081283D01*
X0090206Y0088089D02*
X0091372Y0088089D01*
X0091425Y0088091D01*
X0091478Y0088096D01*
X0091530Y0088105D01*
X0091582Y0088118D01*
X0091633Y0088134D01*
X0091682Y0088153D01*
X0091730Y0088176D01*
X0091776Y0088202D01*
X0091821Y0088231D01*
X0091863Y0088263D01*
X0091903Y0088298D01*
X0091941Y0088336D01*
X0091976Y0088376D01*
X0092008Y0088418D01*
X0092037Y0088463D01*
X0092063Y0088509D01*
X0092086Y0088557D01*
X0092105Y0088606D01*
X0092121Y0088657D01*
X0092134Y0088709D01*
X0092143Y0088761D01*
X0092148Y0088814D01*
X0092150Y0088867D01*
X0092150Y0090811D01*
X0092148Y0090867D01*
X0092142Y0090922D01*
X0092132Y0090976D01*
X0092118Y0091030D01*
X0092101Y0091083D01*
X0092080Y0091134D01*
X0092055Y0091184D01*
X0092027Y0091232D01*
X0091995Y0091277D01*
X0091960Y0091320D01*
X0091922Y0091361D01*
X0091881Y0091399D01*
X0091838Y0091434D01*
X0091793Y0091465D01*
X0091745Y0091494D01*
X0091695Y0091519D01*
X0091644Y0091540D01*
X0091591Y0091557D01*
X0091537Y0091571D01*
X0091483Y0091581D01*
X0091428Y0091587D01*
X0091372Y0091589D01*
X0090206Y0091589D01*
X0090206Y0090033D02*
X0090206Y0088089D01*
X0090206Y0090033D02*
X0090789Y0090033D01*
X0088242Y0089644D02*
X0087269Y0089644D01*
X0087269Y0089645D02*
X0087208Y0089647D01*
X0087147Y0089653D01*
X0087087Y0089662D01*
X0087027Y0089676D01*
X0086969Y0089693D01*
X0086911Y0089713D01*
X0086855Y0089738D01*
X0086801Y0089765D01*
X0086748Y0089796D01*
X0086698Y0089831D01*
X0086649Y0089868D01*
X0086604Y0089908D01*
X0086560Y0089952D01*
X0086520Y0089997D01*
X0086483Y0090046D01*
X0086448Y0090096D01*
X0086417Y0090149D01*
X0086390Y0090203D01*
X0086365Y0090259D01*
X0086345Y0090317D01*
X0086328Y0090375D01*
X0086314Y0090435D01*
X0086305Y0090495D01*
X0086299Y0090556D01*
X0086297Y0090617D01*
X0086299Y0090678D01*
X0086305Y0090739D01*
X0086314Y0090799D01*
X0086328Y0090859D01*
X0086345Y0090917D01*
X0086365Y0090975D01*
X0086390Y0091031D01*
X0086417Y0091085D01*
X0086448Y0091138D01*
X0086483Y0091188D01*
X0086520Y0091237D01*
X0086560Y0091282D01*
X0086604Y0091326D01*
X0086649Y0091366D01*
X0086698Y0091403D01*
X0086748Y0091438D01*
X0086801Y0091469D01*
X0086855Y0091496D01*
X0086911Y0091521D01*
X0086969Y0091541D01*
X0087027Y0091558D01*
X0087087Y0091572D01*
X0087147Y0091581D01*
X0087208Y0091587D01*
X0087269Y0091589D01*
X0088242Y0091589D01*
X0088242Y0088089D01*
X0084967Y0088089D02*
X0084189Y0088089D01*
X0084578Y0088089D02*
X0084578Y0091589D01*
X0084967Y0091589D02*
X0084189Y0091589D01*
X0082670Y0090617D02*
X0082670Y0089061D01*
X0082668Y0089000D01*
X0082662Y0088939D01*
X0082653Y0088879D01*
X0082639Y0088819D01*
X0082622Y0088761D01*
X0082602Y0088703D01*
X0082577Y0088647D01*
X0082550Y0088593D01*
X0082519Y0088540D01*
X0082484Y0088490D01*
X0082447Y0088441D01*
X0082407Y0088396D01*
X0082363Y0088352D01*
X0082318Y0088312D01*
X0082269Y0088275D01*
X0082219Y0088240D01*
X0082166Y0088209D01*
X0082112Y0088182D01*
X0082056Y0088157D01*
X0081998Y0088137D01*
X0081940Y0088120D01*
X0081880Y0088106D01*
X0081820Y0088097D01*
X0081759Y0088091D01*
X0081698Y0088089D01*
X0081637Y0088091D01*
X0081576Y0088097D01*
X0081516Y0088106D01*
X0081456Y0088120D01*
X0081398Y0088137D01*
X0081340Y0088157D01*
X0081284Y0088182D01*
X0081230Y0088209D01*
X0081177Y0088240D01*
X0081127Y0088275D01*
X0081078Y0088312D01*
X0081033Y0088352D01*
X0080989Y0088396D01*
X0080949Y0088441D01*
X0080912Y0088490D01*
X0080877Y0088540D01*
X0080846Y0088593D01*
X0080819Y0088647D01*
X0080794Y0088703D01*
X0080774Y0088761D01*
X0080757Y0088819D01*
X0080743Y0088879D01*
X0080734Y0088939D01*
X0080728Y0089000D01*
X0080726Y0089061D01*
X0080726Y0090617D01*
X0080728Y0090678D01*
X0080734Y0090739D01*
X0080743Y0090799D01*
X0080757Y0090859D01*
X0080774Y0090917D01*
X0080794Y0090975D01*
X0080819Y0091031D01*
X0080846Y0091085D01*
X0080877Y0091138D01*
X0080912Y0091188D01*
X0080949Y0091237D01*
X0080989Y0091282D01*
X0081033Y0091326D01*
X0081078Y0091366D01*
X0081127Y0091403D01*
X0081177Y0091438D01*
X0081230Y0091469D01*
X0081284Y0091496D01*
X0081340Y0091521D01*
X0081398Y0091541D01*
X0081456Y0091558D01*
X0081516Y0091572D01*
X0081576Y0091581D01*
X0081637Y0091587D01*
X0081698Y0091589D01*
X0081759Y0091587D01*
X0081820Y0091581D01*
X0081880Y0091572D01*
X0081940Y0091558D01*
X0081998Y0091541D01*
X0082056Y0091521D01*
X0082112Y0091496D01*
X0082166Y0091469D01*
X0082219Y0091438D01*
X0082269Y0091403D01*
X0082318Y0091366D01*
X0082363Y0091326D01*
X0082407Y0091282D01*
X0082447Y0091237D01*
X0082484Y0091188D01*
X0082519Y0091138D01*
X0082550Y0091085D01*
X0082577Y0091031D01*
X0082602Y0090975D01*
X0082622Y0090917D01*
X0082639Y0090859D01*
X0082653Y0090799D01*
X0082662Y0090739D01*
X0082668Y0090678D01*
X0082670Y0090617D01*
X0079070Y0088089D02*
X0077126Y0088089D01*
X0079070Y0088089D02*
X0077417Y0090033D01*
X0078001Y0091589D02*
X0078065Y0091587D01*
X0078129Y0091582D01*
X0078193Y0091573D01*
X0078256Y0091560D01*
X0078318Y0091543D01*
X0078379Y0091524D01*
X0078439Y0091500D01*
X0078497Y0091474D01*
X0078554Y0091444D01*
X0078609Y0091410D01*
X0078662Y0091374D01*
X0078713Y0091335D01*
X0078761Y0091293D01*
X0078808Y0091248D01*
X0078851Y0091201D01*
X0078892Y0091151D01*
X0078929Y0091099D01*
X0078964Y0091045D01*
X0078996Y0090989D01*
X0079024Y0090931D01*
X0079049Y0090872D01*
X0079070Y0090811D01*
X0077417Y0090033D02*
X0077376Y0090075D01*
X0077337Y0090119D01*
X0077302Y0090166D01*
X0077269Y0090214D01*
X0077239Y0090265D01*
X0077213Y0090317D01*
X0077190Y0090371D01*
X0077170Y0090426D01*
X0077154Y0090482D01*
X0077141Y0090539D01*
X0077132Y0090597D01*
X0077127Y0090655D01*
X0077125Y0090714D01*
X0077126Y0090714D02*
X0077128Y0090771D01*
X0077133Y0090828D01*
X0077143Y0090885D01*
X0077156Y0090940D01*
X0077172Y0090995D01*
X0077193Y0091049D01*
X0077216Y0091101D01*
X0077243Y0091152D01*
X0077273Y0091200D01*
X0077307Y0091247D01*
X0077343Y0091291D01*
X0077382Y0091333D01*
X0077424Y0091372D01*
X0077468Y0091408D01*
X0077515Y0091442D01*
X0077564Y0091472D01*
X0077614Y0091499D01*
X0077666Y0091522D01*
X0077720Y0091543D01*
X0077775Y0091559D01*
X0077830Y0091572D01*
X0077887Y0091582D01*
X0077944Y0091587D01*
X0078001Y0091589D01*
X0078098Y0098089D02*
X0078046Y0098091D01*
X0077993Y0098097D01*
X0077942Y0098106D01*
X0077891Y0098119D01*
X0077841Y0098136D01*
X0077793Y0098157D01*
X0077747Y0098181D01*
X0077702Y0098208D01*
X0077659Y0098239D01*
X0077619Y0098272D01*
X0077581Y0098308D01*
X0077546Y0098347D01*
X0077514Y0098389D01*
X0077485Y0098433D01*
X0077459Y0098478D01*
X0077437Y0098526D01*
X0077418Y0098575D01*
X0078098Y0098089D02*
X0078150Y0098091D01*
X0078203Y0098097D01*
X0078254Y0098106D01*
X0078305Y0098119D01*
X0078355Y0098136D01*
X0078403Y0098157D01*
X0078449Y0098181D01*
X0078494Y0098208D01*
X0078537Y0098239D01*
X0078577Y0098272D01*
X0078615Y0098308D01*
X0078650Y0098347D01*
X0078682Y0098389D01*
X0078711Y0098433D01*
X0078737Y0098478D01*
X0078759Y0098526D01*
X0078778Y0098575D01*
X0078876Y0098867D02*
X0077320Y0100811D01*
X0077418Y0101102D02*
X0077437Y0101151D01*
X0077459Y0101199D01*
X0077485Y0101244D01*
X0077514Y0101288D01*
X0077546Y0101330D01*
X0077581Y0101369D01*
X0077619Y0101405D01*
X0077659Y0101438D01*
X0077702Y0101469D01*
X0077746Y0101496D01*
X0077793Y0101520D01*
X0077841Y0101541D01*
X0077891Y0101558D01*
X0077942Y0101571D01*
X0077993Y0101580D01*
X0078046Y0101586D01*
X0078098Y0101588D01*
X0078150Y0101586D01*
X0078203Y0101580D01*
X0078254Y0101571D01*
X0078305Y0101558D01*
X0078355Y0101541D01*
X0078403Y0101520D01*
X0078449Y0101496D01*
X0078494Y0101469D01*
X0078537Y0101438D01*
X0078577Y0101405D01*
X0078615Y0101369D01*
X0078650Y0101330D01*
X0078682Y0101288D01*
X0078711Y0101244D01*
X0078737Y0101199D01*
X0078759Y0101151D01*
X0078778Y0101102D01*
X0077418Y0101103D02*
X0077375Y0101012D01*
X0077336Y0100919D01*
X0077300Y0100825D01*
X0077267Y0100730D01*
X0077238Y0100634D01*
X0077212Y0100536D01*
X0077189Y0100438D01*
X0077170Y0100340D01*
X0077154Y0100240D01*
X0077142Y0100140D01*
X0077133Y0100040D01*
X0077128Y0099940D01*
X0077126Y0099839D01*
X0079070Y0099839D02*
X0079068Y0099940D01*
X0079063Y0100040D01*
X0079054Y0100140D01*
X0079042Y0100240D01*
X0079026Y0100340D01*
X0079007Y0100438D01*
X0078984Y0100536D01*
X0078958Y0100634D01*
X0078929Y0100730D01*
X0078896Y0100825D01*
X0078860Y0100919D01*
X0078821Y0101012D01*
X0078778Y0101103D01*
X0077126Y0099839D02*
X0077128Y0099738D01*
X0077133Y0099638D01*
X0077142Y0099538D01*
X0077154Y0099438D01*
X0077170Y0099338D01*
X0077189Y0099240D01*
X0077212Y0099142D01*
X0077238Y0099044D01*
X0077267Y0098948D01*
X0077300Y0098853D01*
X0077336Y0098759D01*
X0077375Y0098666D01*
X0077418Y0098575D01*
X0078778Y0098575D02*
X0078821Y0098666D01*
X0078860Y0098759D01*
X0078896Y0098853D01*
X0078929Y0098948D01*
X0078958Y0099044D01*
X0078984Y0099142D01*
X0079007Y0099240D01*
X0079026Y0099338D01*
X0079042Y0099438D01*
X0079054Y0099538D01*
X0079063Y0099638D01*
X0079068Y0099738D01*
X0079070Y0099839D01*
X0080726Y0100617D02*
X0080726Y0099061D01*
X0080728Y0099000D01*
X0080734Y0098939D01*
X0080743Y0098879D01*
X0080757Y0098819D01*
X0080774Y0098761D01*
X0080794Y0098703D01*
X0080819Y0098647D01*
X0080846Y0098593D01*
X0080877Y0098540D01*
X0080912Y0098490D01*
X0080949Y0098441D01*
X0080989Y0098396D01*
X0081033Y0098352D01*
X0081078Y0098312D01*
X0081127Y0098275D01*
X0081177Y0098240D01*
X0081230Y0098209D01*
X0081284Y0098182D01*
X0081340Y0098157D01*
X0081398Y0098137D01*
X0081456Y0098120D01*
X0081516Y0098106D01*
X0081576Y0098097D01*
X0081637Y0098091D01*
X0081698Y0098089D01*
X0081759Y0098091D01*
X0081820Y0098097D01*
X0081880Y0098106D01*
X0081940Y0098120D01*
X0081998Y0098137D01*
X0082056Y0098157D01*
X0082112Y0098182D01*
X0082166Y0098209D01*
X0082219Y0098240D01*
X0082269Y0098275D01*
X0082318Y0098312D01*
X0082363Y0098352D01*
X0082407Y0098396D01*
X0082447Y0098441D01*
X0082484Y0098490D01*
X0082519Y0098540D01*
X0082550Y0098593D01*
X0082577Y0098647D01*
X0082602Y0098703D01*
X0082622Y0098761D01*
X0082639Y0098819D01*
X0082653Y0098879D01*
X0082662Y0098939D01*
X0082668Y0099000D01*
X0082670Y0099061D01*
X0082670Y0100617D01*
X0082668Y0100678D01*
X0082662Y0100739D01*
X0082653Y0100799D01*
X0082639Y0100859D01*
X0082622Y0100917D01*
X0082602Y0100975D01*
X0082577Y0101031D01*
X0082550Y0101085D01*
X0082519Y0101138D01*
X0082484Y0101188D01*
X0082447Y0101237D01*
X0082407Y0101282D01*
X0082363Y0101326D01*
X0082318Y0101366D01*
X0082269Y0101403D01*
X0082219Y0101438D01*
X0082166Y0101469D01*
X0082112Y0101496D01*
X0082056Y0101521D01*
X0081998Y0101541D01*
X0081940Y0101558D01*
X0081880Y0101572D01*
X0081820Y0101581D01*
X0081759Y0101587D01*
X0081698Y0101589D01*
X0081637Y0101587D01*
X0081576Y0101581D01*
X0081516Y0101572D01*
X0081456Y0101558D01*
X0081398Y0101541D01*
X0081340Y0101521D01*
X0081284Y0101496D01*
X0081230Y0101469D01*
X0081177Y0101438D01*
X0081127Y0101403D01*
X0081078Y0101366D01*
X0081033Y0101326D01*
X0080989Y0101282D01*
X0080949Y0101237D01*
X0080912Y0101188D01*
X0080877Y0101138D01*
X0080846Y0101085D01*
X0080819Y0101031D01*
X0080794Y0100975D01*
X0080774Y0100917D01*
X0080757Y0100859D01*
X0080743Y0100799D01*
X0080734Y0100739D01*
X0080728Y0100678D01*
X0080726Y0100617D01*
X0084189Y0101589D02*
X0084967Y0101589D01*
X0084578Y0101589D02*
X0084578Y0098089D01*
X0084967Y0098089D02*
X0084189Y0098089D01*
X0087269Y0099644D02*
X0088242Y0099644D01*
X0087269Y0099645D02*
X0087208Y0099647D01*
X0087147Y0099653D01*
X0087087Y0099662D01*
X0087027Y0099676D01*
X0086969Y0099693D01*
X0086911Y0099713D01*
X0086855Y0099738D01*
X0086801Y0099765D01*
X0086748Y0099796D01*
X0086698Y0099831D01*
X0086649Y0099868D01*
X0086604Y0099908D01*
X0086560Y0099952D01*
X0086520Y0099997D01*
X0086483Y0100046D01*
X0086448Y0100096D01*
X0086417Y0100149D01*
X0086390Y0100203D01*
X0086365Y0100259D01*
X0086345Y0100317D01*
X0086328Y0100375D01*
X0086314Y0100435D01*
X0086305Y0100495D01*
X0086299Y0100556D01*
X0086297Y0100617D01*
X0086299Y0100678D01*
X0086305Y0100739D01*
X0086314Y0100799D01*
X0086328Y0100859D01*
X0086345Y0100917D01*
X0086365Y0100975D01*
X0086390Y0101031D01*
X0086417Y0101085D01*
X0086448Y0101138D01*
X0086483Y0101188D01*
X0086520Y0101237D01*
X0086560Y0101282D01*
X0086604Y0101326D01*
X0086649Y0101366D01*
X0086698Y0101403D01*
X0086748Y0101438D01*
X0086801Y0101469D01*
X0086855Y0101496D01*
X0086911Y0101521D01*
X0086969Y0101541D01*
X0087027Y0101558D01*
X0087087Y0101572D01*
X0087147Y0101581D01*
X0087208Y0101587D01*
X0087269Y0101589D01*
X0088242Y0101589D01*
X0088242Y0098089D01*
X0090206Y0098089D02*
X0090206Y0100033D01*
X0090789Y0100033D01*
X0092150Y0100811D02*
X0092148Y0100867D01*
X0092142Y0100922D01*
X0092132Y0100976D01*
X0092118Y0101030D01*
X0092101Y0101083D01*
X0092080Y0101134D01*
X0092055Y0101184D01*
X0092027Y0101232D01*
X0091995Y0101277D01*
X0091960Y0101320D01*
X0091922Y0101361D01*
X0091881Y0101399D01*
X0091838Y0101434D01*
X0091793Y0101465D01*
X0091745Y0101494D01*
X0091695Y0101519D01*
X0091644Y0101540D01*
X0091591Y0101557D01*
X0091537Y0101571D01*
X0091483Y0101581D01*
X0091428Y0101587D01*
X0091372Y0101589D01*
X0090206Y0101589D01*
X0092150Y0100811D02*
X0092150Y0098867D01*
X0092148Y0098814D01*
X0092143Y0098761D01*
X0092134Y0098709D01*
X0092121Y0098657D01*
X0092105Y0098606D01*
X0092086Y0098557D01*
X0092063Y0098509D01*
X0092037Y0098463D01*
X0092008Y0098418D01*
X0091976Y0098376D01*
X0091941Y0098336D01*
X0091903Y0098298D01*
X0091863Y0098263D01*
X0091821Y0098231D01*
X0091776Y0098202D01*
X0091730Y0098176D01*
X0091682Y0098153D01*
X0091633Y0098134D01*
X0091582Y0098118D01*
X0091530Y0098105D01*
X0091478Y0098096D01*
X0091425Y0098091D01*
X0091372Y0098089D01*
X0090206Y0098089D01*
X0090206Y0109339D02*
X0091372Y0109339D01*
X0091425Y0109341D01*
X0091478Y0109346D01*
X0091530Y0109355D01*
X0091582Y0109368D01*
X0091633Y0109384D01*
X0091682Y0109403D01*
X0091730Y0109426D01*
X0091776Y0109452D01*
X0091821Y0109481D01*
X0091863Y0109513D01*
X0091903Y0109548D01*
X0091941Y0109586D01*
X0091976Y0109626D01*
X0092008Y0109668D01*
X0092037Y0109713D01*
X0092063Y0109759D01*
X0092086Y0109807D01*
X0092105Y0109856D01*
X0092121Y0109907D01*
X0092134Y0109959D01*
X0092143Y0110011D01*
X0092148Y0110064D01*
X0092150Y0110117D01*
X0092150Y0112061D01*
X0092148Y0112117D01*
X0092142Y0112172D01*
X0092132Y0112226D01*
X0092118Y0112280D01*
X0092101Y0112333D01*
X0092080Y0112384D01*
X0092055Y0112434D01*
X0092027Y0112482D01*
X0091995Y0112527D01*
X0091960Y0112570D01*
X0091922Y0112611D01*
X0091881Y0112649D01*
X0091838Y0112684D01*
X0091793Y0112715D01*
X0091745Y0112744D01*
X0091695Y0112769D01*
X0091644Y0112790D01*
X0091591Y0112807D01*
X0091537Y0112821D01*
X0091483Y0112831D01*
X0091428Y0112837D01*
X0091372Y0112839D01*
X0090206Y0112839D01*
X0090206Y0111283D02*
X0090206Y0109339D01*
X0090206Y0111283D02*
X0090789Y0111283D01*
X0088242Y0110894D02*
X0087269Y0110894D01*
X0087269Y0110895D02*
X0087208Y0110897D01*
X0087147Y0110903D01*
X0087087Y0110912D01*
X0087027Y0110926D01*
X0086969Y0110943D01*
X0086911Y0110963D01*
X0086855Y0110988D01*
X0086801Y0111015D01*
X0086748Y0111046D01*
X0086698Y0111081D01*
X0086649Y0111118D01*
X0086604Y0111158D01*
X0086560Y0111202D01*
X0086520Y0111247D01*
X0086483Y0111296D01*
X0086448Y0111346D01*
X0086417Y0111399D01*
X0086390Y0111453D01*
X0086365Y0111509D01*
X0086345Y0111567D01*
X0086328Y0111625D01*
X0086314Y0111685D01*
X0086305Y0111745D01*
X0086299Y0111806D01*
X0086297Y0111867D01*
X0086299Y0111928D01*
X0086305Y0111989D01*
X0086314Y0112049D01*
X0086328Y0112109D01*
X0086345Y0112167D01*
X0086365Y0112225D01*
X0086390Y0112281D01*
X0086417Y0112335D01*
X0086448Y0112388D01*
X0086483Y0112438D01*
X0086520Y0112487D01*
X0086560Y0112532D01*
X0086604Y0112576D01*
X0086649Y0112616D01*
X0086698Y0112653D01*
X0086748Y0112688D01*
X0086801Y0112719D01*
X0086855Y0112746D01*
X0086911Y0112771D01*
X0086969Y0112791D01*
X0087027Y0112808D01*
X0087087Y0112822D01*
X0087147Y0112831D01*
X0087208Y0112837D01*
X0087269Y0112839D01*
X0088242Y0112839D01*
X0088242Y0109339D01*
X0084967Y0109339D02*
X0084189Y0109339D01*
X0084578Y0109339D02*
X0084578Y0112839D01*
X0084967Y0112839D02*
X0084189Y0112839D01*
X0082670Y0111867D02*
X0082670Y0110311D01*
X0082668Y0110250D01*
X0082662Y0110189D01*
X0082653Y0110129D01*
X0082639Y0110069D01*
X0082622Y0110011D01*
X0082602Y0109953D01*
X0082577Y0109897D01*
X0082550Y0109843D01*
X0082519Y0109790D01*
X0082484Y0109740D01*
X0082447Y0109691D01*
X0082407Y0109646D01*
X0082363Y0109602D01*
X0082318Y0109562D01*
X0082269Y0109525D01*
X0082219Y0109490D01*
X0082166Y0109459D01*
X0082112Y0109432D01*
X0082056Y0109407D01*
X0081998Y0109387D01*
X0081940Y0109370D01*
X0081880Y0109356D01*
X0081820Y0109347D01*
X0081759Y0109341D01*
X0081698Y0109339D01*
X0081637Y0109341D01*
X0081576Y0109347D01*
X0081516Y0109356D01*
X0081456Y0109370D01*
X0081398Y0109387D01*
X0081340Y0109407D01*
X0081284Y0109432D01*
X0081230Y0109459D01*
X0081177Y0109490D01*
X0081127Y0109525D01*
X0081078Y0109562D01*
X0081033Y0109602D01*
X0080989Y0109646D01*
X0080949Y0109691D01*
X0080912Y0109740D01*
X0080877Y0109790D01*
X0080846Y0109843D01*
X0080819Y0109897D01*
X0080794Y0109953D01*
X0080774Y0110011D01*
X0080757Y0110069D01*
X0080743Y0110129D01*
X0080734Y0110189D01*
X0080728Y0110250D01*
X0080726Y0110311D01*
X0080726Y0111867D01*
X0080728Y0111928D01*
X0080734Y0111989D01*
X0080743Y0112049D01*
X0080757Y0112109D01*
X0080774Y0112167D01*
X0080794Y0112225D01*
X0080819Y0112281D01*
X0080846Y0112335D01*
X0080877Y0112388D01*
X0080912Y0112438D01*
X0080949Y0112487D01*
X0080989Y0112532D01*
X0081033Y0112576D01*
X0081078Y0112616D01*
X0081127Y0112653D01*
X0081177Y0112688D01*
X0081230Y0112719D01*
X0081284Y0112746D01*
X0081340Y0112771D01*
X0081398Y0112791D01*
X0081456Y0112808D01*
X0081516Y0112822D01*
X0081576Y0112831D01*
X0081637Y0112837D01*
X0081698Y0112839D01*
X0081759Y0112837D01*
X0081820Y0112831D01*
X0081880Y0112822D01*
X0081940Y0112808D01*
X0081998Y0112791D01*
X0082056Y0112771D01*
X0082112Y0112746D01*
X0082166Y0112719D01*
X0082219Y0112688D01*
X0082269Y0112653D01*
X0082318Y0112616D01*
X0082363Y0112576D01*
X0082407Y0112532D01*
X0082447Y0112487D01*
X0082484Y0112438D01*
X0082519Y0112388D01*
X0082550Y0112335D01*
X0082577Y0112281D01*
X0082602Y0112225D01*
X0082622Y0112167D01*
X0082639Y0112109D01*
X0082653Y0112049D01*
X0082662Y0111989D01*
X0082668Y0111928D01*
X0082670Y0111867D01*
X0079070Y0110117D02*
X0077126Y0110117D01*
X0077709Y0110894D02*
X0077709Y0109339D01*
X0079070Y0110117D02*
X0078292Y0112839D01*
X0077903Y0119339D02*
X0079070Y0119339D01*
X0077903Y0119339D02*
X0077847Y0119341D01*
X0077792Y0119347D01*
X0077738Y0119357D01*
X0077684Y0119371D01*
X0077631Y0119388D01*
X0077580Y0119409D01*
X0077530Y0119434D01*
X0077482Y0119463D01*
X0077437Y0119494D01*
X0077394Y0119529D01*
X0077353Y0119567D01*
X0077315Y0119608D01*
X0077280Y0119651D01*
X0077249Y0119696D01*
X0077220Y0119744D01*
X0077195Y0119794D01*
X0077174Y0119845D01*
X0077157Y0119898D01*
X0077143Y0119952D01*
X0077133Y0120006D01*
X0077127Y0120061D01*
X0077125Y0120117D01*
X0077126Y0120117D02*
X0077126Y0120505D01*
X0077125Y0120505D02*
X0077127Y0120561D01*
X0077133Y0120616D01*
X0077143Y0120670D01*
X0077157Y0120724D01*
X0077174Y0120777D01*
X0077195Y0120828D01*
X0077220Y0120878D01*
X0077249Y0120926D01*
X0077280Y0120971D01*
X0077315Y0121014D01*
X0077353Y0121055D01*
X0077394Y0121093D01*
X0077437Y0121128D01*
X0077482Y0121159D01*
X0077530Y0121188D01*
X0077580Y0121213D01*
X0077631Y0121234D01*
X0077684Y0121251D01*
X0077738Y0121265D01*
X0077792Y0121275D01*
X0077847Y0121281D01*
X0077903Y0121283D01*
X0079070Y0121283D01*
X0079070Y0122839D01*
X0077126Y0122839D01*
X0080726Y0121867D02*
X0080726Y0120311D01*
X0080728Y0120250D01*
X0080734Y0120189D01*
X0080743Y0120129D01*
X0080757Y0120069D01*
X0080774Y0120011D01*
X0080794Y0119953D01*
X0080819Y0119897D01*
X0080846Y0119843D01*
X0080877Y0119790D01*
X0080912Y0119740D01*
X0080949Y0119691D01*
X0080989Y0119646D01*
X0081033Y0119602D01*
X0081078Y0119562D01*
X0081127Y0119525D01*
X0081177Y0119490D01*
X0081230Y0119459D01*
X0081284Y0119432D01*
X0081340Y0119407D01*
X0081398Y0119387D01*
X0081456Y0119370D01*
X0081516Y0119356D01*
X0081576Y0119347D01*
X0081637Y0119341D01*
X0081698Y0119339D01*
X0081759Y0119341D01*
X0081820Y0119347D01*
X0081880Y0119356D01*
X0081940Y0119370D01*
X0081998Y0119387D01*
X0082056Y0119407D01*
X0082112Y0119432D01*
X0082166Y0119459D01*
X0082219Y0119490D01*
X0082269Y0119525D01*
X0082318Y0119562D01*
X0082363Y0119602D01*
X0082407Y0119646D01*
X0082447Y0119691D01*
X0082484Y0119740D01*
X0082519Y0119790D01*
X0082550Y0119843D01*
X0082577Y0119897D01*
X0082602Y0119953D01*
X0082622Y0120011D01*
X0082639Y0120069D01*
X0082653Y0120129D01*
X0082662Y0120189D01*
X0082668Y0120250D01*
X0082670Y0120311D01*
X0082670Y0121867D01*
X0082668Y0121928D01*
X0082662Y0121989D01*
X0082653Y0122049D01*
X0082639Y0122109D01*
X0082622Y0122167D01*
X0082602Y0122225D01*
X0082577Y0122281D01*
X0082550Y0122335D01*
X0082519Y0122388D01*
X0082484Y0122438D01*
X0082447Y0122487D01*
X0082407Y0122532D01*
X0082363Y0122576D01*
X0082318Y0122616D01*
X0082269Y0122653D01*
X0082219Y0122688D01*
X0082166Y0122719D01*
X0082112Y0122746D01*
X0082056Y0122771D01*
X0081998Y0122791D01*
X0081940Y0122808D01*
X0081880Y0122822D01*
X0081820Y0122831D01*
X0081759Y0122837D01*
X0081698Y0122839D01*
X0081637Y0122837D01*
X0081576Y0122831D01*
X0081516Y0122822D01*
X0081456Y0122808D01*
X0081398Y0122791D01*
X0081340Y0122771D01*
X0081284Y0122746D01*
X0081230Y0122719D01*
X0081177Y0122688D01*
X0081127Y0122653D01*
X0081078Y0122616D01*
X0081033Y0122576D01*
X0080989Y0122532D01*
X0080949Y0122487D01*
X0080912Y0122438D01*
X0080877Y0122388D01*
X0080846Y0122335D01*
X0080819Y0122281D01*
X0080794Y0122225D01*
X0080774Y0122167D01*
X0080757Y0122109D01*
X0080743Y0122049D01*
X0080734Y0121989D01*
X0080728Y0121928D01*
X0080726Y0121867D01*
X0084189Y0122839D02*
X0084967Y0122839D01*
X0084578Y0122839D02*
X0084578Y0119339D01*
X0084967Y0119339D02*
X0084189Y0119339D01*
X0087269Y0120894D02*
X0088242Y0120894D01*
X0087269Y0120895D02*
X0087208Y0120897D01*
X0087147Y0120903D01*
X0087087Y0120912D01*
X0087027Y0120926D01*
X0086969Y0120943D01*
X0086911Y0120963D01*
X0086855Y0120988D01*
X0086801Y0121015D01*
X0086748Y0121046D01*
X0086698Y0121081D01*
X0086649Y0121118D01*
X0086604Y0121158D01*
X0086560Y0121202D01*
X0086520Y0121247D01*
X0086483Y0121296D01*
X0086448Y0121346D01*
X0086417Y0121399D01*
X0086390Y0121453D01*
X0086365Y0121509D01*
X0086345Y0121567D01*
X0086328Y0121625D01*
X0086314Y0121685D01*
X0086305Y0121745D01*
X0086299Y0121806D01*
X0086297Y0121867D01*
X0086299Y0121928D01*
X0086305Y0121989D01*
X0086314Y0122049D01*
X0086328Y0122109D01*
X0086345Y0122167D01*
X0086365Y0122225D01*
X0086390Y0122281D01*
X0086417Y0122335D01*
X0086448Y0122388D01*
X0086483Y0122438D01*
X0086520Y0122487D01*
X0086560Y0122532D01*
X0086604Y0122576D01*
X0086649Y0122616D01*
X0086698Y0122653D01*
X0086748Y0122688D01*
X0086801Y0122719D01*
X0086855Y0122746D01*
X0086911Y0122771D01*
X0086969Y0122791D01*
X0087027Y0122808D01*
X0087087Y0122822D01*
X0087147Y0122831D01*
X0087208Y0122837D01*
X0087269Y0122839D01*
X0088242Y0122839D01*
X0088242Y0119339D01*
X0090206Y0119339D02*
X0091372Y0119339D01*
X0091425Y0119341D01*
X0091478Y0119346D01*
X0091530Y0119355D01*
X0091582Y0119368D01*
X0091633Y0119384D01*
X0091682Y0119403D01*
X0091730Y0119426D01*
X0091776Y0119452D01*
X0091821Y0119481D01*
X0091863Y0119513D01*
X0091903Y0119548D01*
X0091941Y0119586D01*
X0091976Y0119626D01*
X0092008Y0119668D01*
X0092037Y0119713D01*
X0092063Y0119759D01*
X0092086Y0119807D01*
X0092105Y0119856D01*
X0092121Y0119907D01*
X0092134Y0119959D01*
X0092143Y0120011D01*
X0092148Y0120064D01*
X0092150Y0120117D01*
X0092150Y0122061D01*
X0092148Y0122117D01*
X0092142Y0122172D01*
X0092132Y0122226D01*
X0092118Y0122280D01*
X0092101Y0122333D01*
X0092080Y0122384D01*
X0092055Y0122434D01*
X0092027Y0122482D01*
X0091995Y0122527D01*
X0091960Y0122570D01*
X0091922Y0122611D01*
X0091881Y0122649D01*
X0091838Y0122684D01*
X0091793Y0122715D01*
X0091745Y0122744D01*
X0091695Y0122769D01*
X0091644Y0122790D01*
X0091591Y0122807D01*
X0091537Y0122821D01*
X0091483Y0122831D01*
X0091428Y0122837D01*
X0091372Y0122839D01*
X0090206Y0122839D01*
X0090206Y0121283D02*
X0090206Y0119339D01*
X0090206Y0121283D02*
X0090789Y0121283D01*
X0090206Y0128089D02*
X0090983Y0129644D01*
X0091178Y0129644D02*
X0092150Y0129644D01*
X0091178Y0129645D02*
X0091117Y0129647D01*
X0091056Y0129653D01*
X0090996Y0129662D01*
X0090936Y0129676D01*
X0090878Y0129693D01*
X0090820Y0129713D01*
X0090764Y0129738D01*
X0090710Y0129765D01*
X0090657Y0129796D01*
X0090607Y0129831D01*
X0090558Y0129868D01*
X0090513Y0129908D01*
X0090469Y0129952D01*
X0090429Y0129997D01*
X0090392Y0130046D01*
X0090357Y0130096D01*
X0090326Y0130149D01*
X0090299Y0130203D01*
X0090274Y0130259D01*
X0090254Y0130317D01*
X0090237Y0130375D01*
X0090223Y0130435D01*
X0090214Y0130495D01*
X0090208Y0130556D01*
X0090206Y0130617D01*
X0090208Y0130678D01*
X0090214Y0130739D01*
X0090223Y0130799D01*
X0090237Y0130859D01*
X0090254Y0130917D01*
X0090274Y0130975D01*
X0090299Y0131031D01*
X0090326Y0131085D01*
X0090357Y0131138D01*
X0090392Y0131188D01*
X0090429Y0131237D01*
X0090469Y0131282D01*
X0090513Y0131326D01*
X0090558Y0131366D01*
X0090607Y0131403D01*
X0090657Y0131438D01*
X0090710Y0131469D01*
X0090764Y0131496D01*
X0090820Y0131521D01*
X0090878Y0131541D01*
X0090936Y0131558D01*
X0090996Y0131572D01*
X0091056Y0131581D01*
X0091117Y0131587D01*
X0091178Y0131589D01*
X0092150Y0131589D01*
X0092150Y0128089D01*
X0088774Y0128089D02*
X0086441Y0131589D01*
X0088774Y0131589D02*
X0086441Y0128089D01*
X0084860Y0128089D02*
X0084860Y0131589D01*
X0083888Y0131589D01*
X0083827Y0131587D01*
X0083766Y0131581D01*
X0083706Y0131572D01*
X0083646Y0131558D01*
X0083588Y0131541D01*
X0083530Y0131521D01*
X0083474Y0131496D01*
X0083420Y0131469D01*
X0083367Y0131438D01*
X0083317Y0131403D01*
X0083268Y0131366D01*
X0083223Y0131326D01*
X0083179Y0131282D01*
X0083139Y0131237D01*
X0083102Y0131188D01*
X0083067Y0131138D01*
X0083036Y0131085D01*
X0083009Y0131031D01*
X0082984Y0130975D01*
X0082964Y0130917D01*
X0082947Y0130859D01*
X0082933Y0130799D01*
X0082924Y0130739D01*
X0082918Y0130678D01*
X0082916Y0130617D01*
X0082915Y0130617D02*
X0082915Y0129061D01*
X0082916Y0129061D02*
X0082918Y0129000D01*
X0082924Y0128939D01*
X0082933Y0128879D01*
X0082947Y0128819D01*
X0082964Y0128761D01*
X0082984Y0128703D01*
X0083009Y0128647D01*
X0083036Y0128593D01*
X0083067Y0128540D01*
X0083102Y0128490D01*
X0083139Y0128441D01*
X0083179Y0128396D01*
X0083223Y0128352D01*
X0083268Y0128312D01*
X0083317Y0128275D01*
X0083367Y0128240D01*
X0083420Y0128209D01*
X0083474Y0128182D01*
X0083530Y0128157D01*
X0083588Y0128137D01*
X0083646Y0128120D01*
X0083706Y0128106D01*
X0083766Y0128097D01*
X0083827Y0128091D01*
X0083888Y0128089D01*
X0084860Y0128089D01*
X0085070Y0138089D02*
X0084098Y0138089D01*
X0085070Y0138089D02*
X0085070Y0141589D01*
X0084098Y0141589D01*
X0084037Y0141587D01*
X0083976Y0141581D01*
X0083916Y0141572D01*
X0083856Y0141558D01*
X0083798Y0141541D01*
X0083740Y0141521D01*
X0083684Y0141496D01*
X0083630Y0141469D01*
X0083577Y0141438D01*
X0083527Y0141403D01*
X0083478Y0141366D01*
X0083433Y0141326D01*
X0083389Y0141282D01*
X0083349Y0141237D01*
X0083312Y0141188D01*
X0083277Y0141138D01*
X0083246Y0141085D01*
X0083219Y0141031D01*
X0083194Y0140975D01*
X0083174Y0140917D01*
X0083157Y0140859D01*
X0083143Y0140799D01*
X0083134Y0140739D01*
X0083128Y0140678D01*
X0083126Y0140617D01*
X0083126Y0139061D01*
X0083128Y0139000D01*
X0083134Y0138939D01*
X0083143Y0138879D01*
X0083157Y0138819D01*
X0083174Y0138761D01*
X0083194Y0138703D01*
X0083219Y0138647D01*
X0083246Y0138593D01*
X0083277Y0138540D01*
X0083312Y0138490D01*
X0083349Y0138441D01*
X0083389Y0138396D01*
X0083433Y0138352D01*
X0083478Y0138312D01*
X0083527Y0138275D01*
X0083577Y0138240D01*
X0083630Y0138209D01*
X0083684Y0138182D01*
X0083740Y0138157D01*
X0083798Y0138137D01*
X0083856Y0138120D01*
X0083916Y0138106D01*
X0083976Y0138097D01*
X0084037Y0138091D01*
X0084098Y0138089D01*
X0086651Y0138089D02*
X0088984Y0141589D01*
X0090206Y0141589D02*
X0092150Y0141589D01*
X0091178Y0141589D02*
X0091178Y0138089D01*
X0088984Y0138089D02*
X0086651Y0141589D01*
X0087128Y0072839D02*
X0087906Y0072839D01*
X0087962Y0072837D01*
X0088017Y0072831D01*
X0088071Y0072821D01*
X0088125Y0072807D01*
X0088178Y0072790D01*
X0088229Y0072769D01*
X0088279Y0072744D01*
X0088327Y0072715D01*
X0088372Y0072684D01*
X0088415Y0072649D01*
X0088456Y0072611D01*
X0088494Y0072570D01*
X0088529Y0072527D01*
X0088561Y0072482D01*
X0088589Y0072434D01*
X0088614Y0072384D01*
X0088635Y0072333D01*
X0088652Y0072280D01*
X0088666Y0072226D01*
X0088676Y0072172D01*
X0088682Y0072117D01*
X0088684Y0072061D01*
X0088683Y0072061D02*
X0088683Y0070117D01*
X0088684Y0070117D02*
X0088682Y0070064D01*
X0088677Y0070011D01*
X0088668Y0069959D01*
X0088655Y0069907D01*
X0088639Y0069856D01*
X0088620Y0069807D01*
X0088597Y0069759D01*
X0088571Y0069713D01*
X0088542Y0069668D01*
X0088510Y0069626D01*
X0088475Y0069586D01*
X0088437Y0069548D01*
X0088397Y0069513D01*
X0088355Y0069481D01*
X0088310Y0069452D01*
X0088264Y0069426D01*
X0088216Y0069403D01*
X0088167Y0069384D01*
X0088116Y0069368D01*
X0088064Y0069355D01*
X0088012Y0069346D01*
X0087959Y0069341D01*
X0087906Y0069339D01*
X0087128Y0069339D01*
X0085541Y0069339D02*
X0083985Y0069339D01*
X0085541Y0069339D02*
X0085541Y0072839D01*
X0082362Y0072839D02*
X0082362Y0069339D01*
X0082362Y0070700D02*
X0080417Y0072839D01*
X0081584Y0071478D02*
X0080417Y0069339D01*
X0080394Y0065339D02*
X0081172Y0065339D01*
X0080783Y0065339D02*
X0080783Y0061839D01*
X0081172Y0061839D02*
X0080394Y0061839D01*
X0082960Y0063297D02*
X0084029Y0063880D01*
X0083641Y0065338D02*
X0083569Y0065336D01*
X0083497Y0065331D01*
X0083425Y0065322D01*
X0083354Y0065310D01*
X0083284Y0065294D01*
X0083214Y0065274D01*
X0083146Y0065251D01*
X0083079Y0065225D01*
X0083013Y0065196D01*
X0082948Y0065163D01*
X0082886Y0065127D01*
X0082825Y0065088D01*
X0082766Y0065046D01*
X0084029Y0063880D02*
X0084075Y0063910D01*
X0084119Y0063942D01*
X0084161Y0063978D01*
X0084200Y0064016D01*
X0084236Y0064057D01*
X0084270Y0064100D01*
X0084300Y0064146D01*
X0084327Y0064193D01*
X0084351Y0064242D01*
X0084371Y0064293D01*
X0084388Y0064345D01*
X0084401Y0064398D01*
X0084410Y0064452D01*
X0084416Y0064506D01*
X0084418Y0064561D01*
X0084419Y0064561D02*
X0084417Y0064617D01*
X0084411Y0064672D01*
X0084401Y0064726D01*
X0084387Y0064780D01*
X0084370Y0064833D01*
X0084349Y0064884D01*
X0084324Y0064934D01*
X0084295Y0064982D01*
X0084264Y0065027D01*
X0084229Y0065070D01*
X0084191Y0065111D01*
X0084150Y0065149D01*
X0084107Y0065184D01*
X0084062Y0065215D01*
X0084014Y0065244D01*
X0083964Y0065269D01*
X0083913Y0065290D01*
X0083860Y0065307D01*
X0083806Y0065321D01*
X0083752Y0065331D01*
X0083697Y0065337D01*
X0083641Y0065339D01*
X0084516Y0062325D02*
X0084461Y0062272D01*
X0084403Y0062222D01*
X0084344Y0062174D01*
X0084282Y0062130D01*
X0084218Y0062088D01*
X0084152Y0062049D01*
X0084085Y0062013D01*
X0084016Y0061980D01*
X0083946Y0061951D01*
X0083874Y0061925D01*
X0083801Y0061902D01*
X0083727Y0061883D01*
X0083652Y0061867D01*
X0083577Y0061855D01*
X0083501Y0061846D01*
X0083425Y0061841D01*
X0083349Y0061839D01*
X0083293Y0061841D01*
X0083238Y0061847D01*
X0083184Y0061857D01*
X0083130Y0061871D01*
X0083077Y0061888D01*
X0083026Y0061909D01*
X0082976Y0061934D01*
X0082928Y0061963D01*
X0082883Y0061994D01*
X0082840Y0062029D01*
X0082799Y0062067D01*
X0082761Y0062108D01*
X0082726Y0062151D01*
X0082695Y0062196D01*
X0082666Y0062244D01*
X0082641Y0062294D01*
X0082620Y0062345D01*
X0082603Y0062398D01*
X0082589Y0062452D01*
X0082579Y0062506D01*
X0082573Y0062561D01*
X0082571Y0062617D01*
X0082573Y0062672D01*
X0082579Y0062726D01*
X0082588Y0062780D01*
X0082601Y0062833D01*
X0082618Y0062885D01*
X0082638Y0062936D01*
X0082662Y0062985D01*
X0082689Y0063032D01*
X0082719Y0063078D01*
X0082753Y0063121D01*
X0082789Y0063162D01*
X0082828Y0063200D01*
X0082870Y0063236D01*
X0082914Y0063268D01*
X0082960Y0063298D01*
X0086051Y0062811D02*
X0086051Y0064367D01*
X0086053Y0064428D01*
X0086059Y0064489D01*
X0086068Y0064549D01*
X0086082Y0064609D01*
X0086099Y0064667D01*
X0086119Y0064725D01*
X0086144Y0064781D01*
X0086171Y0064835D01*
X0086202Y0064888D01*
X0086237Y0064938D01*
X0086274Y0064987D01*
X0086314Y0065032D01*
X0086358Y0065076D01*
X0086403Y0065116D01*
X0086452Y0065153D01*
X0086502Y0065188D01*
X0086555Y0065219D01*
X0086609Y0065246D01*
X0086665Y0065271D01*
X0086723Y0065291D01*
X0086781Y0065308D01*
X0086841Y0065322D01*
X0086901Y0065331D01*
X0086962Y0065337D01*
X0087023Y0065339D01*
X0087084Y0065337D01*
X0087145Y0065331D01*
X0087205Y0065322D01*
X0087265Y0065308D01*
X0087323Y0065291D01*
X0087381Y0065271D01*
X0087437Y0065246D01*
X0087491Y0065219D01*
X0087544Y0065188D01*
X0087594Y0065153D01*
X0087643Y0065116D01*
X0087688Y0065076D01*
X0087732Y0065032D01*
X0087772Y0064987D01*
X0087809Y0064938D01*
X0087844Y0064888D01*
X0087875Y0064835D01*
X0087902Y0064781D01*
X0087927Y0064725D01*
X0087947Y0064667D01*
X0087964Y0064609D01*
X0087978Y0064549D01*
X0087987Y0064489D01*
X0087993Y0064428D01*
X0087995Y0064367D01*
X0087996Y0064367D02*
X0087996Y0062811D01*
X0087995Y0062811D02*
X0087993Y0062750D01*
X0087987Y0062689D01*
X0087978Y0062629D01*
X0087964Y0062569D01*
X0087947Y0062511D01*
X0087927Y0062453D01*
X0087902Y0062397D01*
X0087875Y0062343D01*
X0087844Y0062290D01*
X0087809Y0062240D01*
X0087772Y0062191D01*
X0087732Y0062146D01*
X0087688Y0062102D01*
X0087643Y0062062D01*
X0087594Y0062025D01*
X0087544Y0061990D01*
X0087491Y0061959D01*
X0087437Y0061932D01*
X0087381Y0061907D01*
X0087323Y0061887D01*
X0087265Y0061870D01*
X0087205Y0061856D01*
X0087145Y0061847D01*
X0087084Y0061841D01*
X0087023Y0061839D01*
X0086962Y0061841D01*
X0086901Y0061847D01*
X0086841Y0061856D01*
X0086781Y0061870D01*
X0086723Y0061887D01*
X0086665Y0061907D01*
X0086609Y0061932D01*
X0086555Y0061959D01*
X0086502Y0061990D01*
X0086452Y0062025D01*
X0086403Y0062062D01*
X0086358Y0062102D01*
X0086314Y0062146D01*
X0086274Y0062191D01*
X0086237Y0062240D01*
X0086202Y0062290D01*
X0086171Y0062343D01*
X0086144Y0062397D01*
X0086119Y0062453D01*
X0086099Y0062511D01*
X0086082Y0062569D01*
X0086068Y0062629D01*
X0086059Y0062689D01*
X0086053Y0062750D01*
X0086051Y0062811D01*
X0089817Y0061839D02*
X0089817Y0065339D01*
X0090983Y0063394D01*
X0092150Y0065339D01*
X0092150Y0061839D01*
X0090205Y0070117D02*
X0090207Y0070172D01*
X0090213Y0070226D01*
X0090222Y0070280D01*
X0090235Y0070333D01*
X0090252Y0070385D01*
X0090272Y0070436D01*
X0090296Y0070485D01*
X0090323Y0070532D01*
X0090353Y0070578D01*
X0090387Y0070621D01*
X0090423Y0070662D01*
X0090462Y0070700D01*
X0090504Y0070736D01*
X0090548Y0070768D01*
X0090594Y0070798D01*
X0090594Y0070797D02*
X0091664Y0071380D01*
X0091275Y0072838D02*
X0091203Y0072836D01*
X0091131Y0072831D01*
X0091059Y0072822D01*
X0090988Y0072810D01*
X0090918Y0072794D01*
X0090848Y0072774D01*
X0090780Y0072751D01*
X0090713Y0072725D01*
X0090647Y0072696D01*
X0090582Y0072663D01*
X0090520Y0072627D01*
X0090459Y0072588D01*
X0090400Y0072546D01*
X0091664Y0071380D02*
X0091710Y0071410D01*
X0091754Y0071442D01*
X0091796Y0071478D01*
X0091835Y0071516D01*
X0091871Y0071557D01*
X0091905Y0071600D01*
X0091935Y0071646D01*
X0091962Y0071693D01*
X0091986Y0071742D01*
X0092006Y0071793D01*
X0092023Y0071845D01*
X0092036Y0071898D01*
X0092045Y0071952D01*
X0092051Y0072006D01*
X0092053Y0072061D01*
X0092051Y0072117D01*
X0092045Y0072172D01*
X0092035Y0072226D01*
X0092021Y0072280D01*
X0092004Y0072333D01*
X0091983Y0072384D01*
X0091958Y0072434D01*
X0091929Y0072482D01*
X0091898Y0072527D01*
X0091863Y0072570D01*
X0091825Y0072611D01*
X0091784Y0072649D01*
X0091741Y0072684D01*
X0091696Y0072715D01*
X0091648Y0072744D01*
X0091598Y0072769D01*
X0091547Y0072790D01*
X0091494Y0072807D01*
X0091440Y0072821D01*
X0091386Y0072831D01*
X0091331Y0072837D01*
X0091275Y0072839D01*
X0092150Y0069825D02*
X0092095Y0069772D01*
X0092037Y0069722D01*
X0091978Y0069674D01*
X0091916Y0069630D01*
X0091852Y0069588D01*
X0091786Y0069549D01*
X0091719Y0069513D01*
X0091650Y0069480D01*
X0091580Y0069451D01*
X0091508Y0069425D01*
X0091435Y0069402D01*
X0091361Y0069383D01*
X0091286Y0069367D01*
X0091211Y0069355D01*
X0091135Y0069346D01*
X0091059Y0069341D01*
X0090983Y0069339D01*
X0090927Y0069341D01*
X0090872Y0069347D01*
X0090818Y0069357D01*
X0090764Y0069371D01*
X0090711Y0069388D01*
X0090660Y0069409D01*
X0090610Y0069434D01*
X0090562Y0069463D01*
X0090517Y0069494D01*
X0090474Y0069529D01*
X0090433Y0069567D01*
X0090395Y0069608D01*
X0090360Y0069651D01*
X0090329Y0069696D01*
X0090300Y0069744D01*
X0090275Y0069794D01*
X0090254Y0069845D01*
X0090237Y0069898D01*
X0090223Y0069952D01*
X0090213Y0070006D01*
X0090207Y0070061D01*
X0090205Y0070117D01*
X0090206Y0051589D02*
X0091372Y0051589D01*
X0091428Y0051587D01*
X0091483Y0051581D01*
X0091537Y0051571D01*
X0091591Y0051557D01*
X0091644Y0051540D01*
X0091695Y0051519D01*
X0091745Y0051494D01*
X0091793Y0051465D01*
X0091838Y0051434D01*
X0091881Y0051399D01*
X0091922Y0051361D01*
X0091960Y0051320D01*
X0091995Y0051277D01*
X0092027Y0051232D01*
X0092055Y0051184D01*
X0092080Y0051134D01*
X0092101Y0051083D01*
X0092118Y0051030D01*
X0092132Y0050976D01*
X0092142Y0050922D01*
X0092148Y0050867D01*
X0092150Y0050811D01*
X0092150Y0048867D01*
X0092148Y0048814D01*
X0092143Y0048761D01*
X0092134Y0048709D01*
X0092121Y0048657D01*
X0092105Y0048606D01*
X0092086Y0048557D01*
X0092063Y0048509D01*
X0092037Y0048463D01*
X0092008Y0048418D01*
X0091976Y0048376D01*
X0091941Y0048336D01*
X0091903Y0048298D01*
X0091863Y0048263D01*
X0091821Y0048231D01*
X0091776Y0048202D01*
X0091730Y0048176D01*
X0091682Y0048153D01*
X0091633Y0048134D01*
X0091582Y0048118D01*
X0091530Y0048105D01*
X0091478Y0048096D01*
X0091425Y0048091D01*
X0091372Y0048089D01*
X0090206Y0048089D01*
X0090206Y0050033D01*
X0090789Y0050033D01*
X0088242Y0049644D02*
X0087269Y0049644D01*
X0087269Y0049645D02*
X0087208Y0049647D01*
X0087147Y0049653D01*
X0087087Y0049662D01*
X0087027Y0049676D01*
X0086969Y0049693D01*
X0086911Y0049713D01*
X0086855Y0049738D01*
X0086801Y0049765D01*
X0086748Y0049796D01*
X0086698Y0049831D01*
X0086649Y0049868D01*
X0086604Y0049908D01*
X0086560Y0049952D01*
X0086520Y0049997D01*
X0086483Y0050046D01*
X0086448Y0050096D01*
X0086417Y0050149D01*
X0086390Y0050203D01*
X0086365Y0050259D01*
X0086345Y0050317D01*
X0086328Y0050375D01*
X0086314Y0050435D01*
X0086305Y0050495D01*
X0086299Y0050556D01*
X0086297Y0050617D01*
X0086299Y0050678D01*
X0086305Y0050739D01*
X0086314Y0050799D01*
X0086328Y0050859D01*
X0086345Y0050917D01*
X0086365Y0050975D01*
X0086390Y0051031D01*
X0086417Y0051085D01*
X0086448Y0051138D01*
X0086483Y0051188D01*
X0086520Y0051237D01*
X0086560Y0051282D01*
X0086604Y0051326D01*
X0086649Y0051366D01*
X0086698Y0051403D01*
X0086748Y0051438D01*
X0086801Y0051469D01*
X0086855Y0051496D01*
X0086911Y0051521D01*
X0086969Y0051541D01*
X0087027Y0051558D01*
X0087087Y0051572D01*
X0087147Y0051581D01*
X0087208Y0051587D01*
X0087269Y0051589D01*
X0088242Y0051589D01*
X0088242Y0048089D01*
X0084967Y0048089D02*
X0084189Y0048089D01*
X0084578Y0048089D02*
X0084578Y0051589D01*
X0084967Y0051589D02*
X0084189Y0051589D01*
X0082670Y0050617D02*
X0082670Y0049061D01*
X0082668Y0049000D01*
X0082662Y0048939D01*
X0082653Y0048879D01*
X0082639Y0048819D01*
X0082622Y0048761D01*
X0082602Y0048703D01*
X0082577Y0048647D01*
X0082550Y0048593D01*
X0082519Y0048540D01*
X0082484Y0048490D01*
X0082447Y0048441D01*
X0082407Y0048396D01*
X0082363Y0048352D01*
X0082318Y0048312D01*
X0082269Y0048275D01*
X0082219Y0048240D01*
X0082166Y0048209D01*
X0082112Y0048182D01*
X0082056Y0048157D01*
X0081998Y0048137D01*
X0081940Y0048120D01*
X0081880Y0048106D01*
X0081820Y0048097D01*
X0081759Y0048091D01*
X0081698Y0048089D01*
X0081637Y0048091D01*
X0081576Y0048097D01*
X0081516Y0048106D01*
X0081456Y0048120D01*
X0081398Y0048137D01*
X0081340Y0048157D01*
X0081284Y0048182D01*
X0081230Y0048209D01*
X0081177Y0048240D01*
X0081127Y0048275D01*
X0081078Y0048312D01*
X0081033Y0048352D01*
X0080989Y0048396D01*
X0080949Y0048441D01*
X0080912Y0048490D01*
X0080877Y0048540D01*
X0080846Y0048593D01*
X0080819Y0048647D01*
X0080794Y0048703D01*
X0080774Y0048761D01*
X0080757Y0048819D01*
X0080743Y0048879D01*
X0080734Y0048939D01*
X0080728Y0049000D01*
X0080726Y0049061D01*
X0080726Y0050617D01*
X0080728Y0050678D01*
X0080734Y0050739D01*
X0080743Y0050799D01*
X0080757Y0050859D01*
X0080774Y0050917D01*
X0080794Y0050975D01*
X0080819Y0051031D01*
X0080846Y0051085D01*
X0080877Y0051138D01*
X0080912Y0051188D01*
X0080949Y0051237D01*
X0080989Y0051282D01*
X0081033Y0051326D01*
X0081078Y0051366D01*
X0081127Y0051403D01*
X0081177Y0051438D01*
X0081230Y0051469D01*
X0081284Y0051496D01*
X0081340Y0051521D01*
X0081398Y0051541D01*
X0081456Y0051558D01*
X0081516Y0051572D01*
X0081576Y0051581D01*
X0081637Y0051587D01*
X0081698Y0051589D01*
X0081759Y0051587D01*
X0081820Y0051581D01*
X0081880Y0051572D01*
X0081940Y0051558D01*
X0081998Y0051541D01*
X0082056Y0051521D01*
X0082112Y0051496D01*
X0082166Y0051469D01*
X0082219Y0051438D01*
X0082269Y0051403D01*
X0082318Y0051366D01*
X0082363Y0051326D01*
X0082407Y0051282D01*
X0082447Y0051237D01*
X0082484Y0051188D01*
X0082519Y0051138D01*
X0082550Y0051085D01*
X0082577Y0051031D01*
X0082602Y0050975D01*
X0082622Y0050917D01*
X0082639Y0050859D01*
X0082653Y0050799D01*
X0082662Y0050739D01*
X0082668Y0050678D01*
X0082670Y0050617D01*
X0079070Y0050811D02*
X0078098Y0051589D01*
X0078098Y0048089D01*
X0079070Y0048089D02*
X0077126Y0048089D01*
X0073818Y0048575D02*
X0073775Y0048666D01*
X0073736Y0048759D01*
X0073700Y0048853D01*
X0073667Y0048948D01*
X0073638Y0049044D01*
X0073612Y0049142D01*
X0073589Y0049240D01*
X0073570Y0049338D01*
X0073554Y0049438D01*
X0073542Y0049538D01*
X0073533Y0049638D01*
X0073528Y0049738D01*
X0073526Y0049839D01*
X0075470Y0049839D02*
X0075468Y0049940D01*
X0075463Y0050040D01*
X0075454Y0050140D01*
X0075442Y0050240D01*
X0075426Y0050340D01*
X0075407Y0050438D01*
X0075384Y0050536D01*
X0075358Y0050634D01*
X0075329Y0050730D01*
X0075296Y0050825D01*
X0075260Y0050919D01*
X0075221Y0051012D01*
X0075178Y0051103D01*
X0074498Y0051588D02*
X0074446Y0051586D01*
X0074393Y0051580D01*
X0074342Y0051571D01*
X0074291Y0051558D01*
X0074241Y0051541D01*
X0074193Y0051520D01*
X0074146Y0051496D01*
X0074102Y0051469D01*
X0074059Y0051438D01*
X0074019Y0051405D01*
X0073981Y0051369D01*
X0073946Y0051330D01*
X0073914Y0051288D01*
X0073885Y0051244D01*
X0073859Y0051199D01*
X0073837Y0051151D01*
X0073818Y0051102D01*
X0073720Y0050811D02*
X0075276Y0048867D01*
X0074498Y0048089D02*
X0074446Y0048091D01*
X0074393Y0048097D01*
X0074342Y0048106D01*
X0074291Y0048119D01*
X0074241Y0048136D01*
X0074193Y0048157D01*
X0074147Y0048181D01*
X0074102Y0048208D01*
X0074059Y0048239D01*
X0074019Y0048272D01*
X0073981Y0048308D01*
X0073946Y0048347D01*
X0073914Y0048389D01*
X0073885Y0048433D01*
X0073859Y0048478D01*
X0073837Y0048526D01*
X0073818Y0048575D01*
X0074498Y0048089D02*
X0074550Y0048091D01*
X0074603Y0048097D01*
X0074654Y0048106D01*
X0074705Y0048119D01*
X0074755Y0048136D01*
X0074803Y0048157D01*
X0074849Y0048181D01*
X0074894Y0048208D01*
X0074937Y0048239D01*
X0074977Y0048272D01*
X0075015Y0048308D01*
X0075050Y0048347D01*
X0075082Y0048389D01*
X0075111Y0048433D01*
X0075137Y0048478D01*
X0075159Y0048526D01*
X0075178Y0048575D01*
X0073526Y0049839D02*
X0073528Y0049940D01*
X0073533Y0050040D01*
X0073542Y0050140D01*
X0073554Y0050240D01*
X0073570Y0050340D01*
X0073589Y0050438D01*
X0073612Y0050536D01*
X0073638Y0050634D01*
X0073667Y0050730D01*
X0073700Y0050825D01*
X0073736Y0050919D01*
X0073775Y0051012D01*
X0073818Y0051103D01*
X0074498Y0051588D02*
X0074550Y0051586D01*
X0074603Y0051580D01*
X0074654Y0051571D01*
X0074705Y0051558D01*
X0074755Y0051541D01*
X0074803Y0051520D01*
X0074849Y0051496D01*
X0074894Y0051469D01*
X0074937Y0051438D01*
X0074977Y0051405D01*
X0075015Y0051369D01*
X0075050Y0051330D01*
X0075082Y0051288D01*
X0075111Y0051244D01*
X0075137Y0051199D01*
X0075159Y0051151D01*
X0075178Y0051102D01*
X0075470Y0049839D02*
X0075468Y0049738D01*
X0075463Y0049638D01*
X0075454Y0049538D01*
X0075442Y0049438D01*
X0075426Y0049338D01*
X0075407Y0049240D01*
X0075384Y0049142D01*
X0075358Y0049044D01*
X0075329Y0048948D01*
X0075296Y0048853D01*
X0075260Y0048759D01*
X0075221Y0048666D01*
X0075178Y0048575D01*
D11*
X0067100Y0063139D02*
X0062700Y0063139D01*
X0062700Y0065094D01*
X0065144Y0064605D02*
X0065144Y0063139D01*
X0067100Y0063139D02*
X0067100Y0065094D01*
X0065267Y0067339D02*
X0064533Y0068683D01*
X0062700Y0068194D02*
X0062702Y0068103D01*
X0062708Y0068013D01*
X0062718Y0067923D01*
X0062732Y0067833D01*
X0062749Y0067744D01*
X0062771Y0067656D01*
X0062797Y0067570D01*
X0062826Y0067484D01*
X0062859Y0067399D01*
X0062896Y0067317D01*
X0062936Y0067235D01*
X0062980Y0067156D01*
X0063027Y0067079D01*
X0063077Y0067003D01*
X0063131Y0066931D01*
X0063188Y0066860D01*
X0063248Y0066792D01*
X0063311Y0066727D01*
X0064534Y0068683D02*
X0064501Y0068734D01*
X0064466Y0068784D01*
X0064427Y0068831D01*
X0064386Y0068875D01*
X0064342Y0068917D01*
X0064296Y0068956D01*
X0064247Y0068992D01*
X0064197Y0069026D01*
X0064144Y0069056D01*
X0064090Y0069083D01*
X0064034Y0069106D01*
X0063977Y0069126D01*
X0063918Y0069143D01*
X0063859Y0069155D01*
X0063799Y0069165D01*
X0063739Y0069170D01*
X0063678Y0069172D01*
X0063617Y0069170D01*
X0063555Y0069164D01*
X0063495Y0069155D01*
X0063435Y0069141D01*
X0063376Y0069124D01*
X0063318Y0069103D01*
X0063262Y0069079D01*
X0063207Y0069051D01*
X0063154Y0069020D01*
X0063103Y0068985D01*
X0063055Y0068948D01*
X0063009Y0068907D01*
X0062965Y0068863D01*
X0062924Y0068817D01*
X0062887Y0068769D01*
X0062852Y0068718D01*
X0062821Y0068665D01*
X0062793Y0068610D01*
X0062769Y0068554D01*
X0062748Y0068496D01*
X0062731Y0068437D01*
X0062717Y0068377D01*
X0062708Y0068317D01*
X0062702Y0068255D01*
X0062700Y0068194D01*
X0066733Y0068928D02*
X0066782Y0068859D01*
X0066828Y0068789D01*
X0066871Y0068716D01*
X0066910Y0068641D01*
X0066945Y0068565D01*
X0066977Y0068487D01*
X0067006Y0068408D01*
X0067031Y0068327D01*
X0067052Y0068246D01*
X0067069Y0068163D01*
X0067083Y0068080D01*
X0067092Y0067996D01*
X0067098Y0067912D01*
X0067100Y0067828D01*
X0067098Y0067767D01*
X0067092Y0067705D01*
X0067083Y0067645D01*
X0067069Y0067585D01*
X0067052Y0067526D01*
X0067031Y0067468D01*
X0067007Y0067412D01*
X0066979Y0067357D01*
X0066948Y0067304D01*
X0066913Y0067253D01*
X0066876Y0067205D01*
X0066835Y0067159D01*
X0066791Y0067115D01*
X0066745Y0067074D01*
X0066697Y0067037D01*
X0066646Y0067002D01*
X0066593Y0066971D01*
X0066538Y0066943D01*
X0066482Y0066919D01*
X0066424Y0066898D01*
X0066365Y0066881D01*
X0066305Y0066867D01*
X0066245Y0066858D01*
X0066183Y0066852D01*
X0066122Y0066850D01*
X0066061Y0066852D01*
X0066001Y0066857D01*
X0065941Y0066867D01*
X0065882Y0066879D01*
X0065823Y0066896D01*
X0065766Y0066916D01*
X0065710Y0066939D01*
X0065656Y0066966D01*
X0065603Y0066996D01*
X0065553Y0067030D01*
X0065504Y0067066D01*
X0065458Y0067105D01*
X0065414Y0067147D01*
X0065373Y0067191D01*
X0065334Y0067238D01*
X0065299Y0067288D01*
X0065266Y0067339D01*
X0064656Y0071311D02*
X0064656Y0072533D01*
X0064658Y0072602D01*
X0064664Y0072670D01*
X0064673Y0072738D01*
X0064687Y0072805D01*
X0064704Y0072871D01*
X0064725Y0072937D01*
X0064749Y0073001D01*
X0064777Y0073063D01*
X0064808Y0073124D01*
X0064843Y0073183D01*
X0064881Y0073240D01*
X0064923Y0073295D01*
X0064967Y0073347D01*
X0065014Y0073397D01*
X0065064Y0073444D01*
X0065116Y0073488D01*
X0065171Y0073530D01*
X0065228Y0073568D01*
X0065287Y0073603D01*
X0065348Y0073634D01*
X0065410Y0073662D01*
X0065474Y0073686D01*
X0065540Y0073707D01*
X0065606Y0073724D01*
X0065673Y0073738D01*
X0065741Y0073747D01*
X0065809Y0073753D01*
X0065878Y0073755D01*
X0065947Y0073753D01*
X0066015Y0073747D01*
X0066083Y0073738D01*
X0066150Y0073724D01*
X0066216Y0073707D01*
X0066282Y0073686D01*
X0066346Y0073662D01*
X0066408Y0073634D01*
X0066469Y0073603D01*
X0066528Y0073568D01*
X0066585Y0073530D01*
X0066640Y0073488D01*
X0066692Y0073444D01*
X0066742Y0073397D01*
X0066789Y0073347D01*
X0066833Y0073295D01*
X0066875Y0073240D01*
X0066913Y0073183D01*
X0066948Y0073124D01*
X0066979Y0073063D01*
X0067007Y0073001D01*
X0067031Y0072937D01*
X0067052Y0072871D01*
X0067069Y0072805D01*
X0067083Y0072738D01*
X0067092Y0072670D01*
X0067098Y0072602D01*
X0067100Y0072533D01*
X0067100Y0071311D01*
X0062700Y0071311D01*
X0063922Y0075578D02*
X0063853Y0075580D01*
X0063785Y0075586D01*
X0063717Y0075595D01*
X0063650Y0075609D01*
X0063584Y0075626D01*
X0063518Y0075647D01*
X0063454Y0075671D01*
X0063392Y0075699D01*
X0063331Y0075730D01*
X0063272Y0075765D01*
X0063215Y0075803D01*
X0063160Y0075845D01*
X0063108Y0075889D01*
X0063058Y0075936D01*
X0063011Y0075986D01*
X0062967Y0076038D01*
X0062925Y0076093D01*
X0062887Y0076150D01*
X0062852Y0076209D01*
X0062821Y0076270D01*
X0062793Y0076332D01*
X0062769Y0076396D01*
X0062748Y0076462D01*
X0062731Y0076528D01*
X0062717Y0076595D01*
X0062708Y0076663D01*
X0062702Y0076731D01*
X0062700Y0076800D01*
X0062702Y0076869D01*
X0062708Y0076937D01*
X0062717Y0077005D01*
X0062731Y0077072D01*
X0062748Y0077138D01*
X0062769Y0077204D01*
X0062793Y0077268D01*
X0062821Y0077330D01*
X0062852Y0077391D01*
X0062887Y0077450D01*
X0062925Y0077507D01*
X0062967Y0077562D01*
X0063011Y0077614D01*
X0063058Y0077664D01*
X0063108Y0077711D01*
X0063160Y0077755D01*
X0063215Y0077797D01*
X0063272Y0077835D01*
X0063331Y0077870D01*
X0063392Y0077901D01*
X0063454Y0077929D01*
X0063518Y0077953D01*
X0063584Y0077974D01*
X0063650Y0077991D01*
X0063717Y0078005D01*
X0063785Y0078014D01*
X0063853Y0078020D01*
X0063922Y0078022D01*
X0063991Y0078020D01*
X0064059Y0078014D01*
X0064127Y0078005D01*
X0064194Y0077991D01*
X0064260Y0077974D01*
X0064326Y0077953D01*
X0064390Y0077929D01*
X0064452Y0077901D01*
X0064513Y0077870D01*
X0064572Y0077835D01*
X0064629Y0077797D01*
X0064684Y0077755D01*
X0064736Y0077711D01*
X0064786Y0077664D01*
X0064833Y0077614D01*
X0064877Y0077562D01*
X0064919Y0077507D01*
X0064957Y0077450D01*
X0064992Y0077391D01*
X0065023Y0077330D01*
X0065051Y0077268D01*
X0065075Y0077204D01*
X0065096Y0077138D01*
X0065113Y0077072D01*
X0065127Y0077005D01*
X0065136Y0076937D01*
X0065142Y0076869D01*
X0065144Y0076800D01*
X0065142Y0076731D01*
X0065136Y0076663D01*
X0065127Y0076595D01*
X0065113Y0076528D01*
X0065096Y0076462D01*
X0065075Y0076396D01*
X0065051Y0076332D01*
X0065023Y0076270D01*
X0064992Y0076209D01*
X0064957Y0076150D01*
X0064919Y0076093D01*
X0064877Y0076038D01*
X0064833Y0075986D01*
X0064786Y0075936D01*
X0064736Y0075889D01*
X0064684Y0075845D01*
X0064629Y0075803D01*
X0064572Y0075765D01*
X0064513Y0075730D01*
X0064452Y0075699D01*
X0064390Y0075671D01*
X0064326Y0075647D01*
X0064260Y0075626D01*
X0064194Y0075609D01*
X0064127Y0075595D01*
X0064059Y0075586D01*
X0063991Y0075580D01*
X0063922Y0075578D01*
X0066122Y0075822D02*
X0066061Y0075824D01*
X0065999Y0075830D01*
X0065939Y0075839D01*
X0065879Y0075853D01*
X0065820Y0075870D01*
X0065762Y0075891D01*
X0065706Y0075915D01*
X0065651Y0075943D01*
X0065598Y0075974D01*
X0065547Y0076009D01*
X0065499Y0076046D01*
X0065453Y0076087D01*
X0065409Y0076131D01*
X0065368Y0076177D01*
X0065331Y0076225D01*
X0065296Y0076276D01*
X0065265Y0076329D01*
X0065237Y0076384D01*
X0065213Y0076440D01*
X0065192Y0076498D01*
X0065175Y0076557D01*
X0065161Y0076617D01*
X0065152Y0076677D01*
X0065146Y0076739D01*
X0065144Y0076800D01*
X0065146Y0076861D01*
X0065152Y0076923D01*
X0065161Y0076983D01*
X0065175Y0077043D01*
X0065192Y0077102D01*
X0065213Y0077160D01*
X0065237Y0077216D01*
X0065265Y0077271D01*
X0065296Y0077324D01*
X0065331Y0077375D01*
X0065368Y0077423D01*
X0065409Y0077469D01*
X0065453Y0077513D01*
X0065499Y0077554D01*
X0065547Y0077591D01*
X0065598Y0077626D01*
X0065651Y0077657D01*
X0065706Y0077685D01*
X0065762Y0077709D01*
X0065820Y0077730D01*
X0065879Y0077747D01*
X0065939Y0077761D01*
X0065999Y0077770D01*
X0066061Y0077776D01*
X0066122Y0077778D01*
X0066183Y0077776D01*
X0066245Y0077770D01*
X0066305Y0077761D01*
X0066365Y0077747D01*
X0066424Y0077730D01*
X0066482Y0077709D01*
X0066538Y0077685D01*
X0066593Y0077657D01*
X0066646Y0077626D01*
X0066697Y0077591D01*
X0066745Y0077554D01*
X0066791Y0077513D01*
X0066835Y0077469D01*
X0066876Y0077423D01*
X0066913Y0077375D01*
X0066948Y0077324D01*
X0066979Y0077271D01*
X0067007Y0077216D01*
X0067031Y0077160D01*
X0067052Y0077102D01*
X0067069Y0077043D01*
X0067083Y0076983D01*
X0067092Y0076923D01*
X0067098Y0076861D01*
X0067100Y0076800D01*
X0067098Y0076739D01*
X0067092Y0076677D01*
X0067083Y0076617D01*
X0067069Y0076557D01*
X0067052Y0076498D01*
X0067031Y0076440D01*
X0067007Y0076384D01*
X0066979Y0076329D01*
X0066948Y0076276D01*
X0066913Y0076225D01*
X0066876Y0076177D01*
X0066835Y0076131D01*
X0066791Y0076087D01*
X0066745Y0076046D01*
X0066697Y0076009D01*
X0066646Y0075974D01*
X0066593Y0075943D01*
X0066538Y0075915D01*
X0066482Y0075891D01*
X0066424Y0075870D01*
X0066365Y0075853D01*
X0066305Y0075839D01*
X0066245Y0075830D01*
X0066183Y0075824D01*
X0066122Y0075822D01*
X0062700Y0080078D02*
X0062700Y0082522D01*
X0063922Y0084578D02*
X0065144Y0084578D01*
X0065144Y0086044D01*
X0065144Y0084577D02*
X0065232Y0084579D01*
X0065319Y0084585D01*
X0065407Y0084595D01*
X0065493Y0084608D01*
X0065579Y0084626D01*
X0065664Y0084647D01*
X0065748Y0084673D01*
X0065831Y0084702D01*
X0065913Y0084734D01*
X0065993Y0084771D01*
X0066071Y0084811D01*
X0066147Y0084854D01*
X0066222Y0084901D01*
X0066294Y0084951D01*
X0066364Y0085004D01*
X0066431Y0085060D01*
X0066496Y0085119D01*
X0066558Y0085181D01*
X0066617Y0085246D01*
X0066673Y0085313D01*
X0066726Y0085383D01*
X0066776Y0085455D01*
X0066823Y0085530D01*
X0066866Y0085606D01*
X0066906Y0085684D01*
X0066943Y0085764D01*
X0066975Y0085846D01*
X0067004Y0085929D01*
X0067030Y0086013D01*
X0067051Y0086098D01*
X0067069Y0086184D01*
X0067082Y0086270D01*
X0067092Y0086358D01*
X0067098Y0086445D01*
X0067100Y0086533D01*
X0065144Y0089078D02*
X0063922Y0089078D01*
X0063853Y0089080D01*
X0063785Y0089086D01*
X0063717Y0089095D01*
X0063650Y0089109D01*
X0063584Y0089126D01*
X0063518Y0089147D01*
X0063454Y0089171D01*
X0063392Y0089199D01*
X0063331Y0089230D01*
X0063272Y0089265D01*
X0063215Y0089303D01*
X0063160Y0089345D01*
X0063108Y0089389D01*
X0063058Y0089436D01*
X0063011Y0089486D01*
X0062967Y0089538D01*
X0062925Y0089593D01*
X0062887Y0089650D01*
X0062852Y0089709D01*
X0062821Y0089770D01*
X0062793Y0089832D01*
X0062769Y0089896D01*
X0062748Y0089962D01*
X0062731Y0090028D01*
X0062717Y0090095D01*
X0062708Y0090163D01*
X0062702Y0090231D01*
X0062700Y0090300D01*
X0062702Y0090369D01*
X0062708Y0090437D01*
X0062717Y0090505D01*
X0062731Y0090572D01*
X0062748Y0090638D01*
X0062769Y0090704D01*
X0062793Y0090768D01*
X0062821Y0090830D01*
X0062852Y0090891D01*
X0062887Y0090950D01*
X0062925Y0091007D01*
X0062967Y0091062D01*
X0063011Y0091114D01*
X0063058Y0091164D01*
X0063108Y0091211D01*
X0063160Y0091255D01*
X0063215Y0091297D01*
X0063272Y0091335D01*
X0063331Y0091370D01*
X0063392Y0091401D01*
X0063454Y0091429D01*
X0063518Y0091453D01*
X0063584Y0091474D01*
X0063650Y0091491D01*
X0063717Y0091505D01*
X0063785Y0091514D01*
X0063853Y0091520D01*
X0063922Y0091522D01*
X0064167Y0091522D01*
X0064228Y0091520D01*
X0064290Y0091514D01*
X0064350Y0091505D01*
X0064410Y0091491D01*
X0064469Y0091474D01*
X0064527Y0091453D01*
X0064583Y0091429D01*
X0064638Y0091401D01*
X0064691Y0091370D01*
X0064742Y0091335D01*
X0064790Y0091298D01*
X0064836Y0091257D01*
X0064880Y0091213D01*
X0064921Y0091167D01*
X0064958Y0091119D01*
X0064993Y0091068D01*
X0065024Y0091015D01*
X0065052Y0090960D01*
X0065076Y0090904D01*
X0065097Y0090846D01*
X0065114Y0090787D01*
X0065128Y0090727D01*
X0065137Y0090667D01*
X0065143Y0090605D01*
X0065145Y0090544D01*
X0065144Y0090544D02*
X0065144Y0089078D01*
X0064167Y0087022D02*
X0063922Y0087022D01*
X0064167Y0087022D02*
X0064228Y0087020D01*
X0064290Y0087014D01*
X0064350Y0087005D01*
X0064410Y0086991D01*
X0064469Y0086974D01*
X0064527Y0086953D01*
X0064583Y0086929D01*
X0064638Y0086901D01*
X0064691Y0086870D01*
X0064742Y0086835D01*
X0064790Y0086798D01*
X0064836Y0086757D01*
X0064880Y0086713D01*
X0064921Y0086667D01*
X0064958Y0086619D01*
X0064993Y0086568D01*
X0065024Y0086515D01*
X0065052Y0086460D01*
X0065076Y0086404D01*
X0065097Y0086346D01*
X0065114Y0086287D01*
X0065128Y0086227D01*
X0065137Y0086167D01*
X0065143Y0086105D01*
X0065145Y0086044D01*
X0063922Y0087022D02*
X0063853Y0087020D01*
X0063785Y0087014D01*
X0063717Y0087005D01*
X0063650Y0086991D01*
X0063584Y0086974D01*
X0063518Y0086953D01*
X0063454Y0086929D01*
X0063392Y0086901D01*
X0063331Y0086870D01*
X0063272Y0086835D01*
X0063215Y0086797D01*
X0063160Y0086755D01*
X0063108Y0086711D01*
X0063058Y0086664D01*
X0063011Y0086614D01*
X0062967Y0086562D01*
X0062925Y0086507D01*
X0062887Y0086450D01*
X0062852Y0086391D01*
X0062821Y0086330D01*
X0062793Y0086268D01*
X0062769Y0086204D01*
X0062748Y0086138D01*
X0062731Y0086072D01*
X0062717Y0086005D01*
X0062708Y0085937D01*
X0062702Y0085869D01*
X0062700Y0085800D01*
X0062702Y0085731D01*
X0062708Y0085663D01*
X0062717Y0085595D01*
X0062731Y0085528D01*
X0062748Y0085462D01*
X0062769Y0085396D01*
X0062793Y0085332D01*
X0062821Y0085270D01*
X0062852Y0085209D01*
X0062887Y0085150D01*
X0062925Y0085093D01*
X0062967Y0085038D01*
X0063011Y0084986D01*
X0063058Y0084936D01*
X0063108Y0084889D01*
X0063160Y0084845D01*
X0063215Y0084803D01*
X0063272Y0084765D01*
X0063331Y0084730D01*
X0063392Y0084699D01*
X0063454Y0084671D01*
X0063518Y0084647D01*
X0063584Y0084626D01*
X0063650Y0084609D01*
X0063717Y0084595D01*
X0063785Y0084586D01*
X0063853Y0084580D01*
X0063922Y0084578D01*
X0065144Y0082155D02*
X0062700Y0080078D01*
X0066122Y0080078D02*
X0066192Y0080102D01*
X0066261Y0080131D01*
X0066327Y0080162D01*
X0066393Y0080198D01*
X0066456Y0080236D01*
X0066517Y0080278D01*
X0066575Y0080323D01*
X0066632Y0080371D01*
X0066686Y0080422D01*
X0066737Y0080476D01*
X0066785Y0080532D01*
X0066830Y0080591D01*
X0066872Y0080652D01*
X0066910Y0080715D01*
X0066946Y0080780D01*
X0066978Y0080847D01*
X0067006Y0080915D01*
X0067031Y0080985D01*
X0067052Y0081056D01*
X0067069Y0081128D01*
X0067083Y0081201D01*
X0067092Y0081274D01*
X0067098Y0081348D01*
X0067100Y0081422D01*
X0067098Y0081486D01*
X0067093Y0081550D01*
X0067083Y0081613D01*
X0067070Y0081676D01*
X0067054Y0081737D01*
X0067034Y0081798D01*
X0067010Y0081858D01*
X0066983Y0081916D01*
X0066953Y0081972D01*
X0066919Y0082026D01*
X0066882Y0082079D01*
X0066843Y0082129D01*
X0066800Y0082177D01*
X0066755Y0082222D01*
X0066707Y0082265D01*
X0066657Y0082304D01*
X0066604Y0082341D01*
X0066550Y0082375D01*
X0066494Y0082405D01*
X0066436Y0082432D01*
X0066376Y0082456D01*
X0066315Y0082476D01*
X0066254Y0082492D01*
X0066191Y0082505D01*
X0066128Y0082515D01*
X0066064Y0082520D01*
X0066000Y0082522D01*
X0065932Y0082520D01*
X0065864Y0082514D01*
X0065796Y0082504D01*
X0065729Y0082491D01*
X0065663Y0082473D01*
X0065598Y0082452D01*
X0065535Y0082427D01*
X0065473Y0082398D01*
X0065413Y0082366D01*
X0065354Y0082330D01*
X0065298Y0082291D01*
X0065245Y0082249D01*
X0065193Y0082204D01*
X0065145Y0082155D01*
X0057100Y0082105D02*
X0057100Y0080639D01*
X0057100Y0082105D02*
X0057098Y0082166D01*
X0057092Y0082228D01*
X0057083Y0082288D01*
X0057069Y0082348D01*
X0057052Y0082407D01*
X0057031Y0082465D01*
X0057007Y0082521D01*
X0056979Y0082576D01*
X0056948Y0082629D01*
X0056913Y0082680D01*
X0056876Y0082728D01*
X0056835Y0082774D01*
X0056791Y0082818D01*
X0056745Y0082859D01*
X0056697Y0082896D01*
X0056646Y0082931D01*
X0056593Y0082962D01*
X0056538Y0082990D01*
X0056482Y0083014D01*
X0056424Y0083035D01*
X0056365Y0083052D01*
X0056305Y0083066D01*
X0056245Y0083075D01*
X0056183Y0083081D01*
X0056122Y0083083D01*
X0056061Y0083081D01*
X0055999Y0083075D01*
X0055939Y0083066D01*
X0055879Y0083052D01*
X0055820Y0083035D01*
X0055762Y0083014D01*
X0055706Y0082990D01*
X0055651Y0082962D01*
X0055598Y0082931D01*
X0055547Y0082896D01*
X0055499Y0082859D01*
X0055453Y0082818D01*
X0055409Y0082774D01*
X0055368Y0082728D01*
X0055331Y0082680D01*
X0055296Y0082629D01*
X0055265Y0082576D01*
X0055237Y0082521D01*
X0055213Y0082465D01*
X0055192Y0082407D01*
X0055175Y0082348D01*
X0055161Y0082288D01*
X0055152Y0082228D01*
X0055146Y0082166D01*
X0055144Y0082105D01*
X0055144Y0081128D01*
X0055144Y0081861D02*
X0055142Y0081930D01*
X0055136Y0081998D01*
X0055127Y0082066D01*
X0055113Y0082133D01*
X0055096Y0082199D01*
X0055075Y0082265D01*
X0055051Y0082329D01*
X0055023Y0082391D01*
X0054992Y0082452D01*
X0054957Y0082511D01*
X0054919Y0082568D01*
X0054877Y0082623D01*
X0054833Y0082675D01*
X0054786Y0082725D01*
X0054736Y0082772D01*
X0054684Y0082816D01*
X0054629Y0082858D01*
X0054572Y0082896D01*
X0054513Y0082931D01*
X0054452Y0082962D01*
X0054390Y0082990D01*
X0054326Y0083014D01*
X0054260Y0083035D01*
X0054194Y0083052D01*
X0054127Y0083066D01*
X0054059Y0083075D01*
X0053991Y0083081D01*
X0053922Y0083083D01*
X0053853Y0083081D01*
X0053785Y0083075D01*
X0053717Y0083066D01*
X0053650Y0083052D01*
X0053584Y0083035D01*
X0053518Y0083014D01*
X0053454Y0082990D01*
X0053392Y0082962D01*
X0053331Y0082931D01*
X0053272Y0082896D01*
X0053215Y0082858D01*
X0053160Y0082816D01*
X0053108Y0082772D01*
X0053058Y0082725D01*
X0053011Y0082675D01*
X0052967Y0082623D01*
X0052925Y0082568D01*
X0052887Y0082511D01*
X0052852Y0082452D01*
X0052821Y0082391D01*
X0052793Y0082329D01*
X0052769Y0082265D01*
X0052748Y0082199D01*
X0052731Y0082133D01*
X0052717Y0082066D01*
X0052708Y0081998D01*
X0052702Y0081930D01*
X0052700Y0081861D01*
X0052700Y0080639D01*
X0052211Y0084933D02*
X0057589Y0086889D01*
X0056122Y0088739D02*
X0057100Y0089961D01*
X0052700Y0089961D01*
X0052700Y0088739D02*
X0052700Y0091183D01*
X0053678Y0093483D02*
X0056122Y0095439D01*
X0056489Y0095316D02*
X0056544Y0095295D01*
X0056598Y0095271D01*
X0056650Y0095243D01*
X0056700Y0095211D01*
X0056748Y0095177D01*
X0056793Y0095139D01*
X0056836Y0095099D01*
X0056877Y0095056D01*
X0056914Y0095010D01*
X0056948Y0094962D01*
X0056979Y0094912D01*
X0057007Y0094860D01*
X0057032Y0094806D01*
X0057052Y0094751D01*
X0057069Y0094694D01*
X0057083Y0094637D01*
X0057092Y0094579D01*
X0057098Y0094520D01*
X0057100Y0094461D01*
X0057098Y0094402D01*
X0057092Y0094343D01*
X0057083Y0094285D01*
X0057069Y0094228D01*
X0057052Y0094171D01*
X0057032Y0094116D01*
X0057007Y0094062D01*
X0056979Y0094010D01*
X0056948Y0093960D01*
X0056914Y0093912D01*
X0056877Y0093866D01*
X0056836Y0093823D01*
X0056793Y0093783D01*
X0056748Y0093745D01*
X0056700Y0093711D01*
X0056650Y0093679D01*
X0056598Y0093651D01*
X0056544Y0093627D01*
X0056489Y0093606D01*
X0056489Y0095316D02*
X0056383Y0095366D01*
X0056275Y0095412D01*
X0056165Y0095455D01*
X0056054Y0095494D01*
X0055942Y0095530D01*
X0055829Y0095562D01*
X0055715Y0095590D01*
X0055600Y0095615D01*
X0055485Y0095636D01*
X0055369Y0095653D01*
X0055252Y0095666D01*
X0055135Y0095675D01*
X0055017Y0095681D01*
X0054900Y0095683D01*
X0054900Y0093239D02*
X0055017Y0093241D01*
X0055135Y0093247D01*
X0055252Y0093256D01*
X0055369Y0093269D01*
X0055485Y0093286D01*
X0055600Y0093307D01*
X0055715Y0093332D01*
X0055829Y0093360D01*
X0055942Y0093392D01*
X0056054Y0093428D01*
X0056165Y0093467D01*
X0056275Y0093510D01*
X0056382Y0093556D01*
X0056489Y0093606D01*
X0054900Y0095683D02*
X0054783Y0095681D01*
X0054665Y0095675D01*
X0054548Y0095666D01*
X0054431Y0095653D01*
X0054315Y0095636D01*
X0054200Y0095615D01*
X0054085Y0095590D01*
X0053971Y0095562D01*
X0053858Y0095530D01*
X0053746Y0095494D01*
X0053635Y0095455D01*
X0053525Y0095412D01*
X0053417Y0095366D01*
X0053311Y0095316D01*
X0053256Y0095295D01*
X0053202Y0095271D01*
X0053150Y0095243D01*
X0053100Y0095211D01*
X0053052Y0095177D01*
X0053007Y0095139D01*
X0052964Y0095099D01*
X0052923Y0095056D01*
X0052886Y0095010D01*
X0052852Y0094962D01*
X0052821Y0094912D01*
X0052793Y0094860D01*
X0052768Y0094806D01*
X0052748Y0094751D01*
X0052731Y0094694D01*
X0052717Y0094637D01*
X0052708Y0094579D01*
X0052702Y0094520D01*
X0052700Y0094461D01*
X0052702Y0094402D01*
X0052708Y0094343D01*
X0052717Y0094285D01*
X0052731Y0094228D01*
X0052748Y0094171D01*
X0052768Y0094116D01*
X0052793Y0094062D01*
X0052821Y0094010D01*
X0052852Y0093960D01*
X0052886Y0093912D01*
X0052923Y0093866D01*
X0052964Y0093823D01*
X0053007Y0093783D01*
X0053052Y0093745D01*
X0053100Y0093711D01*
X0053150Y0093679D01*
X0053202Y0093651D01*
X0053256Y0093627D01*
X0053311Y0093606D01*
X0053418Y0093556D01*
X0053526Y0093510D01*
X0053635Y0093467D01*
X0053746Y0093428D01*
X0053858Y0093392D01*
X0053971Y0093360D01*
X0054085Y0093332D01*
X0054200Y0093307D01*
X0054315Y0093286D01*
X0054431Y0093269D01*
X0054548Y0093256D01*
X0054665Y0093247D01*
X0054783Y0093241D01*
X0054900Y0093239D01*
X0052211Y0097533D02*
X0057589Y0099489D01*
X0056000Y0103783D02*
X0055932Y0103781D01*
X0055864Y0103775D01*
X0055796Y0103765D01*
X0055729Y0103752D01*
X0055663Y0103734D01*
X0055598Y0103713D01*
X0055535Y0103688D01*
X0055473Y0103659D01*
X0055413Y0103627D01*
X0055354Y0103591D01*
X0055298Y0103552D01*
X0055245Y0103510D01*
X0055193Y0103465D01*
X0055145Y0103416D01*
X0055144Y0103417D02*
X0052700Y0101339D01*
X0052700Y0103783D01*
X0053678Y0106083D02*
X0056122Y0108039D01*
X0056489Y0107916D02*
X0056544Y0107895D01*
X0056598Y0107871D01*
X0056650Y0107843D01*
X0056700Y0107811D01*
X0056748Y0107777D01*
X0056793Y0107739D01*
X0056836Y0107699D01*
X0056877Y0107656D01*
X0056914Y0107610D01*
X0056948Y0107562D01*
X0056979Y0107512D01*
X0057007Y0107460D01*
X0057032Y0107406D01*
X0057052Y0107351D01*
X0057069Y0107294D01*
X0057083Y0107237D01*
X0057092Y0107179D01*
X0057098Y0107120D01*
X0057100Y0107061D01*
X0057098Y0107002D01*
X0057092Y0106943D01*
X0057083Y0106885D01*
X0057069Y0106828D01*
X0057052Y0106771D01*
X0057032Y0106716D01*
X0057007Y0106662D01*
X0056979Y0106610D01*
X0056948Y0106560D01*
X0056914Y0106512D01*
X0056877Y0106466D01*
X0056836Y0106423D01*
X0056793Y0106383D01*
X0056748Y0106345D01*
X0056700Y0106311D01*
X0056650Y0106279D01*
X0056598Y0106251D01*
X0056544Y0106227D01*
X0056489Y0106206D01*
X0056489Y0107916D02*
X0056383Y0107966D01*
X0056275Y0108012D01*
X0056165Y0108055D01*
X0056054Y0108094D01*
X0055942Y0108130D01*
X0055829Y0108162D01*
X0055715Y0108190D01*
X0055600Y0108215D01*
X0055485Y0108236D01*
X0055369Y0108253D01*
X0055252Y0108266D01*
X0055135Y0108275D01*
X0055017Y0108281D01*
X0054900Y0108283D01*
X0054900Y0105839D02*
X0055017Y0105841D01*
X0055135Y0105847D01*
X0055252Y0105856D01*
X0055369Y0105869D01*
X0055485Y0105886D01*
X0055600Y0105907D01*
X0055715Y0105932D01*
X0055829Y0105960D01*
X0055942Y0105992D01*
X0056054Y0106028D01*
X0056165Y0106067D01*
X0056275Y0106110D01*
X0056382Y0106156D01*
X0056489Y0106206D01*
X0054900Y0108283D02*
X0054783Y0108281D01*
X0054665Y0108275D01*
X0054548Y0108266D01*
X0054431Y0108253D01*
X0054315Y0108236D01*
X0054200Y0108215D01*
X0054085Y0108190D01*
X0053971Y0108162D01*
X0053858Y0108130D01*
X0053746Y0108094D01*
X0053635Y0108055D01*
X0053525Y0108012D01*
X0053417Y0107966D01*
X0053311Y0107916D01*
X0053256Y0107895D01*
X0053202Y0107871D01*
X0053150Y0107843D01*
X0053100Y0107811D01*
X0053052Y0107777D01*
X0053007Y0107739D01*
X0052964Y0107699D01*
X0052923Y0107656D01*
X0052886Y0107610D01*
X0052852Y0107562D01*
X0052821Y0107512D01*
X0052793Y0107460D01*
X0052768Y0107406D01*
X0052748Y0107351D01*
X0052731Y0107294D01*
X0052717Y0107237D01*
X0052708Y0107179D01*
X0052702Y0107120D01*
X0052700Y0107061D01*
X0052702Y0107002D01*
X0052708Y0106943D01*
X0052717Y0106885D01*
X0052731Y0106828D01*
X0052748Y0106771D01*
X0052768Y0106716D01*
X0052793Y0106662D01*
X0052821Y0106610D01*
X0052852Y0106560D01*
X0052886Y0106512D01*
X0052923Y0106466D01*
X0052964Y0106423D01*
X0053007Y0106383D01*
X0053052Y0106345D01*
X0053100Y0106311D01*
X0053150Y0106279D01*
X0053202Y0106251D01*
X0053256Y0106227D01*
X0053311Y0106206D01*
X0053418Y0106156D01*
X0053526Y0106110D01*
X0053635Y0106067D01*
X0053746Y0106028D01*
X0053858Y0105992D01*
X0053971Y0105960D01*
X0054085Y0105932D01*
X0054200Y0105907D01*
X0054315Y0105886D01*
X0054431Y0105869D01*
X0054548Y0105856D01*
X0054665Y0105847D01*
X0054783Y0105841D01*
X0054900Y0105839D01*
X0057100Y0102683D02*
X0057098Y0102609D01*
X0057092Y0102535D01*
X0057083Y0102462D01*
X0057069Y0102389D01*
X0057052Y0102317D01*
X0057031Y0102246D01*
X0057006Y0102176D01*
X0056978Y0102108D01*
X0056946Y0102041D01*
X0056910Y0101976D01*
X0056872Y0101913D01*
X0056830Y0101852D01*
X0056785Y0101793D01*
X0056737Y0101737D01*
X0056686Y0101683D01*
X0056632Y0101632D01*
X0056575Y0101584D01*
X0056517Y0101539D01*
X0056456Y0101497D01*
X0056393Y0101459D01*
X0056327Y0101423D01*
X0056261Y0101392D01*
X0056192Y0101363D01*
X0056122Y0101339D01*
X0057100Y0102683D02*
X0057098Y0102747D01*
X0057093Y0102811D01*
X0057083Y0102874D01*
X0057070Y0102937D01*
X0057054Y0102998D01*
X0057034Y0103059D01*
X0057010Y0103119D01*
X0056983Y0103177D01*
X0056953Y0103233D01*
X0056919Y0103287D01*
X0056882Y0103340D01*
X0056843Y0103390D01*
X0056800Y0103438D01*
X0056755Y0103483D01*
X0056707Y0103526D01*
X0056657Y0103565D01*
X0056604Y0103602D01*
X0056550Y0103636D01*
X0056494Y0103666D01*
X0056436Y0103693D01*
X0056376Y0103717D01*
X0056315Y0103737D01*
X0056254Y0103753D01*
X0056191Y0103766D01*
X0056128Y0103776D01*
X0056064Y0103781D01*
X0056000Y0103783D01*
X0056122Y0110339D02*
X0057100Y0111561D01*
X0052700Y0111561D01*
X0052700Y0110339D02*
X0052700Y0112783D01*
X0053922Y0114839D02*
X0053853Y0114841D01*
X0053785Y0114847D01*
X0053717Y0114856D01*
X0053650Y0114870D01*
X0053584Y0114887D01*
X0053518Y0114908D01*
X0053454Y0114932D01*
X0053392Y0114960D01*
X0053331Y0114991D01*
X0053272Y0115026D01*
X0053215Y0115064D01*
X0053160Y0115106D01*
X0053108Y0115150D01*
X0053058Y0115197D01*
X0053011Y0115247D01*
X0052967Y0115299D01*
X0052925Y0115354D01*
X0052887Y0115411D01*
X0052852Y0115470D01*
X0052821Y0115531D01*
X0052793Y0115593D01*
X0052769Y0115657D01*
X0052748Y0115723D01*
X0052731Y0115789D01*
X0052717Y0115856D01*
X0052708Y0115924D01*
X0052702Y0115992D01*
X0052700Y0116061D01*
X0052702Y0116130D01*
X0052708Y0116198D01*
X0052717Y0116266D01*
X0052731Y0116333D01*
X0052748Y0116399D01*
X0052769Y0116465D01*
X0052793Y0116529D01*
X0052821Y0116591D01*
X0052852Y0116652D01*
X0052887Y0116711D01*
X0052925Y0116768D01*
X0052967Y0116823D01*
X0053011Y0116875D01*
X0053058Y0116925D01*
X0053108Y0116972D01*
X0053160Y0117016D01*
X0053215Y0117058D01*
X0053272Y0117096D01*
X0053331Y0117131D01*
X0053392Y0117162D01*
X0053454Y0117190D01*
X0053518Y0117214D01*
X0053584Y0117235D01*
X0053650Y0117252D01*
X0053717Y0117266D01*
X0053785Y0117275D01*
X0053853Y0117281D01*
X0053922Y0117283D01*
X0053991Y0117281D01*
X0054059Y0117275D01*
X0054127Y0117266D01*
X0054194Y0117252D01*
X0054260Y0117235D01*
X0054326Y0117214D01*
X0054390Y0117190D01*
X0054452Y0117162D01*
X0054513Y0117131D01*
X0054572Y0117096D01*
X0054629Y0117058D01*
X0054684Y0117016D01*
X0054736Y0116972D01*
X0054786Y0116925D01*
X0054833Y0116875D01*
X0054877Y0116823D01*
X0054919Y0116768D01*
X0054957Y0116711D01*
X0054992Y0116652D01*
X0055023Y0116591D01*
X0055051Y0116529D01*
X0055075Y0116465D01*
X0055096Y0116399D01*
X0055113Y0116333D01*
X0055127Y0116266D01*
X0055136Y0116198D01*
X0055142Y0116130D01*
X0055144Y0116061D01*
X0055142Y0115992D01*
X0055136Y0115924D01*
X0055127Y0115856D01*
X0055113Y0115789D01*
X0055096Y0115723D01*
X0055075Y0115657D01*
X0055051Y0115593D01*
X0055023Y0115531D01*
X0054992Y0115470D01*
X0054957Y0115411D01*
X0054919Y0115354D01*
X0054877Y0115299D01*
X0054833Y0115247D01*
X0054786Y0115197D01*
X0054736Y0115150D01*
X0054684Y0115106D01*
X0054629Y0115064D01*
X0054572Y0115026D01*
X0054513Y0114991D01*
X0054452Y0114960D01*
X0054390Y0114932D01*
X0054326Y0114908D01*
X0054260Y0114887D01*
X0054194Y0114870D01*
X0054127Y0114856D01*
X0054059Y0114847D01*
X0053991Y0114841D01*
X0053922Y0114839D01*
X0056122Y0115083D02*
X0056061Y0115085D01*
X0055999Y0115091D01*
X0055939Y0115100D01*
X0055879Y0115114D01*
X0055820Y0115131D01*
X0055762Y0115152D01*
X0055706Y0115176D01*
X0055651Y0115204D01*
X0055598Y0115235D01*
X0055547Y0115270D01*
X0055499Y0115307D01*
X0055453Y0115348D01*
X0055409Y0115392D01*
X0055368Y0115438D01*
X0055331Y0115486D01*
X0055296Y0115537D01*
X0055265Y0115590D01*
X0055237Y0115645D01*
X0055213Y0115701D01*
X0055192Y0115759D01*
X0055175Y0115818D01*
X0055161Y0115878D01*
X0055152Y0115938D01*
X0055146Y0116000D01*
X0055144Y0116061D01*
X0055146Y0116122D01*
X0055152Y0116184D01*
X0055161Y0116244D01*
X0055175Y0116304D01*
X0055192Y0116363D01*
X0055213Y0116421D01*
X0055237Y0116477D01*
X0055265Y0116532D01*
X0055296Y0116585D01*
X0055331Y0116636D01*
X0055368Y0116684D01*
X0055409Y0116730D01*
X0055453Y0116774D01*
X0055499Y0116815D01*
X0055547Y0116852D01*
X0055598Y0116887D01*
X0055651Y0116918D01*
X0055706Y0116946D01*
X0055762Y0116970D01*
X0055820Y0116991D01*
X0055879Y0117008D01*
X0055939Y0117022D01*
X0055999Y0117031D01*
X0056061Y0117037D01*
X0056122Y0117039D01*
X0056183Y0117037D01*
X0056245Y0117031D01*
X0056305Y0117022D01*
X0056365Y0117008D01*
X0056424Y0116991D01*
X0056482Y0116970D01*
X0056538Y0116946D01*
X0056593Y0116918D01*
X0056646Y0116887D01*
X0056697Y0116852D01*
X0056745Y0116815D01*
X0056791Y0116774D01*
X0056835Y0116730D01*
X0056876Y0116684D01*
X0056913Y0116636D01*
X0056948Y0116585D01*
X0056979Y0116532D01*
X0057007Y0116477D01*
X0057031Y0116421D01*
X0057052Y0116363D01*
X0057069Y0116304D01*
X0057083Y0116244D01*
X0057092Y0116184D01*
X0057098Y0116122D01*
X0057100Y0116061D01*
X0057098Y0116000D01*
X0057092Y0115938D01*
X0057083Y0115878D01*
X0057069Y0115818D01*
X0057052Y0115759D01*
X0057031Y0115701D01*
X0057007Y0115645D01*
X0056979Y0115590D01*
X0056948Y0115537D01*
X0056913Y0115486D01*
X0056876Y0115438D01*
X0056835Y0115392D01*
X0056791Y0115348D01*
X0056745Y0115307D01*
X0056697Y0115270D01*
X0056646Y0115235D01*
X0056593Y0115204D01*
X0056538Y0115176D01*
X0056482Y0115152D01*
X0056424Y0115131D01*
X0056365Y0115114D01*
X0056305Y0115100D01*
X0056245Y0115091D01*
X0056183Y0115085D01*
X0056122Y0115083D01*
X0062700Y0108828D02*
X0062700Y0107605D01*
X0062702Y0107553D01*
X0062707Y0107501D01*
X0062717Y0107449D01*
X0062730Y0107398D01*
X0062746Y0107349D01*
X0062766Y0107301D01*
X0062790Y0107254D01*
X0062816Y0107209D01*
X0062846Y0107166D01*
X0062879Y0107125D01*
X0062915Y0107087D01*
X0062953Y0107051D01*
X0062994Y0107018D01*
X0063037Y0106988D01*
X0063082Y0106962D01*
X0063129Y0106938D01*
X0063177Y0106918D01*
X0063226Y0106902D01*
X0063277Y0106889D01*
X0063329Y0106879D01*
X0063381Y0106874D01*
X0063433Y0106872D01*
X0064656Y0106872D01*
X0064167Y0106872D02*
X0064167Y0108828D01*
X0064656Y0108828D01*
X0064717Y0108826D01*
X0064779Y0108820D01*
X0064839Y0108811D01*
X0064899Y0108797D01*
X0064958Y0108780D01*
X0065016Y0108759D01*
X0065072Y0108735D01*
X0065127Y0108707D01*
X0065180Y0108676D01*
X0065231Y0108641D01*
X0065279Y0108604D01*
X0065325Y0108563D01*
X0065369Y0108519D01*
X0065410Y0108473D01*
X0065447Y0108425D01*
X0065482Y0108374D01*
X0065513Y0108321D01*
X0065541Y0108266D01*
X0065565Y0108210D01*
X0065586Y0108152D01*
X0065603Y0108093D01*
X0065617Y0108033D01*
X0065626Y0107973D01*
X0065632Y0107911D01*
X0065634Y0107850D01*
X0065632Y0107789D01*
X0065626Y0107727D01*
X0065617Y0107667D01*
X0065603Y0107607D01*
X0065586Y0107548D01*
X0065565Y0107490D01*
X0065541Y0107434D01*
X0065513Y0107379D01*
X0065482Y0107326D01*
X0065447Y0107275D01*
X0065410Y0107227D01*
X0065369Y0107181D01*
X0065325Y0107137D01*
X0065279Y0107096D01*
X0065231Y0107059D01*
X0065180Y0107024D01*
X0065127Y0106993D01*
X0065072Y0106965D01*
X0065016Y0106941D01*
X0064958Y0106920D01*
X0064899Y0106903D01*
X0064839Y0106889D01*
X0064779Y0106880D01*
X0064717Y0106874D01*
X0064656Y0106872D01*
X0062700Y0105117D02*
X0062700Y0104139D01*
X0062702Y0104078D01*
X0062708Y0104016D01*
X0062717Y0103956D01*
X0062731Y0103896D01*
X0062748Y0103837D01*
X0062769Y0103779D01*
X0062793Y0103723D01*
X0062821Y0103668D01*
X0062852Y0103615D01*
X0062887Y0103564D01*
X0062924Y0103516D01*
X0062965Y0103470D01*
X0063009Y0103426D01*
X0063055Y0103385D01*
X0063103Y0103348D01*
X0063154Y0103313D01*
X0063207Y0103282D01*
X0063262Y0103254D01*
X0063318Y0103230D01*
X0063376Y0103209D01*
X0063435Y0103192D01*
X0063495Y0103178D01*
X0063555Y0103169D01*
X0063617Y0103163D01*
X0063678Y0103161D01*
X0066122Y0103161D01*
X0066183Y0103163D01*
X0066245Y0103169D01*
X0066305Y0103178D01*
X0066365Y0103192D01*
X0066424Y0103209D01*
X0066482Y0103230D01*
X0066538Y0103254D01*
X0066593Y0103282D01*
X0066646Y0103313D01*
X0066697Y0103348D01*
X0066745Y0103385D01*
X0066791Y0103426D01*
X0066835Y0103470D01*
X0066876Y0103516D01*
X0066913Y0103564D01*
X0066948Y0103615D01*
X0066979Y0103668D01*
X0067007Y0103723D01*
X0067031Y0103779D01*
X0067052Y0103837D01*
X0067069Y0103896D01*
X0067083Y0103956D01*
X0067092Y0104016D01*
X0067098Y0104078D01*
X0067100Y0104139D01*
X0067100Y0105117D01*
X0067100Y0100144D02*
X0067100Y0098678D01*
X0067100Y0100144D02*
X0067098Y0100205D01*
X0067092Y0100267D01*
X0067083Y0100327D01*
X0067069Y0100387D01*
X0067052Y0100446D01*
X0067031Y0100504D01*
X0067007Y0100560D01*
X0066979Y0100615D01*
X0066948Y0100668D01*
X0066913Y0100719D01*
X0066876Y0100767D01*
X0066835Y0100813D01*
X0066791Y0100857D01*
X0066745Y0100898D01*
X0066697Y0100935D01*
X0066646Y0100970D01*
X0066593Y0101001D01*
X0066538Y0101029D01*
X0066482Y0101053D01*
X0066424Y0101074D01*
X0066365Y0101091D01*
X0066305Y0101105D01*
X0066245Y0101114D01*
X0066183Y0101120D01*
X0066122Y0101122D01*
X0066061Y0101120D01*
X0065999Y0101114D01*
X0065939Y0101105D01*
X0065879Y0101091D01*
X0065820Y0101074D01*
X0065762Y0101053D01*
X0065706Y0101029D01*
X0065651Y0101001D01*
X0065598Y0100970D01*
X0065547Y0100935D01*
X0065499Y0100898D01*
X0065453Y0100857D01*
X0065409Y0100813D01*
X0065368Y0100767D01*
X0065331Y0100719D01*
X0065296Y0100668D01*
X0065265Y0100615D01*
X0065237Y0100560D01*
X0065213Y0100504D01*
X0065192Y0100446D01*
X0065175Y0100387D01*
X0065161Y0100327D01*
X0065152Y0100267D01*
X0065146Y0100205D01*
X0065144Y0100144D01*
X0065144Y0099167D01*
X0065144Y0099900D02*
X0065142Y0099969D01*
X0065136Y0100037D01*
X0065127Y0100105D01*
X0065113Y0100172D01*
X0065096Y0100238D01*
X0065075Y0100304D01*
X0065051Y0100368D01*
X0065023Y0100430D01*
X0064992Y0100491D01*
X0064957Y0100550D01*
X0064919Y0100607D01*
X0064877Y0100662D01*
X0064833Y0100714D01*
X0064786Y0100764D01*
X0064736Y0100811D01*
X0064684Y0100855D01*
X0064629Y0100897D01*
X0064572Y0100935D01*
X0064513Y0100970D01*
X0064452Y0101001D01*
X0064390Y0101029D01*
X0064326Y0101053D01*
X0064260Y0101074D01*
X0064194Y0101091D01*
X0064127Y0101105D01*
X0064059Y0101114D01*
X0063991Y0101120D01*
X0063922Y0101122D01*
X0063853Y0101120D01*
X0063785Y0101114D01*
X0063717Y0101105D01*
X0063650Y0101091D01*
X0063584Y0101074D01*
X0063518Y0101053D01*
X0063454Y0101029D01*
X0063392Y0101001D01*
X0063331Y0100970D01*
X0063272Y0100935D01*
X0063215Y0100897D01*
X0063160Y0100855D01*
X0063108Y0100811D01*
X0063058Y0100764D01*
X0063011Y0100714D01*
X0062967Y0100662D01*
X0062925Y0100607D01*
X0062887Y0100550D01*
X0062852Y0100491D01*
X0062821Y0100430D01*
X0062793Y0100368D01*
X0062769Y0100304D01*
X0062748Y0100238D01*
X0062731Y0100172D01*
X0062717Y0100105D01*
X0062708Y0100037D01*
X0062702Y0099969D01*
X0062700Y0099900D01*
X0062700Y0098678D01*
X0064411Y0096567D02*
X0064411Y0093633D01*
X0067100Y0091033D02*
X0067098Y0090945D01*
X0067092Y0090858D01*
X0067082Y0090770D01*
X0067069Y0090684D01*
X0067051Y0090598D01*
X0067030Y0090513D01*
X0067004Y0090429D01*
X0066975Y0090346D01*
X0066943Y0090264D01*
X0066906Y0090184D01*
X0066866Y0090106D01*
X0066823Y0090030D01*
X0066776Y0089955D01*
X0066726Y0089883D01*
X0066673Y0089813D01*
X0066617Y0089746D01*
X0066558Y0089681D01*
X0066496Y0089619D01*
X0066431Y0089560D01*
X0066364Y0089504D01*
X0066294Y0089451D01*
X0066222Y0089401D01*
X0066147Y0089354D01*
X0066071Y0089311D01*
X0065993Y0089271D01*
X0065913Y0089234D01*
X0065831Y0089202D01*
X0065748Y0089173D01*
X0065664Y0089147D01*
X0065579Y0089126D01*
X0065493Y0089108D01*
X0065407Y0089095D01*
X0065319Y0089085D01*
X0065232Y0089079D01*
X0065144Y0089077D01*
X0052700Y0070378D02*
X0052700Y0067933D01*
X0052700Y0069155D02*
X0057100Y0069155D01*
X0056122Y0067933D01*
X0052944Y0066128D02*
X0052700Y0066128D01*
X0052700Y0065883D01*
X0052944Y0065883D01*
X0052944Y0066128D01*
X0052700Y0064078D02*
X0052700Y0061633D01*
X0052700Y0062855D02*
X0057100Y0062855D01*
X0056122Y0061633D01*
X0057100Y0059822D02*
X0052700Y0058355D01*
X0057100Y0056889D01*
X0047100Y0080639D02*
X0047100Y0083083D01*
X0047100Y0081861D02*
X0042700Y0081861D01*
X0043678Y0084822D02*
X0046122Y0084822D01*
X0046183Y0084824D01*
X0046245Y0084830D01*
X0046305Y0084839D01*
X0046365Y0084853D01*
X0046424Y0084870D01*
X0046482Y0084891D01*
X0046538Y0084915D01*
X0046593Y0084943D01*
X0046646Y0084974D01*
X0046697Y0085009D01*
X0046745Y0085046D01*
X0046791Y0085087D01*
X0046835Y0085131D01*
X0046876Y0085177D01*
X0046913Y0085225D01*
X0046948Y0085276D01*
X0046979Y0085329D01*
X0047007Y0085384D01*
X0047031Y0085440D01*
X0047052Y0085498D01*
X0047069Y0085557D01*
X0047083Y0085617D01*
X0047092Y0085677D01*
X0047098Y0085739D01*
X0047100Y0085800D01*
X0047100Y0086778D01*
X0047100Y0088344D02*
X0045022Y0089811D01*
X0042700Y0089811D01*
X0045022Y0089811D02*
X0047100Y0091278D01*
X0042700Y0086778D02*
X0042700Y0085800D01*
X0042702Y0085739D01*
X0042708Y0085677D01*
X0042717Y0085617D01*
X0042731Y0085557D01*
X0042748Y0085498D01*
X0042769Y0085440D01*
X0042793Y0085384D01*
X0042821Y0085329D01*
X0042852Y0085276D01*
X0042887Y0085225D01*
X0042924Y0085177D01*
X0042965Y0085131D01*
X0043009Y0085087D01*
X0043055Y0085046D01*
X0043103Y0085009D01*
X0043154Y0084974D01*
X0043207Y0084943D01*
X0043262Y0084915D01*
X0043318Y0084891D01*
X0043376Y0084870D01*
X0043435Y0084853D01*
X0043495Y0084839D01*
X0043555Y0084830D01*
X0043617Y0084824D01*
X0043678Y0084822D01*
X0063433Y0110808D02*
X0067100Y0110808D01*
X0067100Y0113208D02*
X0063433Y0113208D01*
X0063433Y0113209D02*
X0063381Y0113211D01*
X0063329Y0113216D01*
X0063277Y0113226D01*
X0063226Y0113239D01*
X0063177Y0113255D01*
X0063129Y0113275D01*
X0063082Y0113299D01*
X0063037Y0113325D01*
X0062994Y0113355D01*
X0062953Y0113388D01*
X0062915Y0113424D01*
X0062879Y0113462D01*
X0062846Y0113503D01*
X0062816Y0113546D01*
X0062790Y0113591D01*
X0062766Y0113638D01*
X0062746Y0113686D01*
X0062730Y0113735D01*
X0062717Y0113786D01*
X0062707Y0113838D01*
X0062702Y0113890D01*
X0062700Y0113942D01*
X0062700Y0111542D02*
X0062702Y0111490D01*
X0062707Y0111438D01*
X0062717Y0111386D01*
X0062730Y0111335D01*
X0062746Y0111286D01*
X0062766Y0111238D01*
X0062790Y0111191D01*
X0062816Y0111146D01*
X0062846Y0111103D01*
X0062879Y0111062D01*
X0062915Y0111024D01*
X0062953Y0110988D01*
X0062994Y0110955D01*
X0063037Y0110925D01*
X0063082Y0110899D01*
X0063129Y0110875D01*
X0063177Y0110855D01*
X0063226Y0110839D01*
X0063277Y0110826D01*
X0063329Y0110816D01*
X0063381Y0110811D01*
X0063433Y0110809D01*
M02*
