G75*
%MOIN*%
%OFA0B0*%
%FSLAX25Y25*%
%IPPOS*%
%LPD*%
%AMOC8*
5,1,8,0,0,1.08239X$1,22.5*
%
%ADD10R,0.05118X0.03543*%
%ADD11R,0.03543X0.05118*%
%ADD12R,0.03937X0.02362*%
%ADD13OC8,0.07000*%
%ADD14R,0.07874X0.02756*%
%ADD15R,0.07874X0.04921*%
%ADD16R,0.04921X0.07874*%
%ADD17OC8,0.07600*%
%ADD18C,0.00300*%
%ADD19C,0.03543*%
%ADD20C,0.02400*%
%ADD21C,0.03200*%
%ADD22C,0.04000*%
%ADD23C,0.01200*%
D10*
X0023650Y0046599D03*
X0023650Y0054079D03*
X0054900Y0030329D03*
X0054900Y0022849D03*
D11*
X0046140Y0037839D03*
X0038660Y0037839D03*
D12*
X0037676Y0030329D03*
X0037676Y0022849D03*
X0047124Y0022849D03*
X0047124Y0026589D03*
X0047124Y0030329D03*
D13*
X0008650Y0050339D03*
X0008650Y0060339D03*
X0008650Y0070339D03*
X0008650Y0080339D03*
X0008650Y0090339D03*
X0008650Y0100339D03*
X0008650Y0110339D03*
X0008650Y0120339D03*
X0008650Y0130339D03*
X0008650Y0140339D03*
X0098650Y0140339D03*
X0098650Y0130339D03*
X0098650Y0120339D03*
X0098650Y0110339D03*
X0098650Y0100339D03*
X0098650Y0090339D03*
X0098650Y0080339D03*
X0098650Y0070339D03*
X0098650Y0060339D03*
X0098650Y0050339D03*
D14*
X0029900Y0029443D03*
X0029900Y0023734D03*
D15*
X0020185Y0064000D03*
X0020185Y0071874D03*
X0020185Y0079748D03*
X0020185Y0087622D03*
X0020185Y0095496D03*
X0020185Y0103370D03*
X0020185Y0111244D03*
X0020185Y0119118D03*
X0087115Y0119118D03*
X0087115Y0111244D03*
X0087115Y0103370D03*
X0087115Y0095496D03*
X0087115Y0087622D03*
X0087115Y0079748D03*
X0087115Y0071874D03*
X0087115Y0064000D03*
D16*
X0073335Y0056126D03*
X0065461Y0056126D03*
X0057587Y0056126D03*
X0049713Y0056126D03*
X0041839Y0056126D03*
X0033965Y0056126D03*
D17*
X0008650Y0040339D03*
X0008650Y0030339D03*
X0008650Y0020339D03*
X0098650Y0020339D03*
X0098650Y0030339D03*
X0098650Y0040339D03*
D18*
X0002800Y0014489D02*
X0002800Y0106439D01*
X0006540Y0106439D01*
X0006890Y0106089D01*
X0009800Y0106089D01*
X0009800Y0104589D01*
X0006890Y0104589D01*
X0004400Y0102099D01*
X0004400Y0098578D01*
X0006890Y0096089D01*
X0010410Y0096089D01*
X0010701Y0096379D01*
X0013550Y0093530D01*
X0013550Y0089780D01*
X0015498Y0087831D01*
X0015498Y0085400D01*
X0012610Y0088288D01*
X0012900Y0088578D01*
X0012900Y0092099D01*
X0010410Y0094589D01*
X0006890Y0094589D01*
X0004400Y0092099D01*
X0004400Y0088578D01*
X0006890Y0086089D01*
X0010410Y0086089D01*
X0010701Y0086379D01*
X0015498Y0081581D01*
X0015498Y0076977D01*
X0015938Y0076538D01*
X0022250Y0076538D01*
X0022250Y0075085D01*
X0015938Y0075085D01*
X0015875Y0075023D01*
X0012610Y0078288D01*
X0012900Y0078578D01*
X0012900Y0082099D01*
X0010410Y0084589D01*
X0006890Y0084589D01*
X0004400Y0082099D01*
X0004400Y0078578D01*
X0006890Y0076089D01*
X0010410Y0076089D01*
X0010701Y0076379D01*
X0015498Y0071581D01*
X0015498Y0069103D01*
X0015938Y0068664D01*
X0022250Y0068664D01*
X0022250Y0067211D01*
X0015938Y0067211D01*
X0015498Y0066772D01*
X0015498Y0061229D01*
X0015938Y0060790D01*
X0017835Y0060790D01*
X0017835Y0056570D01*
X0019212Y0055194D01*
X0019697Y0054709D01*
X0009877Y0044889D01*
X0006765Y0044889D01*
X0004100Y0042223D01*
X0004100Y0038454D01*
X0006765Y0035789D01*
X0010535Y0035789D01*
X0013200Y0038454D01*
X0013200Y0041565D01*
X0023020Y0051386D01*
X0027328Y0047077D01*
X0027328Y0046470D01*
X0030462Y0043337D01*
X0031838Y0041960D01*
X0033072Y0041960D01*
X0033293Y0041739D01*
X0036310Y0041739D01*
X0036310Y0040880D01*
X0036138Y0040709D01*
X0036138Y0038075D01*
X0035726Y0037662D01*
X0035726Y0032679D01*
X0029812Y0032679D01*
X0028705Y0031571D01*
X0025652Y0031571D01*
X0025213Y0031132D01*
X0025213Y0027755D01*
X0025652Y0027315D01*
X0028705Y0027315D01*
X0028927Y0027093D01*
X0030873Y0027093D01*
X0031095Y0027315D01*
X0034148Y0027315D01*
X0034587Y0027755D01*
X0034587Y0027979D01*
X0038649Y0027979D01*
X0039068Y0028398D01*
X0039955Y0028398D01*
X0040394Y0028837D01*
X0040394Y0031821D01*
X0039955Y0032260D01*
X0039626Y0032260D01*
X0039626Y0034530D01*
X0040742Y0034530D01*
X0041181Y0034969D01*
X0041181Y0040709D01*
X0041010Y0040880D01*
X0041010Y0041739D01*
X0056427Y0041739D01*
X0058800Y0039365D01*
X0060177Y0037989D01*
X0094565Y0037989D01*
X0096765Y0035789D01*
X0100535Y0035789D01*
X0103200Y0038454D01*
X0103200Y0042223D01*
X0100535Y0044889D01*
X0096765Y0044889D01*
X0094565Y0042689D01*
X0062123Y0042689D01*
X0059750Y0045062D01*
X0058373Y0046439D01*
X0035240Y0046439D01*
X0035019Y0046660D01*
X0034377Y0046660D01*
X0035078Y0046951D01*
X0035788Y0047660D01*
X0036172Y0048587D01*
X0036172Y0049590D01*
X0035788Y0050517D01*
X0035078Y0051227D01*
X0035000Y0051259D01*
X0035000Y0051439D01*
X0036736Y0051439D01*
X0037176Y0051879D01*
X0037176Y0057689D01*
X0038628Y0057689D01*
X0038628Y0051879D01*
X0039068Y0051439D01*
X0040489Y0051439D01*
X0040489Y0050744D01*
X0040262Y0050517D01*
X0039878Y0049590D01*
X0039878Y0048587D01*
X0040262Y0047660D01*
X0040972Y0046951D01*
X0041898Y0046567D01*
X0042902Y0046567D01*
X0043828Y0046951D01*
X0044538Y0047660D01*
X0044922Y0048587D01*
X0044922Y0049590D01*
X0044538Y0050517D01*
X0043828Y0051227D01*
X0043315Y0051439D01*
X0044610Y0051439D01*
X0045050Y0051879D01*
X0045050Y0057689D01*
X0046502Y0057689D01*
X0046502Y0051879D01*
X0046942Y0051439D01*
X0048550Y0051439D01*
X0048550Y0051259D01*
X0048472Y0051227D01*
X0047762Y0050517D01*
X0047378Y0049590D01*
X0047378Y0048587D01*
X0047762Y0047660D01*
X0048472Y0046951D01*
X0049398Y0046567D01*
X0050402Y0046567D01*
X0051328Y0046951D01*
X0052038Y0047660D01*
X0052422Y0048587D01*
X0052422Y0049590D01*
X0052038Y0050517D01*
X0051328Y0051227D01*
X0051250Y0051259D01*
X0051250Y0051439D01*
X0052484Y0051439D01*
X0052924Y0051879D01*
X0052924Y0057689D01*
X0054376Y0057689D01*
X0054376Y0051879D01*
X0054816Y0051439D01*
X0056050Y0051439D01*
X0056050Y0051030D01*
X0056841Y0050239D01*
X0063641Y0043439D01*
X0091205Y0043439D01*
X0091996Y0044230D01*
X0095372Y0047606D01*
X0096890Y0046089D01*
X0100410Y0046089D01*
X0102900Y0048578D01*
X0102900Y0052099D01*
X0100410Y0054589D01*
X0096890Y0054589D01*
X0095000Y0052699D01*
X0095000Y0054780D01*
X0096599Y0056379D01*
X0096890Y0056089D01*
X0100410Y0056089D01*
X0102900Y0058578D01*
X0102900Y0062099D01*
X0100410Y0064589D01*
X0096890Y0064589D01*
X0094852Y0062551D01*
X0094852Y0065769D01*
X0096193Y0066785D01*
X0096890Y0066089D01*
X0100410Y0066089D01*
X0102900Y0068578D01*
X0102900Y0072099D01*
X0100410Y0074589D01*
X0096890Y0074589D01*
X0094400Y0072099D01*
X0094400Y0068814D01*
X0093048Y0067790D01*
X0092942Y0067790D01*
X0092613Y0067461D01*
X0092241Y0067179D01*
X0092226Y0067074D01*
X0092152Y0067000D01*
X0092152Y0066533D01*
X0092088Y0066071D01*
X0092152Y0065987D01*
X0092152Y0059176D01*
X0090662Y0057939D01*
X0090591Y0057939D01*
X0090239Y0057587D01*
X0089857Y0057270D01*
X0089851Y0057199D01*
X0089800Y0057148D01*
X0089800Y0056651D01*
X0089754Y0056156D01*
X0089800Y0056101D01*
X0089800Y0052148D01*
X0088091Y0050439D01*
X0075439Y0050439D01*
X0074935Y0050918D01*
X0074935Y0051439D01*
X0076106Y0051439D01*
X0076546Y0051879D01*
X0076546Y0057689D01*
X0084962Y0057689D01*
X0085050Y0057777D01*
X0085050Y0068664D01*
X0091362Y0068664D01*
X0091802Y0069103D01*
X0091802Y0071581D01*
X0096599Y0076379D01*
X0096890Y0076089D01*
X0100410Y0076089D01*
X0102900Y0078578D01*
X0102900Y0082099D01*
X0100410Y0084589D01*
X0096890Y0084589D01*
X0094400Y0082099D01*
X0094400Y0078578D01*
X0094690Y0078288D01*
X0091425Y0075023D01*
X0091362Y0075085D01*
X0085050Y0075085D01*
X0085050Y0076538D01*
X0091362Y0076538D01*
X0091802Y0076977D01*
X0091802Y0081581D01*
X0096599Y0086379D01*
X0096890Y0086089D01*
X0100410Y0086089D01*
X0102900Y0088578D01*
X0102900Y0092099D01*
X0100410Y0094589D01*
X0096890Y0094589D01*
X0095000Y0092699D01*
X0095000Y0094780D01*
X0096599Y0096379D01*
X0096890Y0096089D01*
X0100410Y0096089D01*
X0102900Y0098578D01*
X0102900Y0102099D01*
X0100410Y0104589D01*
X0097500Y0104589D01*
X0097500Y0106089D01*
X0100410Y0106089D01*
X0100760Y0106439D01*
X0104421Y0106439D01*
X0104421Y0014489D01*
X0049868Y0014489D01*
X0050826Y0014886D01*
X0056029Y0020089D01*
X0060447Y0020089D01*
X0061458Y0020507D01*
X0062231Y0021281D01*
X0068539Y0027589D01*
X0094965Y0027589D01*
X0096765Y0025789D01*
X0100535Y0025789D01*
X0103200Y0028454D01*
X0103200Y0032223D01*
X0100535Y0034889D01*
X0096765Y0034889D01*
X0094965Y0033089D01*
X0066853Y0033089D01*
X0065842Y0032670D01*
X0058761Y0025589D01*
X0055471Y0025589D01*
X0055447Y0025599D01*
X0054353Y0025599D01*
X0053802Y0025370D01*
X0052500Y0025370D01*
X0052500Y0028610D01*
X0052491Y0028619D01*
X0052491Y0029648D01*
X0051700Y0030439D01*
X0051251Y0030888D01*
X0051251Y0030888D01*
X0050460Y0031679D01*
X0049843Y0031679D01*
X0049843Y0031821D01*
X0049404Y0032260D01*
X0044845Y0032260D01*
X0044406Y0031821D01*
X0044406Y0028837D01*
X0044845Y0028398D01*
X0049404Y0028398D01*
X0049663Y0028657D01*
X0049791Y0028530D01*
X0049791Y0027501D01*
X0049800Y0027492D01*
X0049800Y0025199D01*
X0046151Y0025199D01*
X0045732Y0024780D01*
X0044845Y0024780D01*
X0044406Y0024340D01*
X0044406Y0021357D01*
X0044845Y0020918D01*
X0045732Y0020918D01*
X0046151Y0020499D01*
X0048661Y0020499D01*
X0048129Y0019967D01*
X0025411Y0019967D01*
X0013200Y0032178D01*
X0013200Y0032223D01*
X0010535Y0034889D01*
X0006765Y0034889D01*
X0004100Y0032223D01*
X0004100Y0028454D01*
X0006765Y0025789D01*
X0010535Y0025789D01*
X0011173Y0026427D01*
X0022714Y0014886D01*
X0023672Y0014489D01*
X0002800Y0014489D01*
X0002800Y0014630D02*
X0023332Y0014630D01*
X0022671Y0014928D02*
X0002800Y0014928D01*
X0002800Y0015227D02*
X0022373Y0015227D01*
X0022074Y0015525D02*
X0002800Y0015525D01*
X0002800Y0015824D02*
X0021776Y0015824D01*
X0021477Y0016122D02*
X0002800Y0016122D01*
X0002800Y0016421D02*
X0021179Y0016421D01*
X0020880Y0016719D02*
X0002800Y0016719D01*
X0002800Y0017018D02*
X0020582Y0017018D01*
X0020283Y0017316D02*
X0002800Y0017316D01*
X0002800Y0017615D02*
X0019985Y0017615D01*
X0019686Y0017914D02*
X0002800Y0017914D01*
X0002800Y0018212D02*
X0019388Y0018212D01*
X0019089Y0018511D02*
X0002800Y0018511D01*
X0002800Y0018809D02*
X0018791Y0018809D01*
X0018492Y0019108D02*
X0002800Y0019108D01*
X0002800Y0019406D02*
X0018194Y0019406D01*
X0017895Y0019705D02*
X0002800Y0019705D01*
X0002800Y0020003D02*
X0017597Y0020003D01*
X0017298Y0020302D02*
X0002800Y0020302D01*
X0002800Y0020600D02*
X0017000Y0020600D01*
X0016701Y0020899D02*
X0002800Y0020899D01*
X0002800Y0021197D02*
X0016403Y0021197D01*
X0016104Y0021496D02*
X0002800Y0021496D01*
X0002800Y0021794D02*
X0015806Y0021794D01*
X0015507Y0022093D02*
X0002800Y0022093D01*
X0002800Y0022391D02*
X0015209Y0022391D01*
X0014910Y0022690D02*
X0002800Y0022690D01*
X0002800Y0022988D02*
X0014612Y0022988D01*
X0014313Y0023287D02*
X0002800Y0023287D01*
X0002800Y0023585D02*
X0014015Y0023585D01*
X0013716Y0023884D02*
X0002800Y0023884D01*
X0002800Y0024182D02*
X0013417Y0024182D01*
X0013119Y0024481D02*
X0002800Y0024481D01*
X0002800Y0024779D02*
X0012820Y0024779D01*
X0012522Y0025078D02*
X0002800Y0025078D01*
X0002800Y0025376D02*
X0012223Y0025376D01*
X0011925Y0025675D02*
X0002800Y0025675D01*
X0002800Y0025973D02*
X0006581Y0025973D01*
X0006282Y0026272D02*
X0002800Y0026272D01*
X0002800Y0026570D02*
X0005984Y0026570D01*
X0005685Y0026869D02*
X0002800Y0026869D01*
X0002800Y0027167D02*
X0005387Y0027167D01*
X0005088Y0027466D02*
X0002800Y0027466D01*
X0002800Y0027764D02*
X0004790Y0027764D01*
X0004491Y0028063D02*
X0002800Y0028063D01*
X0002800Y0028361D02*
X0004193Y0028361D01*
X0004100Y0028660D02*
X0002800Y0028660D01*
X0002800Y0028958D02*
X0004100Y0028958D01*
X0004100Y0029257D02*
X0002800Y0029257D01*
X0002800Y0029555D02*
X0004100Y0029555D01*
X0004100Y0029854D02*
X0002800Y0029854D01*
X0002800Y0030152D02*
X0004100Y0030152D01*
X0004100Y0030451D02*
X0002800Y0030451D01*
X0002800Y0030750D02*
X0004100Y0030750D01*
X0004100Y0031048D02*
X0002800Y0031048D01*
X0002800Y0031347D02*
X0004100Y0031347D01*
X0004100Y0031645D02*
X0002800Y0031645D01*
X0002800Y0031944D02*
X0004100Y0031944D01*
X0004119Y0032242D02*
X0002800Y0032242D01*
X0002800Y0032541D02*
X0004417Y0032541D01*
X0004716Y0032839D02*
X0002800Y0032839D01*
X0002800Y0033138D02*
X0005014Y0033138D01*
X0005313Y0033436D02*
X0002800Y0033436D01*
X0002800Y0033735D02*
X0005611Y0033735D01*
X0005910Y0034033D02*
X0002800Y0034033D01*
X0002800Y0034332D02*
X0006208Y0034332D01*
X0006507Y0034630D02*
X0002800Y0034630D01*
X0002800Y0034929D02*
X0035726Y0034929D01*
X0035726Y0035227D02*
X0002800Y0035227D01*
X0002800Y0035526D02*
X0035726Y0035526D01*
X0035726Y0035824D02*
X0010570Y0035824D01*
X0010869Y0036123D02*
X0035726Y0036123D01*
X0035726Y0036421D02*
X0011167Y0036421D01*
X0011466Y0036720D02*
X0035726Y0036720D01*
X0035726Y0037018D02*
X0011764Y0037018D01*
X0012063Y0037317D02*
X0035726Y0037317D01*
X0035726Y0037615D02*
X0012361Y0037615D01*
X0012660Y0037914D02*
X0035977Y0037914D01*
X0036138Y0038212D02*
X0012958Y0038212D01*
X0013200Y0038511D02*
X0036138Y0038511D01*
X0036138Y0038809D02*
X0013200Y0038809D01*
X0013200Y0039108D02*
X0036138Y0039108D01*
X0036138Y0039406D02*
X0013200Y0039406D01*
X0013200Y0039705D02*
X0036138Y0039705D01*
X0036138Y0040003D02*
X0013200Y0040003D01*
X0013200Y0040302D02*
X0036138Y0040302D01*
X0036138Y0040600D02*
X0013200Y0040600D01*
X0013200Y0040899D02*
X0036310Y0040899D01*
X0036310Y0041197D02*
X0013200Y0041197D01*
X0013200Y0041496D02*
X0036310Y0041496D01*
X0033238Y0041794D02*
X0013429Y0041794D01*
X0013728Y0042093D02*
X0031706Y0042093D01*
X0031407Y0042391D02*
X0014026Y0042391D01*
X0014325Y0042690D02*
X0031109Y0042690D01*
X0030810Y0042988D02*
X0014623Y0042988D01*
X0014922Y0043287D02*
X0030512Y0043287D01*
X0030213Y0043585D02*
X0015220Y0043585D01*
X0015519Y0043884D02*
X0029915Y0043884D01*
X0029616Y0044183D02*
X0015817Y0044183D01*
X0016116Y0044481D02*
X0029318Y0044481D01*
X0029019Y0044780D02*
X0016414Y0044780D01*
X0016713Y0045078D02*
X0028721Y0045078D01*
X0028422Y0045377D02*
X0017011Y0045377D01*
X0017310Y0045675D02*
X0028124Y0045675D01*
X0027825Y0045974D02*
X0017608Y0045974D01*
X0017907Y0046272D02*
X0027527Y0046272D01*
X0027328Y0046571D02*
X0018205Y0046571D01*
X0018504Y0046869D02*
X0027328Y0046869D01*
X0027238Y0047168D02*
X0018802Y0047168D01*
X0019101Y0047466D02*
X0026939Y0047466D01*
X0026641Y0047765D02*
X0019399Y0047765D01*
X0019698Y0048063D02*
X0026342Y0048063D01*
X0026044Y0048362D02*
X0019996Y0048362D01*
X0020295Y0048660D02*
X0025745Y0048660D01*
X0025447Y0048959D02*
X0020593Y0048959D01*
X0020892Y0049257D02*
X0025148Y0049257D01*
X0024850Y0049556D02*
X0021190Y0049556D01*
X0021489Y0049854D02*
X0024551Y0049854D01*
X0024253Y0050153D02*
X0021787Y0050153D01*
X0022086Y0050451D02*
X0023954Y0050451D01*
X0023656Y0050750D02*
X0022384Y0050750D01*
X0022683Y0051048D02*
X0023357Y0051048D01*
X0023059Y0051347D02*
X0022981Y0051347D01*
X0019618Y0054630D02*
X0002800Y0054630D01*
X0002800Y0054332D02*
X0006633Y0054332D01*
X0006890Y0054589D02*
X0004400Y0052099D01*
X0004400Y0048578D01*
X0006890Y0046089D01*
X0010410Y0046089D01*
X0012900Y0048578D01*
X0012900Y0052099D01*
X0010410Y0054589D01*
X0006890Y0054589D01*
X0006334Y0054033D02*
X0002800Y0054033D01*
X0002800Y0053735D02*
X0006036Y0053735D01*
X0005737Y0053436D02*
X0002800Y0053436D01*
X0002800Y0053138D02*
X0005439Y0053138D01*
X0005140Y0052839D02*
X0002800Y0052839D01*
X0002800Y0052541D02*
X0004842Y0052541D01*
X0004543Y0052242D02*
X0002800Y0052242D01*
X0002800Y0051944D02*
X0004400Y0051944D01*
X0004400Y0051645D02*
X0002800Y0051645D01*
X0002800Y0051347D02*
X0004400Y0051347D01*
X0004400Y0051048D02*
X0002800Y0051048D01*
X0002800Y0050750D02*
X0004400Y0050750D01*
X0004400Y0050451D02*
X0002800Y0050451D01*
X0002800Y0050153D02*
X0004400Y0050153D01*
X0004400Y0049854D02*
X0002800Y0049854D01*
X0002800Y0049556D02*
X0004400Y0049556D01*
X0004400Y0049257D02*
X0002800Y0049257D01*
X0002800Y0048959D02*
X0004400Y0048959D01*
X0004400Y0048660D02*
X0002800Y0048660D01*
X0002800Y0048362D02*
X0004617Y0048362D01*
X0004915Y0048063D02*
X0002800Y0048063D01*
X0002800Y0047765D02*
X0005214Y0047765D01*
X0005512Y0047466D02*
X0002800Y0047466D01*
X0002800Y0047168D02*
X0005811Y0047168D01*
X0006109Y0046869D02*
X0002800Y0046869D01*
X0002800Y0046571D02*
X0006408Y0046571D01*
X0006706Y0046272D02*
X0002800Y0046272D01*
X0002800Y0045974D02*
X0010961Y0045974D01*
X0011260Y0046272D02*
X0010594Y0046272D01*
X0010892Y0046571D02*
X0011558Y0046571D01*
X0011857Y0046869D02*
X0011191Y0046869D01*
X0011489Y0047168D02*
X0012155Y0047168D01*
X0012454Y0047466D02*
X0011788Y0047466D01*
X0012086Y0047765D02*
X0012752Y0047765D01*
X0013051Y0048063D02*
X0012385Y0048063D01*
X0012683Y0048362D02*
X0013349Y0048362D01*
X0013648Y0048660D02*
X0012900Y0048660D01*
X0012900Y0048959D02*
X0013946Y0048959D01*
X0014245Y0049257D02*
X0012900Y0049257D01*
X0012900Y0049556D02*
X0014543Y0049556D01*
X0014842Y0049854D02*
X0012900Y0049854D01*
X0012900Y0050153D02*
X0015141Y0050153D01*
X0015439Y0050451D02*
X0012900Y0050451D01*
X0012900Y0050750D02*
X0015738Y0050750D01*
X0016036Y0051048D02*
X0012900Y0051048D01*
X0012900Y0051347D02*
X0016335Y0051347D01*
X0016633Y0051645D02*
X0012900Y0051645D01*
X0012900Y0051944D02*
X0016932Y0051944D01*
X0017230Y0052242D02*
X0012757Y0052242D01*
X0012458Y0052541D02*
X0017529Y0052541D01*
X0017827Y0052839D02*
X0012160Y0052839D01*
X0011861Y0053138D02*
X0018126Y0053138D01*
X0018424Y0053436D02*
X0011563Y0053436D01*
X0011264Y0053735D02*
X0018723Y0053735D01*
X0019021Y0054033D02*
X0010966Y0054033D01*
X0010667Y0054332D02*
X0019320Y0054332D01*
X0019477Y0054929D02*
X0002800Y0054929D01*
X0002800Y0055227D02*
X0019178Y0055227D01*
X0018880Y0055526D02*
X0002800Y0055526D01*
X0002800Y0055824D02*
X0018581Y0055824D01*
X0018283Y0056123D02*
X0010445Y0056123D01*
X0010410Y0056089D02*
X0012900Y0058578D01*
X0012900Y0062099D01*
X0010410Y0064589D01*
X0006890Y0064589D01*
X0004400Y0062099D01*
X0004400Y0058578D01*
X0006890Y0056089D01*
X0010410Y0056089D01*
X0010743Y0056421D02*
X0017984Y0056421D01*
X0017835Y0056720D02*
X0011042Y0056720D01*
X0011340Y0057019D02*
X0017835Y0057019D01*
X0017835Y0057317D02*
X0011639Y0057317D01*
X0011937Y0057616D02*
X0017835Y0057616D01*
X0017835Y0057914D02*
X0012236Y0057914D01*
X0012534Y0058213D02*
X0017835Y0058213D01*
X0017835Y0058511D02*
X0012833Y0058511D01*
X0012900Y0058810D02*
X0017835Y0058810D01*
X0017835Y0059108D02*
X0012900Y0059108D01*
X0012900Y0059407D02*
X0017835Y0059407D01*
X0017835Y0059705D02*
X0012900Y0059705D01*
X0012900Y0060004D02*
X0017835Y0060004D01*
X0017835Y0060302D02*
X0012900Y0060302D01*
X0012900Y0060601D02*
X0017835Y0060601D01*
X0015828Y0060899D02*
X0012900Y0060899D01*
X0012900Y0061198D02*
X0015530Y0061198D01*
X0015498Y0061496D02*
X0012900Y0061496D01*
X0012900Y0061795D02*
X0015498Y0061795D01*
X0015498Y0062093D02*
X0012900Y0062093D01*
X0012608Y0062392D02*
X0015498Y0062392D01*
X0015498Y0062690D02*
X0012309Y0062690D01*
X0012010Y0062989D02*
X0015498Y0062989D01*
X0015498Y0063287D02*
X0011712Y0063287D01*
X0011413Y0063586D02*
X0015498Y0063586D01*
X0015498Y0063884D02*
X0011115Y0063884D01*
X0010816Y0064183D02*
X0015498Y0064183D01*
X0015498Y0064481D02*
X0010518Y0064481D01*
X0010410Y0066089D02*
X0012900Y0068578D01*
X0012900Y0072099D01*
X0010410Y0074589D01*
X0006890Y0074589D01*
X0004400Y0072099D01*
X0004400Y0068578D01*
X0006890Y0066089D01*
X0010410Y0066089D01*
X0010594Y0066272D02*
X0015498Y0066272D01*
X0015498Y0065974D02*
X0002800Y0065974D01*
X0002800Y0066272D02*
X0006706Y0066272D01*
X0006408Y0066571D02*
X0002800Y0066571D01*
X0002800Y0066869D02*
X0006109Y0066869D01*
X0005811Y0067168D02*
X0002800Y0067168D01*
X0002800Y0067466D02*
X0005512Y0067466D01*
X0005214Y0067765D02*
X0002800Y0067765D01*
X0002800Y0068063D02*
X0004915Y0068063D01*
X0004616Y0068362D02*
X0002800Y0068362D01*
X0002800Y0068660D02*
X0004400Y0068660D01*
X0004400Y0068959D02*
X0002800Y0068959D01*
X0002800Y0069257D02*
X0004400Y0069257D01*
X0004400Y0069556D02*
X0002800Y0069556D01*
X0002800Y0069854D02*
X0004400Y0069854D01*
X0004400Y0070153D02*
X0002800Y0070153D01*
X0002800Y0070452D02*
X0004400Y0070452D01*
X0004400Y0070750D02*
X0002800Y0070750D01*
X0002800Y0071049D02*
X0004400Y0071049D01*
X0004400Y0071347D02*
X0002800Y0071347D01*
X0002800Y0071646D02*
X0004400Y0071646D01*
X0004400Y0071944D02*
X0002800Y0071944D01*
X0002800Y0072243D02*
X0004543Y0072243D01*
X0004842Y0072541D02*
X0002800Y0072541D01*
X0002800Y0072840D02*
X0005140Y0072840D01*
X0005439Y0073138D02*
X0002800Y0073138D01*
X0002800Y0073437D02*
X0005737Y0073437D01*
X0006036Y0073735D02*
X0002800Y0073735D01*
X0002800Y0074034D02*
X0006334Y0074034D01*
X0006633Y0074332D02*
X0002800Y0074332D01*
X0002800Y0074631D02*
X0012449Y0074631D01*
X0012150Y0074929D02*
X0002800Y0074929D01*
X0002800Y0075228D02*
X0011852Y0075228D01*
X0011553Y0075526D02*
X0002800Y0075526D01*
X0002800Y0075825D02*
X0011255Y0075825D01*
X0010956Y0076123D02*
X0010445Y0076123D01*
X0010667Y0074332D02*
X0012747Y0074332D01*
X0013046Y0074034D02*
X0010966Y0074034D01*
X0011264Y0073735D02*
X0013345Y0073735D01*
X0013643Y0073437D02*
X0011563Y0073437D01*
X0011861Y0073138D02*
X0013942Y0073138D01*
X0014240Y0072840D02*
X0012160Y0072840D01*
X0012458Y0072541D02*
X0014539Y0072541D01*
X0014837Y0072243D02*
X0012757Y0072243D01*
X0012900Y0071944D02*
X0015136Y0071944D01*
X0015434Y0071646D02*
X0012900Y0071646D01*
X0012900Y0071347D02*
X0015498Y0071347D01*
X0015498Y0071049D02*
X0012900Y0071049D01*
X0012900Y0070750D02*
X0015498Y0070750D01*
X0015498Y0070452D02*
X0012900Y0070452D01*
X0012900Y0070153D02*
X0015498Y0070153D01*
X0015498Y0069854D02*
X0012900Y0069854D01*
X0012900Y0069556D02*
X0015498Y0069556D01*
X0015498Y0069257D02*
X0012900Y0069257D01*
X0012900Y0068959D02*
X0015642Y0068959D01*
X0015895Y0067168D02*
X0011489Y0067168D01*
X0011191Y0066869D02*
X0015596Y0066869D01*
X0015498Y0066571D02*
X0010892Y0066571D01*
X0011788Y0067466D02*
X0022250Y0067466D01*
X0022250Y0067765D02*
X0012086Y0067765D01*
X0012385Y0068063D02*
X0022250Y0068063D01*
X0022250Y0068362D02*
X0012684Y0068362D01*
X0012900Y0068660D02*
X0022250Y0068660D01*
X0022250Y0075228D02*
X0015670Y0075228D01*
X0015372Y0075526D02*
X0022250Y0075526D01*
X0022250Y0075825D02*
X0015073Y0075825D01*
X0014775Y0076123D02*
X0022250Y0076123D01*
X0022250Y0076422D02*
X0014476Y0076422D01*
X0014178Y0076720D02*
X0015755Y0076720D01*
X0015498Y0077019D02*
X0013879Y0077019D01*
X0013581Y0077317D02*
X0015498Y0077317D01*
X0015498Y0077616D02*
X0013282Y0077616D01*
X0012984Y0077914D02*
X0015498Y0077914D01*
X0015498Y0078213D02*
X0012685Y0078213D01*
X0012833Y0078511D02*
X0015498Y0078511D01*
X0015498Y0078810D02*
X0012900Y0078810D01*
X0012900Y0079108D02*
X0015498Y0079108D01*
X0015498Y0079407D02*
X0012900Y0079407D01*
X0012900Y0079705D02*
X0015498Y0079705D01*
X0015498Y0080004D02*
X0012900Y0080004D01*
X0012900Y0080302D02*
X0015498Y0080302D01*
X0015498Y0080601D02*
X0012900Y0080601D01*
X0012900Y0080899D02*
X0015498Y0080899D01*
X0015498Y0081198D02*
X0012900Y0081198D01*
X0012900Y0081496D02*
X0015498Y0081496D01*
X0015285Y0081795D02*
X0012900Y0081795D01*
X0012900Y0082093D02*
X0014986Y0082093D01*
X0014688Y0082392D02*
X0012607Y0082392D01*
X0012309Y0082690D02*
X0014389Y0082690D01*
X0014091Y0082989D02*
X0012010Y0082989D01*
X0011712Y0083288D02*
X0013792Y0083288D01*
X0013494Y0083586D02*
X0011413Y0083586D01*
X0011115Y0083885D02*
X0013195Y0083885D01*
X0012897Y0084183D02*
X0010816Y0084183D01*
X0010518Y0084482D02*
X0012598Y0084482D01*
X0012300Y0084780D02*
X0002800Y0084780D01*
X0002800Y0084482D02*
X0006782Y0084482D01*
X0006484Y0084183D02*
X0002800Y0084183D01*
X0002800Y0083885D02*
X0006185Y0083885D01*
X0005887Y0083586D02*
X0002800Y0083586D01*
X0002800Y0083288D02*
X0005588Y0083288D01*
X0005290Y0082989D02*
X0002800Y0082989D01*
X0002800Y0082690D02*
X0004991Y0082690D01*
X0004693Y0082392D02*
X0002800Y0082392D01*
X0002800Y0082093D02*
X0004400Y0082093D01*
X0004400Y0081795D02*
X0002800Y0081795D01*
X0002800Y0081496D02*
X0004400Y0081496D01*
X0004400Y0081198D02*
X0002800Y0081198D01*
X0002800Y0080899D02*
X0004400Y0080899D01*
X0004400Y0080601D02*
X0002800Y0080601D01*
X0002800Y0080302D02*
X0004400Y0080302D01*
X0004400Y0080004D02*
X0002800Y0080004D01*
X0002800Y0079705D02*
X0004400Y0079705D01*
X0004400Y0079407D02*
X0002800Y0079407D01*
X0002800Y0079108D02*
X0004400Y0079108D01*
X0004400Y0078810D02*
X0002800Y0078810D01*
X0002800Y0078511D02*
X0004467Y0078511D01*
X0004766Y0078213D02*
X0002800Y0078213D01*
X0002800Y0077914D02*
X0005064Y0077914D01*
X0005363Y0077616D02*
X0002800Y0077616D01*
X0002800Y0077317D02*
X0005661Y0077317D01*
X0005960Y0077019D02*
X0002800Y0077019D01*
X0002800Y0076720D02*
X0006258Y0076720D01*
X0006557Y0076422D02*
X0002800Y0076422D01*
X0002800Y0076123D02*
X0006855Y0076123D01*
X0002800Y0085079D02*
X0012001Y0085079D01*
X0011703Y0085377D02*
X0002800Y0085377D01*
X0002800Y0085676D02*
X0011404Y0085676D01*
X0011106Y0085974D02*
X0002800Y0085974D01*
X0002800Y0086273D02*
X0006706Y0086273D01*
X0006407Y0086571D02*
X0002800Y0086571D01*
X0002800Y0086870D02*
X0006109Y0086870D01*
X0005810Y0087168D02*
X0002800Y0087168D01*
X0002800Y0087467D02*
X0005512Y0087467D01*
X0005213Y0087765D02*
X0002800Y0087765D01*
X0002800Y0088064D02*
X0004915Y0088064D01*
X0004616Y0088362D02*
X0002800Y0088362D01*
X0002800Y0088661D02*
X0004400Y0088661D01*
X0004400Y0088959D02*
X0002800Y0088959D01*
X0002800Y0089258D02*
X0004400Y0089258D01*
X0004400Y0089556D02*
X0002800Y0089556D01*
X0002800Y0089855D02*
X0004400Y0089855D01*
X0004400Y0090153D02*
X0002800Y0090153D01*
X0002800Y0090452D02*
X0004400Y0090452D01*
X0004400Y0090750D02*
X0002800Y0090750D01*
X0002800Y0091049D02*
X0004400Y0091049D01*
X0004400Y0091347D02*
X0002800Y0091347D01*
X0002800Y0091646D02*
X0004400Y0091646D01*
X0004400Y0091944D02*
X0002800Y0091944D01*
X0002800Y0092243D02*
X0004544Y0092243D01*
X0004842Y0092541D02*
X0002800Y0092541D01*
X0002800Y0092840D02*
X0005141Y0092840D01*
X0005439Y0093138D02*
X0002800Y0093138D01*
X0002800Y0093437D02*
X0005738Y0093437D01*
X0006036Y0093735D02*
X0002800Y0093735D01*
X0002800Y0094034D02*
X0006335Y0094034D01*
X0006633Y0094332D02*
X0002800Y0094332D01*
X0002800Y0094631D02*
X0012449Y0094631D01*
X0012747Y0094332D02*
X0010667Y0094332D01*
X0010965Y0094034D02*
X0013046Y0094034D01*
X0013344Y0093735D02*
X0011264Y0093735D01*
X0011562Y0093437D02*
X0013550Y0093437D01*
X0013550Y0093138D02*
X0011861Y0093138D01*
X0012159Y0092840D02*
X0013550Y0092840D01*
X0013550Y0092541D02*
X0012458Y0092541D01*
X0012756Y0092243D02*
X0013550Y0092243D01*
X0013550Y0091944D02*
X0012900Y0091944D01*
X0012900Y0091646D02*
X0013550Y0091646D01*
X0013550Y0091347D02*
X0012900Y0091347D01*
X0012900Y0091049D02*
X0013550Y0091049D01*
X0013550Y0090750D02*
X0012900Y0090750D01*
X0012900Y0090452D02*
X0013550Y0090452D01*
X0013550Y0090153D02*
X0012900Y0090153D01*
X0012900Y0089855D02*
X0013550Y0089855D01*
X0013773Y0089556D02*
X0012900Y0089556D01*
X0012900Y0089258D02*
X0014072Y0089258D01*
X0014370Y0088959D02*
X0012900Y0088959D01*
X0012900Y0088661D02*
X0014669Y0088661D01*
X0014967Y0088362D02*
X0012684Y0088362D01*
X0012834Y0088064D02*
X0015266Y0088064D01*
X0015498Y0087765D02*
X0013133Y0087765D01*
X0013431Y0087467D02*
X0015498Y0087467D01*
X0015498Y0087168D02*
X0013730Y0087168D01*
X0014028Y0086870D02*
X0015498Y0086870D01*
X0015498Y0086571D02*
X0014327Y0086571D01*
X0014625Y0086273D02*
X0015498Y0086273D01*
X0015498Y0085974D02*
X0014924Y0085974D01*
X0015222Y0085676D02*
X0015498Y0085676D01*
X0010807Y0086273D02*
X0010594Y0086273D01*
X0012150Y0094929D02*
X0002800Y0094929D01*
X0002800Y0095228D02*
X0011852Y0095228D01*
X0011553Y0095526D02*
X0002800Y0095526D01*
X0002800Y0095825D02*
X0011255Y0095825D01*
X0010956Y0096123D02*
X0010445Y0096123D01*
X0006855Y0096123D02*
X0002800Y0096123D01*
X0002800Y0096422D02*
X0006556Y0096422D01*
X0006258Y0096721D02*
X0002800Y0096721D01*
X0002800Y0097019D02*
X0005959Y0097019D01*
X0005661Y0097318D02*
X0002800Y0097318D01*
X0002800Y0097616D02*
X0005362Y0097616D01*
X0005064Y0097915D02*
X0002800Y0097915D01*
X0002800Y0098213D02*
X0004765Y0098213D01*
X0004467Y0098512D02*
X0002800Y0098512D01*
X0002800Y0098810D02*
X0004400Y0098810D01*
X0004400Y0099109D02*
X0002800Y0099109D01*
X0002800Y0099407D02*
X0004400Y0099407D01*
X0004400Y0099706D02*
X0002800Y0099706D01*
X0002800Y0100004D02*
X0004400Y0100004D01*
X0004400Y0100303D02*
X0002800Y0100303D01*
X0002800Y0100601D02*
X0004400Y0100601D01*
X0004400Y0100900D02*
X0002800Y0100900D01*
X0002800Y0101198D02*
X0004400Y0101198D01*
X0004400Y0101497D02*
X0002800Y0101497D01*
X0002800Y0101795D02*
X0004400Y0101795D01*
X0004400Y0102094D02*
X0002800Y0102094D01*
X0002800Y0102392D02*
X0004693Y0102392D01*
X0004992Y0102691D02*
X0002800Y0102691D01*
X0002800Y0102989D02*
X0005290Y0102989D01*
X0005589Y0103288D02*
X0002800Y0103288D01*
X0002800Y0103586D02*
X0005887Y0103586D01*
X0006186Y0103885D02*
X0002800Y0103885D01*
X0002800Y0104183D02*
X0006484Y0104183D01*
X0006783Y0104482D02*
X0002800Y0104482D01*
X0002800Y0104780D02*
X0009800Y0104780D01*
X0009800Y0105079D02*
X0002800Y0105079D01*
X0002800Y0105377D02*
X0009800Y0105377D01*
X0009800Y0105676D02*
X0002800Y0105676D01*
X0002800Y0105974D02*
X0009800Y0105974D01*
X0006706Y0106273D02*
X0002800Y0106273D01*
X0002800Y0065675D02*
X0015498Y0065675D01*
X0015498Y0065377D02*
X0002800Y0065377D01*
X0002800Y0065078D02*
X0015498Y0065078D01*
X0015498Y0064780D02*
X0002800Y0064780D01*
X0002800Y0064481D02*
X0006782Y0064481D01*
X0006484Y0064183D02*
X0002800Y0064183D01*
X0002800Y0063884D02*
X0006185Y0063884D01*
X0005887Y0063586D02*
X0002800Y0063586D01*
X0002800Y0063287D02*
X0005588Y0063287D01*
X0005290Y0062989D02*
X0002800Y0062989D01*
X0002800Y0062690D02*
X0004991Y0062690D01*
X0004692Y0062392D02*
X0002800Y0062392D01*
X0002800Y0062093D02*
X0004400Y0062093D01*
X0004400Y0061795D02*
X0002800Y0061795D01*
X0002800Y0061496D02*
X0004400Y0061496D01*
X0004400Y0061198D02*
X0002800Y0061198D01*
X0002800Y0060899D02*
X0004400Y0060899D01*
X0004400Y0060601D02*
X0002800Y0060601D01*
X0002800Y0060302D02*
X0004400Y0060302D01*
X0004400Y0060004D02*
X0002800Y0060004D01*
X0002800Y0059705D02*
X0004400Y0059705D01*
X0004400Y0059407D02*
X0002800Y0059407D01*
X0002800Y0059108D02*
X0004400Y0059108D01*
X0004400Y0058810D02*
X0002800Y0058810D01*
X0002800Y0058511D02*
X0004467Y0058511D01*
X0004766Y0058213D02*
X0002800Y0058213D01*
X0002800Y0057914D02*
X0005064Y0057914D01*
X0005363Y0057616D02*
X0002800Y0057616D01*
X0002800Y0057317D02*
X0005661Y0057317D01*
X0005960Y0057019D02*
X0002800Y0057019D01*
X0002800Y0056720D02*
X0006258Y0056720D01*
X0006557Y0056421D02*
X0002800Y0056421D01*
X0002800Y0056123D02*
X0006855Y0056123D01*
X0010663Y0045675D02*
X0002800Y0045675D01*
X0002800Y0045377D02*
X0010364Y0045377D01*
X0010066Y0045078D02*
X0002800Y0045078D01*
X0002800Y0044780D02*
X0006656Y0044780D01*
X0006358Y0044481D02*
X0002800Y0044481D01*
X0002800Y0044183D02*
X0006059Y0044183D01*
X0005761Y0043884D02*
X0002800Y0043884D01*
X0002800Y0043585D02*
X0005462Y0043585D01*
X0005163Y0043287D02*
X0002800Y0043287D01*
X0002800Y0042988D02*
X0004865Y0042988D01*
X0004566Y0042690D02*
X0002800Y0042690D01*
X0002800Y0042391D02*
X0004268Y0042391D01*
X0004100Y0042093D02*
X0002800Y0042093D01*
X0002800Y0041794D02*
X0004100Y0041794D01*
X0004100Y0041496D02*
X0002800Y0041496D01*
X0002800Y0041197D02*
X0004100Y0041197D01*
X0004100Y0040899D02*
X0002800Y0040899D01*
X0002800Y0040600D02*
X0004100Y0040600D01*
X0004100Y0040302D02*
X0002800Y0040302D01*
X0002800Y0040003D02*
X0004100Y0040003D01*
X0004100Y0039705D02*
X0002800Y0039705D01*
X0002800Y0039406D02*
X0004100Y0039406D01*
X0004100Y0039108D02*
X0002800Y0039108D01*
X0002800Y0038809D02*
X0004100Y0038809D01*
X0004100Y0038511D02*
X0002800Y0038511D01*
X0002800Y0038212D02*
X0004342Y0038212D01*
X0004640Y0037914D02*
X0002800Y0037914D01*
X0002800Y0037615D02*
X0004939Y0037615D01*
X0005237Y0037317D02*
X0002800Y0037317D01*
X0002800Y0037018D02*
X0005536Y0037018D01*
X0005834Y0036720D02*
X0002800Y0036720D01*
X0002800Y0036421D02*
X0006133Y0036421D01*
X0006431Y0036123D02*
X0002800Y0036123D01*
X0002800Y0035824D02*
X0006730Y0035824D01*
X0010793Y0034630D02*
X0035726Y0034630D01*
X0035726Y0034332D02*
X0011092Y0034332D01*
X0011390Y0034033D02*
X0035726Y0034033D01*
X0035726Y0033735D02*
X0011689Y0033735D01*
X0011987Y0033436D02*
X0035726Y0033436D01*
X0035726Y0033138D02*
X0012286Y0033138D01*
X0012584Y0032839D02*
X0035726Y0032839D01*
X0039626Y0032839D02*
X0066250Y0032839D01*
X0065713Y0032541D02*
X0039626Y0032541D01*
X0039973Y0032242D02*
X0044827Y0032242D01*
X0044529Y0031944D02*
X0040271Y0031944D01*
X0040394Y0031645D02*
X0044406Y0031645D01*
X0044406Y0031347D02*
X0040394Y0031347D01*
X0040394Y0031048D02*
X0044406Y0031048D01*
X0044406Y0030750D02*
X0040394Y0030750D01*
X0040394Y0030451D02*
X0044406Y0030451D01*
X0044406Y0030152D02*
X0040394Y0030152D01*
X0040394Y0029854D02*
X0044406Y0029854D01*
X0044406Y0029555D02*
X0040394Y0029555D01*
X0040394Y0029257D02*
X0044406Y0029257D01*
X0044406Y0028958D02*
X0040394Y0028958D01*
X0040217Y0028660D02*
X0044583Y0028660D01*
X0046030Y0025078D02*
X0038770Y0025078D01*
X0038649Y0025199D02*
X0034587Y0025199D01*
X0034587Y0025423D01*
X0034148Y0025862D01*
X0031095Y0025862D01*
X0030873Y0026084D01*
X0028927Y0026084D01*
X0028705Y0025862D01*
X0025652Y0025862D01*
X0025213Y0025423D01*
X0025213Y0022046D01*
X0025652Y0021607D01*
X0028705Y0021607D01*
X0029812Y0020499D01*
X0038649Y0020499D01*
X0039068Y0020918D01*
X0039955Y0020918D01*
X0040394Y0021357D01*
X0040394Y0024340D01*
X0039955Y0024780D01*
X0039068Y0024780D01*
X0038649Y0025199D01*
X0039955Y0024779D02*
X0044845Y0024779D01*
X0044546Y0024481D02*
X0040254Y0024481D01*
X0040394Y0024182D02*
X0044406Y0024182D01*
X0044406Y0023884D02*
X0040394Y0023884D01*
X0040394Y0023585D02*
X0044406Y0023585D01*
X0044406Y0023287D02*
X0040394Y0023287D01*
X0040394Y0022988D02*
X0044406Y0022988D01*
X0044406Y0022690D02*
X0040394Y0022690D01*
X0040394Y0022391D02*
X0044406Y0022391D01*
X0044406Y0022093D02*
X0040394Y0022093D01*
X0040394Y0021794D02*
X0044406Y0021794D01*
X0044406Y0021496D02*
X0040394Y0021496D01*
X0040234Y0021197D02*
X0044566Y0021197D01*
X0045751Y0020899D02*
X0039049Y0020899D01*
X0038750Y0020600D02*
X0046050Y0020600D01*
X0048165Y0020003D02*
X0025375Y0020003D01*
X0025076Y0020302D02*
X0048464Y0020302D01*
X0049800Y0025376D02*
X0034587Y0025376D01*
X0034335Y0025675D02*
X0049800Y0025675D01*
X0049800Y0025973D02*
X0030985Y0025973D01*
X0030948Y0027167D02*
X0049800Y0027167D01*
X0049800Y0026869D02*
X0018509Y0026869D01*
X0018211Y0027167D02*
X0028852Y0027167D01*
X0028815Y0025973D02*
X0019405Y0025973D01*
X0019703Y0025675D02*
X0025465Y0025675D01*
X0025213Y0025376D02*
X0020002Y0025376D01*
X0020300Y0025078D02*
X0025213Y0025078D01*
X0025213Y0024779D02*
X0020599Y0024779D01*
X0020897Y0024481D02*
X0025213Y0024481D01*
X0025213Y0024182D02*
X0021196Y0024182D01*
X0021494Y0023884D02*
X0025213Y0023884D01*
X0025213Y0023585D02*
X0021793Y0023585D01*
X0022091Y0023287D02*
X0025213Y0023287D01*
X0025213Y0022988D02*
X0022390Y0022988D01*
X0022688Y0022690D02*
X0025213Y0022690D01*
X0025213Y0022391D02*
X0022987Y0022391D01*
X0023285Y0022093D02*
X0025213Y0022093D01*
X0025465Y0021794D02*
X0023584Y0021794D01*
X0023882Y0021496D02*
X0028815Y0021496D01*
X0029114Y0021197D02*
X0024181Y0021197D01*
X0024479Y0020899D02*
X0029412Y0020899D01*
X0029711Y0020600D02*
X0024778Y0020600D01*
X0025502Y0027466D02*
X0017912Y0027466D01*
X0017613Y0027764D02*
X0025213Y0027764D01*
X0025213Y0028063D02*
X0017315Y0028063D01*
X0017016Y0028361D02*
X0025213Y0028361D01*
X0025213Y0028660D02*
X0016718Y0028660D01*
X0016419Y0028958D02*
X0025213Y0028958D01*
X0025213Y0029257D02*
X0016121Y0029257D01*
X0015822Y0029555D02*
X0025213Y0029555D01*
X0025213Y0029854D02*
X0015524Y0029854D01*
X0015225Y0030152D02*
X0025213Y0030152D01*
X0025213Y0030451D02*
X0014927Y0030451D01*
X0014628Y0030750D02*
X0025213Y0030750D01*
X0025213Y0031048D02*
X0014330Y0031048D01*
X0014031Y0031347D02*
X0025428Y0031347D01*
X0028778Y0031645D02*
X0013733Y0031645D01*
X0013434Y0031944D02*
X0029077Y0031944D01*
X0029376Y0032242D02*
X0013181Y0032242D01*
X0012883Y0032541D02*
X0029674Y0032541D01*
X0034587Y0027764D02*
X0049791Y0027764D01*
X0049800Y0027466D02*
X0034298Y0027466D01*
X0038733Y0028063D02*
X0049791Y0028063D01*
X0049791Y0028361D02*
X0039031Y0028361D01*
X0039626Y0033138D02*
X0095014Y0033138D01*
X0095313Y0033436D02*
X0039626Y0033436D01*
X0039626Y0033735D02*
X0095611Y0033735D01*
X0095910Y0034033D02*
X0039626Y0034033D01*
X0039626Y0034332D02*
X0096208Y0034332D01*
X0096507Y0034630D02*
X0040843Y0034630D01*
X0041141Y0034929D02*
X0104421Y0034929D01*
X0104421Y0035227D02*
X0041181Y0035227D01*
X0041181Y0035526D02*
X0104421Y0035526D01*
X0104421Y0035824D02*
X0100570Y0035824D01*
X0100869Y0036123D02*
X0104421Y0036123D01*
X0104421Y0036421D02*
X0101167Y0036421D01*
X0101466Y0036720D02*
X0104421Y0036720D01*
X0104421Y0037018D02*
X0101764Y0037018D01*
X0102063Y0037317D02*
X0104421Y0037317D01*
X0104421Y0037615D02*
X0102361Y0037615D01*
X0102660Y0037914D02*
X0104421Y0037914D01*
X0104421Y0038212D02*
X0102958Y0038212D01*
X0103200Y0038511D02*
X0104421Y0038511D01*
X0104421Y0038809D02*
X0103200Y0038809D01*
X0103200Y0039108D02*
X0104421Y0039108D01*
X0104421Y0039406D02*
X0103200Y0039406D01*
X0103200Y0039705D02*
X0104421Y0039705D01*
X0104421Y0040003D02*
X0103200Y0040003D01*
X0103200Y0040302D02*
X0104421Y0040302D01*
X0104421Y0040600D02*
X0103200Y0040600D01*
X0103200Y0040899D02*
X0104421Y0040899D01*
X0104421Y0041197D02*
X0103200Y0041197D01*
X0103200Y0041496D02*
X0104421Y0041496D01*
X0104421Y0041794D02*
X0103200Y0041794D01*
X0103200Y0042093D02*
X0104421Y0042093D01*
X0104421Y0042391D02*
X0103032Y0042391D01*
X0102734Y0042690D02*
X0104421Y0042690D01*
X0104421Y0042988D02*
X0102435Y0042988D01*
X0102136Y0043287D02*
X0104421Y0043287D01*
X0104421Y0043585D02*
X0101838Y0043585D01*
X0101539Y0043884D02*
X0104421Y0043884D01*
X0104421Y0044183D02*
X0101241Y0044183D01*
X0100942Y0044481D02*
X0104421Y0044481D01*
X0104421Y0044780D02*
X0100644Y0044780D01*
X0100594Y0046272D02*
X0104421Y0046272D01*
X0104421Y0045974D02*
X0093740Y0045974D01*
X0094038Y0046272D02*
X0096706Y0046272D01*
X0096408Y0046571D02*
X0094337Y0046571D01*
X0094635Y0046869D02*
X0096109Y0046869D01*
X0095811Y0047168D02*
X0094934Y0047168D01*
X0095232Y0047466D02*
X0095512Y0047466D01*
X0096656Y0044780D02*
X0092545Y0044780D01*
X0092247Y0044481D02*
X0096358Y0044481D01*
X0096059Y0044183D02*
X0091948Y0044183D01*
X0091650Y0043884D02*
X0095761Y0043884D01*
X0095462Y0043585D02*
X0091351Y0043585D01*
X0092844Y0045078D02*
X0104421Y0045078D01*
X0104421Y0045377D02*
X0093142Y0045377D01*
X0093441Y0045675D02*
X0104421Y0045675D01*
X0104421Y0046571D02*
X0100892Y0046571D01*
X0101191Y0046869D02*
X0104421Y0046869D01*
X0104421Y0047168D02*
X0101489Y0047168D01*
X0101788Y0047466D02*
X0104421Y0047466D01*
X0104421Y0047765D02*
X0102086Y0047765D01*
X0102385Y0048063D02*
X0104421Y0048063D01*
X0104421Y0048362D02*
X0102683Y0048362D01*
X0102900Y0048660D02*
X0104421Y0048660D01*
X0104421Y0048959D02*
X0102900Y0048959D01*
X0102900Y0049257D02*
X0104421Y0049257D01*
X0104421Y0049556D02*
X0102900Y0049556D01*
X0102900Y0049854D02*
X0104421Y0049854D01*
X0104421Y0050153D02*
X0102900Y0050153D01*
X0102900Y0050451D02*
X0104421Y0050451D01*
X0104421Y0050750D02*
X0102900Y0050750D01*
X0102900Y0051048D02*
X0104421Y0051048D01*
X0104421Y0051347D02*
X0102900Y0051347D01*
X0102900Y0051645D02*
X0104421Y0051645D01*
X0104421Y0051944D02*
X0102900Y0051944D01*
X0102757Y0052242D02*
X0104421Y0052242D01*
X0104421Y0052541D02*
X0102458Y0052541D01*
X0102160Y0052839D02*
X0104421Y0052839D01*
X0104421Y0053138D02*
X0101861Y0053138D01*
X0101563Y0053436D02*
X0104421Y0053436D01*
X0104421Y0053735D02*
X0101264Y0053735D01*
X0100966Y0054033D02*
X0104421Y0054033D01*
X0104421Y0054332D02*
X0100667Y0054332D01*
X0100445Y0056123D02*
X0104421Y0056123D01*
X0104421Y0056421D02*
X0100743Y0056421D01*
X0101042Y0056720D02*
X0104421Y0056720D01*
X0104421Y0057019D02*
X0101340Y0057019D01*
X0101639Y0057317D02*
X0104421Y0057317D01*
X0104421Y0057616D02*
X0101937Y0057616D01*
X0102236Y0057914D02*
X0104421Y0057914D01*
X0104421Y0058213D02*
X0102534Y0058213D01*
X0102833Y0058511D02*
X0104421Y0058511D01*
X0104421Y0058810D02*
X0102900Y0058810D01*
X0102900Y0059108D02*
X0104421Y0059108D01*
X0104421Y0059407D02*
X0102900Y0059407D01*
X0102900Y0059705D02*
X0104421Y0059705D01*
X0104421Y0060004D02*
X0102900Y0060004D01*
X0102900Y0060302D02*
X0104421Y0060302D01*
X0104421Y0060601D02*
X0102900Y0060601D01*
X0102900Y0060899D02*
X0104421Y0060899D01*
X0104421Y0061198D02*
X0102900Y0061198D01*
X0102900Y0061496D02*
X0104421Y0061496D01*
X0104421Y0061795D02*
X0102900Y0061795D01*
X0102900Y0062093D02*
X0104421Y0062093D01*
X0104421Y0062392D02*
X0102608Y0062392D01*
X0102309Y0062690D02*
X0104421Y0062690D01*
X0104421Y0062989D02*
X0102010Y0062989D01*
X0101712Y0063287D02*
X0104421Y0063287D01*
X0104421Y0063586D02*
X0101413Y0063586D01*
X0101115Y0063884D02*
X0104421Y0063884D01*
X0104421Y0064183D02*
X0100816Y0064183D01*
X0100518Y0064481D02*
X0104421Y0064481D01*
X0104421Y0064780D02*
X0094852Y0064780D01*
X0094852Y0065078D02*
X0104421Y0065078D01*
X0104421Y0065377D02*
X0094852Y0065377D01*
X0094852Y0065675D02*
X0104421Y0065675D01*
X0104421Y0065974D02*
X0095122Y0065974D01*
X0095516Y0066272D02*
X0096706Y0066272D01*
X0096408Y0066571D02*
X0095910Y0066571D01*
X0094197Y0068660D02*
X0085050Y0068660D01*
X0085050Y0068362D02*
X0093803Y0068362D01*
X0093409Y0068063D02*
X0085050Y0068063D01*
X0085050Y0067765D02*
X0092917Y0067765D01*
X0092618Y0067466D02*
X0085050Y0067466D01*
X0085050Y0067168D02*
X0092239Y0067168D01*
X0092152Y0066869D02*
X0085050Y0066869D01*
X0085050Y0066571D02*
X0092152Y0066571D01*
X0092116Y0066272D02*
X0085050Y0066272D01*
X0085050Y0065974D02*
X0092152Y0065974D01*
X0092152Y0065675D02*
X0085050Y0065675D01*
X0085050Y0065377D02*
X0092152Y0065377D01*
X0092152Y0065078D02*
X0085050Y0065078D01*
X0085050Y0064780D02*
X0092152Y0064780D01*
X0092152Y0064481D02*
X0085050Y0064481D01*
X0085050Y0064183D02*
X0092152Y0064183D01*
X0092152Y0063884D02*
X0085050Y0063884D01*
X0085050Y0063586D02*
X0092152Y0063586D01*
X0092152Y0063287D02*
X0085050Y0063287D01*
X0085050Y0062989D02*
X0092152Y0062989D01*
X0092152Y0062690D02*
X0085050Y0062690D01*
X0085050Y0062392D02*
X0092152Y0062392D01*
X0092152Y0062093D02*
X0085050Y0062093D01*
X0085050Y0061795D02*
X0092152Y0061795D01*
X0092152Y0061496D02*
X0085050Y0061496D01*
X0085050Y0061198D02*
X0092152Y0061198D01*
X0092152Y0060899D02*
X0085050Y0060899D01*
X0085050Y0060601D02*
X0092152Y0060601D01*
X0092152Y0060302D02*
X0085050Y0060302D01*
X0085050Y0060004D02*
X0092152Y0060004D01*
X0092152Y0059705D02*
X0085050Y0059705D01*
X0085050Y0059407D02*
X0092152Y0059407D01*
X0092070Y0059108D02*
X0085050Y0059108D01*
X0085050Y0058810D02*
X0091710Y0058810D01*
X0091351Y0058511D02*
X0085050Y0058511D01*
X0085050Y0058213D02*
X0090992Y0058213D01*
X0090566Y0057914D02*
X0085050Y0057914D01*
X0089800Y0057019D02*
X0076546Y0057019D01*
X0076546Y0057317D02*
X0089914Y0057317D01*
X0090268Y0057616D02*
X0076546Y0057616D01*
X0076546Y0056720D02*
X0089800Y0056720D01*
X0089779Y0056421D02*
X0076546Y0056421D01*
X0076546Y0056123D02*
X0089782Y0056123D01*
X0089800Y0055824D02*
X0076546Y0055824D01*
X0076546Y0055526D02*
X0089800Y0055526D01*
X0089800Y0055227D02*
X0076546Y0055227D01*
X0076546Y0054929D02*
X0089800Y0054929D01*
X0089800Y0054630D02*
X0076546Y0054630D01*
X0076546Y0054332D02*
X0089800Y0054332D01*
X0089800Y0054033D02*
X0076546Y0054033D01*
X0076546Y0053735D02*
X0089800Y0053735D01*
X0089800Y0053436D02*
X0076546Y0053436D01*
X0076546Y0053138D02*
X0089800Y0053138D01*
X0089800Y0052839D02*
X0076546Y0052839D01*
X0076546Y0052541D02*
X0089800Y0052541D01*
X0089800Y0052242D02*
X0076546Y0052242D01*
X0076546Y0051944D02*
X0089596Y0051944D01*
X0089297Y0051645D02*
X0076312Y0051645D01*
X0074935Y0051347D02*
X0088999Y0051347D01*
X0088700Y0051048D02*
X0074935Y0051048D01*
X0075112Y0050750D02*
X0088402Y0050750D01*
X0088103Y0050451D02*
X0075426Y0050451D01*
X0063494Y0043585D02*
X0061227Y0043585D01*
X0061525Y0043287D02*
X0095163Y0043287D01*
X0094865Y0042988D02*
X0061824Y0042988D01*
X0062122Y0042690D02*
X0094566Y0042690D01*
X0094640Y0037914D02*
X0041181Y0037914D01*
X0041181Y0038212D02*
X0059953Y0038212D01*
X0059655Y0038511D02*
X0041181Y0038511D01*
X0041181Y0038809D02*
X0059356Y0038809D01*
X0059058Y0039108D02*
X0041181Y0039108D01*
X0041181Y0039406D02*
X0058759Y0039406D01*
X0058800Y0039365D02*
X0058800Y0039365D01*
X0058461Y0039705D02*
X0041181Y0039705D01*
X0041181Y0040003D02*
X0058162Y0040003D01*
X0057864Y0040302D02*
X0041181Y0040302D01*
X0041181Y0040600D02*
X0057565Y0040600D01*
X0057267Y0040899D02*
X0041010Y0040899D01*
X0041010Y0041197D02*
X0056968Y0041197D01*
X0056670Y0041496D02*
X0041010Y0041496D01*
X0041181Y0037615D02*
X0094939Y0037615D01*
X0095237Y0037317D02*
X0041181Y0037317D01*
X0041181Y0037018D02*
X0095536Y0037018D01*
X0095834Y0036720D02*
X0041181Y0036720D01*
X0041181Y0036421D02*
X0096133Y0036421D01*
X0096431Y0036123D02*
X0041181Y0036123D01*
X0041181Y0035824D02*
X0096730Y0035824D01*
X0100793Y0034630D02*
X0104421Y0034630D01*
X0104421Y0034332D02*
X0101092Y0034332D01*
X0101390Y0034033D02*
X0104421Y0034033D01*
X0104421Y0033735D02*
X0101689Y0033735D01*
X0101987Y0033436D02*
X0104421Y0033436D01*
X0104421Y0033138D02*
X0102286Y0033138D01*
X0102584Y0032839D02*
X0104421Y0032839D01*
X0104421Y0032541D02*
X0102883Y0032541D01*
X0103181Y0032242D02*
X0104421Y0032242D01*
X0104421Y0031944D02*
X0103200Y0031944D01*
X0103200Y0031645D02*
X0104421Y0031645D01*
X0104421Y0031347D02*
X0103200Y0031347D01*
X0103200Y0031048D02*
X0104421Y0031048D01*
X0104421Y0030750D02*
X0103200Y0030750D01*
X0103200Y0030451D02*
X0104421Y0030451D01*
X0104421Y0030152D02*
X0103200Y0030152D01*
X0103200Y0029854D02*
X0104421Y0029854D01*
X0104421Y0029555D02*
X0103200Y0029555D01*
X0103200Y0029257D02*
X0104421Y0029257D01*
X0104421Y0028958D02*
X0103200Y0028958D01*
X0103200Y0028660D02*
X0104421Y0028660D01*
X0104421Y0028361D02*
X0103107Y0028361D01*
X0102809Y0028063D02*
X0104421Y0028063D01*
X0104421Y0027764D02*
X0102510Y0027764D01*
X0102212Y0027466D02*
X0104421Y0027466D01*
X0104421Y0027167D02*
X0101913Y0027167D01*
X0101615Y0026869D02*
X0104421Y0026869D01*
X0104421Y0026570D02*
X0101316Y0026570D01*
X0101018Y0026272D02*
X0104421Y0026272D01*
X0104421Y0025973D02*
X0100719Y0025973D01*
X0104421Y0025675D02*
X0066625Y0025675D01*
X0066924Y0025973D02*
X0096581Y0025973D01*
X0096282Y0026272D02*
X0067222Y0026272D01*
X0067521Y0026570D02*
X0095984Y0026570D01*
X0095685Y0026869D02*
X0067819Y0026869D01*
X0068118Y0027167D02*
X0095387Y0027167D01*
X0095088Y0027466D02*
X0068416Y0027466D01*
X0066327Y0025376D02*
X0104421Y0025376D01*
X0104421Y0025078D02*
X0066028Y0025078D01*
X0065730Y0024779D02*
X0104421Y0024779D01*
X0104421Y0024481D02*
X0065431Y0024481D01*
X0065133Y0024182D02*
X0104421Y0024182D01*
X0104421Y0023884D02*
X0064834Y0023884D01*
X0064535Y0023585D02*
X0104421Y0023585D01*
X0104421Y0023287D02*
X0064237Y0023287D01*
X0063938Y0022988D02*
X0104421Y0022988D01*
X0104421Y0022690D02*
X0063640Y0022690D01*
X0063341Y0022391D02*
X0104421Y0022391D01*
X0104421Y0022093D02*
X0063043Y0022093D01*
X0062744Y0021794D02*
X0104421Y0021794D01*
X0104421Y0021496D02*
X0062446Y0021496D01*
X0062147Y0021197D02*
X0104421Y0021197D01*
X0104421Y0020899D02*
X0061849Y0020899D01*
X0061550Y0020600D02*
X0104421Y0020600D01*
X0104421Y0020302D02*
X0060961Y0020302D01*
X0058847Y0025675D02*
X0052500Y0025675D01*
X0052500Y0025973D02*
X0059145Y0025973D01*
X0059444Y0026272D02*
X0052500Y0026272D01*
X0052500Y0026570D02*
X0059742Y0026570D01*
X0060041Y0026869D02*
X0052500Y0026869D01*
X0052500Y0027167D02*
X0060339Y0027167D01*
X0060638Y0027466D02*
X0052500Y0027466D01*
X0052500Y0027764D02*
X0060936Y0027764D01*
X0061235Y0028063D02*
X0052500Y0028063D01*
X0052500Y0028361D02*
X0061534Y0028361D01*
X0061832Y0028660D02*
X0052491Y0028660D01*
X0052491Y0028958D02*
X0062131Y0028958D01*
X0062429Y0029257D02*
X0052491Y0029257D01*
X0052491Y0029555D02*
X0062728Y0029555D01*
X0063026Y0029854D02*
X0052285Y0029854D01*
X0051986Y0030152D02*
X0063325Y0030152D01*
X0063623Y0030451D02*
X0051688Y0030451D01*
X0051700Y0030439D02*
X0051700Y0030439D01*
X0051389Y0030750D02*
X0063922Y0030750D01*
X0064220Y0031048D02*
X0051091Y0031048D01*
X0050792Y0031347D02*
X0064519Y0031347D01*
X0064817Y0031645D02*
X0050494Y0031645D01*
X0049720Y0031944D02*
X0065116Y0031944D01*
X0065414Y0032242D02*
X0049422Y0032242D01*
X0049800Y0026570D02*
X0018808Y0026570D01*
X0019106Y0026272D02*
X0049800Y0026272D01*
X0052500Y0025376D02*
X0053816Y0025376D01*
X0055944Y0020003D02*
X0104421Y0020003D01*
X0104421Y0019705D02*
X0055645Y0019705D01*
X0055346Y0019406D02*
X0104421Y0019406D01*
X0104421Y0019108D02*
X0055048Y0019108D01*
X0054749Y0018809D02*
X0104421Y0018809D01*
X0104421Y0018511D02*
X0054451Y0018511D01*
X0054152Y0018212D02*
X0104421Y0018212D01*
X0104421Y0017914D02*
X0053854Y0017914D01*
X0053555Y0017615D02*
X0104421Y0017615D01*
X0104421Y0017316D02*
X0053257Y0017316D01*
X0052958Y0017018D02*
X0104421Y0017018D01*
X0104421Y0016719D02*
X0052660Y0016719D01*
X0052361Y0016421D02*
X0104421Y0016421D01*
X0104421Y0016122D02*
X0052063Y0016122D01*
X0051764Y0015824D02*
X0104421Y0015824D01*
X0104421Y0015525D02*
X0051466Y0015525D01*
X0051167Y0015227D02*
X0104421Y0015227D01*
X0104421Y0014928D02*
X0050869Y0014928D01*
X0050208Y0014630D02*
X0104421Y0014630D01*
X0095140Y0052839D02*
X0095000Y0052839D01*
X0095000Y0053138D02*
X0095439Y0053138D01*
X0095737Y0053436D02*
X0095000Y0053436D01*
X0095000Y0053735D02*
X0096036Y0053735D01*
X0096334Y0054033D02*
X0095000Y0054033D01*
X0095000Y0054332D02*
X0096633Y0054332D01*
X0095448Y0055227D02*
X0104421Y0055227D01*
X0104421Y0054929D02*
X0095149Y0054929D01*
X0095000Y0054630D02*
X0104421Y0054630D01*
X0104421Y0055526D02*
X0095746Y0055526D01*
X0096045Y0055824D02*
X0104421Y0055824D01*
X0096855Y0056123D02*
X0096343Y0056123D01*
X0094991Y0062690D02*
X0094852Y0062690D01*
X0094852Y0062989D02*
X0095290Y0062989D01*
X0095588Y0063287D02*
X0094852Y0063287D01*
X0094852Y0063586D02*
X0095887Y0063586D01*
X0096185Y0063884D02*
X0094852Y0063884D01*
X0094852Y0064183D02*
X0096484Y0064183D01*
X0096782Y0064481D02*
X0094852Y0064481D01*
X0094400Y0068959D02*
X0091658Y0068959D01*
X0091802Y0069257D02*
X0094400Y0069257D01*
X0094400Y0069556D02*
X0091802Y0069556D01*
X0091802Y0069854D02*
X0094400Y0069854D01*
X0094400Y0070153D02*
X0091802Y0070153D01*
X0091802Y0070452D02*
X0094400Y0070452D01*
X0094400Y0070750D02*
X0091802Y0070750D01*
X0091802Y0071049D02*
X0094400Y0071049D01*
X0094400Y0071347D02*
X0091802Y0071347D01*
X0091866Y0071646D02*
X0094400Y0071646D01*
X0094400Y0071944D02*
X0092164Y0071944D01*
X0092463Y0072243D02*
X0094543Y0072243D01*
X0094842Y0072541D02*
X0092761Y0072541D01*
X0093060Y0072840D02*
X0095140Y0072840D01*
X0095439Y0073138D02*
X0093358Y0073138D01*
X0093657Y0073437D02*
X0095737Y0073437D01*
X0096036Y0073735D02*
X0093955Y0073735D01*
X0094254Y0074034D02*
X0096334Y0074034D01*
X0096633Y0074332D02*
X0094552Y0074332D01*
X0094851Y0074631D02*
X0104421Y0074631D01*
X0104421Y0074929D02*
X0095150Y0074929D01*
X0095448Y0075228D02*
X0104421Y0075228D01*
X0104421Y0075526D02*
X0095747Y0075526D01*
X0096045Y0075825D02*
X0104421Y0075825D01*
X0104421Y0076123D02*
X0100445Y0076123D01*
X0100743Y0076422D02*
X0104421Y0076422D01*
X0104421Y0076720D02*
X0101042Y0076720D01*
X0101340Y0077019D02*
X0104421Y0077019D01*
X0104421Y0077317D02*
X0101639Y0077317D01*
X0101937Y0077616D02*
X0104421Y0077616D01*
X0104421Y0077914D02*
X0102236Y0077914D01*
X0102534Y0078213D02*
X0104421Y0078213D01*
X0104421Y0078511D02*
X0102833Y0078511D01*
X0102900Y0078810D02*
X0104421Y0078810D01*
X0104421Y0079108D02*
X0102900Y0079108D01*
X0102900Y0079407D02*
X0104421Y0079407D01*
X0104421Y0079705D02*
X0102900Y0079705D01*
X0102900Y0080004D02*
X0104421Y0080004D01*
X0104421Y0080302D02*
X0102900Y0080302D01*
X0102900Y0080601D02*
X0104421Y0080601D01*
X0104421Y0080899D02*
X0102900Y0080899D01*
X0102900Y0081198D02*
X0104421Y0081198D01*
X0104421Y0081496D02*
X0102900Y0081496D01*
X0102900Y0081795D02*
X0104421Y0081795D01*
X0104421Y0082093D02*
X0102900Y0082093D01*
X0102607Y0082392D02*
X0104421Y0082392D01*
X0104421Y0082690D02*
X0102309Y0082690D01*
X0102010Y0082989D02*
X0104421Y0082989D01*
X0104421Y0083288D02*
X0101712Y0083288D01*
X0101413Y0083586D02*
X0104421Y0083586D01*
X0104421Y0083885D02*
X0101115Y0083885D01*
X0100816Y0084183D02*
X0104421Y0084183D01*
X0104421Y0084482D02*
X0100518Y0084482D01*
X0100594Y0086273D02*
X0104421Y0086273D01*
X0104421Y0086571D02*
X0100893Y0086571D01*
X0101191Y0086870D02*
X0104421Y0086870D01*
X0104421Y0087168D02*
X0101490Y0087168D01*
X0101788Y0087467D02*
X0104421Y0087467D01*
X0104421Y0087765D02*
X0102087Y0087765D01*
X0102385Y0088064D02*
X0104421Y0088064D01*
X0104421Y0088362D02*
X0102684Y0088362D01*
X0102900Y0088661D02*
X0104421Y0088661D01*
X0104421Y0088959D02*
X0102900Y0088959D01*
X0102900Y0089258D02*
X0104421Y0089258D01*
X0104421Y0089556D02*
X0102900Y0089556D01*
X0102900Y0089855D02*
X0104421Y0089855D01*
X0104421Y0090153D02*
X0102900Y0090153D01*
X0102900Y0090452D02*
X0104421Y0090452D01*
X0104421Y0090750D02*
X0102900Y0090750D01*
X0102900Y0091049D02*
X0104421Y0091049D01*
X0104421Y0091347D02*
X0102900Y0091347D01*
X0102900Y0091646D02*
X0104421Y0091646D01*
X0104421Y0091944D02*
X0102900Y0091944D01*
X0102756Y0092243D02*
X0104421Y0092243D01*
X0104421Y0092541D02*
X0102458Y0092541D01*
X0102159Y0092840D02*
X0104421Y0092840D01*
X0104421Y0093138D02*
X0101861Y0093138D01*
X0101562Y0093437D02*
X0104421Y0093437D01*
X0104421Y0093735D02*
X0101264Y0093735D01*
X0100965Y0094034D02*
X0104421Y0094034D01*
X0104421Y0094332D02*
X0100667Y0094332D01*
X0100445Y0096123D02*
X0104421Y0096123D01*
X0104421Y0095825D02*
X0096045Y0095825D01*
X0095747Y0095526D02*
X0104421Y0095526D01*
X0104421Y0095228D02*
X0095448Y0095228D01*
X0095150Y0094929D02*
X0104421Y0094929D01*
X0104421Y0094631D02*
X0095000Y0094631D01*
X0095000Y0094332D02*
X0096633Y0094332D01*
X0096335Y0094034D02*
X0095000Y0094034D01*
X0095000Y0093735D02*
X0096036Y0093735D01*
X0095738Y0093437D02*
X0095000Y0093437D01*
X0095000Y0093138D02*
X0095439Y0093138D01*
X0095141Y0092840D02*
X0095000Y0092840D01*
X0096344Y0096123D02*
X0096855Y0096123D01*
X0100744Y0096422D02*
X0104421Y0096422D01*
X0104421Y0096721D02*
X0101042Y0096721D01*
X0101341Y0097019D02*
X0104421Y0097019D01*
X0104421Y0097318D02*
X0101639Y0097318D01*
X0101938Y0097616D02*
X0104421Y0097616D01*
X0104421Y0097915D02*
X0102236Y0097915D01*
X0102535Y0098213D02*
X0104421Y0098213D01*
X0104421Y0098512D02*
X0102833Y0098512D01*
X0102900Y0098810D02*
X0104421Y0098810D01*
X0104421Y0099109D02*
X0102900Y0099109D01*
X0102900Y0099407D02*
X0104421Y0099407D01*
X0104421Y0099706D02*
X0102900Y0099706D01*
X0102900Y0100004D02*
X0104421Y0100004D01*
X0104421Y0100303D02*
X0102900Y0100303D01*
X0102900Y0100601D02*
X0104421Y0100601D01*
X0104421Y0100900D02*
X0102900Y0100900D01*
X0102900Y0101198D02*
X0104421Y0101198D01*
X0104421Y0101497D02*
X0102900Y0101497D01*
X0102900Y0101795D02*
X0104421Y0101795D01*
X0104421Y0102094D02*
X0102900Y0102094D01*
X0102607Y0102392D02*
X0104421Y0102392D01*
X0104421Y0102691D02*
X0102308Y0102691D01*
X0102010Y0102989D02*
X0104421Y0102989D01*
X0104421Y0103288D02*
X0101711Y0103288D01*
X0101413Y0103586D02*
X0104421Y0103586D01*
X0104421Y0103885D02*
X0101114Y0103885D01*
X0100816Y0104183D02*
X0104421Y0104183D01*
X0104421Y0104482D02*
X0100517Y0104482D01*
X0100594Y0106273D02*
X0104421Y0106273D01*
X0104421Y0105974D02*
X0097500Y0105974D01*
X0097500Y0105676D02*
X0104421Y0105676D01*
X0104421Y0105377D02*
X0097500Y0105377D01*
X0097500Y0105079D02*
X0104421Y0105079D01*
X0104421Y0104780D02*
X0097500Y0104780D01*
X0096706Y0086273D02*
X0096493Y0086273D01*
X0096194Y0085974D02*
X0104421Y0085974D01*
X0104421Y0085676D02*
X0095896Y0085676D01*
X0095597Y0085377D02*
X0104421Y0085377D01*
X0104421Y0085079D02*
X0095299Y0085079D01*
X0095000Y0084780D02*
X0104421Y0084780D01*
X0096782Y0084482D02*
X0094702Y0084482D01*
X0094403Y0084183D02*
X0096484Y0084183D01*
X0096185Y0083885D02*
X0094105Y0083885D01*
X0093806Y0083586D02*
X0095887Y0083586D01*
X0095588Y0083288D02*
X0093508Y0083288D01*
X0093209Y0082989D02*
X0095290Y0082989D01*
X0094991Y0082690D02*
X0092911Y0082690D01*
X0092612Y0082392D02*
X0094693Y0082392D01*
X0094400Y0082093D02*
X0092314Y0082093D01*
X0092015Y0081795D02*
X0094400Y0081795D01*
X0094400Y0081496D02*
X0091802Y0081496D01*
X0091802Y0081198D02*
X0094400Y0081198D01*
X0094400Y0080899D02*
X0091802Y0080899D01*
X0091802Y0080601D02*
X0094400Y0080601D01*
X0094400Y0080302D02*
X0091802Y0080302D01*
X0091802Y0080004D02*
X0094400Y0080004D01*
X0094400Y0079705D02*
X0091802Y0079705D01*
X0091802Y0079407D02*
X0094400Y0079407D01*
X0094400Y0079108D02*
X0091802Y0079108D01*
X0091802Y0078810D02*
X0094400Y0078810D01*
X0094467Y0078511D02*
X0091802Y0078511D01*
X0091802Y0078213D02*
X0094615Y0078213D01*
X0094316Y0077914D02*
X0091802Y0077914D01*
X0091802Y0077616D02*
X0094018Y0077616D01*
X0093719Y0077317D02*
X0091802Y0077317D01*
X0091802Y0077019D02*
X0093421Y0077019D01*
X0093122Y0076720D02*
X0091545Y0076720D01*
X0092227Y0075825D02*
X0085050Y0075825D01*
X0085050Y0076123D02*
X0092525Y0076123D01*
X0092824Y0076422D02*
X0085050Y0076422D01*
X0085050Y0075526D02*
X0091928Y0075526D01*
X0091630Y0075228D02*
X0085050Y0075228D01*
X0096344Y0076123D02*
X0096855Y0076123D01*
X0100667Y0074332D02*
X0104421Y0074332D01*
X0104421Y0074034D02*
X0100966Y0074034D01*
X0101264Y0073735D02*
X0104421Y0073735D01*
X0104421Y0073437D02*
X0101563Y0073437D01*
X0101861Y0073138D02*
X0104421Y0073138D01*
X0104421Y0072840D02*
X0102160Y0072840D01*
X0102458Y0072541D02*
X0104421Y0072541D01*
X0104421Y0072243D02*
X0102757Y0072243D01*
X0102900Y0071944D02*
X0104421Y0071944D01*
X0104421Y0071646D02*
X0102900Y0071646D01*
X0102900Y0071347D02*
X0104421Y0071347D01*
X0104421Y0071049D02*
X0102900Y0071049D01*
X0102900Y0070750D02*
X0104421Y0070750D01*
X0104421Y0070452D02*
X0102900Y0070452D01*
X0102900Y0070153D02*
X0104421Y0070153D01*
X0104421Y0069854D02*
X0102900Y0069854D01*
X0102900Y0069556D02*
X0104421Y0069556D01*
X0104421Y0069257D02*
X0102900Y0069257D01*
X0102900Y0068959D02*
X0104421Y0068959D01*
X0104421Y0068660D02*
X0102900Y0068660D01*
X0102684Y0068362D02*
X0104421Y0068362D01*
X0104421Y0068063D02*
X0102385Y0068063D01*
X0102086Y0067765D02*
X0104421Y0067765D01*
X0104421Y0067466D02*
X0101788Y0067466D01*
X0101489Y0067168D02*
X0104421Y0067168D01*
X0104421Y0066869D02*
X0101191Y0066869D01*
X0100892Y0066571D02*
X0104421Y0066571D01*
X0104421Y0066272D02*
X0100594Y0066272D01*
X0063196Y0043884D02*
X0060928Y0043884D01*
X0060630Y0044183D02*
X0062897Y0044183D01*
X0062599Y0044481D02*
X0060331Y0044481D01*
X0060033Y0044780D02*
X0062300Y0044780D01*
X0062002Y0045078D02*
X0059734Y0045078D01*
X0059436Y0045377D02*
X0061703Y0045377D01*
X0061405Y0045675D02*
X0059137Y0045675D01*
X0058839Y0045974D02*
X0061106Y0045974D01*
X0060808Y0046272D02*
X0058540Y0046272D01*
X0059613Y0047466D02*
X0051843Y0047466D01*
X0052081Y0047765D02*
X0059315Y0047765D01*
X0059016Y0048063D02*
X0052205Y0048063D01*
X0052328Y0048362D02*
X0058718Y0048362D01*
X0058419Y0048660D02*
X0052422Y0048660D01*
X0052422Y0048959D02*
X0058121Y0048959D01*
X0057822Y0049257D02*
X0052422Y0049257D01*
X0052422Y0049556D02*
X0057524Y0049556D01*
X0057225Y0049854D02*
X0052312Y0049854D01*
X0052189Y0050153D02*
X0056927Y0050153D01*
X0056628Y0050451D02*
X0052065Y0050451D01*
X0051805Y0050750D02*
X0056330Y0050750D01*
X0056050Y0051048D02*
X0051507Y0051048D01*
X0051250Y0051347D02*
X0056050Y0051347D01*
X0054610Y0051645D02*
X0052690Y0051645D01*
X0052924Y0051944D02*
X0054376Y0051944D01*
X0054376Y0052242D02*
X0052924Y0052242D01*
X0052924Y0052541D02*
X0054376Y0052541D01*
X0054376Y0052839D02*
X0052924Y0052839D01*
X0052924Y0053138D02*
X0054376Y0053138D01*
X0054376Y0053436D02*
X0052924Y0053436D01*
X0052924Y0053735D02*
X0054376Y0053735D01*
X0054376Y0054033D02*
X0052924Y0054033D01*
X0052924Y0054332D02*
X0054376Y0054332D01*
X0054376Y0054630D02*
X0052924Y0054630D01*
X0052924Y0054929D02*
X0054376Y0054929D01*
X0054376Y0055227D02*
X0052924Y0055227D01*
X0052924Y0055526D02*
X0054376Y0055526D01*
X0054376Y0055824D02*
X0052924Y0055824D01*
X0052924Y0056123D02*
X0054376Y0056123D01*
X0054376Y0056421D02*
X0052924Y0056421D01*
X0052924Y0056720D02*
X0054376Y0056720D01*
X0054376Y0057019D02*
X0052924Y0057019D01*
X0052924Y0057317D02*
X0054376Y0057317D01*
X0054376Y0057616D02*
X0052924Y0057616D01*
X0048550Y0051347D02*
X0043538Y0051347D01*
X0044007Y0051048D02*
X0048293Y0051048D01*
X0047995Y0050750D02*
X0044305Y0050750D01*
X0044565Y0050451D02*
X0047735Y0050451D01*
X0047611Y0050153D02*
X0044689Y0050153D01*
X0044812Y0049854D02*
X0047488Y0049854D01*
X0047378Y0049556D02*
X0044922Y0049556D01*
X0044922Y0049257D02*
X0047378Y0049257D01*
X0047378Y0048959D02*
X0044922Y0048959D01*
X0044922Y0048660D02*
X0047378Y0048660D01*
X0047472Y0048362D02*
X0044828Y0048362D01*
X0044705Y0048063D02*
X0047595Y0048063D01*
X0047719Y0047765D02*
X0044581Y0047765D01*
X0044343Y0047466D02*
X0047957Y0047466D01*
X0048255Y0047168D02*
X0044045Y0047168D01*
X0043631Y0046869D02*
X0048669Y0046869D01*
X0049390Y0046571D02*
X0042910Y0046571D01*
X0041890Y0046571D02*
X0035108Y0046571D01*
X0034881Y0046869D02*
X0041169Y0046869D01*
X0040755Y0047168D02*
X0035295Y0047168D01*
X0035593Y0047466D02*
X0040457Y0047466D01*
X0040219Y0047765D02*
X0035831Y0047765D01*
X0035955Y0048063D02*
X0040095Y0048063D01*
X0039972Y0048362D02*
X0036078Y0048362D01*
X0036172Y0048660D02*
X0039878Y0048660D01*
X0039878Y0048959D02*
X0036172Y0048959D01*
X0036172Y0049257D02*
X0039878Y0049257D01*
X0039878Y0049556D02*
X0036172Y0049556D01*
X0036062Y0049854D02*
X0039988Y0049854D01*
X0040111Y0050153D02*
X0035939Y0050153D01*
X0035815Y0050451D02*
X0040235Y0050451D01*
X0040489Y0050750D02*
X0035555Y0050750D01*
X0035257Y0051048D02*
X0040489Y0051048D01*
X0040489Y0051347D02*
X0035000Y0051347D01*
X0036942Y0051645D02*
X0038862Y0051645D01*
X0038628Y0051944D02*
X0037176Y0051944D01*
X0037176Y0052242D02*
X0038628Y0052242D01*
X0038628Y0052541D02*
X0037176Y0052541D01*
X0037176Y0052839D02*
X0038628Y0052839D01*
X0038628Y0053138D02*
X0037176Y0053138D01*
X0037176Y0053436D02*
X0038628Y0053436D01*
X0038628Y0053735D02*
X0037176Y0053735D01*
X0037176Y0054033D02*
X0038628Y0054033D01*
X0038628Y0054332D02*
X0037176Y0054332D01*
X0037176Y0054630D02*
X0038628Y0054630D01*
X0038628Y0054929D02*
X0037176Y0054929D01*
X0037176Y0055227D02*
X0038628Y0055227D01*
X0038628Y0055526D02*
X0037176Y0055526D01*
X0037176Y0055824D02*
X0038628Y0055824D01*
X0038628Y0056123D02*
X0037176Y0056123D01*
X0037176Y0056421D02*
X0038628Y0056421D01*
X0038628Y0056720D02*
X0037176Y0056720D01*
X0037176Y0057019D02*
X0038628Y0057019D01*
X0038628Y0057317D02*
X0037176Y0057317D01*
X0037176Y0057616D02*
X0038628Y0057616D01*
X0045050Y0057616D02*
X0046502Y0057616D01*
X0046502Y0057317D02*
X0045050Y0057317D01*
X0045050Y0057019D02*
X0046502Y0057019D01*
X0046502Y0056720D02*
X0045050Y0056720D01*
X0045050Y0056421D02*
X0046502Y0056421D01*
X0046502Y0056123D02*
X0045050Y0056123D01*
X0045050Y0055824D02*
X0046502Y0055824D01*
X0046502Y0055526D02*
X0045050Y0055526D01*
X0045050Y0055227D02*
X0046502Y0055227D01*
X0046502Y0054929D02*
X0045050Y0054929D01*
X0045050Y0054630D02*
X0046502Y0054630D01*
X0046502Y0054332D02*
X0045050Y0054332D01*
X0045050Y0054033D02*
X0046502Y0054033D01*
X0046502Y0053735D02*
X0045050Y0053735D01*
X0045050Y0053436D02*
X0046502Y0053436D01*
X0046502Y0053138D02*
X0045050Y0053138D01*
X0045050Y0052839D02*
X0046502Y0052839D01*
X0046502Y0052541D02*
X0045050Y0052541D01*
X0045050Y0052242D02*
X0046502Y0052242D01*
X0046502Y0051944D02*
X0045050Y0051944D01*
X0044816Y0051645D02*
X0046736Y0051645D01*
X0050410Y0046571D02*
X0060509Y0046571D01*
X0060211Y0046869D02*
X0051131Y0046869D01*
X0051545Y0047168D02*
X0059912Y0047168D01*
X0011626Y0025973D02*
X0010719Y0025973D01*
X0011018Y0026272D02*
X0011328Y0026272D01*
D19*
X0017400Y0041589D03*
X0021150Y0041589D03*
X0024900Y0041589D03*
X0028650Y0041589D03*
X0033650Y0049089D03*
X0042400Y0049089D03*
X0049900Y0049089D03*
X0051150Y0039089D03*
X0054900Y0039089D03*
X0054900Y0035339D03*
X0051150Y0035339D03*
X0058650Y0035339D03*
X0042400Y0031589D03*
X0042400Y0026589D03*
X0042400Y0021589D03*
X0083650Y0055339D03*
X0087400Y0055339D03*
X0087400Y0059089D03*
D20*
X0047400Y0022573D02*
X0047124Y0022849D01*
X0037676Y0030329D02*
X0037676Y0036855D01*
X0038660Y0037839D01*
D21*
X0038660Y0042849D01*
X0039900Y0044089D01*
X0034267Y0044089D01*
X0034045Y0044310D01*
X0032812Y0044310D01*
X0029678Y0047444D01*
X0029678Y0048051D01*
X0023650Y0054079D01*
X0022390Y0054079D01*
X0008650Y0040339D01*
X0023650Y0054079D02*
X0020185Y0057544D01*
X0020185Y0064000D01*
X0039900Y0044089D02*
X0057400Y0044089D01*
X0061150Y0040339D01*
X0098650Y0040339D01*
X0054900Y0022849D02*
X0051150Y0022849D01*
X0047124Y0022849D01*
X0037676Y0022849D02*
X0030786Y0022849D01*
X0029900Y0023734D01*
X0029900Y0029443D02*
X0030786Y0030329D01*
X0037676Y0030329D01*
D22*
X0049269Y0017217D02*
X0054900Y0022849D01*
X0054910Y0022839D01*
X0059900Y0022839D01*
X0067400Y0030339D01*
X0098650Y0030339D01*
X0049269Y0017217D02*
X0024272Y0017217D01*
X0011150Y0030339D01*
X0008650Y0030339D01*
D23*
X0033650Y0049089D02*
X0033650Y0055811D01*
X0033965Y0056126D01*
X0041839Y0056126D02*
X0041839Y0049650D01*
X0042400Y0049089D01*
X0049900Y0049089D02*
X0049900Y0055939D01*
X0049713Y0056126D01*
X0057587Y0056126D02*
X0057587Y0051776D01*
X0057400Y0051589D01*
X0064200Y0044789D01*
X0090646Y0044789D01*
X0096196Y0050339D01*
X0098650Y0050339D01*
X0093650Y0050339D02*
X0089900Y0046589D01*
X0071150Y0046589D01*
X0065461Y0052278D01*
X0065461Y0056126D01*
X0073335Y0056126D02*
X0073585Y0052376D01*
X0073585Y0050339D01*
X0074900Y0049089D01*
X0088650Y0049089D01*
X0091150Y0051589D01*
X0091150Y0056589D01*
X0093502Y0058543D01*
X0093502Y0066440D01*
X0098650Y0070339D01*
X0090185Y0071874D02*
X0087115Y0071874D01*
X0090185Y0071874D02*
X0098650Y0080339D01*
X0092183Y0087622D02*
X0093650Y0089089D01*
X0093650Y0095339D01*
X0098650Y0100339D01*
X0096150Y0104486D02*
X0093650Y0101986D01*
X0093650Y0099089D01*
X0090057Y0095496D01*
X0087115Y0095496D01*
X0087115Y0103370D02*
X0091681Y0103370D01*
X0093650Y0105339D01*
X0093650Y0111589D01*
X0093950Y0111889D01*
X0093950Y0112286D01*
X0098650Y0116986D01*
X0098650Y0120339D01*
X0093950Y0122286D02*
X0093950Y0115639D01*
X0089556Y0111244D01*
X0087115Y0111244D01*
X0087115Y0119118D02*
X0087430Y0119118D01*
X0093650Y0125339D01*
X0093650Y0135339D01*
X0098650Y0140339D01*
X0098650Y0130339D02*
X0098650Y0126986D01*
X0093950Y0122286D01*
X0098650Y0110339D02*
X0096150Y0107839D01*
X0096150Y0104486D01*
X0098650Y0090339D02*
X0088059Y0079748D01*
X0087115Y0079748D01*
X0087115Y0087622D02*
X0092183Y0087622D01*
X0098650Y0060339D02*
X0093650Y0055339D01*
X0093650Y0050339D01*
X0051141Y0029089D02*
X0051141Y0028060D01*
X0051150Y0028051D01*
X0051150Y0022849D01*
X0051141Y0029089D02*
X0049901Y0030329D01*
X0047124Y0030329D01*
X0020185Y0071874D02*
X0017115Y0071874D01*
X0008650Y0080339D01*
X0008650Y0090339D02*
X0019241Y0079748D01*
X0020185Y0079748D01*
X0020185Y0087622D02*
X0017617Y0087622D01*
X0014900Y0090339D01*
X0014900Y0094089D01*
X0008650Y0100339D01*
X0011150Y0104486D02*
X0011150Y0107839D01*
X0008650Y0110339D01*
X0011150Y0114486D02*
X0011150Y0117839D01*
X0008650Y0120339D01*
X0011150Y0124486D02*
X0013650Y0121986D01*
X0013650Y0115339D01*
X0017744Y0111244D01*
X0020185Y0111244D01*
X0013350Y0112286D02*
X0013350Y0105639D01*
X0015619Y0103370D01*
X0020185Y0103370D01*
X0013350Y0102286D02*
X0013350Y0100639D01*
X0018650Y0095339D01*
X0018807Y0095496D01*
X0020185Y0095496D01*
X0013350Y0102286D02*
X0011150Y0104486D01*
X0013350Y0112286D02*
X0011150Y0114486D01*
X0011150Y0124486D02*
X0011150Y0127839D01*
X0008650Y0130339D01*
X0013650Y0135339D02*
X0013650Y0125339D01*
X0019870Y0119118D01*
X0020185Y0119118D01*
X0013650Y0135339D02*
X0008650Y0140339D01*
M02*
