G75*
%MOIN*%
%OFA0B0*%
%FSLAX25Y25*%
%IPPOS*%
%LPD*%
%AMOC8*
5,1,8,0,0,1.08239X$1,22.5*
%
%ADD10C,0.00500*%
%ADD11C,0.00600*%
D10*
X0003650Y0015339D02*
X0003650Y0045339D01*
X0007400Y0045339D01*
X0003650Y0041589D01*
X0003650Y0045339D01*
X0013650Y0045339D01*
X0013650Y0015339D01*
X0003650Y0015339D01*
X0015150Y0018867D02*
X0015150Y0020811D01*
X0015152Y0020867D01*
X0015158Y0020922D01*
X0015168Y0020976D01*
X0015182Y0021030D01*
X0015199Y0021083D01*
X0015220Y0021134D01*
X0015245Y0021184D01*
X0015274Y0021232D01*
X0015305Y0021277D01*
X0015340Y0021320D01*
X0015378Y0021361D01*
X0015419Y0021399D01*
X0015462Y0021434D01*
X0015507Y0021465D01*
X0015555Y0021494D01*
X0015605Y0021519D01*
X0015656Y0021540D01*
X0015709Y0021557D01*
X0015763Y0021571D01*
X0015817Y0021581D01*
X0015872Y0021587D01*
X0015928Y0021589D01*
X0017094Y0021589D01*
X0017094Y0020033D02*
X0017094Y0018089D01*
X0015928Y0018089D01*
X0015872Y0018091D01*
X0015817Y0018097D01*
X0015763Y0018107D01*
X0015709Y0018121D01*
X0015656Y0018138D01*
X0015605Y0018159D01*
X0015555Y0018184D01*
X0015507Y0018213D01*
X0015462Y0018244D01*
X0015419Y0018279D01*
X0015378Y0018317D01*
X0015340Y0018358D01*
X0015305Y0018401D01*
X0015274Y0018446D01*
X0015245Y0018494D01*
X0015220Y0018544D01*
X0015199Y0018595D01*
X0015182Y0018648D01*
X0015168Y0018702D01*
X0015158Y0018756D01*
X0015152Y0018811D01*
X0015150Y0018867D01*
X0016511Y0020033D02*
X0017094Y0020033D01*
X0018990Y0021589D02*
X0020934Y0018089D01*
X0020934Y0021589D01*
X0022830Y0021589D02*
X0023802Y0021589D01*
X0022830Y0021589D02*
X0022830Y0018089D01*
X0023802Y0018089D01*
X0023863Y0018091D01*
X0023924Y0018097D01*
X0023984Y0018106D01*
X0024044Y0018120D01*
X0024102Y0018137D01*
X0024160Y0018157D01*
X0024216Y0018182D01*
X0024270Y0018209D01*
X0024323Y0018240D01*
X0024373Y0018275D01*
X0024422Y0018312D01*
X0024467Y0018352D01*
X0024511Y0018396D01*
X0024551Y0018441D01*
X0024588Y0018490D01*
X0024623Y0018540D01*
X0024654Y0018593D01*
X0024681Y0018647D01*
X0024706Y0018703D01*
X0024726Y0018761D01*
X0024743Y0018819D01*
X0024757Y0018879D01*
X0024766Y0018939D01*
X0024772Y0019000D01*
X0024774Y0019061D01*
X0024774Y0020617D01*
X0024772Y0020678D01*
X0024766Y0020739D01*
X0024757Y0020799D01*
X0024743Y0020859D01*
X0024726Y0020917D01*
X0024706Y0020975D01*
X0024681Y0021031D01*
X0024654Y0021085D01*
X0024623Y0021138D01*
X0024588Y0021188D01*
X0024551Y0021237D01*
X0024511Y0021282D01*
X0024467Y0021326D01*
X0024422Y0021366D01*
X0024373Y0021403D01*
X0024323Y0021438D01*
X0024270Y0021469D01*
X0024216Y0021496D01*
X0024160Y0021521D01*
X0024102Y0021541D01*
X0024044Y0021558D01*
X0023984Y0021572D01*
X0023924Y0021581D01*
X0023863Y0021587D01*
X0023802Y0021589D01*
X0025176Y0021864D02*
X0034624Y0021864D01*
X0034624Y0031313D01*
X0025176Y0031313D01*
X0025176Y0021864D01*
X0026028Y0028089D02*
X0026223Y0028089D01*
X0026028Y0028089D02*
X0025982Y0028091D01*
X0025937Y0028096D01*
X0025892Y0028105D01*
X0025848Y0028118D01*
X0025805Y0028133D01*
X0025763Y0028153D01*
X0025723Y0028175D01*
X0025685Y0028200D01*
X0025649Y0028229D01*
X0025616Y0028260D01*
X0025585Y0028293D01*
X0025556Y0028329D01*
X0025531Y0028367D01*
X0025509Y0028407D01*
X0025489Y0028449D01*
X0025474Y0028492D01*
X0025461Y0028536D01*
X0025452Y0028581D01*
X0025447Y0028626D01*
X0025445Y0028672D01*
X0025445Y0031589D01*
X0025056Y0030422D02*
X0026223Y0030422D01*
X0027336Y0030422D02*
X0028503Y0030422D01*
X0027725Y0031589D02*
X0027725Y0028672D01*
X0027727Y0028626D01*
X0027732Y0028581D01*
X0027741Y0028536D01*
X0027754Y0028492D01*
X0027769Y0028449D01*
X0027789Y0028407D01*
X0027811Y0028367D01*
X0027836Y0028329D01*
X0027865Y0028293D01*
X0027896Y0028260D01*
X0027929Y0028229D01*
X0027965Y0028200D01*
X0028003Y0028175D01*
X0028043Y0028153D01*
X0028085Y0028133D01*
X0028128Y0028118D01*
X0028172Y0028105D01*
X0028217Y0028096D01*
X0028262Y0028091D01*
X0028308Y0028089D01*
X0028503Y0028089D01*
X0023671Y0028089D02*
X0023671Y0029839D01*
X0023671Y0029450D02*
X0022796Y0029450D01*
X0023670Y0029839D02*
X0023668Y0029885D01*
X0023663Y0029930D01*
X0023654Y0029975D01*
X0023641Y0030019D01*
X0023626Y0030062D01*
X0023606Y0030104D01*
X0023584Y0030144D01*
X0023559Y0030182D01*
X0023530Y0030218D01*
X0023499Y0030251D01*
X0023466Y0030282D01*
X0023430Y0030311D01*
X0023392Y0030336D01*
X0023352Y0030358D01*
X0023310Y0030378D01*
X0023267Y0030393D01*
X0023223Y0030406D01*
X0023178Y0030415D01*
X0023133Y0030420D01*
X0023087Y0030422D01*
X0022310Y0030422D01*
X0022796Y0029450D02*
X0022745Y0029448D01*
X0022695Y0029442D01*
X0022644Y0029433D01*
X0022595Y0029420D01*
X0022547Y0029403D01*
X0022501Y0029383D01*
X0022456Y0029359D01*
X0022412Y0029332D01*
X0022371Y0029301D01*
X0022333Y0029268D01*
X0022297Y0029232D01*
X0022264Y0029194D01*
X0022233Y0029153D01*
X0022206Y0029110D01*
X0022182Y0029064D01*
X0022162Y0029018D01*
X0022145Y0028970D01*
X0022132Y0028921D01*
X0022123Y0028870D01*
X0022117Y0028820D01*
X0022115Y0028769D01*
X0022117Y0028718D01*
X0022123Y0028668D01*
X0022132Y0028617D01*
X0022145Y0028568D01*
X0022162Y0028520D01*
X0022182Y0028474D01*
X0022206Y0028429D01*
X0022233Y0028385D01*
X0022264Y0028344D01*
X0022297Y0028306D01*
X0022333Y0028270D01*
X0022371Y0028237D01*
X0022412Y0028206D01*
X0022456Y0028179D01*
X0022501Y0028155D01*
X0022547Y0028135D01*
X0022595Y0028118D01*
X0022644Y0028105D01*
X0022695Y0028096D01*
X0022745Y0028090D01*
X0022796Y0028088D01*
X0022796Y0028089D02*
X0023671Y0028089D01*
X0020598Y0028672D02*
X0020598Y0029839D01*
X0020596Y0029885D01*
X0020591Y0029930D01*
X0020582Y0029975D01*
X0020569Y0030019D01*
X0020554Y0030062D01*
X0020534Y0030104D01*
X0020512Y0030144D01*
X0020487Y0030182D01*
X0020458Y0030218D01*
X0020427Y0030251D01*
X0020394Y0030282D01*
X0020358Y0030311D01*
X0020320Y0030336D01*
X0020280Y0030358D01*
X0020238Y0030378D01*
X0020195Y0030393D01*
X0020151Y0030406D01*
X0020106Y0030415D01*
X0020061Y0030420D01*
X0020015Y0030422D01*
X0019043Y0030422D01*
X0019043Y0031589D02*
X0019043Y0028089D01*
X0020015Y0028089D01*
X0020061Y0028091D01*
X0020106Y0028096D01*
X0020151Y0028105D01*
X0020195Y0028118D01*
X0020238Y0028133D01*
X0020280Y0028153D01*
X0020320Y0028175D01*
X0020358Y0028200D01*
X0020394Y0028229D01*
X0020427Y0028260D01*
X0020458Y0028293D01*
X0020487Y0028329D01*
X0020512Y0028367D01*
X0020534Y0028407D01*
X0020554Y0028449D01*
X0020569Y0028492D01*
X0020582Y0028536D01*
X0020591Y0028581D01*
X0020596Y0028626D01*
X0020598Y0028672D01*
X0017483Y0031589D02*
X0016317Y0028089D01*
X0015150Y0031589D01*
X0015150Y0034339D02*
X0016122Y0034339D01*
X0016183Y0034341D01*
X0016244Y0034347D01*
X0016304Y0034356D01*
X0016364Y0034370D01*
X0016422Y0034387D01*
X0016480Y0034407D01*
X0016536Y0034432D01*
X0016590Y0034459D01*
X0016643Y0034490D01*
X0016693Y0034525D01*
X0016742Y0034562D01*
X0016787Y0034602D01*
X0016831Y0034646D01*
X0016871Y0034691D01*
X0016908Y0034740D01*
X0016943Y0034790D01*
X0016974Y0034843D01*
X0017001Y0034897D01*
X0017026Y0034953D01*
X0017046Y0035011D01*
X0017063Y0035069D01*
X0017077Y0035129D01*
X0017086Y0035189D01*
X0017092Y0035250D01*
X0017094Y0035311D01*
X0017092Y0035372D01*
X0017086Y0035433D01*
X0017077Y0035493D01*
X0017063Y0035553D01*
X0017046Y0035611D01*
X0017026Y0035669D01*
X0017001Y0035725D01*
X0016974Y0035779D01*
X0016943Y0035832D01*
X0016908Y0035882D01*
X0016871Y0035931D01*
X0016831Y0035976D01*
X0016787Y0036020D01*
X0016742Y0036060D01*
X0016693Y0036097D01*
X0016643Y0036132D01*
X0016590Y0036163D01*
X0016536Y0036190D01*
X0016480Y0036215D01*
X0016422Y0036235D01*
X0016364Y0036252D01*
X0016304Y0036266D01*
X0016244Y0036275D01*
X0016183Y0036281D01*
X0016122Y0036283D01*
X0016317Y0036283D02*
X0015539Y0036283D01*
X0016317Y0036283D02*
X0016373Y0036285D01*
X0016428Y0036291D01*
X0016482Y0036301D01*
X0016536Y0036315D01*
X0016589Y0036332D01*
X0016640Y0036353D01*
X0016690Y0036378D01*
X0016738Y0036407D01*
X0016783Y0036438D01*
X0016826Y0036473D01*
X0016867Y0036511D01*
X0016905Y0036552D01*
X0016940Y0036595D01*
X0016971Y0036640D01*
X0017000Y0036688D01*
X0017025Y0036738D01*
X0017046Y0036789D01*
X0017063Y0036842D01*
X0017077Y0036896D01*
X0017087Y0036950D01*
X0017093Y0037005D01*
X0017095Y0037061D01*
X0017093Y0037117D01*
X0017087Y0037172D01*
X0017077Y0037226D01*
X0017063Y0037280D01*
X0017046Y0037333D01*
X0017025Y0037384D01*
X0017000Y0037434D01*
X0016971Y0037482D01*
X0016940Y0037527D01*
X0016905Y0037570D01*
X0016867Y0037611D01*
X0016826Y0037649D01*
X0016783Y0037684D01*
X0016738Y0037715D01*
X0016690Y0037744D01*
X0016640Y0037769D01*
X0016589Y0037790D01*
X0016536Y0037807D01*
X0016482Y0037821D01*
X0016428Y0037831D01*
X0016373Y0037837D01*
X0016317Y0037839D01*
X0015150Y0037839D01*
X0018545Y0034533D02*
X0018739Y0034533D01*
X0018739Y0034339D01*
X0018545Y0034339D01*
X0018545Y0034533D01*
X0020190Y0034339D02*
X0021162Y0034339D01*
X0021223Y0034341D01*
X0021284Y0034347D01*
X0021344Y0034356D01*
X0021404Y0034370D01*
X0021462Y0034387D01*
X0021520Y0034407D01*
X0021576Y0034432D01*
X0021630Y0034459D01*
X0021683Y0034490D01*
X0021733Y0034525D01*
X0021782Y0034562D01*
X0021827Y0034602D01*
X0021871Y0034646D01*
X0021911Y0034691D01*
X0021948Y0034740D01*
X0021983Y0034790D01*
X0022014Y0034843D01*
X0022041Y0034897D01*
X0022066Y0034953D01*
X0022086Y0035011D01*
X0022103Y0035069D01*
X0022117Y0035129D01*
X0022126Y0035189D01*
X0022132Y0035250D01*
X0022134Y0035311D01*
X0022132Y0035372D01*
X0022126Y0035433D01*
X0022117Y0035493D01*
X0022103Y0035553D01*
X0022086Y0035611D01*
X0022066Y0035669D01*
X0022041Y0035725D01*
X0022014Y0035779D01*
X0021983Y0035832D01*
X0021948Y0035882D01*
X0021911Y0035931D01*
X0021871Y0035976D01*
X0021827Y0036020D01*
X0021782Y0036060D01*
X0021733Y0036097D01*
X0021683Y0036132D01*
X0021630Y0036163D01*
X0021576Y0036190D01*
X0021520Y0036215D01*
X0021462Y0036235D01*
X0021404Y0036252D01*
X0021344Y0036266D01*
X0021284Y0036275D01*
X0021223Y0036281D01*
X0021162Y0036283D01*
X0021357Y0036283D02*
X0020579Y0036283D01*
X0021357Y0036283D02*
X0021413Y0036285D01*
X0021468Y0036291D01*
X0021522Y0036301D01*
X0021576Y0036315D01*
X0021629Y0036332D01*
X0021680Y0036353D01*
X0021730Y0036378D01*
X0021778Y0036407D01*
X0021823Y0036438D01*
X0021866Y0036473D01*
X0021907Y0036511D01*
X0021945Y0036552D01*
X0021980Y0036595D01*
X0022011Y0036640D01*
X0022040Y0036688D01*
X0022065Y0036738D01*
X0022086Y0036789D01*
X0022103Y0036842D01*
X0022117Y0036896D01*
X0022127Y0036950D01*
X0022133Y0037005D01*
X0022135Y0037061D01*
X0022133Y0037117D01*
X0022127Y0037172D01*
X0022117Y0037226D01*
X0022103Y0037280D01*
X0022086Y0037333D01*
X0022065Y0037384D01*
X0022040Y0037434D01*
X0022011Y0037482D01*
X0021980Y0037527D01*
X0021945Y0037570D01*
X0021907Y0037611D01*
X0021866Y0037649D01*
X0021823Y0037684D01*
X0021778Y0037715D01*
X0021730Y0037744D01*
X0021680Y0037769D01*
X0021629Y0037790D01*
X0021576Y0037807D01*
X0021522Y0037821D01*
X0021468Y0037831D01*
X0021413Y0037837D01*
X0021357Y0037839D01*
X0020190Y0037839D01*
X0023596Y0037839D02*
X0024762Y0034339D01*
X0025929Y0037839D01*
X0027292Y0044423D02*
X0027292Y0056254D01*
X0020008Y0056254D01*
X0020008Y0044423D01*
X0027292Y0044423D01*
X0036485Y0041481D02*
X0036485Y0034197D01*
X0048315Y0034197D01*
X0048315Y0041481D01*
X0036485Y0041481D01*
X0039250Y0032297D02*
X0045550Y0032297D01*
X0045550Y0032101D01*
X0051258Y0032504D02*
X0051258Y0020673D01*
X0058542Y0020673D01*
X0058542Y0032504D01*
X0051258Y0032504D01*
X0045550Y0021077D02*
X0045550Y0020880D01*
X0039250Y0020880D01*
X0039250Y0021077D01*
X0039250Y0024620D02*
X0039250Y0028557D01*
X0039250Y0032101D02*
X0039250Y0032297D01*
X0018990Y0021589D02*
X0018990Y0018089D01*
X0003814Y0041752D02*
X0003650Y0041752D01*
X0003650Y0042251D02*
X0004312Y0042251D01*
X0004811Y0042750D02*
X0003650Y0042750D01*
X0003650Y0043248D02*
X0005309Y0043248D01*
X0005808Y0043747D02*
X0003650Y0043747D01*
X0003650Y0044245D02*
X0006306Y0044245D01*
X0006805Y0044744D02*
X0003650Y0044744D01*
X0003650Y0045242D02*
X0007303Y0045242D01*
X0003650Y0045339D02*
X0003650Y0145339D01*
X0007400Y0145339D01*
X0003650Y0141589D01*
X0003650Y0145339D01*
X0013650Y0145339D01*
X0013650Y0045339D01*
X0003650Y0045339D01*
X0022154Y0058095D02*
X0085146Y0058095D01*
X0085146Y0152583D01*
X0022154Y0152583D01*
X0022154Y0058095D01*
X0078900Y0031589D02*
X0080067Y0028089D01*
X0081233Y0031589D01*
X0082793Y0031589D02*
X0082793Y0028089D01*
X0083765Y0028089D01*
X0083811Y0028091D01*
X0083856Y0028096D01*
X0083901Y0028105D01*
X0083945Y0028118D01*
X0083988Y0028133D01*
X0084030Y0028153D01*
X0084070Y0028175D01*
X0084108Y0028200D01*
X0084144Y0028229D01*
X0084177Y0028260D01*
X0084208Y0028293D01*
X0084237Y0028329D01*
X0084262Y0028367D01*
X0084284Y0028407D01*
X0084304Y0028449D01*
X0084319Y0028492D01*
X0084332Y0028536D01*
X0084341Y0028581D01*
X0084346Y0028626D01*
X0084348Y0028672D01*
X0084348Y0029839D01*
X0084346Y0029885D01*
X0084341Y0029930D01*
X0084332Y0029975D01*
X0084319Y0030019D01*
X0084304Y0030062D01*
X0084284Y0030104D01*
X0084262Y0030144D01*
X0084237Y0030182D01*
X0084208Y0030218D01*
X0084177Y0030251D01*
X0084144Y0030282D01*
X0084108Y0030311D01*
X0084070Y0030336D01*
X0084030Y0030358D01*
X0083988Y0030378D01*
X0083945Y0030393D01*
X0083901Y0030406D01*
X0083856Y0030415D01*
X0083811Y0030420D01*
X0083765Y0030422D01*
X0082793Y0030422D01*
X0086060Y0030422D02*
X0086837Y0030422D01*
X0086883Y0030420D01*
X0086928Y0030415D01*
X0086973Y0030406D01*
X0087017Y0030393D01*
X0087060Y0030378D01*
X0087102Y0030358D01*
X0087142Y0030336D01*
X0087180Y0030311D01*
X0087216Y0030282D01*
X0087249Y0030251D01*
X0087280Y0030218D01*
X0087309Y0030182D01*
X0087334Y0030144D01*
X0087356Y0030104D01*
X0087376Y0030062D01*
X0087391Y0030019D01*
X0087404Y0029975D01*
X0087413Y0029930D01*
X0087418Y0029885D01*
X0087420Y0029839D01*
X0087421Y0029839D02*
X0087421Y0028089D01*
X0086546Y0028089D01*
X0086546Y0028088D02*
X0086495Y0028090D01*
X0086445Y0028096D01*
X0086394Y0028105D01*
X0086345Y0028118D01*
X0086297Y0028135D01*
X0086251Y0028155D01*
X0086206Y0028179D01*
X0086162Y0028206D01*
X0086121Y0028237D01*
X0086083Y0028270D01*
X0086047Y0028306D01*
X0086014Y0028344D01*
X0085983Y0028385D01*
X0085956Y0028429D01*
X0085932Y0028474D01*
X0085912Y0028520D01*
X0085895Y0028568D01*
X0085882Y0028617D01*
X0085873Y0028668D01*
X0085867Y0028718D01*
X0085865Y0028769D01*
X0085867Y0028820D01*
X0085873Y0028870D01*
X0085882Y0028921D01*
X0085895Y0028970D01*
X0085912Y0029018D01*
X0085932Y0029064D01*
X0085956Y0029110D01*
X0085983Y0029153D01*
X0086014Y0029194D01*
X0086047Y0029232D01*
X0086083Y0029268D01*
X0086121Y0029301D01*
X0086162Y0029332D01*
X0086206Y0029359D01*
X0086251Y0029383D01*
X0086297Y0029403D01*
X0086345Y0029420D01*
X0086394Y0029433D01*
X0086445Y0029442D01*
X0086495Y0029448D01*
X0086546Y0029450D01*
X0087421Y0029450D01*
X0088806Y0030422D02*
X0089973Y0030422D01*
X0091086Y0030422D02*
X0092253Y0030422D01*
X0091475Y0031589D02*
X0091475Y0028672D01*
X0091477Y0028626D01*
X0091482Y0028581D01*
X0091491Y0028536D01*
X0091504Y0028492D01*
X0091519Y0028449D01*
X0091539Y0028407D01*
X0091561Y0028367D01*
X0091586Y0028329D01*
X0091615Y0028293D01*
X0091646Y0028260D01*
X0091679Y0028229D01*
X0091715Y0028200D01*
X0091753Y0028175D01*
X0091793Y0028153D01*
X0091835Y0028133D01*
X0091878Y0028118D01*
X0091922Y0028105D01*
X0091967Y0028096D01*
X0092012Y0028091D01*
X0092058Y0028089D01*
X0092253Y0028089D01*
X0089973Y0028089D02*
X0089778Y0028089D01*
X0089732Y0028091D01*
X0089687Y0028096D01*
X0089642Y0028105D01*
X0089598Y0028118D01*
X0089555Y0028133D01*
X0089513Y0028153D01*
X0089473Y0028175D01*
X0089435Y0028200D01*
X0089399Y0028229D01*
X0089366Y0028260D01*
X0089335Y0028293D01*
X0089306Y0028329D01*
X0089281Y0028367D01*
X0089259Y0028407D01*
X0089239Y0028449D01*
X0089224Y0028492D01*
X0089211Y0028536D01*
X0089202Y0028581D01*
X0089197Y0028626D01*
X0089195Y0028672D01*
X0089195Y0031589D01*
X0087412Y0038089D02*
X0086440Y0038089D01*
X0087412Y0038089D02*
X0087473Y0038091D01*
X0087534Y0038097D01*
X0087594Y0038106D01*
X0087654Y0038120D01*
X0087712Y0038137D01*
X0087770Y0038157D01*
X0087826Y0038182D01*
X0087880Y0038209D01*
X0087933Y0038240D01*
X0087983Y0038275D01*
X0088032Y0038312D01*
X0088077Y0038352D01*
X0088121Y0038396D01*
X0088161Y0038441D01*
X0088198Y0038490D01*
X0088233Y0038540D01*
X0088264Y0038593D01*
X0088291Y0038647D01*
X0088316Y0038703D01*
X0088336Y0038761D01*
X0088353Y0038819D01*
X0088367Y0038879D01*
X0088376Y0038939D01*
X0088382Y0039000D01*
X0088384Y0039061D01*
X0088382Y0039122D01*
X0088376Y0039183D01*
X0088367Y0039243D01*
X0088353Y0039303D01*
X0088336Y0039361D01*
X0088316Y0039419D01*
X0088291Y0039475D01*
X0088264Y0039529D01*
X0088233Y0039582D01*
X0088198Y0039632D01*
X0088161Y0039681D01*
X0088121Y0039726D01*
X0088077Y0039770D01*
X0088032Y0039810D01*
X0087983Y0039847D01*
X0087933Y0039882D01*
X0087880Y0039913D01*
X0087826Y0039940D01*
X0087770Y0039965D01*
X0087712Y0039985D01*
X0087654Y0040002D01*
X0087594Y0040016D01*
X0087534Y0040025D01*
X0087473Y0040031D01*
X0087412Y0040033D01*
X0087607Y0040033D02*
X0086829Y0040033D01*
X0087607Y0040033D02*
X0087663Y0040035D01*
X0087718Y0040041D01*
X0087772Y0040051D01*
X0087826Y0040065D01*
X0087879Y0040082D01*
X0087930Y0040103D01*
X0087980Y0040128D01*
X0088028Y0040157D01*
X0088073Y0040188D01*
X0088116Y0040223D01*
X0088157Y0040261D01*
X0088195Y0040302D01*
X0088230Y0040345D01*
X0088261Y0040390D01*
X0088290Y0040438D01*
X0088315Y0040488D01*
X0088336Y0040539D01*
X0088353Y0040592D01*
X0088367Y0040646D01*
X0088377Y0040700D01*
X0088383Y0040755D01*
X0088385Y0040811D01*
X0088383Y0040867D01*
X0088377Y0040922D01*
X0088367Y0040976D01*
X0088353Y0041030D01*
X0088336Y0041083D01*
X0088315Y0041134D01*
X0088290Y0041184D01*
X0088261Y0041232D01*
X0088230Y0041277D01*
X0088195Y0041320D01*
X0088157Y0041361D01*
X0088116Y0041399D01*
X0088073Y0041434D01*
X0088028Y0041465D01*
X0087980Y0041494D01*
X0087930Y0041519D01*
X0087879Y0041540D01*
X0087826Y0041557D01*
X0087772Y0041571D01*
X0087718Y0041581D01*
X0087663Y0041587D01*
X0087607Y0041589D01*
X0086440Y0041589D01*
X0089846Y0041589D02*
X0091012Y0038089D01*
X0092179Y0041589D01*
X0093650Y0041589D02*
X0093650Y0045339D01*
X0097400Y0045339D01*
X0093650Y0041589D01*
X0093650Y0041752D02*
X0093814Y0041752D01*
X0093650Y0042251D02*
X0094312Y0042251D01*
X0094811Y0042750D02*
X0093650Y0042750D01*
X0093650Y0043248D02*
X0095309Y0043248D01*
X0095808Y0043747D02*
X0093650Y0043747D01*
X0093650Y0044245D02*
X0096306Y0044245D01*
X0096805Y0044744D02*
X0093650Y0044744D01*
X0093650Y0045242D02*
X0097303Y0045242D01*
X0093650Y0045339D02*
X0103650Y0045339D01*
X0103650Y0015339D01*
X0093650Y0015339D01*
X0093650Y0045339D01*
X0093650Y0145339D01*
X0097400Y0145339D01*
X0093650Y0141589D01*
X0093650Y0145339D01*
X0103650Y0145339D01*
X0103650Y0045339D01*
X0093650Y0045339D01*
X0084989Y0038283D02*
X0084989Y0038089D01*
X0084795Y0038089D01*
X0084795Y0038283D01*
X0084989Y0038283D01*
X0082567Y0040033D02*
X0081789Y0040033D01*
X0082567Y0040033D02*
X0082623Y0040035D01*
X0082678Y0040041D01*
X0082732Y0040051D01*
X0082786Y0040065D01*
X0082839Y0040082D01*
X0082890Y0040103D01*
X0082940Y0040128D01*
X0082988Y0040157D01*
X0083033Y0040188D01*
X0083076Y0040223D01*
X0083117Y0040261D01*
X0083155Y0040302D01*
X0083190Y0040345D01*
X0083221Y0040390D01*
X0083250Y0040438D01*
X0083275Y0040488D01*
X0083296Y0040539D01*
X0083313Y0040592D01*
X0083327Y0040646D01*
X0083337Y0040700D01*
X0083343Y0040755D01*
X0083345Y0040811D01*
X0083343Y0040867D01*
X0083337Y0040922D01*
X0083327Y0040976D01*
X0083313Y0041030D01*
X0083296Y0041083D01*
X0083275Y0041134D01*
X0083250Y0041184D01*
X0083221Y0041232D01*
X0083190Y0041277D01*
X0083155Y0041320D01*
X0083117Y0041361D01*
X0083076Y0041399D01*
X0083033Y0041434D01*
X0082988Y0041465D01*
X0082940Y0041494D01*
X0082890Y0041519D01*
X0082839Y0041540D01*
X0082786Y0041557D01*
X0082732Y0041571D01*
X0082678Y0041581D01*
X0082623Y0041587D01*
X0082567Y0041589D01*
X0081400Y0041589D01*
X0082372Y0040033D02*
X0082433Y0040031D01*
X0082494Y0040025D01*
X0082554Y0040016D01*
X0082614Y0040002D01*
X0082672Y0039985D01*
X0082730Y0039965D01*
X0082786Y0039940D01*
X0082840Y0039913D01*
X0082893Y0039882D01*
X0082943Y0039847D01*
X0082992Y0039810D01*
X0083037Y0039770D01*
X0083081Y0039726D01*
X0083121Y0039681D01*
X0083158Y0039632D01*
X0083193Y0039582D01*
X0083224Y0039529D01*
X0083251Y0039475D01*
X0083276Y0039419D01*
X0083296Y0039361D01*
X0083313Y0039303D01*
X0083327Y0039243D01*
X0083336Y0039183D01*
X0083342Y0039122D01*
X0083344Y0039061D01*
X0083342Y0039000D01*
X0083336Y0038939D01*
X0083327Y0038879D01*
X0083313Y0038819D01*
X0083296Y0038761D01*
X0083276Y0038703D01*
X0083251Y0038647D01*
X0083224Y0038593D01*
X0083193Y0038540D01*
X0083158Y0038490D01*
X0083121Y0038441D01*
X0083081Y0038396D01*
X0083037Y0038352D01*
X0082992Y0038312D01*
X0082943Y0038275D01*
X0082893Y0038240D01*
X0082840Y0038209D01*
X0082786Y0038182D01*
X0082730Y0038157D01*
X0082672Y0038137D01*
X0082614Y0038120D01*
X0082554Y0038106D01*
X0082494Y0038097D01*
X0082433Y0038091D01*
X0082372Y0038089D01*
X0081400Y0038089D01*
X0083428Y0021589D02*
X0084594Y0021589D01*
X0083428Y0021589D02*
X0083372Y0021587D01*
X0083317Y0021581D01*
X0083263Y0021571D01*
X0083209Y0021557D01*
X0083156Y0021540D01*
X0083105Y0021519D01*
X0083055Y0021494D01*
X0083007Y0021465D01*
X0082962Y0021434D01*
X0082919Y0021399D01*
X0082878Y0021361D01*
X0082840Y0021320D01*
X0082805Y0021277D01*
X0082774Y0021232D01*
X0082745Y0021184D01*
X0082720Y0021134D01*
X0082699Y0021083D01*
X0082682Y0021030D01*
X0082668Y0020976D01*
X0082658Y0020922D01*
X0082652Y0020867D01*
X0082650Y0020811D01*
X0082650Y0018867D01*
X0082652Y0018811D01*
X0082658Y0018756D01*
X0082668Y0018702D01*
X0082682Y0018648D01*
X0082699Y0018595D01*
X0082720Y0018544D01*
X0082745Y0018494D01*
X0082774Y0018446D01*
X0082805Y0018401D01*
X0082840Y0018358D01*
X0082878Y0018317D01*
X0082919Y0018279D01*
X0082962Y0018244D01*
X0083007Y0018213D01*
X0083055Y0018184D01*
X0083105Y0018159D01*
X0083156Y0018138D01*
X0083209Y0018121D01*
X0083263Y0018107D01*
X0083317Y0018097D01*
X0083372Y0018091D01*
X0083428Y0018089D01*
X0084594Y0018089D01*
X0084594Y0020033D01*
X0084011Y0020033D01*
X0086490Y0021589D02*
X0086490Y0018089D01*
X0088434Y0018089D02*
X0088434Y0021589D01*
X0086490Y0021589D02*
X0088434Y0018089D01*
X0090330Y0018089D02*
X0091302Y0018089D01*
X0090330Y0018089D02*
X0090330Y0021589D01*
X0091302Y0021589D01*
X0091363Y0021587D01*
X0091424Y0021581D01*
X0091484Y0021572D01*
X0091544Y0021558D01*
X0091602Y0021541D01*
X0091660Y0021521D01*
X0091716Y0021496D01*
X0091770Y0021469D01*
X0091823Y0021438D01*
X0091873Y0021403D01*
X0091922Y0021366D01*
X0091967Y0021326D01*
X0092011Y0021282D01*
X0092051Y0021237D01*
X0092088Y0021188D01*
X0092123Y0021138D01*
X0092154Y0021085D01*
X0092181Y0021031D01*
X0092206Y0020975D01*
X0092226Y0020917D01*
X0092243Y0020859D01*
X0092257Y0020799D01*
X0092266Y0020739D01*
X0092272Y0020678D01*
X0092274Y0020617D01*
X0092274Y0019061D01*
X0092272Y0019000D01*
X0092266Y0018939D01*
X0092257Y0018879D01*
X0092243Y0018819D01*
X0092226Y0018761D01*
X0092206Y0018703D01*
X0092181Y0018647D01*
X0092154Y0018593D01*
X0092123Y0018540D01*
X0092088Y0018490D01*
X0092051Y0018441D01*
X0092011Y0018396D01*
X0091967Y0018352D01*
X0091922Y0018312D01*
X0091873Y0018275D01*
X0091823Y0018240D01*
X0091770Y0018209D01*
X0091716Y0018182D01*
X0091660Y0018157D01*
X0091602Y0018137D01*
X0091544Y0018120D01*
X0091484Y0018106D01*
X0091424Y0018097D01*
X0091363Y0018091D01*
X0091302Y0018089D01*
X0093650Y0141953D02*
X0094014Y0141953D01*
X0093650Y0142452D02*
X0094513Y0142452D01*
X0095011Y0142950D02*
X0093650Y0142950D01*
X0093650Y0143449D02*
X0095510Y0143449D01*
X0096008Y0143947D02*
X0093650Y0143947D01*
X0093650Y0144446D02*
X0096507Y0144446D01*
X0097005Y0144944D02*
X0093650Y0144944D01*
X0007005Y0144944D02*
X0003650Y0144944D01*
X0003650Y0144446D02*
X0006507Y0144446D01*
X0006008Y0143947D02*
X0003650Y0143947D01*
X0003650Y0143449D02*
X0005510Y0143449D01*
X0005011Y0142950D02*
X0003650Y0142950D01*
X0003650Y0142452D02*
X0004513Y0142452D01*
X0004014Y0141953D02*
X0003650Y0141953D01*
D11*
X0040200Y0107539D02*
X0040200Y0103139D01*
X0042156Y0103139D01*
X0041667Y0105583D02*
X0040200Y0105583D01*
X0040200Y0107539D02*
X0042156Y0107539D01*
X0044400Y0105705D02*
X0045744Y0104972D01*
X0045256Y0103138D02*
X0045165Y0103140D01*
X0045075Y0103146D01*
X0044985Y0103156D01*
X0044895Y0103170D01*
X0044806Y0103187D01*
X0044718Y0103209D01*
X0044632Y0103235D01*
X0044546Y0103264D01*
X0044461Y0103297D01*
X0044379Y0103334D01*
X0044297Y0103374D01*
X0044218Y0103418D01*
X0044141Y0103465D01*
X0044065Y0103515D01*
X0043993Y0103569D01*
X0043922Y0103626D01*
X0043854Y0103686D01*
X0043789Y0103749D01*
X0045744Y0104973D02*
X0045795Y0104940D01*
X0045845Y0104905D01*
X0045892Y0104866D01*
X0045936Y0104825D01*
X0045978Y0104781D01*
X0046017Y0104735D01*
X0046053Y0104686D01*
X0046087Y0104636D01*
X0046117Y0104583D01*
X0046144Y0104529D01*
X0046167Y0104473D01*
X0046187Y0104416D01*
X0046204Y0104357D01*
X0046216Y0104298D01*
X0046226Y0104238D01*
X0046231Y0104178D01*
X0046233Y0104117D01*
X0046234Y0104117D02*
X0046232Y0104056D01*
X0046226Y0103994D01*
X0046217Y0103934D01*
X0046203Y0103874D01*
X0046186Y0103815D01*
X0046165Y0103757D01*
X0046141Y0103701D01*
X0046113Y0103646D01*
X0046082Y0103593D01*
X0046047Y0103542D01*
X0046010Y0103494D01*
X0045969Y0103448D01*
X0045925Y0103404D01*
X0045879Y0103363D01*
X0045831Y0103326D01*
X0045780Y0103291D01*
X0045727Y0103260D01*
X0045672Y0103232D01*
X0045616Y0103208D01*
X0045558Y0103187D01*
X0045499Y0103170D01*
X0045439Y0103156D01*
X0045379Y0103147D01*
X0045317Y0103141D01*
X0045256Y0103139D01*
X0045989Y0107171D02*
X0045920Y0107220D01*
X0045850Y0107266D01*
X0045777Y0107309D01*
X0045702Y0107348D01*
X0045626Y0107383D01*
X0045548Y0107415D01*
X0045469Y0107444D01*
X0045388Y0107469D01*
X0045307Y0107490D01*
X0045224Y0107507D01*
X0045141Y0107521D01*
X0045057Y0107530D01*
X0044973Y0107536D01*
X0044889Y0107538D01*
X0044889Y0107539D02*
X0044828Y0107537D01*
X0044766Y0107531D01*
X0044706Y0107522D01*
X0044646Y0107508D01*
X0044587Y0107491D01*
X0044529Y0107470D01*
X0044473Y0107446D01*
X0044418Y0107418D01*
X0044365Y0107387D01*
X0044314Y0107352D01*
X0044266Y0107315D01*
X0044220Y0107274D01*
X0044176Y0107230D01*
X0044135Y0107184D01*
X0044098Y0107136D01*
X0044063Y0107085D01*
X0044032Y0107032D01*
X0044004Y0106977D01*
X0043980Y0106921D01*
X0043959Y0106863D01*
X0043942Y0106804D01*
X0043928Y0106744D01*
X0043919Y0106684D01*
X0043913Y0106622D01*
X0043911Y0106561D01*
X0043913Y0106500D01*
X0043918Y0106440D01*
X0043928Y0106380D01*
X0043940Y0106321D01*
X0043957Y0106262D01*
X0043977Y0106205D01*
X0044000Y0106149D01*
X0044027Y0106095D01*
X0044057Y0106042D01*
X0044091Y0105992D01*
X0044127Y0105943D01*
X0044166Y0105897D01*
X0044208Y0105853D01*
X0044252Y0105812D01*
X0044299Y0105773D01*
X0044349Y0105738D01*
X0044400Y0105705D01*
X0048372Y0105094D02*
X0049594Y0105094D01*
X0049594Y0105095D02*
X0049663Y0105097D01*
X0049731Y0105103D01*
X0049799Y0105112D01*
X0049866Y0105126D01*
X0049932Y0105143D01*
X0049998Y0105164D01*
X0050062Y0105188D01*
X0050124Y0105216D01*
X0050185Y0105247D01*
X0050244Y0105282D01*
X0050301Y0105320D01*
X0050356Y0105362D01*
X0050408Y0105406D01*
X0050458Y0105453D01*
X0050505Y0105503D01*
X0050549Y0105555D01*
X0050591Y0105610D01*
X0050629Y0105667D01*
X0050664Y0105726D01*
X0050695Y0105787D01*
X0050723Y0105849D01*
X0050747Y0105913D01*
X0050768Y0105979D01*
X0050785Y0106045D01*
X0050799Y0106112D01*
X0050808Y0106180D01*
X0050814Y0106248D01*
X0050816Y0106317D01*
X0050814Y0106386D01*
X0050808Y0106454D01*
X0050799Y0106522D01*
X0050785Y0106589D01*
X0050768Y0106655D01*
X0050747Y0106721D01*
X0050723Y0106785D01*
X0050695Y0106847D01*
X0050664Y0106908D01*
X0050629Y0106967D01*
X0050591Y0107024D01*
X0050549Y0107079D01*
X0050505Y0107131D01*
X0050458Y0107181D01*
X0050408Y0107228D01*
X0050356Y0107272D01*
X0050301Y0107314D01*
X0050244Y0107352D01*
X0050185Y0107387D01*
X0050124Y0107418D01*
X0050062Y0107446D01*
X0049998Y0107470D01*
X0049932Y0107491D01*
X0049866Y0107508D01*
X0049799Y0107522D01*
X0049731Y0107531D01*
X0049663Y0107537D01*
X0049594Y0107539D01*
X0048372Y0107539D01*
X0048372Y0103139D01*
X0052694Y0104850D02*
X0055628Y0104850D01*
X0057739Y0106561D02*
X0058961Y0107539D01*
X0058961Y0103139D01*
X0057739Y0103139D02*
X0060183Y0103139D01*
X0062239Y0103139D02*
X0064683Y0103139D01*
X0062239Y0103139D02*
X0064317Y0105583D01*
X0063583Y0107539D02*
X0063509Y0107537D01*
X0063435Y0107531D01*
X0063362Y0107522D01*
X0063289Y0107508D01*
X0063217Y0107491D01*
X0063146Y0107470D01*
X0063076Y0107445D01*
X0063008Y0107417D01*
X0062941Y0107385D01*
X0062876Y0107349D01*
X0062813Y0107311D01*
X0062752Y0107269D01*
X0062693Y0107224D01*
X0062637Y0107176D01*
X0062583Y0107125D01*
X0062532Y0107071D01*
X0062484Y0107014D01*
X0062439Y0106956D01*
X0062397Y0106895D01*
X0062359Y0106832D01*
X0062323Y0106766D01*
X0062292Y0106700D01*
X0062263Y0106631D01*
X0062239Y0106561D01*
X0064316Y0105584D02*
X0064365Y0105632D01*
X0064410Y0105684D01*
X0064452Y0105737D01*
X0064491Y0105793D01*
X0064527Y0105852D01*
X0064559Y0105912D01*
X0064588Y0105974D01*
X0064613Y0106037D01*
X0064634Y0106102D01*
X0064652Y0106168D01*
X0064665Y0106235D01*
X0064675Y0106303D01*
X0064681Y0106371D01*
X0064683Y0106439D01*
X0064681Y0106503D01*
X0064676Y0106567D01*
X0064666Y0106630D01*
X0064653Y0106693D01*
X0064637Y0106754D01*
X0064617Y0106815D01*
X0064593Y0106875D01*
X0064566Y0106933D01*
X0064536Y0106989D01*
X0064502Y0107043D01*
X0064465Y0107096D01*
X0064426Y0107146D01*
X0064383Y0107194D01*
X0064338Y0107239D01*
X0064290Y0107282D01*
X0064240Y0107321D01*
X0064187Y0107358D01*
X0064133Y0107392D01*
X0064077Y0107422D01*
X0064019Y0107449D01*
X0063959Y0107473D01*
X0063898Y0107493D01*
X0063837Y0107509D01*
X0063774Y0107522D01*
X0063711Y0107532D01*
X0063647Y0107537D01*
X0063583Y0107539D01*
X0066533Y0106072D02*
X0068489Y0103139D01*
X0066533Y0103139D02*
X0068489Y0106072D01*
M02*
